<?xml version="1.0" encoding="utf-8"?>
<!-- Generator: Adobe Illustrator 21.1.0, SVG Export Plug-In . SVG Version: 6.00 Build 0)  -->
<svg version="1.1" id="Layer_1" xmlns="http://www.w3.org/2000/svg" xmlns:xlink="http://www.w3.org/1999/xlink" x="0px" y="0px"
	 viewBox="0 0 138 138" style="enable-background:new 0 0 138 138;" xml:space="preserve">
<style type="text/css">
	.st0{fill:none;}
	.st1{fill:#5B5B5B;}
	.st2{fill:#EDB66E;}
	.st3{fill:#BC9366;}
	.st4{fill:#2AA987;}
	.st5{fill:#FFFFFF;}
</style>
<g>
	<path class="st0" d="M69,4C33.2,4,4,33.2,4,69s29.2,65,65,65c35.8,0,65-29.2,65-65S104.8,4,69,4z M112.4,66.6v25
		c0,0.8-0.5,1.5-1.2,1.7l-35.5,12.6c0,0,0,0,0,0c0,0-0.1,0-0.1,0c0,0,0,0,0,0c0,0-0.1,0-0.1,0c0,0,0,0-0.1,0c0,0-0.1,0-0.1,0
		c0,0,0,0-0.1,0c0,0-0.1,0-0.1,0c0,0,0,0,0,0h0c0,0,0,0,0,0c-0.1,0-0.1,0-0.2,0c0,0,0,0,0,0c-0.1,0-0.1,0-0.2,0c0,0,0,0,0,0
		L20.6,93.4c-0.8-0.2-1.4-0.9-1.4-1.8V46.4c0,0,0,0,0,0c0-0.1,0-0.1,0-0.2c0,0,0,0,0,0c0-0.1,0-0.1,0-0.2c0,0,0,0,0,0
		c0-0.1,0-0.1,0-0.2c0,0,0,0,0,0c0-0.1,0-0.1,0.1-0.2c0,0,0,0,0,0c0,0,0-0.1,0.1-0.1c0,0,0,0,0,0c0-0.1,0.1-0.1,0.1-0.1c0,0,0,0,0,0
		c0,0,0.1-0.1,0.1-0.1c0,0,0,0,0,0c0,0,0.1-0.1,0.1-0.1c0,0,0,0,0,0c0,0,0,0,0,0c0,0,0.1-0.1,0.2-0.1c0,0,0,0,0,0c0,0,0.1,0,0.1-0.1
		c0,0,0,0,0,0c0.1,0,0.1,0,0.2-0.1l0,0c0,0,0,0,0,0l35.5-12.6c0.3-0.1,0.7-0.1,1-0.1l18,4.2c0,0,0,0,0,0l9.5,2.2c3.7-4.9,9.5-8,16-8
		c11.1,0,20.1,9,20.1,20.1C120.5,57.1,117.3,63,112.4,66.6z"/>
	<path class="st1" d="M117.8,20.2C104.8,7.2,87.4,0,69,0S33.2,7.2,20.2,20.2C7.2,33.2,0,50.6,0,69c0,18.4,7.2,35.8,20.2,48.8
		c13,13,30.4,20.2,48.8,20.2s35.8-7.2,48.8-20.2c13-13,20.2-30.4,20.2-48.8C138,50.6,130.8,33.2,117.8,20.2z M69,134
		c-35.8,0-65-29.2-65-65S33.2,4,69,4c35.8,0,65,29.2,65,65S104.8,134,69,134z"/>
	<path class="st2" d="M53.3,70.8C53.3,70.8,53.3,70.8,53.3,70.8c0,0,0,0.1,0,0.1c0,0,0,0,0,0.1c0,0,0,0,0,0.1c0,0.1,0,0.2-0.1,0.2
		c0,0,0,0,0,0c0,0,0,0.1,0,0.1c0,0,0,0,0,0.1c0,0,0,0.1,0,0.1c0,0,0,0.1,0,0.1c0,0,0,0,0,0.1c0,0,0,0.1-0.1,0.1c0,0,0,0,0,0
		c0,0.1-0.1,0.1-0.2,0.2c0,0,0,0,0,0c0,0,0,0,0,0c0,0-0.1,0.1-0.1,0.1c0,0,0,0,0,0c0,0-0.1,0.1-0.1,0.1c0,0,0,0,0,0
		c0,0-0.1,0.1-0.1,0.1c0,0,0,0,0,0c0,0-0.1,0-0.1,0.1c0,0,0,0-0.1,0c0,0-0.1,0-0.1,0c0,0,0,0-0.1,0c0,0-0.1,0-0.1,0c0,0,0,0-0.1,0
		c0,0-0.1,0-0.1,0c0,0,0,0-0.1,0c-0.1,0-0.1,0-0.2,0c0,0,0,0,0,0h0c-0.1,0-0.1,0-0.2,0c0,0,0,0,0,0c-0.1,0-0.1,0-0.2,0c0,0,0,0,0,0
		c0,0-0.1,0-0.1,0c0,0,0,0-0.1,0c0,0-0.1,0-0.1,0c0,0,0,0-0.1,0c0,0-0.1,0-0.1-0.1c0,0,0,0-0.1,0c0,0-0.1,0-0.1-0.1c0,0,0,0-0.1,0
		c0,0-0.1-0.1-0.1-0.1c0,0,0,0,0,0c0,0-0.1-0.1-0.1-0.1c0,0,0,0,0,0l-2.6-3.2l-2.2,1.8c-0.4,0.3-1,0.5-1.5,0.4
		c-0.5-0.1-1-0.4-1.2-0.9l-1.1-1.9l-1.2,1.1c-0.5,0.5-1.3,0.6-2,0.3c-0.7-0.3-1.1-0.9-1.1-1.7V52l-14.3-3.3v41.4l50.5,11.7V60.4
		l-20-4.6V70.8z M39.1,88.3c-0.2,0.8-0.9,1.4-1.8,1.4c-0.1,0-0.3,0-0.4,0l-9.1-2.1c-1-0.2-1.6-1.2-1.4-2.2c0.2-1,1.2-1.6,2.2-1.4
		l9.1,2.1C38.7,86.4,39.4,87.3,39.1,88.3z M44.3,89.5c-0.2,0.8-0.9,1.4-1.8,1.4c-0.1,0-0.3,0-0.4,0l0,0c-1-0.2-1.6-1.2-1.4-2.2
		c0.2-1,1.2-1.6,2.2-1.4l0,0C43.9,87.5,44.5,88.5,44.3,89.5z"/>
	<path class="st2" d="M76.9,101.6l31.8-11.3V68.8c-2.5,1.2-5.4,1.8-8.3,1.8c-8.3,0-15.4-5-18.4-12.1l-5.1,1.8V101.6z"/>
	<path class="st2" d="M75,57.1l5.9-2.1c-0.3-1.4-0.5-2.9-0.5-4.5c0-1.9,0.3-3.8,0.8-5.6L58,53.1L75,57.1z"/>
	<polygon class="st2" points="38.9,48.7 68,38.4 56.6,35.7 27.5,46 	"/>
	<polygon class="st3" points="74.6,39.9 45.5,50.2 51.4,51.6 80.5,41.3 	"/>
	<path class="st3" d="M43.5,64.3l1.1,2l2-1.6c0.8-0.6,1.9-0.5,2.6,0.3l0.5,0.7V54.9l-8.9-2.1v10.8c0.4-0.3,0.9-0.4,1.4-0.3
		C42.7,63.5,43.2,63.8,43.5,64.3z"/>
	<path class="st1" d="M108.8,68.8v21.5l-31.8,11.3V60.3l5.1-1.8c-0.5-1.1-0.9-2.3-1.1-3.5L75,57.1l-17-4l23.2-8.2
		c0.7-2.4,1.8-4.5,3.2-6.5l-9.5-2.2c0,0,0,0,0,0l-18-4.2c-0.3-0.1-0.7-0.1-1,0.1L20.4,44.7c0,0,0,0,0,0l0,0c-0.1,0-0.1,0-0.2,0.1
		c0,0,0,0,0,0c0,0-0.1,0-0.1,0.1c0,0,0,0,0,0c-0.1,0-0.1,0.1-0.2,0.1c0,0,0,0,0,0c0,0,0,0,0,0c0,0-0.1,0.1-0.1,0.1c0,0,0,0,0,0
		c0,0-0.1,0.1-0.1,0.1c0,0,0,0,0,0c0,0-0.1,0.1-0.1,0.1c0,0,0,0,0,0c0,0,0,0.1-0.1,0.1c0,0,0,0,0,0c0,0.1,0,0.1-0.1,0.2c0,0,0,0,0,0
		c0,0,0,0.1,0,0.2c0,0,0,0,0,0c0,0.1,0,0.1,0,0.2c0,0,0,0,0,0c0,0.1,0,0.1,0,0.2c0,0,0,0,0,0v45.2c0,0.8,0.6,1.6,1.4,1.8l54.1,12.6
		c0,0,0,0,0,0c0.1,0,0.1,0,0.2,0c0,0,0,0,0,0c0.1,0,0.1,0,0.2,0c0,0,0,0,0,0h0c0,0,0,0,0,0c0,0,0.1,0,0.1,0c0,0,0,0,0.1,0
		c0,0,0.1,0,0.1,0c0,0,0,0,0.1,0c0,0,0.1,0,0.1,0c0,0,0,0,0,0c0,0,0.1,0,0.1,0c0,0,0,0,0,0l35.5-12.6c0.7-0.3,1.2-0.9,1.2-1.7v-25
		C111.3,67.5,110.1,68.2,108.8,68.8z M73.3,101.9L22.8,90.1V48.7L37.2,52v15.8c0,0.7,0.4,1.4,1.1,1.7c0.7,0.3,1.4,0.2,2-0.3l1.2-1.1
		l1.1,1.9c0.3,0.5,0.7,0.8,1.2,0.9c0.5,0.1,1.1,0,1.5-0.4l2.2-1.8l2.6,3.2c0,0,0,0,0,0c0,0.1,0.1,0.1,0.1,0.1c0,0,0,0,0,0
		c0,0,0.1,0.1,0.1,0.1c0,0,0,0,0.1,0c0,0,0.1,0,0.1,0.1c0,0,0,0,0.1,0c0,0,0.1,0,0.1,0.1c0,0,0,0,0.1,0c0,0,0.1,0,0.1,0
		c0,0,0,0,0.1,0c0,0,0.1,0,0.1,0c0,0,0,0,0,0c0.1,0,0.1,0,0.2,0c0,0,0,0,0,0c0.1,0,0.1,0,0.2,0h0c0,0,0,0,0,0c0.1,0,0.1,0,0.2,0
		c0,0,0,0,0.1,0c0,0,0.1,0,0.1,0c0,0,0,0,0.1,0c0,0,0.1,0,0.1,0c0,0,0,0,0.1,0c0,0,0.1,0,0.1,0c0,0,0,0,0.1,0c0,0,0.1,0,0.1-0.1
		c0,0,0,0,0,0c0,0,0.1-0.1,0.1-0.1c0,0,0,0,0,0c0,0,0.1,0,0.1-0.1c0,0,0,0,0,0c0,0,0.1-0.1,0.1-0.1c0,0,0,0,0,0c0,0,0,0,0,0
		c0.1-0.1,0.1-0.1,0.2-0.2c0,0,0,0,0,0c0,0,0-0.1,0.1-0.1c0,0,0,0,0-0.1c0,0,0-0.1,0-0.1c0,0,0-0.1,0-0.1c0,0,0,0,0-0.1
		c0,0,0-0.1,0-0.1c0,0,0,0,0,0c0-0.1,0-0.2,0.1-0.2c0,0,0,0,0-0.1c0,0,0,0,0-0.1c0,0,0-0.1,0-0.1c0,0,0,0,0,0v-15l20,4.6V101.9z
		 M68,38.4L38.9,48.7L27.5,46l29.1-10.3L68,38.4z M40.8,63.7V52.9l8.9,2.1v10.7L49.1,65c-0.6-0.8-1.8-0.9-2.6-0.3l-2,1.6l-1.1-2
		c-0.3-0.5-0.8-0.8-1.3-0.9C41.7,63.3,41.2,63.4,40.8,63.7z M45.5,50.2l29.1-10.3l5.9,1.4L51.4,51.6L45.5,50.2z"/>
	<path class="st1" d="M37.8,86.1L28.7,84c-1-0.2-2,0.4-2.2,1.4c-0.2,1,0.4,2,1.4,2.2l9.1,2.1c0.1,0,0.3,0,0.4,0
		c0.8,0,1.6-0.6,1.8-1.4C39.4,87.3,38.7,86.4,37.8,86.1z"/>
	<path class="st1" d="M42.9,87.3L42.9,87.3c-1-0.2-2,0.4-2.2,1.4c-0.2,1,0.4,2,1.4,2.2l0,0c0.1,0,0.3,0,0.4,0c0.8,0,1.6-0.6,1.8-1.4
		C44.5,88.5,43.9,87.5,42.9,87.3z"/>
	<path class="st4" d="M117.1,50.5c0-9.2-7.5-16.6-16.6-16.6s-16.6,7.5-16.6,16.6c0,9.2,7.5,16.6,16.6,16.6S117.1,59.7,117.1,50.5z
		 M89.3,52.2c-0.5-0.5-0.8-1.2-0.8-1.9c0-0.7,0.4-1.3,0.9-1.7c0.8-0.6,2-0.6,2.8,0c0.1,0.1,0.3,0.2,0.4,0.4c1.5,1.5,3,3,4.6,4.6
		c2.2-2.2,4.3-4.3,6.5-6.5l4.5-4.5c0.5-0.5,0.9-0.7,1.5-0.8c0.6-0.1,1.2,0.1,1.7,0.5c0.5,0.4,0.8,0.9,0.9,1.5c0,0,0,0,0,0.1
		c0,0,0,0.1,0,0.1l0,0.1l0,0.3l-0.1,0.3c-0.1,0.4-0.3,0.8-0.7,1.2l-3.1,3.1c-3.2,3.2-6.4,6.4-9.5,9.5c-0.5,0.5-1.1,0.8-1.7,0.8
		c-0.6,0-1.2-0.3-1.7-0.8C93.4,56.4,91.3,54.3,89.3,52.2z"/>
	<path class="st1" d="M100.4,30.4c-6.6,0-12.4,3.2-16,8c-1.4,1.9-2.5,4.1-3.2,6.5c-0.5,1.8-0.8,3.7-0.8,5.6c0,1.5,0.2,3,0.5,4.5
		c0.3,1.2,0.7,2.4,1.1,3.5c3.1,7.1,10.2,12.1,18.4,12.1c3,0,5.8-0.7,8.3-1.8c1.3-0.6,2.5-1.3,3.6-2.2c4.9-3.7,8.1-9.5,8.1-16.1
		C120.5,39.4,111.5,30.4,100.4,30.4z M83.8,50.5c0-9.2,7.5-16.6,16.6-16.6s16.6,7.5,16.6,16.6c0,9.2-7.5,16.6-16.6,16.6
		S83.8,59.7,83.8,50.5z"/>
	<path class="st5" d="M95.5,58.5c0.5,0.5,1.1,0.8,1.7,0.8c0.6,0,1.2-0.3,1.7-0.8c3.2-3.2,6.4-6.4,9.5-9.5l3.1-3.1
		c0.4-0.4,0.6-0.8,0.7-1.2l0.1-0.3l0-0.3l0-0.1c0,0,0-0.1,0-0.1c0,0,0,0,0-0.1c-0.1-0.6-0.4-1.1-0.9-1.5c-0.5-0.4-1.1-0.6-1.7-0.5
		c-0.6,0.1-1.1,0.3-1.5,0.8l-4.5,4.5c-2.2,2.2-4.3,4.3-6.5,6.5c-1.5-1.5-3-3-4.6-4.6c-0.1-0.1-0.3-0.3-0.4-0.4c-0.8-0.6-2-0.6-2.8,0
		c-0.6,0.4-0.9,1.1-0.9,1.7c0,0.7,0.2,1.4,0.8,1.9C91.3,54.3,93.4,56.4,95.5,58.5z"/>
</g>
</svg>
