<?xml version="1.0" encoding="utf-8"?>
<!-- Generator: Adobe Illustrator 21.1.0, SVG Export Plug-In . SVG Version: 6.00 Build 0)  -->
<svg version="1.1" id="Layer_1" xmlns="http://www.w3.org/2000/svg" xmlns:xlink="http://www.w3.org/1999/xlink" x="0px" y="0px"
	 viewBox="0 0 85 86" style="enable-background:new 0 0 85 86;" xml:space="preserve">
<style type="text/css">
	.st0{fill:none;}
	.st1{fill:#5B5B5B;}
	.st2{fill:#EDB66E;}
	.st3{fill:#BC9366;}
</style>
<g>
	<path class="st0" d="M42.5,2.5c-22.1,0-40,18.2-40,40.5s18,40.5,40,40.5s40-18.2,40-40.5S64.6,2.5,42.5,2.5z M73.3,59.7l-24.1,8.6
		c0,0,0,0,0,0c0,0,0,0-0.1,0c0,0,0,0,0,0c0,0,0,0-0.1,0c0,0,0,0,0,0c0,0,0,0-0.1,0c0,0,0,0,0,0c0,0,0,0-0.1,0c0,0,0,0,0,0h0
		c0,0,0,0,0,0c0,0-0.1,0-0.1,0c0,0,0,0,0,0c0,0-0.1,0-0.1,0c0,0,0,0,0,0l-36.7-8.6c-0.6-0.1-1-0.6-1-1.2v-31c0,0,0,0,0,0
		c0,0,0-0.1,0-0.1c0,0,0,0,0,0c0,0,0-0.1,0-0.1c0,0,0,0,0,0c0,0,0-0.1,0-0.1c0,0,0,0,0,0c0,0,0-0.1,0-0.1c0,0,0,0,0,0
		c0,0,0-0.1,0-0.1c0,0,0,0,0,0c0,0,0-0.1,0.1-0.1c0,0,0,0,0,0c0,0,0-0.1,0.1-0.1c0,0,0,0,0,0c0,0,0.1-0.1,0.1-0.1c0,0,0,0,0,0
		c0,0,0,0,0,0c0,0,0.1,0,0.1-0.1c0,0,0,0,0,0c0,0,0.1,0,0.1,0c0,0,0,0,0,0c0,0,0.1,0,0.1,0l0,0c0,0,0,0,0,0l24.1-8.6
		c0.2-0.1,0.5-0.1,0.7,0l12.2,2.9c0,0,0,0,0,0l24.5,5.7c0,0,0,0,0,0c0,0,0,0,0,0c0,0,0.1,0,0.1,0c0,0,0,0,0,0c0,0,0.1,0,0.1,0.1
		c0,0,0,0,0,0c0,0,0.1,0,0.1,0.1c0,0,0,0,0,0c0,0,0,0,0,0c0,0,0.1,0.1,0.1,0.1c0,0,0,0,0,0c0,0,0.1,0.1,0.1,0.1c0,0,0,0,0,0
		c0,0,0.1,0.1,0.1,0.1c0,0,0,0,0,0c0,0,0,0.1,0.1,0.1c0,0,0,0,0,0c0,0,0,0.1,0.1,0.1c0,0,0,0,0,0c0,0,0,0.1,0,0.1c0,0,0,0,0,0
		c0,0,0,0.1,0,0.1c0,0,0,0,0,0c0,0,0,0,0,0.1c0,0,0,0,0,0c0,0,0,0,0,0v31C74.1,59,73.8,59.5,73.3,59.7z"/>
	<path class="st1" d="M72.6,12.6C64.5,4.5,53.9,0,42.5,0c-11.4,0-22,4.5-30.1,12.6S0,31.5,0,43c0,11.5,4.4,22.3,12.4,30.4
		c8,8.1,18.7,12.6,30.1,12.6c11.4,0,22-4.5,30.1-12.6C80.6,65.3,85,54.5,85,43C85,31.5,80.6,20.7,72.6,12.6z M42.5,83.5
		c-22.1,0-40-18.2-40-40.5s18-40.5,40-40.5s40,18.2,40,40.5S64.6,83.5,42.5,83.5z"/>
	<path class="st2" d="M34,44.2C34,44.2,34,44.2,34,44.2C34,44.3,34,44.3,34,44.2c0,0.1,0,0.1,0,0.1c0,0,0,0,0,0c0,0.1,0,0.1,0,0.2
		c0,0,0,0,0,0c0,0,0,0,0,0.1c0,0,0,0,0,0c0,0,0,0,0,0.1c0,0,0,0,0,0.1c0,0,0,0,0,0c0,0,0,0,0,0.1c0,0,0,0,0,0c0,0-0.1,0.1-0.1,0.1
		c0,0,0,0,0,0c0,0,0,0,0,0c0,0,0,0-0.1,0.1c0,0,0,0,0,0c0,0,0,0-0.1,0.1c0,0,0,0,0,0c0,0-0.1,0-0.1,0.1c0,0,0,0,0,0c0,0,0,0-0.1,0
		c0,0,0,0,0,0c0,0,0,0-0.1,0c0,0,0,0,0,0c0,0,0,0-0.1,0c0,0,0,0,0,0c0,0-0.1,0-0.1,0c0,0,0,0,0,0c0,0-0.1,0-0.1,0c0,0,0,0,0,0
		c0,0,0,0,0,0c0,0-0.1,0-0.1,0c0,0,0,0,0,0c0,0-0.1,0-0.1,0c0,0,0,0,0,0c0,0-0.1,0-0.1,0c0,0,0,0,0,0c0,0-0.1,0-0.1,0c0,0,0,0,0,0
		c0,0,0,0-0.1,0c0,0,0,0,0,0c0,0,0,0-0.1,0c0,0,0,0,0,0c0,0,0,0-0.1-0.1c0,0,0,0,0,0c0,0-0.1-0.1-0.1-0.1c0,0,0,0,0,0L30,42.8
		L28.5,44c-0.3,0.2-0.7,0.3-1,0.3c-0.4-0.1-0.7-0.3-0.8-0.6L26,42.4l-0.8,0.8c-0.4,0.3-0.9,0.4-1.3,0.2c-0.5-0.2-0.7-0.6-0.7-1.1
		V31.3l-9.7-2.3v28.5l34.2,8V37.1L34,33.9V44.2z M24.4,56.3c-0.1,0.6-0.6,1-1.2,1c-0.1,0-0.2,0-0.3,0l-6.1-1.4
		c-0.7-0.2-1.1-0.8-0.9-1.5c0.2-0.7,0.8-1.1,1.5-0.9l6.1,1.4C24.1,54.9,24.5,55.6,24.4,56.3z M27.9,57.1c-0.1,0.6-0.6,1-1.2,1
		c-0.1,0-0.2,0-0.3,0l0,0c-0.7-0.2-1.1-0.8-0.9-1.5c0.2-0.7,0.8-1.1,1.5-0.9l0,0C27.6,55.7,28,56.4,27.9,57.1z"/>
	<path class="st2" d="M50.1,37v28.4l21.6-7.7V29.3l-10.2,3.7L50.1,37z M59.1,39.1L59.1,39.1c-0.2,0.1-0.3,0.1-0.5,0.1
		c-0.5,0-1-0.3-1.2-0.8c-0.2-0.6,0.1-1.4,0.7-1.6l0,0c0.6-0.2,1.4,0.1,1.6,0.7C60.1,38.1,59.7,38.8,59.1,39.1z M67.5,33.4
		c0.6-0.2,1.3,0.1,1.6,0.8c0.2,0.7-0.1,1.4-0.8,1.6l-5.9,2.1c-0.1,0-0.3,0.1-0.4,0.1c-0.5,0-1-0.3-1.2-0.8c-0.2-0.7,0.1-1.4,0.8-1.6
		L67.5,33.4z"/>
	<polygon class="st2" points="37.2,32.1 48.7,34.8 68.5,27.7 56.9,25 	"/>
	<polygon class="st2" points="24.2,29.1 44,22 36.3,20.2 16.5,27.2 	"/>
	<polygon class="st3" points="32.7,31 52.5,24 48.5,23 28.7,30.1 	"/>
	<path class="st3" d="M27.4,39.8l0.8,1.4l1.3-1.1c0.5-0.4,1.3-0.4,1.7,0.2l0.4,0.4v-7.3l-6-1.4v7.4c0.3-0.2,0.6-0.3,0.9-0.2
		C26.8,39.2,27.2,39.4,27.4,39.8z"/>
	<path class="st1" d="M74.1,27.5C74.1,27.5,74.1,27.4,74.1,27.5c0-0.1,0-0.1,0-0.1c0,0,0,0,0,0c0,0,0-0.1,0-0.1c0,0,0,0,0,0
		c0,0,0-0.1,0-0.1c0,0,0,0,0,0c0,0,0-0.1-0.1-0.1c0,0,0,0,0,0c0,0,0-0.1-0.1-0.1c0,0,0,0,0,0c0,0-0.1-0.1-0.1-0.1c0,0,0,0,0,0
		c0,0-0.1-0.1-0.1-0.1c0,0,0,0,0,0c0,0-0.1-0.1-0.1-0.1c0,0,0,0,0,0c0,0,0,0,0,0c0,0-0.1,0-0.1-0.1c0,0,0,0,0,0c0,0-0.1,0-0.1-0.1
		c0,0,0,0,0,0c0,0-0.1,0-0.1,0c0,0,0,0,0,0c0,0,0,0,0,0l-24.5-5.7c0,0,0,0,0,0l-12.2-2.9c-0.2-0.1-0.5,0-0.7,0l-24.1,8.6
		c0,0,0,0,0,0l0,0c0,0-0.1,0-0.1,0c0,0,0,0,0,0c0,0-0.1,0-0.1,0c0,0,0,0,0,0c0,0-0.1,0-0.1,0.1c0,0,0,0,0,0c0,0,0,0,0,0
		c0,0-0.1,0-0.1,0.1c0,0,0,0,0,0c0,0,0,0.1-0.1,0.1c0,0,0,0,0,0c0,0,0,0.1-0.1,0.1c0,0,0,0,0,0c0,0,0,0.1,0,0.1c0,0,0,0,0,0
		c0,0,0,0.1,0,0.1c0,0,0,0,0,0c0,0,0,0.1,0,0.1c0,0,0,0,0,0c0,0,0,0.1,0,0.1c0,0,0,0,0,0c0,0,0,0.1,0,0.1c0,0,0,0,0,0v31
		c0,0.6,0.4,1.1,1,1.2l36.7,8.6c0,0,0,0,0,0c0,0,0.1,0,0.1,0c0,0,0,0,0,0c0,0,0.1,0,0.1,0c0,0,0,0,0,0h0c0,0,0,0,0,0c0,0,0,0,0.1,0
		c0,0,0,0,0,0c0,0,0,0,0.1,0c0,0,0,0,0,0c0,0,0,0,0.1,0c0,0,0,0,0,0c0,0,0,0,0.1,0c0,0,0,0,0,0l24.1-8.6c0.5-0.2,0.8-0.6,0.8-1.2
		L74.1,27.5C74.1,27.5,74.1,27.5,74.1,27.5z M71.7,57.6l-21.6,7.7V37l11.4-4.1l10.2-3.7V57.6z M47.6,65.6l-34.2-8V29.1l9.7,2.3v10.9
		c0,0.5,0.3,0.9,0.7,1.1c0.5,0.2,1,0.1,1.3-0.2l0.8-0.8l0.7,1.3c0.2,0.3,0.5,0.5,0.8,0.6c0.4,0.1,0.7,0,1-0.3l1.5-1.2l1.8,2.2
		c0,0,0,0,0,0c0,0,0.1,0.1,0.1,0.1c0,0,0,0,0,0c0,0,0,0,0.1,0.1c0,0,0,0,0,0c0,0,0,0,0.1,0c0,0,0,0,0,0c0,0,0,0,0.1,0c0,0,0,0,0,0
		c0,0,0.1,0,0.1,0c0,0,0,0,0,0c0,0,0.1,0,0.1,0c0,0,0,0,0,0c0,0,0.1,0,0.1,0c0,0,0,0,0,0c0,0,0.1,0,0.1,0c0,0,0,0,0,0c0,0,0,0,0,0
		c0,0,0.1,0,0.1,0c0,0,0,0,0,0c0,0,0.1,0,0.1,0c0,0,0,0,0,0c0,0,0,0,0.1,0c0,0,0,0,0,0c0,0,0,0,0.1,0c0,0,0,0,0,0c0,0,0,0,0.1,0
		c0,0,0,0,0,0c0,0,0.1,0,0.1-0.1c0,0,0,0,0,0c0,0,0,0,0.1-0.1c0,0,0,0,0,0c0,0,0,0,0.1-0.1c0,0,0,0,0,0c0,0,0,0,0,0
		c0,0,0.1-0.1,0.1-0.1c0,0,0,0,0,0c0,0,0,0,0-0.1c0,0,0,0,0,0c0,0,0,0,0-0.1c0,0,0,0,0-0.1c0,0,0,0,0,0c0,0,0,0,0-0.1c0,0,0,0,0,0
		c0-0.1,0-0.1,0-0.2c0,0,0,0,0,0c0,0,0,0,0,0c0,0,0-0.1,0-0.1c0,0,0,0,0,0V33.9l13.6,3.2V65.6z M44,22l-19.8,7.1l-7.7-1.8l19.8-7.1
		L44,22z M52.5,24L32.7,31l-4-0.9L48.5,23L52.5,24z M25.5,39.4v-7.4l6,1.4v7.3l-0.4-0.4c-0.4-0.5-1.2-0.6-1.7-0.2l-1.3,1.1l-0.8-1.4
		c-0.2-0.3-0.5-0.6-0.9-0.6C26.1,39.1,25.8,39.2,25.5,39.4z M48.7,34.8l-11.6-2.7L56.9,25l11.6,2.7L48.7,34.8z"/>
	<path class="st1" d="M23.5,54.8l-6.1-1.4c-0.7-0.2-1.3,0.3-1.5,0.9c-0.2,0.7,0.3,1.3,0.9,1.5l6.1,1.4c0.1,0,0.2,0,0.3,0
		c0.6,0,1.1-0.4,1.2-1C24.5,55.6,24.1,54.9,23.5,54.8z"/>
	<path class="st1" d="M26.9,55.6L26.9,55.6c-0.7-0.2-1.4,0.3-1.5,0.9c-0.2,0.7,0.3,1.3,0.9,1.5l0,0c0.1,0,0.2,0,0.3,0
		c0.6,0,1.1-0.4,1.2-1C28,56.4,27.6,55.7,26.9,55.6z"/>
	<path class="st1" d="M58.2,36.7L58.2,36.7c-0.7,0.2-1,1-0.8,1.6c0.2,0.5,0.7,0.8,1.2,0.8c0.1,0,0.3,0,0.4-0.1l0,0
		c0.6-0.2,1-1,0.7-1.6C59.6,36.8,58.9,36.5,58.2,36.7z"/>
	<path class="st1" d="M60.8,37.1c0.2,0.5,0.7,0.8,1.2,0.8c0.1,0,0.3,0,0.4-0.1l5.9-2.1c0.6-0.2,1-0.9,0.8-1.6
		c-0.2-0.7-0.9-1-1.6-0.8l-5.9,2.1C61,35.7,60.6,36.5,60.8,37.1z"/>
</g>
</svg>
