<svg id="Layer_1" xmlns="http://www.w3.org/2000/svg" viewBox="0 0 85 86"><style>.st0{fill:none}.st1{fill:#5b5b5b}.st2{fill:#edb66e}.st3{fill:#bc9366}</style><path class="st0" d="M42.5 2.5c-22.1 0-40 18.2-40 40.5s18 40.5 40 40.5 40-18.2 40-40.5-17.9-40.5-40-40.5zm30.8 57.2l-24.1 8.6h-.1-.1-.1-.1-.1-.1l-36.7-8.6c-.6-.1-1-.6-1-1.2v-31-.1-.1-.1-.1-.1s0-.1.1-.1c0 0 0-.1.1-.1l.1-.1s.1 0 .1-.1h.2L35.6 18c.2-.1.5-.1.7 0l12.2 2.9L73 26.6h.1s.1 0 .1.1c0 0 .1 0 .1.1l.1.1.1.1.1.1s0 .1.1.1c0 0 0 .1.1.1v31.3c.3.4 0 .9-.5 1.1z"/><path class="st1" d="M72.6 12.6C64.5 4.5 53.9 0 42.5 0c-11.4 0-22 4.5-30.1 12.6S0 31.5 0 43s4.4 22.3 12.4 30.4c8 8.1 18.7 12.6 30.1 12.6 11.4 0 22-4.5 30.1-12.6C80.6 65.3 85 54.5 85 43s-4.4-22.3-12.4-30.4zM42.5 83.5c-22.1 0-40-18.2-40-40.5s18-40.5 40-40.5 40 18.2 40 40.5-17.9 40.5-40 40.5z"/><path class="st2" d="M34 44.2c0 .1 0 .1 0 0v.7l-.1.1-.1.1-.1.1s-.1 0-.1.1h-.1-.1-.1-.1-.1-.1-.1-.1-.1-.1-.1l-.1-.1-.1-.1-2.3-2.3-1.5 1.2c-.3.2-.7.3-1 .3-.4-.1-.7-.3-.8-.6l-.7-1.3-.8.8c-.4.3-.9.4-1.3.2-.5-.2-.7-.6-.7-1.1v-11L13.5 29v28.5l34.2 8V37.1L34 33.9v10.3zm-9.6 12.1c-.1.6-.6 1-1.2 1h-.3l-6.1-1.4c-.7-.2-1.1-.8-.9-1.5.2-.7.8-1.1 1.5-.9l6.1 1.4c.6 0 1 .7.9 1.4zm3.5.8c-.1.6-.6 1-1.2 1h-.3c-.7-.2-1.1-.8-.9-1.5.2-.7.8-1.1 1.5-.9.6 0 1 .7.9 1.4zM50.1 37v28.4l21.6-7.7V29.3L61.5 33l-11.4 4zm9 2.1c-.2.1-.3.1-.5.1-.5 0-1-.3-1.2-.8-.2-.6.1-1.4.7-1.6.6-.2 1.4.1 1.6.7.4.6 0 1.3-.6 1.6zm8.4-5.7c.6-.2 1.3.1 1.6.8.2.7-.1 1.4-.8 1.6l-5.9 2.1c-.1 0-.3.1-.4.1-.5 0-1-.3-1.2-.8-.2-.7.1-1.4.8-1.6l5.9-2.2zM37.2 32.1l11.5 2.7 19.8-7.1L56.9 25zM24.2 29.1L44 22l-7.7-1.8-19.8 7z"/><path class="st3" d="M32.7 31l19.8-7-4-1-19.8 7.1zM27.4 39.8l.8 1.4 1.3-1.1c.5-.4 1.3-.4 1.7.2l.4.4v-7.3l-6-1.4v7.4c.3-.2.6-.3.9-.2.3 0 .7.2.9.6z"/><path class="st1" d="M74.1 27.5s0-.1 0 0v-.1-.1-.1s0-.1-.1-.1c0 0 0-.1-.1-.1l-.1-.1-.1-.1-.1-.1s-.1 0-.1-.1c0 0-.1 0-.1-.1h-.1l-24.5-5.7-12.2-2.9c-.2-.1-.5 0-.7 0l-24.1 8.6h-.1-.1s-.1 0-.1.1c0 0-.1 0-.1.1 0 0 0 .1-.1.1 0 0 0 .1-.1.1v31.5c0 .6.4 1.1 1 1.2l36.7 8.6h.6l24.1-8.6c.5-.2.8-.6.8-1.2l-.3-30.9zm-2.4 30.1l-21.6 7.7V37l11.4-4.1 10.2-3.7v28.4zm-24.1 8l-34.2-8V29.1l9.7 2.3v10.9c0 .5.3.9.7 1.1.5.2 1 .1 1.3-.2l.8-.8.7 1.3c.2.3.5.5.8.6.4.1.7 0 1-.3l1.5-1.2 1.8 2.2.1.1.1.1H33s.1 0 .1-.1l.1-.1.1-.1.1-.1v-.1-.1-.1-.1-.2V33.9L47 37.1v28.5zM44 22l-19.8 7.1-7.7-1.8 19.8-7.1L44 22zm8.5 2l-19.8 7-4-.9L48.5 23l4 1zm-27 15.4V32l6 1.4v7.3l-.4-.4c-.4-.5-1.2-.6-1.7-.2l-1.3 1.1-.8-1.4c-.2-.3-.5-.6-.9-.6-.3-.1-.6 0-.9.2zm23.2-4.6l-11.6-2.7L56.9 25l11.6 2.7-19.8 7.1z"/><path class="st1" d="M23.5 54.8l-6.1-1.4c-.7-.2-1.3.3-1.5.9-.2.7.3 1.3.9 1.5l6.1 1.4h.3c.6 0 1.1-.4 1.2-1 .1-.6-.3-1.3-.9-1.4zM26.9 55.6c-.7-.2-1.4.3-1.5.9-.2.7.3 1.3.9 1.5h.3c.6 0 1.1-.4 1.2-1 .2-.6-.2-1.3-.9-1.4zM58.2 36.7c-.7.2-1 1-.8 1.6.2.5.7.8 1.2.8.1 0 .3 0 .4-.1.6-.2 1-1 .7-1.6-.1-.6-.8-.9-1.5-.7zM60.8 37.1c.2.5.7.8 1.2.8.1 0 .3 0 .4-.1l5.9-2.1c.6-.2 1-.9.8-1.6-.2-.7-.9-1-1.6-.8l-5.9 2.1c-.6.3-1 1.1-.8 1.7z"/></svg>