<svg id="Layer_1" xmlns="http://www.w3.org/2000/svg" viewBox="0 0 85 86"><style>.st0{fill:none}.st1{fill:#5b5b5b}.st2{fill:#edb66e}.st3{fill:#999}.st4{fill:#cdecf9}.st5{fill:#fff}.st6{fill:#f1f4fb}</style><path class="st0" d="M42.5 2.5c-22.1 0-40 18.2-40 40.5s18 40.5 40 40.5 40-18.2 40-40.5-17.9-40.5-40-40.5zM77 59.1h-3.5v.1c0 3.8-3 6.8-6.8 6.8S60 62.9 60 59.1V59H36v.1c0 3.8-3 6.8-6.8 6.8s-6.8-3.1-6.8-6.8V59h-5.8c-1.2 0-2.2-1-2.2-2.2v-2.4H11c-.6 0-1.1-.5-1.1-1.1s.5-1.1 1.1-1.1H20.9c.2-.4.4-.8.4-1.2s-.1-.9-.4-1.2h-7.6c-.6 0-1.1-.5-1.1-1.1 0-.6.5-1.1 1.1-1.1h2.3v-2.4c-.6 0-1.1-.5-1.1-1.1V24.6c0-1.2 1-2.2 2.2-2.2h41c1.2 0 2.2 1 2.2 2.2V27h8c2.5 0 4.5 2 4.5 4.5v1.2c0 .5-.4 1-.8 1.1l1.8 7.1c2.7.4 4.8 2.8 4.8 5.6V58c-.1.6-.6 1.1-1.2 1.1z"/><path class="st1" d="M72.6 12.6C64.5 4.5 53.9 0 42.5 0c-11.4 0-22 4.5-30.1 12.6C4.4 20.7 0 31.5 0 43s4.4 22.3 12.4 30.4c8 8.1 18.7 12.6 30.1 12.6 11.4 0 22-4.5 30.1-12.6C80.6 65.3 85 54.5 85 43s-4.4-22.3-12.4-30.4zM42.5 83.5c-22.1 0-40-18.2-40-40.5s18-40.5 40-40.5 40 18.2 40 40.5-17.9 40.5-40 40.5z"/><path class="st2" d="M22.3 53.4c0 .6-.5 1.1-1.1 1.1h-4.6v2.4s0 .1.1.1h6.1c.9-2.7 3.4-4.6 6.4-4.6s5.5 1.9 6.4 4.6h22.2v-8.1c0-.6.5-1.1 1.1-1.1v-2.4c-.6 0-1.1-.5-1.1-1.1V24.6s0-.1-.1-.1h-41s-.1 0-.1.1v19.6c0 .6-.5 1.1-1.1 1.1v2.4h11.4c.6 0 1.1.5 1.1 1.1 0 .6-.5 1.1-1.1 1.1h-6.1c.2.4.4.8.4 1.2s-.1.9-.4 1.2h.4c.6 0 1.1.5 1.1 1.1zm33 0c0 .6-.5 1.1-1.1 1.1H38.3c-.6 0-1.1-.5-1.1-1.1s.5-1.1 1.1-1.1h15.9c.6 0 1.1.5 1.1 1.1zM27 38.4c0-5.7 4.6-10.3 10.2-10.3s10.2 4.6 10.2 10.3-4.6 10.3-10.2 10.3S27 44.1 27 38.4z"/><path class="st3" d="M59.9 48.8v8.1h.5c.9-2.7 3.4-4.6 6.4-4.6 3 0 5.5 1.9 6.4 4.6H76v-4.8h-1.2c-1.8 0-3.3-1.5-3.3-3.4v-2.3c0-.6.5-1.1 1.1-1.1h3.3c-.5-1.4-1.8-2.4-3.3-2.4H59.9v1.2c0 .6-.5 1.1-1.1 1.1v2.4c.6.1 1.1.6 1.1 1.2zM59.9 29.1v2.4h10.4v-.1c0-1.3-1.1-2.4-2.3-2.4h-8.1z"/><path class="st4" d="M59.9 33.7v7.1h11.2l-1.7-7.1z"/><path class="st5" d="M37.2 46.5c4.4 0 8-3.7 8-8.1s-3.6-8.1-8-8.1-8 3.7-8 8.1 3.5 8.1 8 8.1zm-1.1-12.7c0-.6.5-1.1 1.1-1.1s1.1.5 1.1 1.1V38l3.1 3.1c.4.4.4 1.1 0 1.5-.2.2-.5.3-.8.3s-.5-.1-.8-.3l-3.4-3.5c-.2-.2-.3-.5-.3-.8v-4.5z"/><path class="st6" d="M73.6 48.8c0 .7.5 1.2 1.2 1.2H76v-2.4h-2.4v1.2z"/><path class="st3" d="M66.8 54.5c-2.6 0-4.6 2.1-4.6 4.7s2.1 4.7 4.6 4.7c2.6 0 4.6-2.1 4.6-4.7s-2.1-4.7-4.6-4.7zm2.2 4.6c0 1.2-1 2.2-2.2 2.2-1.2 0-2.2-1-2.2-2.2 0-1.2 1-2.2 2.2-2.2 1.2 0 2.2 1 2.2 2.2zM29.2 54.5c-2.6 0-4.6 2.1-4.6 4.7s2.1 4.7 4.6 4.7 4.6-2.1 4.6-4.7-2.1-4.7-4.6-4.7zm2.2 4.6c0 1.2-1 2.2-2.2 2.2-1.2 0-2.2-1-2.2-2.2 0-1.2 1-2.2 2.2-2.2 1.2 0 2.2 1 2.2 2.2z"/><path class="st1" d="M73.3 40.8l-1.8-7.1c.5-.1.8-.5.8-1.1v-1.2c0-2.5-2-4.5-4.5-4.5h-8v-2.4c0-1.2-1-2.2-2.2-2.2h-41c-1.2 0-2.2 1-2.2 2.2v19.6c0 .6.5 1.1 1.1 1.1s1.1-.5 1.1-1.1V24.6s0-.1.1-.1h41s.1 0 .1.1v19.6c0 .6.5 1.1 1.1 1.1s1.1-.5 1.1-1.1V43h12.6c1.6 0 2.9 1 3.3 2.4h-3.3c-.6 0-1.1.5-1.1 1.1v2.3c0 1.9 1.5 3.4 3.3 3.4H76V57h-2.8c-.9-2.7-3.4-4.6-6.4-4.6-3 0-5.5 1.9-6.4 4.6h-.5v-8.1c0-.6-.5-1.1-1.1-1.1s-1.1.5-1.1 1.1V57H35.6c-.9-2.7-3.4-4.6-6.4-4.6s-5.5 1.9-6.4 4.6h-6.1s-.1 0-.1-.1v-2.4h4.6c.6 0 1.1-.5 1.1-1.1s-.5-1.1-1.1-1.1H11c-.6 0-1.1.5-1.1 1.1s.5 1.1 1.1 1.1h3.5v2.4c0 1.2 1 2.2 2.2 2.2h5.8v.1c0 3.8 3 6.8 6.8 6.8s6.8-3.1 6.8-6.8v-.1H60v.1c0 3.8 3 6.8 6.8 6.8s6.8-3.1 6.8-6.8v-.1H77c.6 0 1.1-.5 1.1-1.1V46.5c0-2.9-2.1-5.2-4.8-5.7zm-3-9.3l-10.4.1v-2.4h8c1.3-.1 2.4 1 2.4 2.3zm-10.4 9.3v-7.1h9.5l1.7 7.1H59.9zM76 50h-1.2c-.7 0-1.2-.5-1.2-1.2v-1.2H76V50zm-4.6 9.1c0 2.6-2.1 4.7-4.6 4.7-2.6 0-4.6-2.1-4.6-4.7s2.1-4.7 4.6-4.7c2.5.1 4.6 2.2 4.6 4.7zm-37.6 0c0 2.6-2.1 4.7-4.6 4.7s-4.6-2.1-4.6-4.7 2.1-4.7 4.6-4.7 4.6 2.2 4.6 4.7z"/><ellipse class="st1" cx="29.2" cy="59.1" rx="2.2" ry="2.2"/><ellipse class="st1" cx="66.8" cy="59.1" rx="2.2" ry="2.2"/><path class="st1" d="M37.2 53.4c0 .6.5 1.1 1.1 1.1h15.9c.6 0 1.1-.5 1.1-1.1s-.5-1.1-1.1-1.1H38.3c-.6 0-1.1.5-1.1 1.1zM28 48.8c0-.6-.5-1.1-1.1-1.1H13.2c-.6 0-1.1.5-1.1 1.1 0 .6.5 1.1 1.1 1.1h13.7c.6 0 1.1-.5 1.1-1.1zM37.2 48.7c5.6 0 10.2-4.6 10.2-10.3s-4.6-10.3-10.2-10.3S27 32.7 27 38.4s4.6 10.3 10.2 10.3zm0-18.4c4.4 0 8 3.7 8 8.1s-3.6 8.1-8 8.1-8-3.7-8-8.1 3.5-8.1 8-8.1z"/><path class="st1" d="M39.8 42.6c.2.2.5.3.8.3s.5-.1.8-.3c.4-.4.4-1.1 0-1.5L38.2 38v-4.2c0-.6-.5-1.1-1.1-1.1s-1.1.5-1.1 1.1v4.6c0 .3.1.6.3.8l3.5 3.4z"/></svg>