<?xml version="1.0" encoding="utf-8"?>
<!-- Generator: Adobe Illustrator 21.1.0, SVG Export Plug-In . SVG Version: 6.00 Build 0)  -->
<svg version="1.1" id="Layer_1" xmlns="http://www.w3.org/2000/svg" xmlns:xlink="http://www.w3.org/1999/xlink" x="0px" y="0px"
	 viewBox="0 0 85 86" style="enable-background:new 0 0 85 86;" xml:space="preserve">
<style type="text/css">
	.st0{fill:none;}
	.st1{fill:#9CCB49;}
	.st2{fill:#FFFFFF;}
	.st3{fill:#F1F4FB;}
</style>
<g>
	<path class="st0" d="M42.5,2.5c-22.1,0-40,18.2-40,40.5s18,40.5,40,40.5s40-18.2,40-40.5S64.6,2.5,42.5,2.5z M77,59.1h-3.5
		c0,0,0,0,0,0.1c0,3.8-3,6.8-6.8,6.8c-3.7,0-6.8-3.1-6.8-6.8c0,0,0,0,0-0.1H36c0,0,0,0,0,0.1c0,3.8-3,6.8-6.8,6.8s-6.8-3.1-6.8-6.8
		c0,0,0,0,0-0.1h-5.8c-1.2,0-2.2-1-2.2-2.2v-2.4H11c-0.6,0-1.1-0.5-1.1-1.1c0-0.6,0.5-1.1,1.1-1.1h4.6c0,0,0,0,0,0c0,0,0,0,0,0h5.3
		c0.2-0.4,0.4-0.8,0.4-1.2c0-0.5-0.1-0.9-0.4-1.2h-7.6c-0.6,0-1.1-0.5-1.1-1.1c0-0.6,0.5-1.1,1.1-1.1h2.3v-2.4
		c-0.6,0-1.1-0.5-1.1-1.1V24.6c0-1.2,1-2.2,2.2-2.2h41c1.2,0,2.2,1,2.2,2.2v2.4h8c2.5,0,4.5,2,4.5,4.5v1.2c0,0.5-0.4,1-0.8,1.1
		l1.8,7.1c2.7,0.4,4.8,2.8,4.8,5.6V58C78.1,58.6,77.6,59.1,77,59.1z"/>
	<path class="st1" d="M72.6,12.6C64.5,4.5,53.9,0,42.5,0c-11.4,0-22,4.5-30.1,12.6S0,31.5,0,43c0,11.5,4.4,22.3,12.4,30.4
		c8,8.1,18.7,12.6,30.1,12.6c11.4,0,22-4.5,30.1-12.6C80.6,65.3,85,54.5,85,43C85,31.5,80.6,20.7,72.6,12.6z M42.5,83.5
		c-22.1,0-40-18.2-40-40.5s18-40.5,40-40.5s40,18.2,40,40.5S64.6,83.5,42.5,83.5z"/>
	<path class="st2" d="M22.3,53.4c0,0.6-0.5,1.1-1.1,1.1h-4.6v2.4c0,0,0,0.1,0.1,0.1h6.1c0.9-2.7,3.4-4.6,6.4-4.6
		c3,0,5.5,1.9,6.4,4.6h22.2v-8.1c0-0.6,0.5-1.1,1.1-1.1c0.6,0,1.1,0.5,1.1,1.1v8.1h0.5c0.9-2.7,3.4-4.6,6.4-4.6c3,0,5.5,1.9,6.4,4.6
		H76v-4.8h-1.2c-1.8,0-3.3-1.5-3.3-3.4v-2.3c0-0.6,0.5-1.1,1.1-1.1h3.3c-0.5-1.4-1.8-2.4-3.3-2.4c0,0,0,0,0,0s0,0,0,0H59.9v1.2
		c0,0.6-0.5,1.1-1.1,1.1c-0.6,0-1.1-0.5-1.1-1.1V24.6c0,0,0-0.1-0.1-0.1h-41c0,0-0.1,0-0.1,0.1v19.6c0,0.6-0.5,1.1-1.1,1.1v2.4h11.4
		c0.6,0,1.1,0.5,1.1,1.1c0,0.6-0.5,1.1-1.1,1.1h-6c0.2,0.4,0.4,0.8,0.4,1.2c0,0.5-0.1,0.9-0.4,1.2h0.4
		C21.8,52.3,22.3,52.8,22.3,53.4z M55.3,53.4c0,0.6-0.5,1.1-1.1,1.1H38.3c-0.6,0-1.1-0.5-1.1-1.1c0-0.6,0.5-1.1,1.1-1.1h15.9
		C54.8,52.3,55.3,52.8,55.3,53.4z M27,38.4c0-5.7,4.6-10.3,10.2-10.3c5.6,0,10.2,4.6,10.2,10.3s-4.6,10.3-10.2,10.3
		C31.6,48.7,27,44.1,27,38.4z"/>
	<path class="st2" d="M59.9,29.1v2.4h10.4v-0.1c0-1.3-1.1-2.4-2.3-2.4H59.9z"/>
	<polygon class="st2" points="59.9,33.7 59.9,40.8 71.1,40.8 69.4,33.7 	"/>
	<path class="st2" d="M37.2,46.5c4.4,0,8-3.7,8-8.1s-3.6-8.1-8-8.1c-4.4,0-8,3.7-8,8.1S32.7,46.5,37.2,46.5z M36.1,33.8
		c0-0.6,0.5-1.1,1.1-1.1c0.6,0,1.1,0.5,1.1,1.1V38l3.1,3.1c0.4,0.4,0.4,1.1,0,1.5c-0.2,0.2-0.5,0.3-0.8,0.3s-0.5-0.1-0.8-0.3
		l-3.4-3.5c-0.2-0.2-0.3-0.5-0.3-0.8V33.8z"/>
	<path class="st3" d="M73.6,48.8c0,0.7,0.5,1.2,1.2,1.2H76v-2.4h-2.4V48.8z"/>
	<path class="st2" d="M66.8,54.5c-2.6,0-4.6,2.1-4.6,4.7s2.1,4.7,4.6,4.7c2.6,0,4.6-2.1,4.6-4.7S69.3,54.5,66.8,54.5z M69.5,59.1
		c0,1.5-1.2,2.8-2.7,2.8c-1.5,0-2.7-1.2-2.7-2.8c0-1.5,1.2-2.8,2.7-2.8C68.3,56.4,69.5,57.6,69.5,59.1z"/>
	<path class="st2" d="M29.2,54.5c-2.6,0-4.6,2.1-4.6,4.7s2.1,4.7,4.6,4.7s4.6-2.1,4.6-4.7S31.7,54.5,29.2,54.5z M31.9,59.1
		c0,1.5-1.2,2.8-2.7,2.8c-1.5,0-2.7-1.2-2.7-2.8c0-1.5,1.2-2.8,2.7-2.8C30.7,56.4,31.9,57.6,31.9,59.1z"/>
	<path class="st1" d="M73.3,40.8l-1.8-7.1c0.5-0.1,0.8-0.5,0.8-1.1v-1.2c0-2.5-2-4.5-4.5-4.5h-8v-2.4c0-1.2-1-2.2-2.2-2.2h-41
		c-1.2,0-2.2,1-2.2,2.2v19.6c0,0.6,0.5,1.1,1.1,1.1s1.1-0.5,1.1-1.1V24.6c0,0,0-0.1,0.1-0.1h41c0,0,0.1,0,0.1,0.1v19.6
		c0,0.6,0.5,1.1,1.1,1.1c0.6,0,1.1-0.5,1.1-1.1v-1.2h12.6c0,0,0,0,0,0s0,0,0,0c1.6,0,2.9,1,3.3,2.4h-3.3c-0.6,0-1.1,0.5-1.1,1.1v2.3
		c0,1.9,1.5,3.4,3.3,3.4H76v4.8h-2.8c-0.9-2.7-3.4-4.6-6.4-4.6c-3,0-5.5,1.9-6.4,4.6h-0.5v-8.1c0-0.6-0.5-1.1-1.1-1.1
		c-0.6,0-1.1,0.5-1.1,1.1v8.1H35.6c-0.9-2.7-3.4-4.6-6.4-4.6c-3,0-5.5,1.9-6.4,4.6h-6.1c0,0-0.1,0-0.1-0.1v-2.4h4.6
		c0.6,0,1.1-0.5,1.1-1.1c0-0.6-0.5-1.1-1.1-1.1h-0.4h-5.3c0,0,0,0,0,0c0,0,0,0,0,0H11c-0.6,0-1.1,0.5-1.1,1.1c0,0.6,0.5,1.1,1.1,1.1
		h3.5v2.4c0,1.2,1,2.2,2.2,2.2h5.8c0,0,0,0,0,0.1c0,3.8,3,6.8,6.8,6.8s6.8-3.1,6.8-6.8c0,0,0,0,0-0.1H60c0,0,0,0,0,0.1
		c0,3.8,3,6.8,6.8,6.8c3.7,0,6.8-3.1,6.8-6.8c0,0,0,0,0-0.1H77c0.6,0,1.1-0.5,1.1-1.1V46.5C78.1,43.6,76,41.3,73.3,40.8z M70.3,31.5
		L70.3,31.5l-10.4,0.1v-2.4h8C69.2,29.1,70.3,30.2,70.3,31.5z M59.9,40.8v-7.1h9.5l1.7,7.1H59.9z M76,50h-1.2
		c-0.7,0-1.2-0.5-1.2-1.2v-1.2H76V50z M71.4,59.1c0,2.6-2.1,4.7-4.6,4.7c-2.6,0-4.6-2.1-4.6-4.7s2.1-4.7,4.6-4.7
		C69.3,54.5,71.4,56.6,71.4,59.1z M33.8,59.1c0,2.6-2.1,4.7-4.6,4.7s-4.6-2.1-4.6-4.7s2.1-4.7,4.6-4.7S33.8,56.6,33.8,59.1z"/>
	<ellipse class="st2" cx="29.2" cy="59.1" rx="1.7" ry="1.7"/>
	<path class="st1" d="M29.2,56.4c-1.5,0-2.7,1.2-2.7,2.8c0,1.5,1.2,2.8,2.7,2.8c1.5,0,2.7-1.2,2.7-2.8
		C31.9,57.6,30.7,56.4,29.2,56.4z M30.9,59.1c0,0.9-0.8,1.7-1.7,1.7c-0.9,0-1.7-0.8-1.7-1.7c0-0.9,0.8-1.7,1.7-1.7
		C30.1,57.4,30.9,58.2,30.9,59.1z"/>
	<ellipse class="st2" cx="66.8" cy="59.1" rx="1.7" ry="1.7"/>
	<path class="st1" d="M66.8,56.4c-1.5,0-2.7,1.2-2.7,2.8c0,1.5,1.2,2.8,2.7,2.8c1.5,0,2.7-1.2,2.7-2.8
		C69.5,57.6,68.3,56.4,66.8,56.4z M68.5,59.1c0,0.9-0.8,1.7-1.7,1.7s-1.7-0.8-1.7-1.7c0-0.9,0.8-1.7,1.7-1.7S68.5,58.2,68.5,59.1z"
		/>
	<path class="st1" d="M37.2,53.4c0,0.6,0.5,1.1,1.1,1.1h15.9c0.6,0,1.1-0.5,1.1-1.1c0-0.6-0.5-1.1-1.1-1.1H38.3
		C37.7,52.3,37.2,52.8,37.2,53.4z"/>
	<path class="st1" d="M28,48.8c0-0.6-0.5-1.1-1.1-1.1H15.5h-2.3c-0.6,0-1.1,0.5-1.1,1.1c0,0.6,0.5,1.1,1.1,1.1h7.6h6
		C27.5,49.9,28,49.4,28,48.8z"/>
	<path class="st1" d="M37.2,48.7c5.6,0,10.2-4.6,10.2-10.3s-4.6-10.3-10.2-10.3c-5.6,0-10.2,4.6-10.2,10.3S31.6,48.7,37.2,48.7z
		 M37.2,30.3c4.4,0,8,3.7,8,8.1s-3.6,8.1-8,8.1c-4.4,0-8-3.7-8-8.1S32.7,30.3,37.2,30.3z"/>
	<path class="st1" d="M39.8,42.6c0.2,0.2,0.5,0.3,0.8,0.3s0.5-0.1,0.8-0.3c0.4-0.4,0.4-1.1,0-1.5L38.2,38v-4.2
		c0-0.6-0.5-1.1-1.1-1.1c-0.6,0-1.1,0.5-1.1,1.1v4.6c0,0.3,0.1,0.6,0.3,0.8L39.8,42.6z"/>
</g>
</svg>
