<?xml version="1.0" encoding="utf-8"?>
<!-- Generator: Adobe Illustrator 21.1.0, SVG Export Plug-In . SVG Version: 6.00 Build 0)  -->
<svg version="1.1" id="Layer_1" xmlns="http://www.w3.org/2000/svg" xmlns:xlink="http://www.w3.org/1999/xlink" x="0px" y="0px"
	 viewBox="0 0 85 86" style="enable-background:new 0 0 85 86;" xml:space="preserve">
<style type="text/css">
	.st0{fill:none;}
	.st1{fill:#FFFFFF;}
	.st2{fill:#9CCB49;}
</style>
<g>
	<path class="st0" d="M42.5,2.5c-22.1,0-40,18.2-40,40.5s18,40.5,40,40.5s40-18.2,40-40.5S64.6,2.5,42.5,2.5z M64.3,66.1
		c0,1.4-1.1,2.5-2.5,2.5H61c-0.1,0.4-0.2,0.7-0.5,1c-0.4,0.5-1,0.8-1.7,0.9l-0.9,0.1c-0.1,1-0.9,1.9-1.9,2.1l-25.9,5.2
		c-0.2,0-0.3,0-0.5,0c-1.1,0-2.2-0.8-2.4-2l-10-48.7c-0.3-1.4,0.6-2.7,1.9-2.9l0,0l5-1l-0.5-4.4l0,0c-0.1-1.3,0.9-2.5,2.2-2.6
		l6.6-0.7v-3.3c0-1.4,1.1-2.5,2.5-2.5h26.8c1.4,0,2.5,1.1,2.5,2.5V66.1z"/>
	<path class="st1" d="M32.7,73.1c-0.1,0-0.1,0-0.2,0c-1.3,0-2.3-0.9-2.5-2.2l-5.1-42.4L23,28.8l2.1,10.6c0,0.3,0,0.5-0.2,0.8
		c-0.2,0.2-0.4,0.4-0.7,0.5c0,0-0.1,0-0.1,0c-0.2,0-0.5-0.1-0.7-0.2c-0.2-0.2-0.4-0.4-0.4-0.6l-2.3-11.6c0-0.3,0-0.5,0.2-0.8
		c0.2-0.2,0.4-0.4,0.7-0.5l3.1-0.6l-0.1-0.9l-4.9,1c-0.2,0-0.3,0.2-0.2,0.4l10,48.7c0,0.1,0.2,0.3,0.4,0.3L53.6,71L32.7,73.1z"/>
	<path class="st1" d="M21.5,27.8c-0.1,0.1-0.1,0.2-0.1,0.3l2.3,11.6c0,0.1,0.1,0.1,0.1,0.2C24,40,24.1,40,24.2,40
		c0.1,0,0.1-0.1,0.2-0.1c0.1-0.1,0.1-0.2,0.1-0.3l-2.3-11.3l2.6-0.5l-0.1-0.7l-3,0.6C21.6,27.7,21.6,27.7,21.5,27.8z"/>
	<path class="st1" d="M32.1,70.6c0,0.2,0.2,0.3,0.4,0.3l23.3-2.3H35.1c-1.4,0-2.5-1.1-2.5-2.5V20.8l-3.2,0.3l1,10.7
		c0.1,0.6-0.3,1.1-0.9,1.2c0,0-0.1,0-0.1,0c-0.5,0-1-0.4-1-0.9l-1.2-11.8c-0.1-0.6,0.3-1.1,0.9-1.2l4.5-0.4v-0.9l-6.5,0.6
		c-0.1,0-0.2,0.2-0.2,0.3L32.1,70.6z"/>
	<path class="st1" d="M29,32c0,0.2,0.2,0.3,0.4,0.3c0.2,0,0.3-0.2,0.3-0.4l-1.1-11.5l4-0.4v-0.7l-4.5,0.4c-0.2,0-0.3,0.2-0.3,0.4
		L29,32z"/>
	<path class="st1" d="M62.2,66.1V12.2c0-0.2-0.2-0.4-0.4-0.4H35.1c-0.2,0-0.4,0.1-0.4,0.4v53.9c0,0.2,0.2,0.4,0.4,0.4h26.8
		C62.1,66.5,62.2,66.3,62.2,66.1z M59,39.1c0,5.9-4.7,10.7-10.6,10.7c-5.8,0-10.6-4.8-10.6-10.7s4.7-10.7,10.6-10.7
		C54.2,28.5,59,33.3,59,39.1z M50.3,56.7c0,1.1-0.8,1.9-1.9,1.9c-1.1,0-1.9-0.8-1.9-1.9c0-1.1,0.8-1.9,1.9-1.9
		C49.5,54.8,50.3,55.6,50.3,56.7z M48.4,19.7c1.1,0,1.9,0.8,1.9,1.9c0,1.1-0.8,1.9-1.9,1.9c-1.1,0-1.9-0.8-1.9-1.9
		C46.5,20.5,47.4,19.7,48.4,19.7z M61,64.2c0,0.6-0.5,1.1-1.1,1.1H37c-0.6,0-1.1-0.5-1.1-1.1v-8.8c0-0.6,0.5-1.1,1.1-1.1
		c0.6,0,1.1,0.5,1.1,1.1V63h20.7v-7.6c0-0.6,0.5-1.1,1.1-1.1s1.1,0.5,1.1,1.1V64.2z M61,22.9c0,0.6-0.5,1.1-1.1,1.1
		s-1.1-0.5-1.1-1.1v-7.6H38.1v7.6c0,0.6-0.5,1.1-1.1,1.1c-0.6,0-1.1-0.5-1.1-1.1v-8.8c0-0.6,0.5-1.1,1.1-1.1h22.9
		c0.6,0,1.1,0.5,1.1,1.1V22.9z"/>
	<path class="st2" d="M61.8,9.7H35.1c-1.4,0-2.5,1.1-2.5,2.5v3.3l-6.6,0.7c-1.3,0.1-2.3,1.3-2.2,2.6l0,0l0.5,4.4l-5,1l0,0
		c-1.3,0.3-2.2,1.6-1.9,2.9l10,48.7c0.2,1.2,1.3,2,2.4,2c0.2,0,0.3,0,0.5,0l25.9-5.2c1-0.2,1.8-1.1,1.9-2.1l0.9-0.1
		c0.7,0,1.2-0.4,1.7-0.9c0.2-0.3,0.4-0.6,0.5-1h0.8c1.4,0,2.5-1.1,2.5-2.5V12.2C64.3,10.8,63.2,9.7,61.8,9.7z M29.5,75.5l-10-48.7
		c0-0.2,0.1-0.4,0.2-0.4l4.9-1l0.1,0.9L21.6,27c-0.3,0-0.5,0.2-0.7,0.5c-0.2,0.2-0.2,0.5-0.2,0.8l2.3,11.6c0,0.2,0.2,0.5,0.4,0.6
		c0.2,0.2,0.4,0.2,0.7,0.2c0,0,0.1,0,0.1,0c0.3,0,0.5-0.2,0.7-0.5c0.2-0.2,0.2-0.5,0.2-0.8L23,28.8l1.9-0.4L30,70.9
		c0.2,1.3,1.2,2.2,2.5,2.2c0.1,0,0.1,0,0.2,0L53.6,71l-23.7,4.7C29.7,75.8,29.5,75.7,29.5,75.5z M25.9,18.7c0-0.2,0.1-0.3,0.2-0.3
		l6.5-0.6v0.9L28,19.1c-0.6,0.1-1,0.6-0.9,1.2l1.2,11.8c0.1,0.5,0.5,0.9,1,0.9c0,0,0.1,0,0.1,0c0.6-0.1,1-0.6,0.9-1.2l-1-10.7
		l3.2-0.3v45.3c0,1.4,1.1,2.5,2.5,2.5h20.8l-23.3,2.3c-0.2,0-0.4-0.1-0.4-0.3L25.9,18.7z M27.8,20.2c0-0.2,0.1-0.4,0.3-0.4l4.5-0.4
		v0.7l-4,0.4l1.1,11.5c0,0.2-0.1,0.4-0.3,0.4c-0.2,0-0.3-0.1-0.4-0.3L27.8,20.2z M24.8,27.8l-2.6,0.5l2.3,11.3c0,0.1,0,0.2-0.1,0.3
		c-0.1,0.1-0.1,0.1-0.2,0.1c-0.1,0-0.2,0-0.3-0.1c-0.1-0.1-0.1-0.1-0.1-0.2l-2.3-11.6c0-0.1,0-0.2,0.1-0.3c0.1-0.1,0.1-0.1,0.2-0.1
		l3-0.6L24.8,27.8z M35.1,66.5c-0.2,0-0.4-0.1-0.4-0.4V12.2c0-0.2,0.1-0.4,0.4-0.4h26.8c0.2,0,0.4,0.1,0.4,0.4v53.9
		c0,0.2-0.1,0.4-0.4,0.4H35.1z"/>
	<path class="st1" d="M60.3,55.4c0-0.2-0.2-0.4-0.4-0.4c-0.2,0-0.4,0.2-0.4,0.4v8.4H37.4v-8.4c0-0.2-0.2-0.4-0.4-0.4
		c-0.2,0-0.4,0.2-0.4,0.4v8.8c0,0.2,0.2,0.4,0.4,0.4h22.9c0.2,0,0.4-0.2,0.4-0.4V55.4z"/>
	<path class="st1" d="M59.9,13.7H37c-0.2,0-0.4,0.2-0.4,0.4v8.8c0,0.2,0.2,0.4,0.4,0.4c0.2,0,0.4-0.2,0.4-0.4v-8.4h22.1v8.4
		c0,0.2,0.2,0.4,0.4,0.4c0.2,0,0.4-0.2,0.4-0.4v-8.8C60.3,13.9,60.1,13.7,59.9,13.7z"/>
	<path class="st1" d="M38.6,39.1c0,5.5,4.4,10,9.8,10c5.4,0,9.8-4.5,9.8-10c0-5.5-4.4-10-9.8-10C43,29.2,38.6,33.6,38.6,39.1z"/>
	<path class="st1" d="M48.4,55.5c-0.6,0-1.2,0.5-1.2,1.2c0,0.7,0.5,1.2,1.2,1.2c0.7,0,1.2-0.5,1.2-1.2S49.1,55.5,48.4,55.5z"/>
	<path class="st1" d="M47.2,21.6c0,0.7,0.5,1.2,1.2,1.2c0.7,0,1.2-0.5,1.2-1.2c0-0.7-0.5-1.2-1.2-1.2C47.8,20.4,47.2,20.9,47.2,21.6
		z"/>
	<path class="st2" d="M59.9,54.3c-0.6,0-1.1,0.5-1.1,1.1V63H38.1v-7.6c0-0.6-0.5-1.1-1.1-1.1c-0.6,0-1.1,0.5-1.1,1.1v8.8
		c0,0.6,0.5,1.1,1.1,1.1h22.9c0.6,0,1.1-0.5,1.1-1.1v-8.8C61,54.8,60.5,54.3,59.9,54.3z M59.9,64.6H37c-0.2,0-0.4-0.2-0.4-0.4v-8.8
		c0-0.2,0.2-0.4,0.4-0.4c0.2,0,0.4,0.2,0.4,0.4v8.4h22.1v-8.4c0-0.2,0.2-0.4,0.4-0.4c0.2,0,0.4,0.2,0.4,0.4v8.8
		C60.3,64.4,60.1,64.6,59.9,64.6z"/>
	<path class="st2" d="M59.9,13H37c-0.6,0-1.1,0.5-1.1,1.1v8.8c0,0.6,0.5,1.1,1.1,1.1c0.6,0,1.1-0.5,1.1-1.1v-7.6h20.7v7.6
		c0,0.6,0.5,1.1,1.1,1.1s1.1-0.5,1.1-1.1v-8.8C61,13.5,60.5,13,59.9,13z M60.3,22.9c0,0.2-0.2,0.4-0.4,0.4c-0.2,0-0.4-0.2-0.4-0.4
		v-8.4H37.4v8.4c0,0.2-0.2,0.4-0.4,0.4c-0.2,0-0.4-0.2-0.4-0.4v-8.8c0-0.2,0.2-0.4,0.4-0.4h22.9c0.2,0,0.4,0.2,0.4,0.4V22.9z"/>
	<path class="st2" d="M46.5,56.7c0,1.1,0.8,1.9,1.9,1.9c1.1,0,1.9-0.8,1.9-1.9c0-1.1-0.8-1.9-1.9-1.9C47.4,54.8,46.5,55.6,46.5,56.7
		z M48.4,57.9c-0.7,0-1.2-0.5-1.2-1.2c0-0.7,0.5-1.2,1.2-1.2c0.7,0,1.2,0.5,1.2,1.2S49.1,57.9,48.4,57.9z"/>
	<path class="st2" d="M46.5,21.6c0,1.1,0.8,1.9,1.9,1.9c1.1,0,1.9-0.8,1.9-1.9c0-1.1-0.8-1.9-1.9-1.9C47.4,19.7,46.5,20.5,46.5,21.6
		z M49.6,21.6c0,0.7-0.5,1.2-1.2,1.2c-0.7,0-1.2-0.5-1.2-1.2c0-0.7,0.5-1.2,1.2-1.2C49.1,20.4,49.6,20.9,49.6,21.6z"/>
	<path class="st2" d="M48.4,28.5c-5.8,0-10.6,4.8-10.6,10.7s4.7,10.7,10.6,10.7C54.2,49.8,59,45,59,39.1S54.2,28.5,48.4,28.5z
		 M48.4,29.2c5.4,0,9.8,4.5,9.8,10c0,5.5-4.4,10-9.8,10c-5.4,0-9.8-4.5-9.8-10C38.6,33.6,43,29.2,48.4,29.2z"/>
	<path class="st2" d="M72.6,12.6C64.5,4.5,53.9,0,42.5,0c-11.4,0-22,4.5-30.1,12.6S0,31.5,0,43c0,11.5,4.4,22.3,12.4,30.4
		c8,8.1,18.7,12.6,30.1,12.6c11.4,0,22-4.5,30.1-12.6C80.6,65.3,85,54.5,85,43C85,31.5,80.6,20.7,72.6,12.6z M42.5,83.5
		c-22.1,0-40-18.2-40-40.5s18-40.5,40-40.5s40,18.2,40,40.5S64.6,83.5,42.5,83.5z"/>
</g>
</svg>
