<svg id="Layer_1" xmlns="http://www.w3.org/2000/svg" viewBox="0 0 85 86"><style>.st0{fill:none}.st1{fill:#674887}.st2{fill:#7a649e}.st3{fill:#7c55a0}.st4{fill:#8b6eaf}.st5{fill:#9e72c1}.st6{fill:#5b5b5b}.st7{fill:#a587c6}</style><path class="st0" d="M42.5 2.5c-22.1 0-40 18.2-40 40.5s18 40.5 40 40.5 40-18.2 40-40.5-17.9-40.5-40-40.5zm21.8 63.6c0 1.4-1.1 2.5-2.5 2.5H61c-.1.4-.2.7-.5 1-.4.5-1 .8-1.7.9l-.8.1c-.1 1-.9 1.9-1.9 2.1l-25.9 5.2h-.5c-1.1 0-2.2-.8-2.4-2l-10-48.7c-.1-.7 0-1.3.3-1.9.4-.6.9-.9 1.6-1.1l5-1-.5-4.4c-.1-1.3.9-2.5 2.2-2.6l6.6-.7v-3.3c0-1.4 1.1-2.5 2.5-2.5h26.8c1.4 0 2.5 1.1 2.5 2.5v53.9z"/><path class="st1" d="M53.6 71l-20.9 2.1h-.2c-1.3 0-2.3-.9-2.5-2.2l-5.1-42.4-1.9.3 2.1 10.6c0 .3 0 .5-.2.8-.2.2-.4.4-.7.5h-.1c-.2 0-.5-.1-.7-.2-.2-.2-.4-.4-.4-.6l-2.3-11.6c0-.3 0-.5.2-.8.2-.2.4-.4.7-.5l3.1-.6-.1-.9-4.9 1c-.1 0-.2.1-.2.1s-.1.1 0 .3l10 48.7c0 .1.2.3.4.3L53.6 71z"/><path class="st2" d="M21.5 27.8c-.1.1-.1.2-.1.3l2.3 11.6c0 .1.1.1.1.2.2.1.3.1.4.1.1 0 .1-.1.2-.1.1-.1.1-.2.1-.3l-2.3-11.3 2.6-.5-.1-.7-3 .6c-.1 0-.1 0-.2.1z"/><path class="st3" d="M32.1 70.6c0 .2.2.3.4.3l23.3-2.3H35.1c-1.4 0-2.5-1.1-2.5-2.5V20.8l-3.2.3 1 10.7c.1.6-.3 1.1-.9 1.2h-.1c-.5 0-1-.4-1-.9l-1.2-11.8c-.1-.6.3-1.1.9-1.2l4.5-.4v-.9l-6.5.6c-.1 0-.2.2-.2.3l6.2 51.9z"/><path class="st4" d="M29 32c0 .2.2.3.4.3s.3-.2.3-.4l-1.1-11.5 4-.4v-.7l-4.5.4c-.2 0-.3.2-.3.4L29 32z"/><path class="st5" d="M62.2 66.1V12.2c0-.2-.2-.4-.4-.4H35.1c-.2 0-.4.1-.4.4v53.9c0 .2.2.4.4.4h26.8c.2 0 .3-.2.3-.4zm-3.2-27c0 5.9-4.7 10.7-10.6 10.7-5.8 0-10.6-4.8-10.6-10.7 0-5.9 4.7-10.7 10.6-10.7 5.8.1 10.6 4.9 10.6 10.7zm-8.7 17.6c0 1.1-.8 1.9-1.9 1.9-1.1 0-1.9-.8-1.9-1.9 0-1.1.8-1.9 1.9-1.9 1.1 0 1.9.8 1.9 1.9zm-1.9-37c1.1 0 1.9.8 1.9 1.9 0 1.1-.8 1.9-1.9 1.9-1.1 0-1.9-.8-1.9-1.9 0-1.1.9-1.9 1.9-1.9zM61 64.2c0 .6-.5 1.1-1.1 1.1H37c-.6 0-1.1-.5-1.1-1.1v-8.8c0-.6.5-1.1 1.1-1.1s1.1.5 1.1 1.1V63h20.7v-7.6c0-.6.5-1.1 1.1-1.1.6 0 1.1.5 1.1 1.1v8.8zm0-41.3c0 .6-.5 1.1-1.1 1.1-.6 0-1.1-.5-1.1-1.1v-7.6H38.1v7.6c0 .6-.5 1.1-1.1 1.1-.6 0-1.1-.5-1.1-1.1v-8.8c0-.6.5-1.1 1.1-1.1h22.9c.6 0 1.1.5 1.1 1.1v8.8z"/><path class="st6" d="M61.8 9.7H35.1c-1.4 0-2.5 1.1-2.5 2.5v3.3l-6.6.7c-1.3.1-2.3 1.3-2.2 2.6l.5 4.4-5 1c-.7.1-1.2.5-1.6 1.1-.4.5-.5 1.2-.3 1.9l10 48.7c.2 1.2 1.3 2 2.4 2h.5l25.9-5.2c1-.2 1.8-1.1 1.9-2.1l.9-.1c.7 0 1.2-.4 1.7-.9.2-.3.4-.6.5-1h.8c1.4 0 2.5-1.1 2.5-2.5V12.2c-.2-1.4-1.3-2.5-2.7-2.5zM29.5 75.5l-10-48.7v-.3c0-.1.1-.1.2-.1l4.9-1 .1.9-3.1.7c-.3 0-.5.2-.7.5-.2.2-.2.5-.2.8L23 39.9c0 .2.2.5.4.6.2.2.4.2.7.2h.1c.3 0 .5-.2.7-.5.2-.2.2-.5.2-.8L23 28.8l1.9-.4L30 70.9c.2 1.3 1.2 2.2 2.5 2.2h.2L53.6 71l-23.7 4.7c-.2.1-.4 0-.4-.2zm-3.6-56.8c0-.2.1-.3.2-.3l6.5-.6v.9l-4.6.4c-.6.1-1 .6-.9 1.2l1.2 11.8c.1.5.5.9 1 .9h.1c.6-.1 1-.6.9-1.2l-1-10.7 3.2-.3v45.3c0 1.4 1.1 2.5 2.5 2.5h20.8l-23.3 2.3c-.2 0-.4-.1-.4-.3l-6.2-51.9zm1.9 1.5c0-.2.1-.4.3-.4l4.5-.4v.7l-4 .4L29.7 32c0 .2-.1.4-.3.4-.2 0-.3-.1-.4-.3l-1.2-11.9zm-3 7.6l-2.6.5 2.3 11.3c0 .1 0 .2-.1.3-.1.1-.1.1-.2.1s-.2 0-.3-.1c-.1-.1-.1-.1-.1-.2l-2.3-11.6c0-.1 0-.2.1-.3.1-.1.1-.1.2-.1l3-.6v.7zm10.3 38.7c-.2 0-.4-.1-.4-.4V12.2c0-.2.1-.4.4-.4h26.8c.2 0 .4.1.4.4v53.9c0 .2-.1.4-.4.4H35.1z"/><path class="st7" d="M59.9 13.7H37c-.2 0-.4.2-.4.4v8.8c0 .2.2.4.4.4s.4-.2.4-.4v-8.4h22.1v8.4c0 .2.2.4.4.4s.4-.2.4-.4v-8.8c0-.2-.2-.4-.4-.4zM60.3 55.4c0-.2-.2-.4-.4-.4s-.4.2-.4.4v8.4H37.4v-8.4c0-.2-.2-.4-.4-.4s-.4.2-.4.4v8.8c0 .2.2.4.4.4h22.9c.2 0 .4-.2.4-.4v-8.8z"/><path class="st7" d="M48.4 55.5c-.6 0-1.2.5-1.2 1.2s.5 1.2 1.2 1.2 1.2-.5 1.2-1.2-.5-1.2-1.2-1.2zM38.6 39.1c0 5.5 4.4 10 9.8 10s9.8-4.5 9.8-10-4.4-10-9.8-10c-5.4.1-9.8 4.5-9.8 10zM47.2 21.6c0 .7.5 1.2 1.2 1.2s1.2-.5 1.2-1.2-.5-1.2-1.2-1.2c-.6 0-1.2.5-1.2 1.2z"/><path class="st6" d="M59.9 13H37c-.6 0-1.1.5-1.1 1.1v8.8c0 .6.5 1.1 1.1 1.1.6 0 1.1-.5 1.1-1.1v-7.6h20.7v7.6c0 .6.5 1.1 1.1 1.1.6 0 1.1-.5 1.1-1.1v-8.8c0-.6-.5-1.1-1.1-1.1zm.4 9.9c0 .2-.2.4-.4.4s-.4-.2-.4-.4v-8.4H37.4v8.4c0 .2-.2.4-.4.4s-.4-.2-.4-.4v-8.8c0-.2.2-.4.4-.4h22.9c.2 0 .4.2.4.4v8.8zM59.9 54.3c-.6 0-1.1.5-1.1 1.1V63H38.1v-7.6c0-.6-.5-1.1-1.1-1.1s-1.1.5-1.1 1.1v8.8c0 .6.5 1.1 1.1 1.1h22.9c.6 0 1.1-.5 1.1-1.1v-8.8c0-.6-.5-1.1-1.1-1.1zm0 10.3H37c-.2 0-.4-.2-.4-.4v-8.8c0-.2.2-.4.4-.4s.4.2.4.4v8.4h22.1v-8.4c0-.2.2-.4.4-.4s.4.2.4.4v8.8c0 .2-.2.4-.4.4z"/><path class="st6" d="M46.5 56.7c0 1.1.8 1.9 1.9 1.9 1.1 0 1.9-.8 1.9-1.9 0-1.1-.8-1.9-1.9-1.9-1 0-1.9.8-1.9 1.9zm1.9 1.2c-.7 0-1.2-.5-1.2-1.2s.5-1.2 1.2-1.2 1.2.5 1.2 1.2-.5 1.2-1.2 1.2zM46.5 21.6c0 1.1.8 1.9 1.9 1.9 1.1 0 1.9-.8 1.9-1.9 0-1.1-.8-1.9-1.9-1.9-1 0-1.9.8-1.9 1.9zm3.1 0c0 .7-.5 1.2-1.2 1.2s-1.2-.5-1.2-1.2.5-1.2 1.2-1.2 1.2.5 1.2 1.2zM48.4 28.5c-5.8 0-10.6 4.8-10.6 10.7 0 5.9 4.7 10.7 10.6 10.7C54.2 49.8 59 45 59 39.1c0-5.8-4.8-10.6-10.6-10.6zm0 .7c5.4 0 9.8 4.5 9.8 10s-4.4 10-9.8 10-9.8-4.5-9.8-10 4.4-10 9.8-10z"/><path class="st6" d="M72.6 12.6C64.5 4.5 53.9 0 42.5 0c-11.4 0-22 4.5-30.1 12.6C4.4 20.7 0 31.5 0 43s4.4 22.3 12.4 30.4c8 8.1 18.7 12.6 30.1 12.6 11.4 0 22-4.5 30.1-12.6C80.6 65.3 85 54.5 85 43s-4.4-22.3-12.4-30.4zM42.5 83.5c-22.1 0-40-18.2-40-40.5s18-40.5 40-40.5 40 18.2 40 40.5-17.9 40.5-40 40.5z"/></svg>