<svg id="Layer_1" xmlns="http://www.w3.org/2000/svg" viewBox="0 0 85 86"><style>.st0{fill:none}.st1{fill:#9ccb49}.st2{fill:#fff}</style><path class="st0" d="M42.5 2.5c-22.1 0-40 18.2-40 40.5s18 40.5 40 40.5 40-18.2 40-40.5-17.9-40.5-40-40.5zm27.1 66.3c.4.7.4 1.6 0 2.3-.4.7-1.1 1.1-1.9 1.1H44.9c-.2 0-.3 0-.5-.1-.6 0-1.2.1-1.9.1-16 0-28.9-13.1-28.9-29.3s13-29.3 28.9-29.3S71.4 26.8 71.4 43c0 6.9-2.3 13.2-6.3 18.2l4.5 7.6z"/><path class="st1" d="M72.6 12.6C64.5 4.5 53.9 0 42.5 0c-11.4 0-22 4.5-30.1 12.6S0 31.5 0 43s4.4 22.3 12.4 30.4c8 8.1 18.7 12.6 30.1 12.6 11.4 0 22-4.5 30.1-12.6C80.6 65.2 85 54.5 85 43s-4.4-22.3-12.4-30.4zM42.5 83.4c-22.1 0-40-18.2-40-40.5s18-40.5 40-40.5 40 18.2 40 40.5-17.9 40.5-40 40.5z"/><ellipse class="st2" cx="42.5" cy="42.9" rx="1.4" ry="1.4"/><path class="st2" d="M42.5 15.8C27.7 15.8 15.7 28 15.7 43s12 27.1 26.8 27.1h.1c0-.4.1-.9.3-1.3l.3-.5h-.7C28.7 68.4 17.4 57 17.4 43s11.3-25.4 25.1-25.4S67.6 29 67.6 43c0 5.4-1.7 10.4-4.5 14.5l1 1.6c3.3-4.5 5.3-10.1 5.3-16.2-.1-14.9-12.1-27.1-26.9-27.1z"/><path class="st2" d="M42.5 19.7c-12.7 0-23 10.4-23 23.2s10.3 23.2 23 23.2c.7 0 1.3 0 2-.1l9.8-17c.4-.7 1.1-1.1 1.9-1.1.8 0 1.5.4 1.9 1.1l3.7 6.4c2.3-3.6 3.6-7.9 3.6-12.5.1-12.7-10.2-23.2-22.9-23.2zM22.3 43.8h-1c-.5 0-1-.4-1-1 0-.5.4-1 1-1h1c.5 0 1 .4 1 1s-.5 1-1 1zm19.2-22.3c0-.5.4-1 1-1 .5 0 1 .4 1 1v1c0 .5-.4 1-1 1-.5 0-1-.4-1-1v-1zM28.9 58l-.7.7c-.2.2-.4.3-.7.3-.2 0-.5-.1-.7-.3-.4-.4-.4-1 0-1.4l.7-.7c.4-.4 1-.4 1.4 0 .4.4.4 1 0 1.4zm0-28.9c-.2.2-.4.3-.7.3-.2 0-.5-.1-.7-.3l-.7-.7c-.4-.4-.4-1 0-1.4.4-.4 1-.4 1.4 0l.7.7c.4.4.4 1 0 1.4zm14.6 35.1c0 .5-.4 1-1 1-.5 0-1-.4-1-1v-1c0-.5.4-1 1-1 .5 0 1 .4 1 1v1zm-1-16.9c-1.9 0-3.5-1.2-4.1-2.9h-6.5c-.8 0-1.5-.7-1.5-1.5s.7-1.5 1.5-1.5h6.5c.4-1.2 1.4-2.2 2.7-2.7v-9.5c0-.8.7-1.5 1.5-1.5s1.5.7 1.5 1.5v9.5c1.7.6 2.9 2.2 2.9 4.2-.1 2.4-2.1 4.4-4.5 4.4zm15.6-18.9l-.7.7c-.2.2-.4.3-.7.3-.2 0-.5-.1-.7-.3-.4-.4-.4-1 0-1.4l.7-.7c.4-.4 1-.4 1.4 0 .4.4.4 1 0 1.4zm5.6 15.4h-1c-.5 0-1-.4-1-1 0-.5.4-1 1-1h1c.5 0 1 .4 1 1-.1.6-.5 1-1 1z"/><path class="st1" d="M42.5 13.7c-16 0-28.9 13.1-28.9 29.3s13 29.3 28.9 29.3c.6 0 1.2 0 1.9-.1.2 0 .3.1.5.1h22.8c.8 0 1.5-.4 1.9-1.1.4-.7.4-1.6 0-2.3l-4.4-7.7c3.9-5 6.3-11.3 6.3-18.2-.1-16.2-13-29.3-29-29.3zm12.9 53.6c0-.3.1-.5.3-.7.4-.4 1-.4 1.4 0 .2.2.3.4.3.7 0 .3-.1.5-.3.7-.2.2-.4.3-.7.3-.2 0-.5-.1-.7-.3-.2-.2-.3-.5-.3-.7zm0-3.9v-7.8c0-.5.4-1 1-1 .5 0 1 .4 1 1v7.8c0 .5-.4 1-1 1s-1-.5-1-1zm2.8-14.3c-.4-.7-1.1-1.1-1.9-1.1-.8 0-1.5.4-1.9 1.1l-9.8 17c-.7.1-1.3.1-2 .1-12.7 0-23-10.4-23-23.2s10.3-23.2 23-23.2 23 10.4 23 23.2c0 4.6-1.3 8.9-3.6 12.5l-3.8-6.4zm4.9 8.4c2.9-4.1 4.5-9.1 4.5-14.5 0-14-11.3-25.4-25.1-25.4S17.4 29 17.4 43c0 14 11.3 25.4 25.1 25.4h.7l-.3.5c-.2.4-.3.8-.3 1.3h-.1c-14.8 0-26.8-12.2-26.8-27.1 0-15 12-27.1 26.8-27.1 14.8-.2 26.8 12 26.8 27 0 6.1-2 11.7-5.3 16.2l-.9-1.7z"/><path class="st1" d="M42.5 23.4c.5 0 1-.4 1-1v-1c0-.5-.4-1-1-1-.5 0-1 .4-1 1v1c0 .6.5 1 1 1zM42.5 62.3c-.5 0-1 .4-1 1v1c0 .5.4 1 1 1 .5 0 1-.4 1-1v-1c0-.6-.5-1-1-1zM63.7 41.9h-1c-.5 0-1 .4-1 1 0 .5.4 1 1 1h1c.5 0 1-.4 1-1-.1-.6-.5-1-1-1zM22.3 41.9h-1c-.5 0-1 .4-1 1 0 .5.4 1 1 1h1c.5 0 1-.4 1-1s-.5-1-1-1zM56.8 27l-.7.7c-.4.4-.4 1 0 1.4.2.2.4.3.7.3.2 0 .5-.1.7-.3l.7-.7c.4-.4.4-1 0-1.4-.4-.3-1-.3-1.4 0zM27.5 56.6l-.7.7c-.4.4-.4 1 0 1.4.2.2.4.3.7.3.2 0 .5-.1.7-.3l.7-.7c.4-.4.4-1 0-1.4-.4-.4-1-.4-1.4 0zM28.2 27c-.4-.4-1-.4-1.4 0-.4.4-.4 1 0 1.4l.7.7c.2.2.4.3.7.3.2 0 .5-.1.7-.3.4-.4.4-1 0-1.4l-.7-.7z"/><path class="st2" d="M38.1 43.3v-.4-.4h-6.2c-.2 0-.4.2-.4.4s.2.4.4.4h6.2zM42.5 38.4h.4v-9.2c0-.2-.2-.4-.4-.4s-.4.2-.4.4v9.2h.4zM42.5 39.5c-1.8 0-3.3 1.5-3.3 3.4s1.5 3.4 3.3 3.4 3.3-1.5 3.3-3.4-1.5-3.4-3.3-3.4zm0 5.8c-1.4 0-2.4-1.1-2.4-2.5s1.1-2.5 2.4-2.5c1.4 0 2.5 1.1 2.5 2.5s-1.1 2.5-2.5 2.5z"/><path class="st1" d="M44 38.7v-9.5c0-.8-.7-1.5-1.5-1.5s-1.5.7-1.5 1.5v9.5c-1.2.4-2.2 1.4-2.7 2.7h-6.5c-.8 0-1.5.7-1.5 1.5s.7 1.5 1.5 1.5h6.5c.6 1.7 2.2 2.9 4.1 2.9 2.4 0 4.4-2 4.4-4.4.1-2-1.1-3.6-2.8-4.2zm-1.5 7.5c-1.8 0-3.3-1.5-3.3-3.4 0-1.8 1.5-3.4 3.3-3.4s3.3 1.5 3.3 3.4-1.5 3.4-3.3 3.4zm-11-3.3c0-.2.2-.4.4-.4h6.2v.8h-6.2c-.2 0-.4-.2-.4-.4zm11-14.1c.2 0 .4.2.4.4v9.2h-.8v-9.2c0-.2.2-.4.4-.4z"/><path class="st1" d="M42.5 40.4c-1.4 0-2.4 1.1-2.4 2.5s1.1 2.5 2.4 2.5c1.4 0 2.5-1.1 2.5-2.5s-1.1-2.5-2.5-2.5zm0 3.9c-.8 0-1.4-.6-1.4-1.4 0-.8.6-1.4 1.4-1.4.8 0 1.4.6 1.4 1.4 0 .7-.6 1.4-1.4 1.4z"/><path class="st2" d="M57.3 63.4v-7.8c0-.5-.4-1-1-1-.5 0-1 .4-1 1v7.8c0 .5.4 1 1 1s1-.5 1-1zM56.3 68.3c.3 0 .5-.1.7-.3.2-.2.3-.4.3-.7 0-.3-.1-.5-.3-.7-.4-.4-1-.4-1.4 0-.2.2-.3.4-.3.7 0 .3.1.5.3.7.2.1.5.3.7.3z"/></svg>