<?xml version="1.0" encoding="utf-8"?>
<!-- Generator: Adobe Illustrator 21.1.0, SVG Export Plug-In . SVG Version: 6.00 Build 0)  -->
<svg version="1.1" id="Layer_1" xmlns="http://www.w3.org/2000/svg" xmlns:xlink="http://www.w3.org/1999/xlink" x="0px" y="0px"
	 viewBox="0 0 85 86" style="enable-background:new 0 0 85 86;" xml:space="preserve">
<style type="text/css">
	.st0{fill:none;}
	.st1{fill:#5B5B5B;}
	.st2{fill:#FFFFFF;}
	.st3{fill:#75828E;}
	.st4{fill:#9CCB49;}
	.st5{fill:#F58322;}
</style>
<g>
	<path class="st0" d="M42.5,2.5c-22.1,0-40,18.2-40,40.5s18,40.5,40,40.5s40-18.2,40-40.5S64.6,2.5,42.5,2.5z M69.6,68.9
		c0.4,0.7,0.4,1.6,0,2.3c-0.4,0.7-1.1,1.1-1.9,1.1H44.9c-0.2,0-0.3,0-0.5-0.1c-0.6,0-1.2,0.1-1.9,0.1c-16,0-28.9-13.1-28.9-29.3
		s13-29.3,28.9-29.3S71.4,26.9,71.4,43c0,6.9-2.4,13.2-6.3,18.2L69.6,68.9z"/>
	<path class="st1" d="M72.6,12.6C64.5,4.5,53.9,0,42.5,0s-22,4.5-30.1,12.6C4.4,20.7,0,31.5,0,43c0,11.5,4.4,22.3,12.4,30.4
		c8,8.1,18.7,12.6,30.1,12.6s22-4.5,30.1-12.6C80.6,65.3,85,54.5,85,43C85,31.5,80.6,20.7,72.6,12.6z M42.5,83.5
		c-22.1,0-40-18.2-40-40.5s18-40.5,40-40.5s40,18.2,40,40.5S64.6,83.5,42.5,83.5z"/>
	<ellipse class="st2" cx="42.5" cy="42.9" rx="1.4" ry="1.4"/>
	<path class="st2" d="M56.3,48c0.8,0,1.5,0.4,1.9,1.1l3.7,6.4c2.3-3.6,3.6-7.9,3.6-12.5c0-12.8-10.3-23.3-23-23.3s-23,10.4-23,23.3
		c0,12.8,10.3,23.3,23,23.3c0.7,0,1.3,0,2-0.1l9.8-17C54.7,48.4,55.4,48,56.3,48z M62.7,41.9h1c0.5,0,1,0.4,1,1c0,0.5-0.4,1-1,1h-1
		c-0.5,0-1-0.4-1-1C61.7,42.3,62.2,41.9,62.7,41.9z M56.1,27.7l0.7-0.7c0.4-0.4,1-0.4,1.4,0c0.4,0.4,0.4,1,0,1.4l-0.7,0.7
		c-0.2,0.2-0.4,0.3-0.7,0.3c-0.2,0-0.5-0.1-0.7-0.3C55.7,28.7,55.7,28.1,56.1,27.7z M22.3,43.9h-1c-0.5,0-1-0.4-1-1c0-0.5,0.4-1,1-1
		h1c0.5,0,1,0.4,1,1C23.3,43.4,22.8,43.9,22.3,43.9z M41.5,21.5c0-0.5,0.4-1,1-1c0.5,0,1,0.4,1,1v1c0,0.5-0.4,1-1,1
		c-0.5,0-1-0.4-1-1V21.5z M28.9,58l-0.7,0.7C28,58.9,27.8,59,27.5,59c-0.2,0-0.5-0.1-0.7-0.3c-0.4-0.4-0.4-1,0-1.4l0.7-0.7
		c0.4-0.4,1-0.4,1.4,0C29.3,57,29.3,57.6,28.9,58z M28.9,29.1c-0.2,0.2-0.4,0.3-0.7,0.3c-0.2,0-0.5-0.1-0.7-0.3l-0.7-0.7
		c-0.4-0.4-0.4-1,0-1.4c0.4-0.4,1-0.4,1.4,0l0.7,0.7C29.3,28.1,29.3,28.7,28.9,29.1z M43.5,64.3c0,0.5-0.4,1-1,1c-0.5,0-1-0.4-1-1
		v-1c0-0.5,0.4-1,1-1c0.5,0,1,0.4,1,1V64.3z M42.5,47.3c-1.9,0-3.5-1.2-4.1-2.9h-6.5c-0.8,0-1.5-0.7-1.5-1.5c0-0.8,0.7-1.5,1.5-1.5
		h6.5c0.4-1.2,1.4-2.2,2.7-2.7v-9.5c0-0.8,0.7-1.5,1.5-1.5s1.5,0.7,1.5,1.5v9.5c1.7,0.6,2.9,2.2,2.9,4.1
		C46.9,45.3,44.9,47.3,42.5,47.3z"/>
	<path class="st3" d="M42.5,15.9C27.7,15.9,15.7,28,15.7,43s12,27.1,26.8,27.1c0,0,0.1,0,0.1,0c0-0.4,0.1-0.9,0.3-1.3l0.3-0.5
		c-0.2,0-0.5,0-0.7,0C28.7,68.4,17.4,57,17.4,43c0-14,11.3-25.4,25.1-25.4S67.6,29,67.6,43c0,5.4-1.7,10.4-4.5,14.5l1,1.7
		c3.3-4.5,5.3-10.1,5.3-16.2C69.3,28,57.3,15.9,42.5,15.9z"/>
	<path class="st1" d="M42.5,13.7c-16,0-28.9,13.1-28.9,29.3s13,29.3,28.9,29.3c0.6,0,1.2,0,1.9-0.1c0.2,0,0.3,0.1,0.5,0.1h22.8
		c0.8,0,1.5-0.4,1.9-1.1c0.4-0.7,0.4-1.6,0-2.3l-4.4-7.7c3.9-5,6.3-11.3,6.3-18.2C71.4,26.9,58.5,13.7,42.5,13.7z M67.8,70.1
		c0,0.1-0.1,0.1-0.1,0.1H44.9c0,0-0.1,0-0.1-0.1c0-0.1,0-0.1,0-0.1l11.4-19.8c0,0,0-0.1,0.1-0.1s0.1,0,0.1,0.1l11.4,19.8
		C67.8,70,67.8,70,67.8,70.1z M44.5,66.2c-0.7,0.1-1.3,0.1-2,0.1c-12.7,0-23-10.4-23-23.3c0-12.8,10.3-23.3,23-23.3s23,10.4,23,23.3
		c0,4.6-1.3,8.9-3.6,12.5l-3.7-6.4c-0.4-0.7-1.1-1.1-1.9-1.1s-1.5,0.4-1.9,1.1L44.5,66.2z M63.1,57.5c2.9-4.1,4.5-9.1,4.5-14.5
		c0-14-11.3-25.4-25.1-25.4S17.4,29,17.4,43c0,14,11.3,25.4,25.1,25.4c0.2,0,0.5,0,0.7,0l-0.3,0.5c-0.2,0.4-0.3,0.8-0.3,1.3
		c0,0-0.1,0-0.1,0C27.7,70.1,15.7,58,15.7,43s12-27.1,26.8-27.1C57.3,15.9,69.3,28,69.3,43c0,6.1-2,11.7-5.3,16.2L63.1,57.5z"/>
	<path class="st4" d="M42.5,23.4c0.5,0,1-0.4,1-1v-1c0-0.5-0.4-1-1-1c-0.5,0-1,0.4-1,1v1C41.5,23,42,23.4,42.5,23.4z"/>
	<path class="st4" d="M42.5,62.3c-0.5,0-1,0.4-1,1v1c0,0.5,0.4,1,1,1c0.5,0,1-0.4,1-1v-1C43.5,62.8,43,62.3,42.5,62.3z"/>
	<path class="st4" d="M62.7,43.9h1c0.5,0,1-0.4,1-1c0-0.5-0.4-1-1-1h-1c-0.5,0-1,0.4-1,1C61.7,43.4,62.2,43.9,62.7,43.9z"/>
	<path class="st4" d="M22.3,41.9h-1c-0.5,0-1,0.4-1,1c0,0.5,0.4,1,1,1h1c0.5,0,1-0.4,1-1C23.3,42.3,22.8,41.9,22.3,41.9z"/>
	<path class="st4" d="M56.8,29.4c0.2,0,0.5-0.1,0.7-0.3l0.7-0.7c0.4-0.4,0.4-1,0-1.4c-0.4-0.4-1-0.4-1.4,0l-0.7,0.7
		c-0.4,0.4-0.4,1,0,1.4C56.3,29.3,56.5,29.4,56.8,29.4z"/>
	<path class="st4" d="M27.5,56.6l-0.7,0.7c-0.4,0.4-0.4,1,0,1.4c0.2,0.2,0.4,0.3,0.7,0.3c0.2,0,0.5-0.1,0.7-0.3l0.7-0.7
		c0.4-0.4,0.4-1,0-1.4C28.5,56.3,27.9,56.3,27.5,56.6z"/>
	<path class="st4" d="M28.2,27.1c-0.4-0.4-1-0.4-1.4,0c-0.4,0.4-0.4,1,0,1.4l0.7,0.7c0.2,0.2,0.4,0.3,0.7,0.3c0.2,0,0.5-0.1,0.7-0.3
		c0.4-0.4,0.4-1,0-1.4L28.2,27.1z"/>
	<path class="st3" d="M38.2,43.3c0-0.1,0-0.3,0-0.4c0-0.1,0-0.3,0-0.4h-6.2c-0.2,0-0.4,0.2-0.4,0.4c0,0.2,0.2,0.4,0.4,0.4H38.2z"/>
	<path class="st3" d="M42.5,38.5c0.1,0,0.3,0,0.4,0v-9.3c0-0.2-0.2-0.4-0.4-0.4c-0.2,0-0.4,0.2-0.4,0.4v9.3
		C42.2,38.5,42.4,38.5,42.5,38.5z"/>
	<path class="st3" d="M42.5,39.5c-1.8,0-3.3,1.5-3.3,3.4c0,1.9,1.5,3.4,3.3,3.4s3.3-1.5,3.3-3.4C45.8,41,44.3,39.5,42.5,39.5z
		 M42.5,45.4c-1.4,0-2.4-1.1-2.4-2.5c0-1.4,1.1-2.5,2.4-2.5c1.4,0,2.5,1.1,2.5,2.5C45,44.3,43.9,45.4,42.5,45.4z"/>
	<path class="st1" d="M44,38.7v-9.5c0-0.8-0.7-1.5-1.5-1.5s-1.5,0.7-1.5,1.5v9.5c-1.2,0.4-2.2,1.4-2.7,2.7h-6.5
		c-0.8,0-1.5,0.7-1.5,1.5c0,0.8,0.7,1.5,1.5,1.5h6.5c0.6,1.7,2.2,2.9,4.1,2.9c2.4,0,4.4-2,4.4-4.4C46.9,41,45.7,39.4,44,38.7z
		 M42.5,46.2c-1.8,0-3.3-1.5-3.3-3.4c0-1.9,1.5-3.4,3.3-3.4s3.3,1.5,3.3,3.4C45.8,44.7,44.3,46.2,42.5,46.2z M31.5,42.9
		c0-0.2,0.2-0.4,0.4-0.4h6.2c0,0.1,0,0.3,0,0.4c0,0.1,0,0.3,0,0.4h-6.2C31.7,43.3,31.5,43.1,31.5,42.9z M42.5,28.8
		c0.2,0,0.4,0.2,0.4,0.4v9.3c-0.1,0-0.3,0-0.4,0c-0.1,0-0.3,0-0.4,0v-9.3C42.1,29,42.3,28.8,42.5,28.8z"/>
	<path class="st1" d="M42.5,40.4c-1.4,0-2.4,1.1-2.4,2.5c0,1.4,1.1,2.5,2.4,2.5c1.4,0,2.5-1.1,2.5-2.5C45,41.5,43.9,40.4,42.5,40.4z
		 M42.5,44.3c-0.8,0-1.4-0.6-1.4-1.4c0-0.8,0.6-1.4,1.4-1.4c0.8,0,1.4,0.6,1.4,1.4C43.9,43.7,43.3,44.3,42.5,44.3z"/>
	<path class="st5" d="M56.4,50.2c0,0,0-0.1-0.1-0.1s-0.1,0-0.1,0.1L44.8,69.9c0,0,0,0.1,0,0.1c0,0.1,0.1,0.1,0.1,0.1h22.8
		c0,0,0.1,0,0.1-0.1c0-0.1,0-0.1,0-0.1L56.4,50.2z M55.4,63.4v-7.8c0-0.5,0.4-1,1-1s1,0.4,1,1v7.8c0,0.5-0.4,1-1,1
		S55.4,64,55.4,63.4z M55.4,67.3c0-0.3,0.1-0.5,0.3-0.7c0.4-0.4,1-0.4,1.4,0c0.2,0.2,0.3,0.4,0.3,0.7c0,0.3-0.1,0.5-0.3,0.7
		c-0.2,0.2-0.4,0.3-0.7,0.3c-0.2,0-0.5-0.1-0.7-0.3C55.5,67.8,55.4,67.6,55.4,67.3z"/>
	<path class="st2" d="M57.3,63.4v-7.8c0-0.5-0.4-1-1-1s-1,0.4-1,1v7.8c0,0.5,0.4,1,1,1S57.3,64,57.3,63.4z"/>
	<path class="st2" d="M56.3,68.3c0.3,0,0.5-0.1,0.7-0.3c0.2-0.2,0.3-0.4,0.3-0.7c0-0.3-0.1-0.5-0.3-0.7c-0.4-0.4-1-0.4-1.4,0
		c-0.2,0.2-0.3,0.4-0.3,0.7c0,0.3,0.1,0.5,0.3,0.7C55.8,68.2,56.1,68.3,56.3,68.3z"/>
</g>
</svg>
