<svg id="Layer_1" xmlns="http://www.w3.org/2000/svg" viewBox="0 0 85 86"><style>.st0{fill:none}.st1{fill:#5b5b5b}.st2{fill:#fff}.st3{fill:#75828e}.st4{fill:#9ccb49}.st5{fill:#f58322}</style><path class="st0" d="M42.5 2.5c-22.1 0-40 18.2-40 40.5s18 40.5 40 40.5 40-18.2 40-40.5-17.9-40.5-40-40.5zm27.1 66.4c.4.7.4 1.6 0 2.3-.4.7-1.1 1.1-1.9 1.1H44.9c-.2 0-.3 0-.5-.1-.6 0-1.2.1-1.9.1-16 0-28.9-13.1-28.9-29.3s13-29.3 28.9-29.3S71.4 26.9 71.4 43c0 6.9-2.4 13.2-6.3 18.2l4.5 7.7z"/><path class="st1" d="M72.6 12.6C64.5 4.5 53.9 0 42.5 0s-22 4.5-30.1 12.6C4.4 20.7 0 31.5 0 43s4.4 22.3 12.4 30.4c8 8.1 18.7 12.6 30.1 12.6s22-4.5 30.1-12.6C80.6 65.3 85 54.5 85 43s-4.4-22.3-12.4-30.4zM42.5 83.5c-22.1 0-40-18.2-40-40.5s18-40.5 40-40.5 40 18.2 40 40.5-17.9 40.5-40 40.5z"/><ellipse class="st2" cx="42.5" cy="42.9" rx="1.4" ry="1.4"/><path class="st2" d="M56.3 48c.8 0 1.5.4 1.9 1.1l3.7 6.4c2.3-3.6 3.6-7.9 3.6-12.5 0-12.8-10.3-23.3-23-23.3s-23 10.4-23 23.3c0 12.8 10.3 23.3 23 23.3.7 0 1.3 0 2-.1l9.8-17c.4-.8 1.1-1.2 2-1.2zm6.4-6.1h1c.5 0 1 .4 1 1 0 .5-.4 1-1 1h-1c-.5 0-1-.4-1-1s.5-1 1-1zm-6.6-14.2l.7-.7c.4-.4 1-.4 1.4 0 .4.4.4 1 0 1.4l-.7.7c-.2.2-.4.3-.7.3-.2 0-.5-.1-.7-.3-.4-.4-.4-1 0-1.4zM22.3 43.9h-1c-.5 0-1-.4-1-1 0-.5.4-1 1-1h1c.5 0 1 .4 1 1 0 .5-.5 1-1 1zm19.2-22.4c0-.5.4-1 1-1 .5 0 1 .4 1 1v1c0 .5-.4 1-1 1-.5 0-1-.4-1-1v-1zM28.9 58l-.7.7c-.2.2-.4.3-.7.3-.2 0-.5-.1-.7-.3-.4-.4-.4-1 0-1.4l.7-.7c.4-.4 1-.4 1.4 0 .4.4.4 1 0 1.4zm0-28.9c-.2.2-.4.3-.7.3-.2 0-.5-.1-.7-.3l-.7-.7c-.4-.4-.4-1 0-1.4.4-.4 1-.4 1.4 0l.7.7c.4.4.4 1 0 1.4zm14.6 35.2c0 .5-.4 1-1 1-.5 0-1-.4-1-1v-1c0-.5.4-1 1-1 .5 0 1 .4 1 1v1zm-1-17c-1.9 0-3.5-1.2-4.1-2.9h-6.5c-.8 0-1.5-.7-1.5-1.5s.7-1.5 1.5-1.5h6.5c.4-1.2 1.4-2.2 2.7-2.7v-9.5c0-.8.7-1.5 1.5-1.5s1.5.7 1.5 1.5v9.5c1.7.6 2.9 2.2 2.9 4.1-.1 2.5-2.1 4.5-4.5 4.5z"/><path class="st3" d="M42.5 15.9C27.7 15.9 15.7 28 15.7 43s12 27.1 26.8 27.1h.1c0-.4.1-.9.3-1.3l.3-.5h-.7C28.7 68.4 17.4 57 17.4 43s11.3-25.4 25.1-25.4S67.6 29 67.6 43c0 5.4-1.7 10.4-4.5 14.5l1 1.7c3.3-4.5 5.3-10.1 5.3-16.2-.1-15-12.1-27.1-26.9-27.1z"/><path class="st1" d="M42.5 13.7c-16 0-28.9 13.1-28.9 29.3s13 29.3 28.9 29.3c.6 0 1.2 0 1.9-.1.2 0 .3.1.5.1h22.8c.8 0 1.5-.4 1.9-1.1.4-.7.4-1.6 0-2.3l-4.4-7.7c3.9-5 6.3-11.3 6.3-18.2-.1-16.1-13-29.3-29-29.3zm25.3 56.4c0 .1-.1.1-.1.1H44.9s-.1 0-.1-.1V70l11.4-19.8s0-.1.1-.1.1 0 .1.1L67.8 70v.1zm-23.3-3.9c-.7.1-1.3.1-2 .1-12.7 0-23-10.4-23-23.3 0-12.8 10.3-23.3 23-23.3s23 10.4 23 23.3c0 4.6-1.3 8.9-3.6 12.5l-3.7-6.4c-.4-.7-1.1-1.1-1.9-1.1s-1.5.4-1.9 1.1l-9.9 17.1zm18.6-8.7c2.9-4.1 4.5-9.1 4.5-14.5 0-14-11.3-25.4-25.1-25.4S17.4 29 17.4 43c0 14 11.3 25.4 25.1 25.4h.7l-.3.5c-.2.4-.3.8-.3 1.3h-.1C27.7 70.1 15.7 58 15.7 43s12-27.1 26.8-27.1S69.3 28 69.3 43c0 6.1-2 11.7-5.3 16.2l-.9-1.7z"/><path class="st4" d="M42.5 23.4c.5 0 1-.4 1-1v-1c0-.5-.4-1-1-1-.5 0-1 .4-1 1v1c0 .6.5 1 1 1zM42.5 62.3c-.5 0-1 .4-1 1v1c0 .5.4 1 1 1 .5 0 1-.4 1-1v-1c0-.5-.5-1-1-1zM62.7 43.9h1c.5 0 1-.4 1-1 0-.5-.4-1-1-1h-1c-.5 0-1 .4-1 1 0 .5.5 1 1 1zM22.3 41.9h-1c-.5 0-1 .4-1 1 0 .5.4 1 1 1h1c.5 0 1-.4 1-1s-.5-1-1-1zM56.8 29.4c.2 0 .5-.1.7-.3l.7-.7c.4-.4.4-1 0-1.4-.4-.4-1-.4-1.4 0l-.7.7c-.4.4-.4 1 0 1.4.2.2.4.3.7.3zM27.5 56.6l-.7.7c-.4.4-.4 1 0 1.4.2.2.4.3.7.3.2 0 .5-.1.7-.3l.7-.7c.4-.4.4-1 0-1.4-.4-.3-1-.3-1.4 0zM28.2 27.1c-.4-.4-1-.4-1.4 0-.4.4-.4 1 0 1.4l.7.7c.2.2.4.3.7.3.2 0 .5-.1.7-.3.4-.4.4-1 0-1.4l-.7-.7z"/><path class="st3" d="M38.2 43.3v-.4-.4H32c-.2 0-.4.2-.4.4s.2.4.4.4h6.2zM42.5 38.5h.4v-9.3c0-.2-.2-.4-.4-.4s-.4.2-.4.4v9.3h.4zM42.5 39.5c-1.8 0-3.3 1.5-3.3 3.4s1.5 3.4 3.3 3.4 3.3-1.5 3.3-3.4-1.5-3.4-3.3-3.4zm0 5.9c-1.4 0-2.4-1.1-2.4-2.5s1.1-2.5 2.4-2.5c1.4 0 2.5 1.1 2.5 2.5s-1.1 2.5-2.5 2.5z"/><path class="st1" d="M44 38.7v-9.5c0-.8-.7-1.5-1.5-1.5s-1.5.7-1.5 1.5v9.5c-1.2.4-2.2 1.4-2.7 2.7h-6.5c-.8 0-1.5.7-1.5 1.5s.7 1.5 1.5 1.5h6.5c.6 1.7 2.2 2.9 4.1 2.9 2.4 0 4.4-2 4.4-4.4.1-1.9-1.1-3.5-2.8-4.2zm-1.5 7.5c-1.8 0-3.3-1.5-3.3-3.4s1.5-3.4 3.3-3.4 3.3 1.5 3.3 3.4-1.5 3.4-3.3 3.4zm-11-3.3c0-.2.2-.4.4-.4h6.2v.8h-6.2c-.2 0-.4-.2-.4-.4zm11-14.1c.2 0 .4.2.4.4v9.3h-.8v-9.3c0-.2.2-.4.4-.4z"/><path class="st1" d="M42.5 40.4c-1.4 0-2.4 1.1-2.4 2.5s1.1 2.5 2.4 2.5c1.4 0 2.5-1.1 2.5-2.5s-1.1-2.5-2.5-2.5zm0 3.9c-.8 0-1.4-.6-1.4-1.4 0-.8.6-1.4 1.4-1.4.8 0 1.4.6 1.4 1.4 0 .8-.6 1.4-1.4 1.4z"/><path class="st5" d="M56.4 50.2s0-.1-.1-.1-.1 0-.1.1L44.8 69.9v.1c0 .1.1.1.1.1h22.8s.1 0 .1-.1v-.1L56.4 50.2zm-1 13.2v-7.8c0-.5.4-1 1-1s1 .4 1 1v7.8c0 .5-.4 1-1 1s-1-.4-1-1zm0 3.9c0-.3.1-.5.3-.7.4-.4 1-.4 1.4 0 .2.2.3.4.3.7 0 .3-.1.5-.3.7-.2.2-.4.3-.7.3-.2 0-.5-.1-.7-.3-.2-.2-.3-.4-.3-.7z"/><path class="st2" d="M57.3 63.4v-7.8c0-.5-.4-1-1-1s-1 .4-1 1v7.8c0 .5.4 1 1 1s1-.4 1-1zM56.3 68.3c.3 0 .5-.1.7-.3.2-.2.3-.4.3-.7 0-.3-.1-.5-.3-.7-.4-.4-1-.4-1.4 0-.2.2-.3.4-.3.7 0 .3.1.5.3.7.2.2.5.3.7.3z"/></svg>