<svg id="Layer_1" xmlns="http://www.w3.org/2000/svg" viewBox="0 0 138 138"><style>.st0{fill:none}.st1{fill:#5b5b5b}.st2{fill:#edb66e}.st3{fill:#bc9366}.st4{fill:#eb2026}.st5{fill:#fff}</style><path class="st0" d="M69 4C33.2 4 4 33.2 4 69s29.2 65 65 65 65-29.2 65-65S104.8 4 69 4zm43.4 62.6v25c0 .8-.5 1.5-1.2 1.7l-35.5 12.6h-.1-.1-.1-.1-.1-.5L20.6 93.4c-.8-.2-1.4-.9-1.4-1.8V46.4v-.2-.2-.2c0-.1 0-.1.1-.2 0 0 0-.1.1-.1 0-.1.1-.1.1-.1l.1-.1.1-.1s.1-.1.2-.1c0 0 .1 0 .1-.1.1 0 .1 0 .2-.1l35.5-12.6c.3-.1.7-.1 1-.1l18 4.2 9.5 2.2c3.7-4.9 9.5-8 16-8 11.1 0 20.1 9 20.1 20.1.2 6.4-3 12.3-7.9 15.9z"/><path class="st1" d="M117.8 20.2C104.8 7.2 87.4 0 69 0S33.2 7.2 20.2 20.2 0 50.6 0 69s7.2 35.8 20.2 48.8S50.6 138 69 138s35.8-7.2 48.8-20.2S138 87.4 138 69s-7.2-35.8-20.2-48.8zM69 134c-35.8 0-65-29.2-65-65S33.2 4 69 4s65 29.2 65 65-29.2 65-65 65z"/><path class="st2" d="M53.3 70.8V71.1c0 .1 0 .2-.1.2v.5s0 .1-.1.1c0 .1-.1.1-.2.2l-.1.1-.1.1-.1.1s-.1 0-.1.1h-.1-.1-.1-.1-.1-.1-.7-.1-.1-.1-.1s-.1 0-.1-.1h-.1s-.1 0-.1-.1h-.1l-.1-.1-.1-.1-2.6-3.2-2.2 1.8c-.4.3-1 .5-1.5.4-.5-.1-1-.4-1.2-.9l-1.1-1.9-1.2 1.1c-.5.5-1.3.6-2 .3s-1.1-.9-1.1-1.7V52L23 48.7v41.4l50.5 11.7V60.4l-20-4.6v15zM39.1 88.3c-.2.8-.9 1.4-1.8 1.4h-.4l-9.1-2.1c-1-.2-1.6-1.2-1.4-2.2.2-1 1.2-1.6 2.2-1.4l9.1 2.1c1 .3 1.7 1.2 1.4 2.2zm5.2 1.2c-.2.8-.9 1.4-1.8 1.4h-.4c-1-.2-1.6-1.2-1.4-2.2.2-1 1.2-1.6 2.2-1.4 1 .2 1.6 1.2 1.4 2.2zM76.9 101.6l31.8-11.3V68.8c-2.5 1.2-5.4 1.8-8.3 1.8-8.3 0-15.4-5-18.4-12.1l-5.1 1.8v41.3zM75 57.1l5.9-2.1c-.3-1.4-.5-2.9-.5-4.5 0-1.9.3-3.8.8-5.6L58 53.1l17 4zM38.9 48.7L68 38.4l-11.4-2.7L27.5 46z"/><path class="st3" d="M74.6 39.9L45.5 50.2l5.9 1.4 29.1-10.3zM43.5 64.3l1.1 2 2-1.6c.8-.6 1.9-.5 2.6.3l.5.7V54.9l-8.9-2.1v10.8c.4-.3.9-.4 1.4-.3.5.2 1 .5 1.3 1z"/><path class="st1" d="M108.8 68.8v21.5L77 101.6V60.3l5.1-1.8c-.5-1.1-.9-2.3-1.1-3.5l-6 2.1-17-4 23.2-8.2c.7-2.4 1.8-4.5 3.2-6.5l-9.5-2.2-18-4.2c-.3-.1-.7-.1-1 .1L20.4 44.7c-.1 0-.1 0-.2.1 0 0-.1 0-.1.1-.1 0-.1.1-.2.1l-.1.1-.1.1-.1.1s0 .1-.1.1c0 .1 0 .1-.1.2V91.4c0 .8.6 1.6 1.4 1.8l54.1 12.6H75.9l35.5-12.6c.7-.3 1.2-.9 1.2-1.7v-25c-1.3 1-2.5 1.7-3.8 2.3zm-35.5 33.1L22.8 90.1V48.7L37.2 52v15.8c0 .7.4 1.4 1.1 1.7.7.3 1.4.2 2-.3l1.2-1.1 1.1 1.9c.3.5.7.8 1.2.9.5.1 1.1 0 1.5-.4l2.2-1.8 2.6 3.2c0 .1.1.1.1.1l.1.1h.1s.1 0 .1.1h.1s.1 0 .1.1H52.4s.1 0 .1-.1l.1-.1s.1 0 .1-.1l.1-.1.2-.2s0-.1.1-.1v-.1-.1-.1-.1-.1c0-.1 0-.2.1-.2v-.1-.1-15.1l20 4.6v41.7zM68 38.4L38.9 48.7 27.5 46l29.1-10.3L68 38.4zM40.8 63.7V52.9l8.9 2.1v10.7l-.6-.7c-.6-.8-1.8-.9-2.6-.3l-2 1.6-1.1-2c-.3-.5-.8-.8-1.3-.9-.4-.1-.9 0-1.3.3zm4.7-13.5l29.1-10.3 5.9 1.4-29.1 10.3-5.9-1.4z"/><path class="st1" d="M37.8 86.1L28.7 84c-1-.2-2 .4-2.2 1.4-.2 1 .4 2 1.4 2.2l9.1 2.1h.4c.8 0 1.6-.6 1.8-1.4.2-1-.5-1.9-1.4-2.2zM42.9 87.3c-1-.2-2 .4-2.2 1.4-.2 1 .4 2 1.4 2.2h.4c.8 0 1.6-.6 1.8-1.4.2-1-.4-2-1.4-2.2z"/><path class="st4" d="M117.1 50.5c0-9.2-7.5-16.6-16.6-16.6s-16.6 7.5-16.6 16.6c0 9.2 7.5 16.6 16.6 16.6s16.6-7.4 16.6-16.6zm-9.2 9.5h-.6c-.7-.1-1.2-.5-1.5-.9l-3.6-3.6-1.7-1.7-1.3 1.3-4 4c-.4.4-.8.8-1.5.9h-.6l-.1-.1c-.9-.2-1.5-.8-1.7-1.6-.2-.6-.2-1.5.6-2.3l1.7-1.7 3.7-3.7-4.9-4.9-.5-.5c-.6-.6-.8-1.5-.6-2.3.2-.8.8-1.4 1.6-1.6.6-.2 1.4-.2 2.3.7l4.7 4.7.7.7 3.7-3.7L106 42c.9-.9 2.3-1 3.2-.1.4.3.6.8.7 1.3v.7c-.1.7-.5 1.2-.9 1.6l-4.4 4.4-.9.9 1 1 4.3 4.3c.4.4.8.9.9 1.6V58l-.1.2c0 .1 0 .1-.1.2-.1.2-.1.4-.3.6-.2.5-.7.8-1.5 1z"/><path class="st1" d="M100.4 30.4c-6.6 0-12.4 3.2-16 8-1.4 1.9-2.5 4.1-3.2 6.5-.5 1.8-.8 3.7-.8 5.6 0 1.5.2 3 .5 4.5.3 1.2.7 2.4 1.1 3.5 3.1 7.1 10.2 12.1 18.4 12.1 3 0 5.8-.7 8.3-1.8 1.3-.6 2.5-1.3 3.6-2.2 4.9-3.7 8.1-9.5 8.1-16.1.1-11.1-8.9-20.1-20-20.1zM83.8 50.5c0-9.2 7.5-16.6 16.6-16.6S117 41.4 117 50.5c0 9.2-7.5 16.6-16.6 16.6s-16.6-7.4-16.6-16.6z"/><path class="st5" d="M109.5 59l.3-.6c0-.1 0-.1.1-.2l.1-.2v-.6c-.1-.7-.5-1.2-.9-1.6l-4.3-4.3-1-1 .9-.9 4.4-4.4c.4-.4.8-.9.9-1.6v-.7c-.1-.6-.4-1-.7-1.3-.9-.8-2.3-.8-3.2.1l-1.7 1.7-3.7 3.7-.7-.7-4.7-4.7c-.8-.8-1.7-.8-2.3-.7-.8.2-1.4.8-1.6 1.6-.2.8 0 1.6.6 2.3l.5.5 4.9 4.9-3.7 3.7-1.8 2c-.9.9-.8 1.7-.6 2.3.2.8.9 1.4 1.7 1.6l.2.1h.6c.7-.1 1.2-.5 1.5-.9l4-4 1.3-1.3 1.7 1.7 3.6 3.6c.4.4.8.8 1.5.9h.7c.6-.2 1.1-.5 1.4-1z"/></svg>