<svg id="Layer_1" xmlns="http://www.w3.org/2000/svg" viewBox="0 0 138 138"><style>.st0{fill:none}.st1{fill:#5b5b5b}.st2{fill:#c6e9f4}.st3{fill:#eb2026}.st4{fill:#fff}</style><circle class="st0" cx="77.9" cy="110.9" r="3.3"/><circle class="st0" cx="51.9" cy="110.9" r="3.3"/><path class="st0" d="M69 4C33.2 4 4 33.2 4 69s29.2 65 65 65 65-29.2 65-65S104.8 4 69 4zM51.9 118.3c-4.1 0-7.4-3.3-7.4-7.4s3.3-7.4 7.4-7.4 7.4 3.3 7.4 7.4-3.3 7.4-7.4 7.4zm26 0c-4.1 0-7.4-3.3-7.4-7.4s3.3-7.4 7.4-7.4c4.1 0 7.4 3.3 7.4 7.4s-3.3 7.4-7.4 7.4zm25.2-49.8c-1.5 0-2.9-.2-4.3-.5L95 86.7c-.4 1.9-2.1 3.3-4.1 3.3H39.7l1.2 5.9h49.6c1.1 0 2.1.9 2.1 2.1 0 1.1-.9 2.1-2.1 2.1H40.9c-2 0-3.7-1.4-4.1-3.3l-10-48.6-9.1-3.9c-1-.5-1.5-1.7-1.1-2.7.5-1 1.7-1.5 2.7-1.1l9.1 3.9c1.2.5 2.1 1.6 2.4 3l1.3 6.3h51.6c-.5-1.7-.7-3.4-.7-5.3 0-11.1 9-20.1 20.1-20.1s20.1 9 20.1 20.1-9 20.1-20.1 20.1z"/><path class="st1" d="M117.8 20.2C104.8 7.2 87.4 0 69 0S33.2 7.2 20.2 20.2 0 50.6 0 69s7.2 35.8 20.2 48.8S50.6 138 69 138s35.8-7.2 48.8-20.2S138 87.4 138 69s-7.2-35.8-20.2-48.8zM69 134c-35.8 0-65-29.2-65-65S33.2 4 69 4s65 29.2 65 65-29.2 65-65 65z"/><path class="st2" d="M38.8 85.9h52.1l4-19.2c-4-1.8-7.4-5-9.5-8.9H33l5.8 28.1zm39.3-6.6H51.6c-1.1 0-2.1-.9-2.1-2.1 0-1.1.9-2.1 2.1-2.1H78c1.1 0 2.1.9 2.1 2.1.1 1.2-.9 2.1-2 2.1zM50 64.4h29.7c1.1 0 2.1.9 2.1 2.1 0 1.1-.9 2.1-2.1 2.1H50c-1.1 0-2.1-.9-2.1-2.1.1-1.2 1-2.1 2.1-2.1z"/><path class="st1" d="M51.9 103.5c-4.1 0-7.4 3.3-7.4 7.4s3.3 7.4 7.4 7.4 7.4-3.3 7.4-7.4-3.3-7.4-7.4-7.4zm0 10.7c-1.8 0-3.3-1.5-3.3-3.3s1.5-3.3 3.3-3.3 3.3 1.5 3.3 3.3c-.1 1.8-1.5 3.3-3.3 3.3zM77.9 103.5c-4.1 0-7.4 3.3-7.4 7.4s3.3 7.4 7.4 7.4c4.1 0 7.4-3.3 7.4-7.4s-3.3-7.4-7.4-7.4zm0 10.7c-1.8 0-3.3-1.5-3.3-3.3s1.5-3.3 3.3-3.3c1.8 0 3.3 1.5 3.3 3.3 0 1.8-1.5 3.3-3.3 3.3zM50 68.5h29.7c1.1 0 2.1-.9 2.1-2.1 0-1.1-.9-2.1-2.1-2.1H50c-1.1 0-2.1.9-2.1 2.1.1 1.2 1 2.1 2.1 2.1zM78.1 75.2H51.6c-1.1 0-2.1.9-2.1 2.1 0 1.1.9 2.1 2.1 2.1H78c1.1 0 2.1-.9 2.1-2.1.1-1.2-.9-2.1-2-2.1z"/><path class="st1" d="M94.9 66.7l-4 19.2H38.8L33 57.8h52.4c-.7-1.3-1.2-2.7-1.6-4.1H32.2l-1.3-6.3c-.3-1.3-1.2-2.4-2.4-3l-9.1-3.9c-1-.5-2.3 0-2.7 1.1-.5 1 0 2.3 1.1 2.7l9.1 3.9 10 48.6c.4 1.9 2.1 3.3 4.1 3.3h49.6c1.1 0 2.1-.9 2.1-2.1 0-1.1-.9-2.1-2.1-2.1H40.9L39.7 90h51.2c2 0 3.7-1.4 4.1-3.3L98.8 68c-1.4-.3-2.7-.8-3.9-1.3z"/><path class="st3" d="M103.1 65c9.2 0 16.6-7.5 16.6-16.6s-7.5-16.6-16.6-16.6-16.6 7.5-16.6 16.6S94 65 103.1 65zm-7.9-21.5l-.2-.2-.5-.5c-.6-.6-.8-1.5-.6-2.3.2-.8.8-1.4 1.7-1.6.6-.1 1.4-.2 2.3.7l4.5 4.5.9.9 3.7-3.7c.6-.6 1.2-1.2 1.8-1.7.9-.9 2.3-.9 3.2-.1.4.3.6.8.7 1.3v.7c-.1.7-.5 1.2-.9 1.6-1.5 1.4-2.9 2.9-4.4 4.4l-.9.9 1 1c1.4 1.4 2.8 2.9 4.2 4.3.4.4.8.9.9 1.6v.7l-.1.2c0 .1 0 .1-.1.2l-.3.6c-.3.5-.8.8-1.5 1h-.7c-.7-.1-1.2-.5-1.5-.9-1.2-1.2-2.4-2.4-3.5-3.6l-1.7-1.7-1.3 1.3c-1.3 1.3-2.7 2.6-4 4-.4.4-.8.8-1.6.9h-.6l-.2-.1c-.9-.2-1.5-.8-1.7-1.6-.2-.6-.2-1.5.7-2.3l1.6-1.5c1.3-1.3 2.6-2.6 3.9-3.8-1.6-2-3.2-3.6-4.8-5.2z"/><path class="st1" d="M103.1 28.3C92 28.3 83 37.3 83 48.4c0 1.8.2 3.6.7 5.3.4 1.5.9 2.8 1.6 4.1 2.1 3.9 5.4 7 9.5 8.9 1.3.6 2.6 1 4 1.3 1.4.3 2.8.5 4.3.5 11.1 0 20.1-9 20.1-20.1s-9-20.1-20.1-20.1zM86.5 48.4c0-9.2 7.5-16.6 16.6-16.6s16.6 7.5 16.6 16.6S112.3 65 103.1 65s-16.6-7.4-16.6-16.6z"/><path class="st4" d="M94.5 53.7c-.9.8-.8 1.7-.7 2.3.2.8.8 1.4 1.7 1.6l.2.1h.6c.7-.1 1.2-.5 1.6-.9 1.3-1.3 2.7-2.6 4-4l1.3-1.3 1.7 1.7c1.2 1.2 2.4 2.4 3.5 3.6.4.4.8.8 1.5.9h.7c.7-.1 1.2-.5 1.5-1l.3-.6c0-.1 0-.1.1-.2l.1-.2V55c-.1-.7-.5-1.2-.9-1.6-1.4-1.4-2.8-2.9-4.2-4.3l-1-1 .9-.9 4.4-4.4c.4-.4.8-.9.9-1.6v-.7c-.1-.6-.4-1-.7-1.3-.9-.8-2.3-.8-3.2.1-.6.6-1.2 1.2-1.8 1.7l-3.7 3.7-.9-.9-4.5-4.5c-.8-.8-1.7-.8-2.3-.7-.8.2-1.4.8-1.7 1.6-.2.8 0 1.6.6 2.3.2.2.3.4.5.5l.2.2c1.6 1.6 3.1 3.2 4.7 4.8-1.3 1.3-2.6 2.6-3.9 3.8l-1.5 1.9z"/></svg>