<?xml version="1.0" encoding="utf-8"?>
<!-- Generator: Adobe Illustrator 21.1.0, SVG Export Plug-In . SVG Version: 6.00 Build 0)  -->
<svg version="1.1" id="Layer_1" xmlns="http://www.w3.org/2000/svg" xmlns:xlink="http://www.w3.org/1999/xlink" x="0px" y="0px"
	 viewBox="0 0 138 138" style="enable-background:new 0 0 138 138;" xml:space="preserve">
<style type="text/css">
	.st0{fill:none;}
	.st1{fill:#5B5B5B;}
	.st2{fill:#C6E9F4;}
	.st3{fill:#EB2026;}
	.st4{fill:#FFFFFF;}
</style>
<g>
	<circle class="st0" cx="77.9" cy="110.9" r="3.3"/>
	<circle class="st0" cx="51.9" cy="110.9" r="3.3"/>
	<path class="st0" d="M69,4C33.2,4,4,33.2,4,69s29.2,65,65,65s65-29.2,65-65S104.8,4,69,4z M51.9,118.3c-4.1,0-7.4-3.3-7.4-7.4
		s3.3-7.4,7.4-7.4s7.4,3.3,7.4,7.4S56,118.3,51.9,118.3z M77.9,118.3c-4.1,0-7.4-3.3-7.4-7.4s3.3-7.4,7.4-7.4c4.1,0,7.4,3.3,7.4,7.4
		S82,118.3,77.9,118.3z M103.1,68.5c-1.5,0-2.9-0.2-4.3-0.5L95,86.7c-0.4,1.9-2.1,3.3-4.1,3.3H39.7l1.2,5.9h49.6
		c1.1,0,2.1,0.9,2.1,2.1c0,1.1-0.9,2.1-2.1,2.1H40.9c-2,0-3.7-1.4-4.1-3.3l-10-48.6l-9.1-3.9c-1-0.5-1.5-1.7-1.1-2.7
		c0.5-1,1.7-1.5,2.7-1.1l9.1,3.9c1.2,0.5,2.1,1.6,2.4,3l1.3,6.3h51.6c-0.5-1.7-0.7-3.4-0.7-5.3c0-11.1,9-20.1,20.1-20.1
		s20.1,9,20.1,20.1S114.2,68.5,103.1,68.5z"/>
	<path class="st1" d="M117.8,20.2C104.8,7.2,87.4,0,69,0C50.6,0,33.2,7.2,20.2,20.2C7.2,33.2,0,50.6,0,69c0,18.4,7.2,35.8,20.2,48.8
		c13,13,30.4,20.2,48.8,20.2c18.4,0,35.8-7.2,48.8-20.2c13-13,20.2-30.4,20.2-48.8C138,50.6,130.8,33.2,117.8,20.2z M69,134
		c-35.8,0-65-29.2-65-65S33.2,4,69,4s65,29.2,65,65S104.8,134,69,134z"/>
	<path class="st2" d="M38.8,85.9h52.1l4-19.2c-4-1.8-7.4-5-9.5-8.9l-52.4,0L38.8,85.9z M78.1,79.3H51.6c-1.1,0-2.1-0.9-2.1-2.1
		c0-1.1,0.9-2.1,2.1-2.1h26.4c1.1,0,2.1,0.9,2.1,2.1C80.2,78.4,79.2,79.3,78.1,79.3z M50,64.4h29.7c1.1,0,2.1,0.9,2.1,2.1
		c0,1.1-0.9,2.1-2.1,2.1H50c-1.1,0-2.1-0.9-2.1-2.1C48,65.3,48.9,64.4,50,64.4z"/>
	<path class="st1" d="M51.9,103.5c-4.1,0-7.4,3.3-7.4,7.4s3.3,7.4,7.4,7.4s7.4-3.3,7.4-7.4S56,103.5,51.9,103.5z M51.9,114.2
		c-1.8,0-3.3-1.5-3.3-3.3s1.5-3.3,3.3-3.3s3.3,1.5,3.3,3.3C55.1,112.7,53.7,114.2,51.9,114.2z"/>
	<path class="st1" d="M77.9,103.5c-4.1,0-7.4,3.3-7.4,7.4s3.3,7.4,7.4,7.4c4.1,0,7.4-3.3,7.4-7.4S82,103.5,77.9,103.5z M77.9,114.2
		c-1.8,0-3.3-1.5-3.3-3.3s1.5-3.3,3.3-3.3c1.8,0,3.3,1.5,3.3,3.3C81.2,112.7,79.7,114.2,77.9,114.2z"/>
	<path class="st1" d="M50,68.5h29.7c1.1,0,2.1-0.9,2.1-2.1c0-1.1-0.9-2.1-2.1-2.1H50c-1.1,0-2.1,0.9-2.1,2.1
		C48,67.6,48.9,68.5,50,68.5z"/>
	<path class="st1" d="M78.1,75.2H51.6c-1.1,0-2.1,0.9-2.1,2.1c0,1.1,0.9,2.1,2.1,2.1h26.4c1.1,0,2.1-0.9,2.1-2.1
		C80.2,76.1,79.2,75.2,78.1,75.2z"/>
	<path class="st1" d="M94.9,66.7l-4,19.2H38.8L33,57.8l52.4,0c-0.7-1.3-1.2-2.7-1.6-4.1H32.2l-1.3-6.3c-0.3-1.3-1.2-2.4-2.4-3
		l-9.1-3.9c-1-0.5-2.3,0-2.7,1.1c-0.5,1,0,2.3,1.1,2.7l9.1,3.9l10,48.6c0.4,1.9,2.1,3.3,4.1,3.3h49.6c1.1,0,2.1-0.9,2.1-2.1
		c0-1.1-0.9-2.1-2.1-2.1H40.9l-1.2-5.9h51.2c2,0,3.7-1.4,4.1-3.3L98.8,68C97.4,67.7,96.1,67.2,94.9,66.7z"/>
	<path class="st3" d="M103.1,65c9.2,0,16.6-7.5,16.6-16.6s-7.5-16.6-16.6-16.6s-16.6,7.5-16.6,16.6S94,65,103.1,65z M95.2,43.5
		L95,43.3c-0.2-0.2-0.3-0.3-0.5-0.5c-0.6-0.6-0.8-1.5-0.6-2.3c0.2-0.8,0.8-1.4,1.7-1.6c0.6-0.1,1.4-0.2,2.3,0.7c1.5,1.5,3,3,4.5,4.5
		l0.9,0.9l3.7-3.7c0.6-0.6,1.2-1.2,1.8-1.7c0.9-0.9,2.3-0.9,3.2-0.1c0.4,0.3,0.6,0.8,0.7,1.3l0,0.1l0,0.6c-0.1,0.7-0.5,1.2-0.9,1.6
		c-1.5,1.4-2.9,2.9-4.4,4.4l-0.9,0.9l1,1c1.4,1.4,2.8,2.9,4.2,4.3c0.4,0.4,0.8,0.9,0.9,1.6l0,0.1l0,0.6l-0.1,0.2
		c0,0.1,0,0.1-0.1,0.2c-0.1,0.2-0.2,0.4-0.3,0.6c-0.3,0.5-0.8,0.8-1.5,1l-0.1,0l-0.6,0c-0.7-0.1-1.2-0.5-1.5-0.9
		c-1.2-1.2-2.4-2.4-3.5-3.6l-1.7-1.7l-1.3,1.3c-1.3,1.3-2.7,2.6-4,4c-0.4,0.4-0.8,0.8-1.6,0.9l-0.1,0l-0.5,0l-0.2-0.1
		c-0.9-0.2-1.5-0.8-1.7-1.6c-0.2-0.6-0.2-1.5,0.7-2.3l1.6-1.5c1.3-1.3,2.6-2.6,3.9-3.8C98.4,46.7,96.8,45.1,95.2,43.5z"/>
	<path class="st1" d="M103.1,28.3c-11.1,0-20.1,9-20.1,20.1c0,1.8,0.2,3.6,0.7,5.3c0.4,1.5,0.9,2.8,1.6,4.1c2.1,3.9,5.4,7,9.5,8.9
		c1.3,0.6,2.6,1,4,1.3c1.4,0.3,2.8,0.5,4.3,0.5c11.1,0,20.1-9,20.1-20.1S114.2,28.3,103.1,28.3z M86.5,48.4
		c0-9.2,7.5-16.6,16.6-16.6s16.6,7.5,16.6,16.6S112.3,65,103.1,65S86.5,57.6,86.5,48.4z"/>
	<path class="st4" d="M94.5,53.7c-0.9,0.8-0.8,1.7-0.7,2.3c0.2,0.8,0.8,1.4,1.7,1.6l0.2,0.1l0.5,0l0.1,0c0.7-0.1,1.2-0.5,1.6-0.9
		c1.3-1.3,2.7-2.6,4-4l1.3-1.3l1.7,1.7c1.2,1.2,2.4,2.4,3.5,3.6c0.4,0.4,0.8,0.8,1.5,0.9l0.6,0l0.1,0c0.7-0.1,1.2-0.5,1.5-1
		c0.1-0.2,0.2-0.4,0.3-0.6c0-0.1,0-0.1,0.1-0.2l0.1-0.2l0-0.6l0-0.1c-0.1-0.7-0.5-1.2-0.9-1.6c-1.4-1.4-2.8-2.9-4.2-4.3l-1-1
		l0.9-0.9c1.5-1.5,2.9-2.9,4.4-4.4c0.4-0.4,0.8-0.9,0.9-1.6l0-0.6l0-0.1c-0.1-0.6-0.4-1-0.7-1.3c-0.9-0.8-2.3-0.8-3.2,0.1
		c-0.6,0.6-1.2,1.2-1.8,1.7l-3.7,3.7l-0.9-0.9c-1.5-1.5-3-3-4.5-4.5c-0.8-0.8-1.7-0.8-2.3-0.7c-0.8,0.2-1.4,0.8-1.7,1.6
		c-0.2,0.8,0,1.6,0.6,2.3c0.2,0.2,0.3,0.4,0.5,0.5l0.2,0.2c1.6,1.6,3.1,3.2,4.7,4.8c-1.3,1.3-2.6,2.6-3.9,3.8L94.5,53.7z"/>
</g>
</svg>
