<?xml version="1.0" encoding="utf-8"?>
<!-- Generator: Adobe Illustrator 21.1.0, SVG Export Plug-In . SVG Version: 6.00 Build 0)  -->
<svg version="1.1" id="Layer_1" xmlns="http://www.w3.org/2000/svg" xmlns:xlink="http://www.w3.org/1999/xlink" x="0px" y="0px"
	 width="662.1px" height="160.8px" viewBox="0 0 662.1 160.8" enable-background="new 0 0 662.1 160.8" xml:space="preserve">
<g>
	<defs>
		<rect id="SVGID_1_" x="0.7" width="661.4" height="160.7"/>
	</defs>
	<clipPath id="SVGID_2_">
		<use xlink:href="#SVGID_1_"  overflow="visible"/>
	</clipPath>
	<path clip-path="url(#SVGID_2_)" fill="#017F61" d="M248.9,86.4l-1.1,159.8L347,167L248.9,86.4z M258.7,223.7l0.8-114.7l70.4,57.8
		L258.7,223.7z"/>
	<path clip-path="url(#SVGID_2_)" fill="#8CC640" d="M214.5,86.1L213.4,246l99.2-79.2L214.5,86.1z"/>
	<polygon clip-path="url(#SVGID_2_)" fill="#017F61" points="287.5,223.8 287.5,223.9 358.7,167.1 288.3,109.2 288.3,109.3 
		277.6,100.5 277.7,86.6 375.8,167.2 276.6,246.4 276.7,232.5 	"/>
	<path opacity="0.17" clip-path="url(#SVGID_2_)" fill="#017F61" d="M191.6,105.6l-0.8,121.5l75.4-60.2L191.6,105.6z M199.1,210
		l0.6-87.2l53.5,44L199.1,210z"/>
	<path opacity="0.17" clip-path="url(#SVGID_2_)" fill="#8CC640" d="M165.5,105.5l-0.8,121.5l75.4-60.2L165.5,105.5z"/>
	<polygon opacity="0.17" clip-path="url(#SVGID_2_)" fill="#017F61" points="221,210.1 221,210.2 275.1,167 221.6,123 221.6,123.1 
		213.5,116.4 213.6,105.8 288.1,167 212.7,227.2 212.8,216.7 	"/>
	<path opacity="0.5" clip-path="url(#SVGID_2_)" fill="#F48221" d="M-79.1,211.8l159.8,1.1L1.5,113.7L-79.1,211.8z M58.2,202
		l-114.7-0.8l57.8-70.4L58.2,202z"/>
	<path clip-path="url(#SVGID_2_)" fill="#8CC640" d="M-79.4,246.1l159.8,1.1L1.2,148L-79.4,246.1z"/>
	<polygon opacity="0.5" clip-path="url(#SVGID_2_)" fill="#F48221" points="58.3,173.1 58.4,173.1 1.5,101.9 -56.3,172.3 
		-56.2,172.3 -65,183 -78.9,182.9 1.7,84.8 80.9,184.1 66.9,184 	"/>
	<path clip-path="url(#SVGID_2_)" fill="#017F61" d="M66,137.8l137.9,1l-68.4-85.6L66,137.8z M184.5,129.3l-98.9-0.7l49.9-60.7
		L184.5,129.3z"/>
	<path clip-path="url(#SVGID_2_)" fill="#8CC640" d="M65.8,167.5l137.9,1l-68.4-85.6L65.8,167.5z"/>
	<polygon clip-path="url(#SVGID_2_)" fill="#017F61" points="184.6,104.5 184.7,104.5 135.6,43 85.7,103.8 85.8,103.8 78.2,113 
		66.2,112.9 135.7,28.3 204.1,113.9 192.1,113.8 	"/>
	<path clip-path="url(#SVGID_2_)" fill="#F48221" d="M0.7,0l0,145.8l90-72.9L0.7,0z M10.6,125.2l0-104.6l64.6,52.3L10.6,125.2z"/>
	<path clip-path="url(#SVGID_2_)" fill="#F48221" d="M19.8,46.2l0,53.3l32.9-26.7L19.8,46.2z"/>
	<path clip-path="url(#SVGID_2_)" fill="#017F61" d="M605.6,97l-0.5,73.1l45.4-36.2L605.6,97z M610.1,159.9l0.4-52.5l32.2,26.5
		L610.1,159.9z"/>
	<path clip-path="url(#SVGID_2_)" fill="#8CC640" d="M589.9,96.9l-0.5,73.1l45.4-36.2L589.9,96.9z"/>
	<polygon clip-path="url(#SVGID_2_)" fill="#8CC640" points="504.8,96.9 504.9,96.9 448.1,25.7 390.2,96.1 390.3,96.1 381.5,106.8 
		367.6,106.7 448.2,8.6 527.4,107.8 513.5,107.7 	"/>
	<g clip-path="url(#SVGID_2_)">
		<polygon fill="#8CC640" points="415.3,93.4 413.7,95.3 399.8,95.3 401.3,93.4 		"/>
		<polygon fill="#8CC640" points="423.2,83.7 421.6,85.6 407.7,85.6 409.3,83.7 		"/>
		<polygon fill="#8CC640" points="427.2,78.9 425.6,80.8 411.7,80.8 413.3,78.9 		"/>
		<polygon fill="#8CC640" points="419.2,88.6 417.7,90.5 403.7,90.5 405.3,88.6 		"/>
		<polygon fill="#8CC640" points="439.1,64.4 437.6,66.3 423.6,66.3 425.2,64.4 		"/>
		<polygon fill="#8CC640" points="435.1,69.2 433.6,71.1 419.6,71.1 421.2,69.2 		"/>
		<polygon fill="#8CC640" points="411.3,98.2 409.7,100.1 395.8,100.1 397.4,98.2 		"/>
		<polygon fill="#8CC640" points="431.2,74 429.6,75.9 415.7,75.9 417.2,74 		"/>
		<polygon fill="#8CC640" points="395.4,117.6 393.8,119.5 379.9,119.5 381.4,117.6 		"/>
		<polygon fill="#8CC640" points="407.3,103.1 405.7,105 391.8,105 393.4,103.1 		"/>
		<polygon fill="#8CC640" points="439.5,46.9 441.1,45 453.3,45 454.8,46.9 		"/>
		<polygon fill="#8CC640" points="377.5,122.4 391.4,122.4 389.8,124.3 375.9,124.3 		"/>
		<polygon fill="#8CC640" points="443.5,42.1 445.1,40.2 449.4,40.2 451,42.1 		"/>
		<polygon fill="#8CC640" points="435.5,51.7 437.1,49.8 457.2,49.8 458.7,51.7 		"/>
		<polygon fill="#8CC640" points="443.1,59.5 441.5,61.4 427.6,61.4 429.2,59.5 		"/>
		<polygon fill="#8CC640" points="403.3,107.9 401.8,109.8 387.8,109.8 389.4,107.9 		"/>
		<polygon fill="#8CC640" points="399.4,112.8 397.8,114.7 383.9,114.7 385.4,112.8 		"/>
		<polygon fill="#8CC640" points="460.4,71.1 458.9,69.2 472.6,69.2 474.2,71.1 		"/>
		<polygon fill="#8CC640" points="491.3,109.8 489.8,107.9 503.5,107.9 505.1,109.8 		"/>
		<polygon fill="#8CC640" points="495.2,114.7 493.6,112.8 507.4,112.8 508.9,114.7 		"/>
		<polygon fill="#8CC640" points="487.4,105 485.9,103.1 499.7,103.1 501.2,105 		"/>
		<polygon fill="#8CC640" points="499,119.5 497.5,117.6 511.3,117.6 512.8,119.5 		"/>
		<polygon fill="#8CC640" points="502.9,124.3 501.4,122.4 515.1,122.4 516.7,124.3 		"/>
		<polygon fill="#8CC640" points="447.1,54.7 445.5,56.6 431.6,56.6 433.1,54.7 		"/>
		<polygon fill="#8CC640" points="371.9,129.2 373.5,127.3 519,127.3 520.5,129.2 		"/>
		<polygon fill="#8CC640" points="483.6,100.1 482,98.2 495.8,98.2 497.3,100.1 		"/>
		<polygon fill="#8CC640" points="368,134 369.5,132.1 522.9,132.1 524.4,134 		"/>
		<polygon fill="#8CC640" points="456.5,66.3 455,64.4 468.8,64.4 470.3,66.3 		"/>
		<polygon fill="#8CC640" points="452.6,61.4 451.1,59.5 464.9,59.5 466.4,61.4 		"/>
		<polygon fill="#8CC640" points="448.8,56.6 447.3,54.7 461,54.7 462.6,56.6 		"/>
		<polygon fill="#8CC640" points="479.7,95.3 478.2,93.4 492,93.4 493.5,95.3 		"/>
		<polygon fill="#8CC640" points="464.2,75.9 462.7,74 476.5,74 478,75.9 		"/>
		<polygon fill="#8CC640" points="475.8,90.5 474.3,88.6 488.1,88.6 489.6,90.5 		"/>
		<polygon fill="#8CC640" points="468.1,80.8 466.6,78.9 480.4,78.9 481.9,80.8 		"/>
		<polygon fill="#8CC640" points="472,85.6 470.4,83.7 484.2,83.7 485.7,85.6 		"/>
	</g>
	<g clip-path="url(#SVGID_2_)">
		<polygon fill="#017F61" points="640,120.9 639.1,120.2 639.1,113.8 640,114.5 		"/>
		<polygon fill="#017F61" points="635.5,117.3 634.7,116.5 634.7,110.2 635.5,110.9 		"/>
		<polygon fill="#017F61" points="631.1,113.6 630.2,112.9 630.2,106.5 631.1,107.2 		"/>
		<polygon fill="#017F61" points="633.3,115.4 632.5,114.7 632.5,108.4 633.3,109.1 		"/>
		<polygon fill="#017F61" points="637.8,119.1 636.9,118.4 636.9,112 637.8,112.7 		"/>
		<polygon fill="#017F61" points="646.6,126.4 645.7,125.6 645.7,119.3 646.6,120 		"/>
		<polygon fill="#017F61" points="648.8,128.2 648,127.5 648,121.1 648.8,121.8 		"/>
		<polygon fill="#017F61" points="644.4,124.5 643.5,123.8 643.5,117.4 644.4,118.2 		"/>
		<polygon fill="#017F61" points="642.2,122.7 641.3,122 641.3,115.6 642.2,116.3 		"/>
		<polygon fill="#017F61" points="659,130.2 659.9,130.9 659.9,137 659,137.7 		"/>
		<polygon fill="#017F61" points="661.2,132 662.1,132.7 662.1,135.3 661.2,136 		"/>
		<polygon fill="#017F61" points="628.9,111.8 628,111.1 628,104.7 628.9,105.4 		"/>
		<polygon fill="#017F61" points="651,130 650.2,129.3 650.2,122.9 651,123.6 		"/>
		<polygon fill="#017F61" points="621.4,99.3 622.3,100 622.3,106.4 621.4,105.7 		"/>
		<polygon fill="#017F61" points="656.8,128.4 657.7,129.1 657.7,138.8 656.8,139.5 		"/>
		<polygon fill="#017F61" points="626.7,110 625.8,109.3 625.8,102.9 626.7,103.6 		"/>
		<polygon fill="#017F61" points="624.5,108.2 623.7,107.5 623.7,107.5 623.6,107.5 623.6,101.1 624.5,101.8 		"/>
		<polygon fill="#017F61" points="634.7,150.9 635.5,150.2 635.5,156.5 634.7,157.2 		"/>
		<polygon fill="#017F61" points="632.5,152.6 633.3,151.9 633.3,158.2 632.5,158.9 		"/>
		<polygon fill="#017F61" points="630.2,154.4 631.1,153.7 631.1,160 630.2,160.7 		"/>
		<polygon fill="#017F61" points="639.1,147.3 640,146.6 640,152.9 639.1,153.6 		"/>
		<polygon fill="#017F61" points="636.9,149.1 637.8,148.4 637.8,154.7 636.9,155.4 		"/>
		<polygon fill="#017F61" points="628,156.2 628.9,155.5 628.9,161.8 628,162.5 		"/>
		<polygon fill="#017F61" points="621.4,161.4 622.3,160.7 622.3,167.1 621.4,167.8 		"/>
		<polygon fill="#017F61" points="653.3,131.8 652.4,131.1 652.4,124.7 653.3,125.4 		"/>
		<polygon fill="#017F61" points="620,104.6 618.8,103.5 618.8,97.1 620,98.2 		"/>
		<polygon fill="#017F61" points="623.6,159.7 624.5,159 624.5,165.3 623.6,166 		"/>
		<polygon fill="#017F61" points="625.8,157.9 626.7,157.3 626.7,163.6 625.8,164.2 		"/>
		<polygon fill="#017F61" points="654.6,135 655.5,134.3 655.5,140.6 654.6,141.3 		"/>
		<polygon fill="#017F61" points="652.4,136.7 653.3,136 653.3,142.3 652.4,143 		"/>
		<polygon fill="#017F61" points="641.3,145.6 642.2,144.9 642.2,151.2 641.3,151.9 		"/>
		<polygon fill="#017F61" points="655.5,133.6 654.6,132.9 654.6,126.5 655.5,127.3 		"/>
		<polygon fill="#017F61" points="650.2,138.5 651,137.8 651,144.1 650.2,144.8 		"/>
		<polygon fill="#017F61" points="643.5,143.8 644.4,143.1 644.4,149.4 643.5,150.1 		"/>
		<polygon fill="#017F61" points="648,140.3 648.8,139.6 648.8,145.9 648,146.6 		"/>
		<polygon fill="#017F61" points="645.7,142 646.6,141.3 646.6,147.6 645.7,148.3 		"/>
	</g>
	<path opacity="0.5" clip-path="url(#SVGID_2_)" fill="#017F61" d="M501,145l117.4,0.8l-58.2-72.9L501,145z M601.9,137.8l-84.2-0.6
		l42.5-51.7L601.9,137.8z"/>
	<path opacity="0.5" clip-path="url(#SVGID_2_)" fill="#8CC640" d="M500.9,170.2l117.4,0.8L560,98.2L500.9,170.2z"/>
	<g opacity="0.5" clip-path="url(#SVGID_2_)">
		<polygon fill="#017F61" points="539.3,89.8 538.2,91.2 527.9,91.2 529.1,89.8 		"/>
		<polygon fill="#017F61" points="533.5,96.9 532.3,98.3 522.1,98.3 523.2,96.9 		"/>
		<polygon fill="#017F61" points="527.6,104 526.5,105.4 516.3,105.4 517.4,104 		"/>
		<polygon fill="#017F61" points="530.6,100.5 529.4,101.9 519.2,101.9 520.3,100.5 		"/>
		<polygon fill="#017F61" points="536.4,93.4 535.2,94.8 525,94.8 526.2,93.4 		"/>
		<polygon fill="#017F61" points="548.1,79.2 546.9,80.6 536.7,80.6 537.8,79.2 		"/>
		<polygon fill="#017F61" points="551,75.6 549.9,77 539.6,77 540.8,75.6 		"/>
		<polygon fill="#017F61" points="545.2,82.7 544,84.1 533.8,84.1 534.9,82.7 		"/>
		<polygon fill="#017F61" points="542.2,86.3 541.1,87.7 530.9,87.7 532,86.3 		"/>
		<polygon fill="#017F61" points="554.2,59.2 555.4,57.8 565.2,57.8 566.4,59.2 		"/>
		<polygon fill="#017F61" points="557.1,55.7 558.3,54.3 562.4,54.3 563.5,55.7 		"/>
		<polygon fill="#017F61" points="524.7,107.6 523.6,109 513.3,109 514.5,107.6 		"/>
		<polygon fill="#017F61" points="616.3,121.8 618.6,124.6 608.3,124.5 606.1,121.8 		"/>
		<polygon fill="#017F61" points="553.9,72.1 552.8,73.5 542.5,73.5 543.7,72.1 		"/>
		<polygon fill="#017F61" points="560.7,52.1 560.1,52.1 560.4,51.7 		"/>
		<polygon fill="#017F61" points="504.6,119.7 505.7,118.3 516,118.3 514.9,119.7 		"/>
		<polygon fill="#017F61" points="551.3,62.8 552.4,61.4 568.1,61.4 569.2,62.8 		"/>
		<polygon fill="#017F61" points="521.8,111.2 520.6,112.6 510.4,112.6 511.6,111.2 		"/>
		<polygon fill="#017F61" points="518.9,114.7 517.8,116 517.9,116 517.8,116.1 507.5,116.1 508.6,114.7 		"/>
		<polygon fill="#017F61" points="587.5,98.3 586.3,96.9 596.5,96.9 597.6,98.3 		"/>
		<polygon fill="#017F61" points="590.3,101.9 589.2,100.5 599.3,100.5 600.4,101.9 		"/>
		<polygon fill="#017F61" points="593.1,105.4 592,104 602.1,104 603.2,105.4 		"/>
		<polygon fill="#017F61" points="581.8,91.2 580.7,89.8 590.8,89.8 591.9,91.2 		"/>
		<polygon fill="#017F61" points="584.6,94.8 583.5,93.4 593.6,93.4 594.7,94.8 		"/>
		<polygon fill="#017F61" points="596,109 594.9,107.6 605,107.6 606.1,109 		"/>
		<polygon fill="#017F61" points="604.4,119.7 603.3,118.3 613.5,118.3 614.6,119.7 		"/>
		<polygon fill="#017F61" points="556.8,68.5 555.7,69.9 545.5,69.9 546.6,68.5 		"/>
		<polygon fill="#017F61" points="513.1,121.8 511.4,123.9 501.2,123.8 502.8,121.8 		"/>
		<polygon fill="#017F61" points="601.6,116.1 600.5,114.7 610.6,114.7 611.8,116.1 		"/>
		<polygon fill="#017F61" points="598.8,112.6 597.7,111.2 607.8,111.2 608.9,112.6 		"/>
		<polygon fill="#017F61" points="561.9,66.3 560.8,64.9 570.9,64.9 572,66.3 		"/>
		<polygon fill="#017F61" points="564.7,69.9 563.6,68.5 573.7,68.5 574.9,69.9 		"/>
		<polygon fill="#017F61" points="578.9,87.7 577.8,86.3 587.9,86.3 589.1,87.7 		"/>
		<polygon fill="#017F61" points="559.8,64.9 558.6,66.3 548.4,66.3 549.5,64.9 		"/>
		<polygon fill="#017F61" points="567.6,73.5 566.5,72.1 576.6,72.1 577.7,73.5 		"/>
		<polygon fill="#017F61" points="576.1,84.1 575,82.7 585.1,82.7 586.2,84.1 		"/>
		<polygon fill="#017F61" points="570.4,77 569.3,75.6 579.4,75.6 580.5,77 		"/>
		<polygon fill="#017F61" points="573.3,80.6 572.1,79.2 582.3,79.2 583.4,80.6 		"/>
	</g>
	<path clip-path="url(#SVGID_2_)" fill="#E92127" d="M367.1,169.9L527,171l-79.2-99.2L367.1,169.9z"/>
	<polygon opacity="0.5" clip-path="url(#SVGID_2_)" fill="#8CC640" points="433.3,96.9 433.4,96.9 376.6,25.7 318.7,96.1 
		318.8,96.1 310,106.8 296.1,106.7 376.7,8.6 455.9,107.8 442,107.7 	"/>
	<g opacity="0.5" clip-path="url(#SVGID_2_)">
		<polygon fill="#8CC640" points="343.8,93.4 342.2,95.3 328.3,95.3 329.9,93.4 		"/>
		<polygon fill="#8CC640" points="351.7,83.7 350.2,85.6 336.2,85.6 337.8,83.7 		"/>
		<polygon fill="#8CC640" points="355.7,78.9 354.1,80.8 340.2,80.8 341.8,78.9 		"/>
		<polygon fill="#8CC640" points="347.8,88.6 346.2,90.5 332.3,90.5 333.8,88.6 		"/>
		<polygon fill="#8CC640" points="367.6,64.4 366.1,66.3 352.1,66.3 353.7,64.4 		"/>
		<polygon fill="#8CC640" points="363.7,69.2 362.1,71.1 348.2,71.1 349.7,69.2 		"/>
		<polygon fill="#8CC640" points="339.8,98.2 338.2,100.1 324.3,100.1 325.9,98.2 		"/>
		<polygon fill="#8CC640" points="359.7,74 358.1,75.9 344.2,75.9 345.8,74 		"/>
		<polygon fill="#8CC640" points="323.9,117.6 322.3,119.5 308.4,119.5 310,117.6 		"/>
		<polygon fill="#8CC640" points="335.8,103.1 334.3,105 320.3,105 321.9,103.1 		"/>
		<polygon fill="#8CC640" points="368,46.9 369.6,45 381.8,45 383.4,46.9 		"/>
		<polygon fill="#8CC640" points="306,122.4 319.9,122.4 318.4,124.3 304.4,124.3 		"/>
		<polygon fill="#8CC640" points="372,42.1 373.6,40.2 378,40.2 379.5,42.1 		"/>
		<polygon fill="#8CC640" points="364.1,51.7 365.6,49.8 385.7,49.8 387.2,51.7 		"/>
		<polygon fill="#8CC640" points="371.6,59.5 370,61.4 356.1,61.4 357.7,59.5 		"/>
		<polygon fill="#8CC640" points="331.9,107.9 330.3,109.8 316.4,109.8 317.9,107.9 		"/>
		<polygon fill="#8CC640" points="327.9,112.8 326.3,114.7 312.4,114.7 313.9,112.8 		"/>
		<polygon fill="#8CC640" points="388.9,71.1 387.4,69.2 401.2,69.2 402.7,71.1 		"/>
		<polygon fill="#8CC640" points="419.8,109.8 418.3,107.9 432.1,107.9 433.6,109.8 		"/>
		<polygon fill="#8CC640" points="423.7,114.7 422.2,112.8 435.9,112.8 437.5,114.7 		"/>
		<polygon fill="#8CC640" points="415.9,105 414.4,103.1 428.2,103.1 429.7,105 		"/>
		<polygon fill="#8CC640" points="427.5,119.5 426,117.6 439.8,117.6 441.3,119.5 		"/>
		<polygon fill="#8CC640" points="431.4,124.3 429.9,122.4 443.7,122.4 445.2,124.3 		"/>
		<polygon fill="#8CC640" points="375.6,54.7 374,56.6 360.1,56.6 361.7,54.7 		"/>
		<polygon fill="#8CC640" points="300.5,129.2 302,127.3 447.5,127.3 449,129.2 		"/>
		<polygon fill="#8CC640" points="412.1,100.1 410.6,98.2 424.3,98.2 425.9,100.1 		"/>
		<polygon fill="#8CC640" points="296.5,134 298,132.1 451.4,132.1 452.9,134 		"/>
		<polygon fill="#8CC640" points="385,66.3 383.5,64.4 397.3,64.4 398.8,66.3 		"/>
		<polygon fill="#8CC640" points="381.2,61.4 379.7,59.5 393.4,59.5 394.9,61.4 		"/>
		<polygon fill="#8CC640" points="377.3,56.6 375.8,54.7 389.6,54.7 391.1,56.6 		"/>
		<polygon fill="#8CC640" points="408.2,95.3 406.7,93.4 420.5,93.4 422,95.3 		"/>
		<polygon fill="#8CC640" points="392.8,75.9 391.2,74 405,74 406.5,75.9 		"/>
		<polygon fill="#8CC640" points="404.4,90.5 402.8,88.6 416.6,88.6 418.1,90.5 		"/>
		<polygon fill="#8CC640" points="396.6,80.8 395.1,78.9 408.9,78.9 410.4,80.8 		"/>
		<polygon fill="#8CC640" points="400.5,85.6 399,83.7 412.7,83.7 414.3,85.6 		"/>
	</g>
	<path opacity="0.5" clip-path="url(#SVGID_2_)" fill="#E92127" d="M295.7,169.9l159.8,1.1l-79.2-99.2L295.7,169.9z"/>
</g>
</svg>
