<?xml version="1.0" encoding="utf-8"?>
<!-- Generator: Adobe Illustrator 21.1.0, SVG Export Plug-In . SVG Version: 6.00 Build 0)  -->
<svg version="1.1" id="Layer_1" xmlns="http://www.w3.org/2000/svg" xmlns:xlink="http://www.w3.org/1999/xlink" x="0px" y="0px"
	 viewBox="0 0 45 33" style="enable-background:new 0 0 45 33;" xml:space="preserve">
<style type="text/css">
	.st0{fill:#5B5B5B;}
</style>
<g>
	<path class="st0" d="M14,0H1.4C0.6,0,0,0.6,0,1.4v11c0,0.8,0.6,1.4,1.4,1.4c0.9,0,1.4-0.6,1.4-1.4V3H14c0.9,0,1.4-0.6,1.4-1.4
		C15.4,0.6,14.7,0,14,0z"/>
	<path class="st0" d="M43.7,0H31.1c-0.9,0-1.4,0.6-1.4,1.4s0.6,1.4,1.4,1.4h11.1v9.6c0,0.8,0.6,1.4,1.4,1.4c0.9,0,1.4-0.6,1.4-1.4
		v-11C45.1,0.6,44.5,0,43.7,0z"/>
	<path class="st0" d="M14,30H2.8v-9.6c0-0.8-0.6-1.4-1.4-1.4S0,19.6,0,20.4v11C0,32.4,0.6,33,1.4,33H14c0.9,0,1.4-0.6,1.4-1.4
		C15.4,30.7,14.7,30,14,30z"/>
	<path class="st0" d="M43.7,19c-0.9,0-1.4,0.6-1.4,1.4V30H31.1c-0.9,0-1.4,0.6-1.4,1.4s0.6,1.5,1.4,1.5h12.5c0.9,0,1.4-0.6,1.4-1.4
		V20.4C45.1,19.6,44.5,19,43.7,19z"/>
	<path class="st0" d="M14,24.3V9.8c0-0.9-0.8-1.6-1.9-1.6c-1.1,0-1.9,0.7-1.9,1.6v14.6c0,0.9,0.8,1.6,1.9,1.6
		C13.1,26,14,25.3,14,24.3z"/>
	<path class="st0" d="M19.1,8.1c-1.1,0-1.9,0.7-1.9,1.6v14.6c0,0.9,0.8,1.6,1.9,1.6c1.1,0,1.9-0.7,1.9-1.6V9.8
		C20.9,9,20.1,8.1,19.1,8.1z"/>
	<path class="st0" d="M26.1,8.1c-1.1,0-1.9,0.7-1.9,1.6v14.6c0,0.9,0.8,1.6,1.9,1.6c1.1,0,1.9-0.7,1.9-1.6V9.8
		C28,9,27.1,8.1,26.1,8.1z"/>
	<path class="st0" d="M35.1,24.3V9.8c0-0.9-0.8-1.6-1.9-1.6c-1.1,0-1.9,0.7-1.9,1.6v14.6c0,0.9,0.8,1.6,1.9,1.6
		C34.3,26,35.1,25.3,35.1,24.3z"/>
</g>
</svg>
