<?xml version="1.0" encoding="utf-8"?>
<!-- Generator: Adobe Illustrator 21.1.0, SVG Export Plug-In . SVG Version: 6.00 Build 0)  -->
<svg version="1.1" id="Layer_1" xmlns="http://www.w3.org/2000/svg" xmlns:xlink="http://www.w3.org/1999/xlink" x="0px" y="0px"
	 width="27px" height="27px" viewBox="0 0 27 27" enable-background="new 0 0 27 27" xml:space="preserve">
<g>
	<path fill="#5C5C5C" d="M1,6.8c-0.6,0-1-0.4-1-1V1c0-0.6,0.4-1,1-1h5.1c0.6,0,1,0.4,1,1s-0.4,1-1,1H2v3.8C2,6.4,1.6,6.8,1,6.8z"/>
</g>
<g>
	<path fill="#5C5C5C" d="M26,7.1c-0.6,0-1-0.4-1-1V2h-3.8c-0.6,0-1-0.4-1-1s0.4-1,1-1H26c0.6,0,1,0.4,1,1v5.1
		C27,6.7,26.6,7.1,26,7.1z"/>
</g>
<g>
	<path fill="#5C5C5C" d="M26,26.8h-5.1c-0.6,0-1-0.4-1-1s0.4-1,1-1H25V21c0-0.6,0.4-1,1-1s1,0.4,1,1v4.8C27,26.4,26.6,26.8,26,26.8z
		"/>
</g>
<g>
	<path fill="#5C5C5C" d="M5.8,27H1c-0.6,0-1-0.4-1-1v-5.1c0-0.6,0.4-1,1-1s1,0.4,1,1V25h3.8c0.6,0,1,0.4,1,1S6.4,27,5.8,27z"/>
</g>
<g>
	<path fill="#5C5C5C" d="M7.5,18.7c-0.6,0-1-0.4-1-1V9.3c0-0.6,0.4-1,1-1s1,0.4,1,1v8.4C8.5,18.3,8,18.7,7.5,18.7z"/>
</g>
<g>
	<path fill="#5C5C5C" d="M11.7,18.7c-0.6,0-1-0.4-1-1V9.3c0-0.6,0.4-1,1-1s1,0.4,1,1v8.4C12.7,18.3,12.3,18.7,11.7,18.7z"/>
</g>
<g>
	<path fill="#5C5C5C" d="M15.9,18.7c-0.6,0-1-0.4-1-1V9.3c0-0.6,0.4-1,1-1s1,0.4,1,1v8.4C16.9,18.3,16.5,18.7,15.9,18.7z"/>
</g>
<g>
	<path fill="#5C5C5C" d="M20.2,18.7c-0.6,0-1-0.4-1-1V9.3c0-0.6,0.4-1,1-1s1,0.4,1,1v8.4C21.2,18.3,20.7,18.7,20.2,18.7z"/>
</g>
</svg>
