<?xml version="1.0" encoding="utf-8"?>
<!-- Generator: Adobe Illustrator 21.1.0, SVG Export Plug-In . SVG Version: 6.00 Build 0)  -->
<svg version="1.1" id="Layer_1" xmlns="http://www.w3.org/2000/svg" xmlns:xlink="http://www.w3.org/1999/xlink" x="0px" y="0px"
	 width="27px" height="27px" viewBox="0 0 27 27" enable-background="new 0 0 27 27" xml:space="preserve">
<g>
	<path fill="#5C5C5C" d="M6.3,26.4c-0.4,0-0.7-0.1-1-0.3c-0.5-0.4-0.8-1-0.7-1.7l1.2-7.2l-5.3-5.1c-0.5-0.4-0.6-1.1-0.4-1.7
		c0.2-0.6,0.7-1,1.4-1.1l7.3-1.1L12,1.5c0.3-0.6,0.9-0.9,1.5-0.9c0.6,0,1.2,0.4,1.5,0.9l3.3,6.6l7.3,1c0.7,0.1,1.2,0.5,1.4,1.2
		c0,0,0,0,0,0c0.2,0.6,0,1.3-0.5,1.8l-5.2,5.1l1.2,7.1c0,0.1,0,0.2,0,0.4c0,0.9-0.8,1.7-1.7,1.7c-0.3,0-0.5-0.1-0.8-0.2l-6.5-3.4
		l-6.5,3.4C6.8,26.3,6.6,26.4,6.3,26.4z M20.5,24.8C20.5,24.8,20.5,24.8,20.5,24.8C20.5,24.8,20.5,24.8,20.5,24.8z M6.6,24.8
		L6.6,24.8C6.6,24.8,6.6,24.8,6.6,24.8z M6.1,24.4C6.1,24.4,6.1,24.4,6.1,24.4L6.1,24.4z M2.4,11.1l5.2,5c0.2,0.2,0.3,0.6,0.3,0.9
		l-1.2,7.1l6.4-3.4c0.3-0.2,0.6-0.2,0.9,0l6.4,3.3L19.2,17c-0.1-0.3,0-0.7,0.3-0.9l5.2-5.1l-7.2-1c-0.3,0-0.6-0.2-0.8-0.5L13.5,3
		l-3.2,6.5C10.2,9.8,9.9,10,9.6,10L2.4,11.1z M25.2,11.1L25.2,11.1L25.2,11.1z M1.9,10.6L1.9,10.6C1.9,10.7,1.9,10.7,1.9,10.6z
		 M25,10.6C25,10.6,25,10.6,25,10.6L25,10.6z"/>
</g>
</svg>
