<?xml version="1.0" encoding="utf-8"?>
<!-- Generator: Adobe Illustrator 21.1.0, SVG Export Plug-In . SVG Version: 6.00 Build 0)  -->
<svg version="1.1" id="Layer_1" xmlns="http://www.w3.org/2000/svg" xmlns:xlink="http://www.w3.org/1999/xlink" x="0px" y="0px"
	 viewBox="0 0 40 39" style="enable-background:new 0 0 40 39;" xml:space="preserve">
<style type="text/css">
	.st0{fill:#5B5B5B;}
</style>
<path class="st0" d="M39.8,14.6c-0.5-1.4-1.7-2.4-3.1-2.4l-9.6-0.7c-0.1,0-0.2-0.1-0.2-0.1l-3.7-9.1C22.7,0.9,21.5,0,20,0
	c-1.4,0-2.7,0.9-3.3,2.2l-3.7,9.1c0,0.1-0.1,0.1-0.2,0.2l-9.6,0.7c-1.4,0.1-2.6,1-3.1,2.4c-0.5,1.4-0.1,2.9,1,3.9l7.4,6.3
	C8.7,24.9,8.8,25,8.7,25l-2.3,9.5c-0.3,1.1-0.1,2.2,0.6,3.1C7.7,38.5,8.7,39,9.8,39c0.7,0,1.3-0.2,1.9-0.6l8.1-5.2
	c0.1,0,0.2,0,0.2,0l8.2,5.1c0.6,0.4,1.2,0.6,1.9,0.6c1,0,2-0.5,2.7-1.3c0.7-0.9,0.9-2,0.7-3.1l-2.3-9.5c0-0.1,0-0.2,0.1-0.2l7.5-6.3
	C39.9,17.6,40.3,16.1,39.8,14.6z M9,35.2l2.3-9.5c0.3-1.1-0.1-2.2-0.9-2.9l-7.4-6.3c-0.4-0.4-0.3-0.9-0.3-1c0.1-0.2,0.3-0.6,0.8-0.7
	l9.6-0.7c1.1-0.1,2-0.8,2.4-1.8l3.7-9.1c0.2-0.5,0.7-0.6,0.9-0.6s0.7,0.1,0.9,0.6l3.7,9.1c0.4,1,1.3,1.7,2.4,1.8l9.6,0.7
	c0.5,0,0.7,0.5,0.8,0.6c0.1,0.2,0.1,0.7-0.3,1l-7.5,6.3c-0.8,0.7-1.2,1.8-0.9,2.9l2.3,9.5c0.1,0.4-0.1,0.7-0.2,0.9
	c-0.2,0.2-0.4,0.4-0.7,0.4c-0.2,0-0.3-0.1-0.5-0.2L21.4,31c-0.4-0.3-0.9-0.4-1.5-0.4c-0.5,0-1,0.2-1.5,0.4l-8.2,5.2
	c-0.4,0.3-0.9,0.2-1.2-0.2C8.9,35.8,8.9,35.5,9,35.2z"/>
</svg>
