<?xml version="1.0" encoding="utf-8"?>
<!-- Generator: Adobe Illustrator 21.1.0, SVG Export Plug-In . SVG Version: 6.00 Build 0)  -->
<svg version="1.1" id="Layer_1" xmlns="http://www.w3.org/2000/svg" xmlns:xlink="http://www.w3.org/1999/xlink" x="0px" y="0px"
	 viewBox="0 0 45 45" style="enable-background:new 0 0 45 45;" xml:space="preserve">
<style type="text/css">
	.st0{fill:#5B5B5B;}
</style>
<g>
	<path class="st0" d="M10.3,0C4.6,0,0,4.6,0,10.2s4.6,10.2,10.3,10.2s10.3-4.6,10.3-10.2S16,0,10.3,0z M16.9,10.2
		c0,3.6-2.9,6.5-6.6,6.5s-6.6-2.9-6.6-6.5s2.9-6.5,6.6-6.5C14,3.7,16.9,6.7,16.9,10.2z"/>
	<path class="st0" d="M34.7,20.6c5.7,0,10.3-4.7,10.3-10.3S40.4,0,34.7,0S24.3,4.6,24.3,10.2S29,20.6,34.7,20.6z M28.1,10.2
		c0-3.6,2.9-6.5,6.6-6.5c3.7,0,6.6,3,6.6,6.5s-2.9,6.5-6.6,6.5C31,16.8,28.1,13.9,28.1,10.2z"/>
	<path class="st0" d="M10.3,24.3C4.5,24.3,0,28.9,0,34.8C0,40.4,4.6,45,10.3,45s10.3-4.6,10.3-10.2C20.7,29,16,24.3,10.3,24.3z
		 M16.9,34.7c0,3.6-2.9,6.5-6.6,6.5s-6.6-2.9-6.6-6.4c0-3.6,3-6.6,6.6-6.6C14,28.1,16.9,31,16.9,34.7z"/>
	<path class="st0" d="M34.7,24.3c-5.7,0-10.3,4.6-10.3,10.2S29,44.8,34.7,44.8S45,40.3,45,34.7S40.4,24.3,34.7,24.3z M41.3,34.7
		c0,3.6-2.9,6.5-6.6,6.5c-3.7,0-6.6-3-6.6-6.5c0-3.6,2.9-6.5,6.6-6.5C38.4,28.1,41.3,31,41.3,34.7z"/>
</g>
</svg>
