<?xml version="1.0" encoding="utf-8"?>
<!-- Generator: Adobe Illustrator 21.1.0, SVG Export Plug-In . SVG Version: 6.00 Build 0)  -->
<svg version="1.1" id="Layer_1" xmlns="http://www.w3.org/2000/svg" xmlns:xlink="http://www.w3.org/1999/xlink" x="0px" y="0px"
	 width="27px" height="27px" viewBox="0 0 27 27" enable-background="new 0 0 27 27" xml:space="preserve">
<g>
	<g>
		<path fill="#5C5C5C" d="M5.6,11c-3,0-5.5-2.5-5.5-5.5S2.5,0,5.6,0s5.5,2.5,5.5,5.5S8.6,11,5.6,11z M5.6,2C3.6,2,2.1,3.6,2.1,5.5
			S3.6,9,5.6,9s3.5-1.6,3.5-3.5S7.5,2,5.6,2z"/>
	</g>
	<g>
		<path fill="#5C5C5C" d="M21.5,11c-3,0-5.5-2.5-5.5-5.5S18.5,0,21.5,0S27,2.5,27,5.5S24.5,11,21.5,11z M21.5,2
			C19.6,2,18,3.6,18,5.5S19.6,9,21.5,9S25,7.4,25,5.5S23.4,2,21.5,2z"/>
	</g>
	<g>
		<path fill="#5C5C5C" d="M5.6,27c-3,0-5.5-2.5-5.5-5.5S2.5,16,5.6,16s5.5,2.5,5.5,5.5S8.6,27,5.6,27z M5.6,18
			c-1.9,0-3.5,1.6-3.5,3.5S3.6,25,5.6,25s3.5-1.6,3.5-3.5S7.5,18,5.6,18z"/>
	</g>
	<g>
		<path fill="#5C5C5C" d="M21.5,27c-3,0-5.5-2.5-5.5-5.5s2.5-5.5,5.5-5.5s5.5,2.5,5.5,5.5S24.5,27,21.5,27z M21.5,18
			c-1.9,0-3.5,1.6-3.5,3.5s1.6,3.5,3.5,3.5s3.5-1.6,3.5-3.5S23.4,18,21.5,18z"/>
	</g>
</g>
</svg>
