<?xml version="1.0" encoding="utf-8"?>
<!-- Generator: Adobe Illustrator 21.1.0, SVG Export Plug-In . SVG Version: 6.00 Build 0)  -->
<svg version="1.1" id="Layer_1" xmlns="http://www.w3.org/2000/svg" xmlns:xlink="http://www.w3.org/1999/xlink" x="0px" y="0px"
	 width="27px" height="27px" viewBox="0 0 27 27" enable-background="new 0 0 27 27" xml:space="preserve">
<path fill="#FF4814" d="M17.036,13.5l9.232-9.232c0.977-0.976,0.977-2.559,0-3.535c-0.976-0.977-2.56-0.977-3.535,0L13.5,9.965
	L4.268,0.733c-0.976-0.977-2.56-0.977-3.535,0c-0.977,0.976-0.977,2.559,0,3.535L9.964,13.5l-9.232,9.232
	c-0.977,0.976-0.977,2.559,0,3.535C1.22,26.756,1.86,27,2.5,27s1.28-0.244,1.768-0.732l9.232-9.232l9.232,9.232
	C23.22,26.756,23.86,27,24.5,27s1.28-0.244,1.768-0.732c0.977-0.976,0.977-2.559,0-3.535L17.036,13.5z"/>
</svg>
