<?xml version="1.0" encoding="utf-8"?>
<!-- Generator: Adobe Illustrator 21.1.0, SVG Export Plug-In . SVG Version: 6.00 Build 0)  -->
<svg version="1.1" id="Layer_1" xmlns="http://www.w3.org/2000/svg" xmlns:xlink="http://www.w3.org/1999/xlink" x="0px" y="0px"
	 width="27px" height="27px" viewBox="0 0 27 27" enable-background="new 0 0 27 27" xml:space="preserve">
<g>
	<g>
		<path fill="#5C5C5C" d="M13.5,26.9c-7.4,0-13.4-6-13.4-13.4s6-13.4,13.4-13.4s13.4,6,13.4,13.4S20.9,26.9,13.5,26.9z M13.5,2.1
			C7.2,2.1,2.1,7.2,2.1,13.5s5.1,11.4,11.4,11.4c6.3,0,11.4-5.1,11.4-11.4S19.8,2.1,13.5,2.1z"/>
	</g>
	<g>
		<path fill="#5C5C5C" d="M13.5,22.1c-0.6,0-1-0.4-1-1v-9.2c0-0.6,0.4-1,1-1s1,0.4,1,1v9.2C14.5,21.6,14.1,22.1,13.5,22.1z"/>
	</g>
	<g>
		<circle fill="#5C5C5C" cx="13.5" cy="7" r="1.4"/>
	</g>
</g>
</svg>
