<?xml version="1.0" encoding="utf-8"?>
<!-- Generator: Adobe Illustrator 21.1.0, SVG Export Plug-In . SVG Version: 6.00 Build 0)  -->
<svg version="1.1" id="Layer_1" xmlns="http://www.w3.org/2000/svg" xmlns:xlink="http://www.w3.org/1999/xlink" x="0px" y="0px"
	 viewBox="0 0 37 37" style="enable-background:new 0 0 37 37;" xml:space="preserve">
<style type="text/css">
	.st0{fill:#5B5B5B;}
</style>
<g>
	<path class="st0" d="M18.5,0C8.3,0,0,8.3,0,18.5S8.3,37,18.5,37S37,28.7,37,18.5S28.7,0,18.5,0L18.5,0z M18.5,33.6
		c-8.3,0-15.1-6.8-15.1-15.1S10.2,3.4,18.5,3.4s15.1,6.8,15.1,15.1S26.8,33.6,18.5,33.6L18.5,33.6z M18.5,33.6"/>
	<path class="st0" d="M18.5,7.8c-1.2,0-2.2,1-2.2,2.2c0,1.2,1,2.2,2.2,2.2c1.2,0,2.2-1,2.2-2.2C20.7,8.9,19.7,7.8,18.5,7.8L18.5,7.8
		z M18.5,7.8"/>
	<path class="st0" d="M18.5,15.7c-0.9,0-1.7,0.8-1.7,1.7v10.1c0,0.9,0.8,1.7,1.7,1.7c0.9,0,1.7-0.8,1.7-1.7V17.4
		C20.2,16.4,19.4,15.7,18.5,15.7L18.5,15.7z M18.5,15.7"/>
</g>
</svg>
