<?xml version="1.0" encoding="utf-8"?>
<!-- Generator: Adobe Illustrator 21.1.0, SVG Export Plug-In . SVG Version: 6.00 Build 0)  -->
<svg version="1.1" id="Layer_1" xmlns="http://www.w3.org/2000/svg" xmlns:xlink="http://www.w3.org/1999/xlink" x="0px" y="0px"
	 viewBox="0 0 49 47" style="enable-background:new 0 0 49 47;" xml:space="preserve">
<style type="text/css">
	.st0{fill:#5B5B5B;}
</style>
<g>
	<path class="st0" d="M48.5,23.2L37.4,12.1V3.7c0-1-0.7-1.8-1.7-1.8S34,2.6,34,3.7v5l-8.3-8.3c-0.1-0.1-0.2-0.2-0.4-0.3
		C25.1,0,25,0,24.8,0H24c-0.1,0-0.3,0-0.4,0.1h-0.1l-23,23.1c-0.7,0.7-0.7,1.8,0,2.5c0.3,0.3,0.8,0.5,1.2,0.5s0.9-0.2,1.2-0.5
		L24.5,4.1l21.6,21.7c0.3,0.4,0.7,0.5,1.2,0.5s0.9-0.2,1.2-0.6C49.2,24.9,49.1,23.9,48.5,23.2z"/>
	<path class="st0" d="M39.5,23.2c-1,0-1.7,0.7-1.7,1.8v18.5h-9.2v-7.3c0-1-0.7-1.8-1.7-1.8h-5.8c-1,0-1.7,0.7-1.7,1.8v7.3h-9.2V25
		c0-1-0.7-1.8-1.7-1.8S6.8,23.9,6.8,25v20.3c0,1,0.7,1.8,1.7,1.8h12.6c1,0,1.7-0.7,1.7-1.8V38h2.4v7.3c0,1,0.7,1.8,1.7,1.8h12.6
		c1,0,1.7-0.7,1.7-1.8V25C41.2,23.9,40.5,23.2,39.5,23.2z"/>
</g>
</svg>
