<?xml version="1.0" encoding="utf-8"?>
<!-- Generator: Adobe Illustrator 21.1.0, SVG Export Plug-In . SVG Version: 6.00 Build 0)  -->
<svg version="1.1" id="Layer_1" xmlns="http://www.w3.org/2000/svg" xmlns:xlink="http://www.w3.org/1999/xlink" x="0px" y="0px"
	 width="27px" height="27px" viewBox="0 0 27 27" enable-background="new 0 0 27 27" xml:space="preserve">
<g>
	<path fill="#5C5C5C" d="M26.5,12.6l-5.4-5.4V2.5c0-0.6-0.4-1-1-1s-1,0.4-1,1v2.8l-4.9-4.9c-0.4-0.4-1-0.4-1.4,0L0.5,12.6
		c-0.4,0.4-0.4,1,0,1.4s1,0.4,1.4,0L13.5,2.5l11.6,11.6c0.2,0.2,0.5,0.3,0.7,0.3s0.5-0.1,0.7-0.3C26.9,13.7,26.9,13,26.5,12.6z"/>
	<path fill="#5C5C5C" d="M22.5,14.9c-0.6,0-1,0.4-1,1v9h-4.7v-5.5c0-0.6-0.4-1-1-1h-4.9c-0.6,0-1,0.4-1,1V25H5.4v-9c0-0.6-0.4-1-1-1
		s-1,0.4-1,1v10c0,0.6,0.4,1,1,1h6.5c0.6,0,1-0.4,1-1v-5.5h2.9V26c0,0.6,0.4,1,1,1h6.7c0.6,0,1-0.4,1-1v-10
		C23.5,15.4,23.1,14.9,22.5,14.9z"/>
</g>
</svg>
