<?xml version="1.0" encoding="utf-8"?>
<!-- Generator: Adobe Illustrator 21.1.0, SVG Export Plug-In . SVG Version: 6.00 Build 0)  -->
<svg version="1.1" id="Layer_1" xmlns="http://www.w3.org/2000/svg" xmlns:xlink="http://www.w3.org/1999/xlink" x="0px" y="0px"
	 width="27px" height="27px" viewBox="0 0 27 27" enable-background="new 0 0 27 27" xml:space="preserve">
<g>
	<path fill="#5C5C5C" d="M12.8,25H2V2h10.8c0.6,0,1-0.4,1-1s-0.4-1-1-1H1.4C0.6,0,0,0.7,0,1.5v24C0,26.3,0.6,27,1.4,27h11.4
		c0.6,0,1-0.4,1-1S13.4,25,12.8,25z"/>
	<path fill="#5C5C5C" d="M26.7,12.8l-5.9-5.9c-0.4-0.4-1-0.4-1.4,0s-0.4,1,0,1.4l4.2,4.2H6.9c-0.6,0-1,0.4-1,1s0.4,1,1,1h16.7
		l-4.2,4.2c-0.4,0.4-0.4,1,0,1.4c0.2,0.2,0.5,0.3,0.7,0.3s0.5-0.1,0.7-0.3l5.9-5.9c0.2-0.2,0.3-0.4,0.3-0.7c0,0,0,0,0,0
		C27,13.2,26.9,13,26.7,12.8z"/>
</g>
</svg>
