<?xml version="1.0" encoding="utf-8"?>
<!-- Generator: Adobe Illustrator 21.1.0, SVG Export Plug-In . SVG Version: 6.00 Build 0)  -->
<svg version="1.1" id="Layer_1" xmlns="http://www.w3.org/2000/svg" xmlns:xlink="http://www.w3.org/1999/xlink" x="0px" y="0px"
	 width="39.544px" height="43.944px" viewBox="0 0 39.544 43.944" enable-background="new 0 0 39.544 43.944" xml:space="preserve">
<g>
	<path fill="#B4BBC2" d="M32.958,32.958H6.586v-4.4h26.372V32.958z M32.958,24.172H6.586v-4.4h26.372V24.172z M32.958,15.386H6.586
		v-4.4h26.372V15.386z M0,43.944l3.293-3.293l3.293,3.293l3.307-3.293l3.293,3.293l3.293-3.293l3.293,3.293l3.293-3.293l3.307,3.293
		l3.293-3.293l3.293,3.293l3.293-3.293l3.293,3.293V0l-3.293,3.293L32.958,0l-3.293,3.293L26.372,0l-3.307,3.293L19.772,0
		l-3.293,3.293L13.186,0L9.893,3.293L6.586,0L3.293,3.293L0,0V43.944z M0,43.944"/>
</g>
</svg>
