<?xml version="1.0" encoding="utf-8"?>
<!-- Generator: Adobe Illustrator 22.0.1, SVG Export Plug-In . SVG Version: 6.00 Build 0)  -->
<svg version="1.1" id="Layer_1" xmlns="http://www.w3.org/2000/svg" xmlns:xlink="http://www.w3.org/1999/xlink" x="0px" y="0px"
	 viewBox="0 0 31 31" style="enable-background:new 0 0 31 31;" xml:space="preserve">
<style type="text/css">
	.st0{fill:#FFFFFF;}
</style>
<g>
	<g>
		<path class="st0" d="M30.7,12.8c-0.2-0.2-0.4-0.3-0.7-0.3h-7.6V7c0-3.9-3.1-7-7-7h-0.1c-3.9,0-7.1,3.1-7.1,7v5.5H0.8
			c-0.3,0-0.5,0.1-0.7,0.3C0,13,0,13.3,0,13.5l4.2,16.7c0.1,0.4,0.4,0.6,0.8,0.6h20.9c0.4,0,0.7-0.3,0.8-0.6l4.2-16.7
			C30.9,13.3,30.9,13,30.7,12.8L30.7,12.8z M10,7c0-3,2.4-5.3,5.4-5.3h0.1c3,0,5.3,2.4,5.3,5.3v5.5H10V7z M10,7"/>
	</g>
</g>
</svg>
