<?xml version="1.0" encoding="utf-8"?>
<!-- Generator: Adobe Illustrator 22.0.1, SVG Export Plug-In . SVG Version: 6.00 Build 0)  -->
<svg version="1.1" id="Layer_1" xmlns="http://www.w3.org/2000/svg" xmlns:xlink="http://www.w3.org/1999/xlink" x="0px" y="0px"
	 viewBox="0 0 30 34" style="enable-background:new 0 0 30 34;" xml:space="preserve">
<style type="text/css">
	.st0{fill:#FFFFFF;}
</style>
<path class="st0" d="M28.5,1.5h-0.2l-1.6-1.6l-1.6,1.6H25l-1.6-1.6l-1.6,1.6h-0.2l-1.6-1.6l-1.6,1.6h-0.2l-1.6-1.6l-1.6,1.6H15
	l-1.6-1.6l-1.6,1.6h-0.2l-1.6-1.6L8.5,1.5H8.3L6.7-0.1L5.2,1.5H5L3.4-0.1L1.8,1.5H1.6L0.1-0.1L0,0v1.5V3v28v1.5V34l1.6-1.5h0.2
	L3.3,34l1.6-1.5h0.2L6.7,34l1.6-1.5h0.2L10,34l1.6-1.5h0.2l1.6,1.5l1.6-1.5h0.2l1.6,1.5l1.6-1.5h0.2L20,34l1.6-1.5h0.2l1.6,1.5
	l1.6-1.5h0.2l1.6,1.5l1.6-1.5h0.2L30,34v-1.5V31V3V1.5V0L28.5,1.5z M27,7v3H3V7H27z M27,15.5v3H3v-3H27z M3,27v-3h24v3H3z"/>
</svg>
