<?xml version="1.0" encoding="utf-8"?>
<!-- Generator: Adobe Illustrator 22.0.1, SVG Export Plug-In . SVG Version: 6.00 Build 0)  -->
<svg version="1.1" id="Layer_1" xmlns="http://www.w3.org/2000/svg" xmlns:xlink="http://www.w3.org/1999/xlink" x="0px" y="0px"
	 viewBox="0 0 73 51" style="enable-background:new 0 0 73 51;" xml:space="preserve">
<style type="text/css">
	.st0{fill:#FF4814;}
</style>
<g>
	<path class="st0" d="M61.8,17.6h-1.5V9.9C60.3,9.3,60,9,59.5,9h-0.9c-0.4,0-0.7,0.1-1,0.4l-1.9,1.8c-0.4,0.4-0.4,0.8,0,1.2l0.4,0.4
		c0.4,0.4,0.8,0.4,1.2,0l0.1-0.1c0.2-0.2,0.3-0.5,0.3-0.5h0c0,0,0,0.4,0,0.8v4.5h-1.5c-0.5,0-0.8,0.3-0.8,0.8v0.6
		c0,0.5,0.3,0.8,0.8,0.8h5.6c0.5,0,0.8-0.3,0.8-0.8v-0.6C62.6,17.9,62.4,17.6,61.8,17.6z"/>
	<path class="st0" d="M73,14.8C73,6.6,66.3,0,58.2,0c-5.6,0-10.5,3.1-13,7.7H27.4H8.3C7.8,7.7,7.4,8,7.1,8.4l-6.8,9.8
		C0.1,18.4,0,18.7,0,19v22.7c0,0.8,0.7,1.5,1.5,1.5h3.3C5.5,47.6,9.4,51,14,51s8.4-3.4,9.1-7.8h4.3h13.4c0.7,4.4,4.5,7.8,9.1,7.8
		s8.4-3.4,9.1-7.8h5.2c0.8,0,1.5-0.7,1.5-1.5V27.5C70.1,24.9,73,20.2,73,14.8z M14,48c-3.5,0-6.3-2.8-6.3-6.3c0-3.5,2.8-6.3,6.3-6.3
		c3.5,0,6.3,2.8,6.3,6.3C20.3,45.2,17.4,48,14,48z M14,32.5c-4.6,0-8.4,3.4-9.1,7.8H3V19.5l6.1-8.8h16.8v29.5h-2.8
		C22.4,35.8,18.6,32.5,14,32.5z M49.9,48c-3.5,0-6.3-2.8-6.3-6.3c0-3.5,2.8-6.3,6.3-6.3c3.5,0,6.3,2.8,6.3,6.3
		C56.2,45.2,53.4,48,49.9,48z M62.8,40.2h-3.8c-0.7-4.4-4.5-7.8-9.1-7.8s-8.4,3.4-9.1,7.8H28.9V10.7h15.1c-0.4,1.3-0.6,2.7-0.6,4.1
		c0,8.2,6.7,14.8,14.8,14.8c1.6,0,3.2-0.3,4.7-0.8V40.2z M58.2,26.6c-6.5,0-11.9-5.3-11.9-11.8S51.6,3,58.2,3S70,8.3,70,14.8
		S64.7,26.6,58.2,26.6z"/>
	<path class="st0" d="M23.9,25.9V14.5c0-0.8-0.7-1.5-1.5-1.5H12.2c-0.5,0-0.9,0.2-1.2,0.6l-4.6,6.5c-0.2,0.3-0.3,0.6-0.3,0.9v4.9
		c0,0.8,0.7,1.5,1.5,1.5h14.8C23.2,27.4,23.9,26.7,23.9,25.9z M20.9,24.4H9v-2.9L13,16h7.9V24.4z"/>
</g>
</svg>
