<?xml version="1.0" encoding="utf-8"?>
<!-- Generator: Adobe Illustrator 22.0.1, SVG Export Plug-In . SVG Version: 6.00 Build 0)  -->
<svg version="1.1" id="Layer_1" xmlns="http://www.w3.org/2000/svg" xmlns:xlink="http://www.w3.org/1999/xlink" x="0px" y="0px"
	 viewBox="0 0 35 30" style="enable-background:new 0 0 35 30;" xml:space="preserve">
<style type="text/css">
	.st0{fill:#FFFFFF;}
</style>
<g>
	<path class="st0" d="M33.6,6c-0.9-0.9-2-1.4-3.3-1.4h-4.1l-0.9-2.5c-0.2-0.6-0.7-1.1-1.3-1.5C23.4,0.2,22.8,0,22.2,0h-9.3
		c-0.6,0-1.3,0.2-1.9,0.6c-0.6,0.4-1,0.9-1.3,1.5L8.7,4.6H4.7C3.4,4.6,2.3,5.1,1.4,6C0.5,6.9,0,8,0,9.2v16.2c0,1.3,0.5,2.4,1.4,3.3
		c0.9,0.9,2,1.4,3.3,1.4h25.7c1.3,0,2.4-0.5,3.3-1.4c0.9-0.9,1.4-2,1.4-3.3V9.2C35,8,34.5,6.9,33.6,6L33.6,6z M23.3,23
		c-1.6,1.6-3.5,2.4-5.8,2.4s-4.2-0.8-5.8-2.4c-1.6-1.6-2.4-3.5-2.4-5.7c0-2.2,0.8-4.1,2.4-5.7c1.6-1.6,3.5-2.4,5.8-2.4
		s4.2,0.8,5.8,2.4c1.6,1.6,2.4,3.5,2.4,5.7C25.7,19.5,24.9,21.4,23.3,23L23.3,23z M23.3,23"/>
	<path class="st0" d="M17.5,12.1c-1.4,0-2.7,0.5-3.7,1.5c-1,1-1.5,2.2-1.5,3.7c0,1.4,0.5,2.7,1.5,3.7c1,1,2.3,1.5,3.7,1.5
		s2.7-0.5,3.7-1.5c1-1,1.5-2.2,1.5-3.7c0-1.4-0.5-2.7-1.5-3.7C20.2,12.6,18.9,12.1,17.5,12.1L17.5,12.1z M17.5,12.1"/>
</g>
</svg>
