<?xml version="1.0" encoding="utf-8"?>
<!-- Generator: Adobe Illustrator 22.0.1, SVG Export Plug-In . SVG Version: 6.00 Build 0)  -->
<svg version="1.1" id="Layer_1" xmlns="http://www.w3.org/2000/svg" xmlns:xlink="http://www.w3.org/1999/xlink" x="0px" y="0px"
	 viewBox="0 0 28 38" style="enable-background:new 0 0 28 38;" xml:space="preserve">
<style type="text/css">
	.st0{fill:#FFFFFF;}
</style>
<path class="st0" d="M9.9,10.2H7c-1.2,0-2.3-1-2.3-2.3v0c0-1.2,1-2.3,2.3-2.3h2.8c1.2,0,2.3,1,2.3,2.3v0
	C12.1,9.2,11.1,10.2,9.9,10.2z"/>
<path class="st0" d="M21.3,21.7c-2.8-5.5-7.7-8.1-7.7-8.1v-2.1H3.5c-6,8.2-2.8,21.3-1.6,25.3C2.1,37.5,2.8,38,3.5,38h14.8
	c0.7,0,1.3-0.5,1.6-1.1C23.3,26.4,21.3,21.7,21.3,21.7z M17.7,27.2c-0.1,0.5-0.5,0.9-1,0.9c0,0-0.1,0-0.1,0c-0.6-0.1-1-0.6-0.9-1.2
	c0.3-2-0.2-3.6-1.5-4.9c-0.9-1-1.9-1.4-1.9-1.4c-0.5-0.2-0.8-0.8-0.6-1.4c0.2-0.5,0.8-0.8,1.4-0.6C14.9,19.4,18.4,22.2,17.7,27.2z"
	/>
<ellipse class="st0" cx="18.6" cy="3.3" rx="3.3" ry="3.3"/>
<ellipse class="st0" cx="25.6" cy="4.9" rx="2.4" ry="2.4"/>
<ellipse class="st0" cx="20.3" cy="9.7" rx="1.7" ry="1.8"/>
</svg>
