<?xml version="1.0" encoding="utf-8"?>
<!-- Generator: Adobe Illustrator 22.0.1, SVG Export Plug-In . SVG Version: 6.00 Build 0)  -->
<svg version="1.1" id="Layer_1" xmlns="http://www.w3.org/2000/svg" xmlns:xlink="http://www.w3.org/1999/xlink" x="0px" y="0px"
	 viewBox="0 0 48 51" style="enable-background:new 0 0 48 51;" xml:space="preserve">
<style type="text/css">
	.st0{fill:#FF4814;}
</style>
<g>
	<path class="st0" d="M40.2,38.2h-4.6l1.7-1.7c0.5-0.5,0.5-1.2,0-1.7s-1.3-0.5-1.7,0l-3.8,3.8c-0.2,0.2-0.3,0.4-0.4,0.6c0,0,0,0,0,0
		c0,0.1,0,0.1,0,0.2c0,0,0,0,0,0s0,0,0,0c0,0.3,0.1,0.6,0.4,0.9l3.8,3.8c0.2,0.2,0.6,0.4,0.9,0.4s0.6-0.1,0.9-0.4
		c0.5-0.5,0.5-1.2,0-1.7l-1.7-1.7h4.6c0.7,0,1.2-0.5,1.2-1.2C41.4,38.8,40.8,38.2,40.2,38.2z"/>
	<path class="st0" d="M44.5,31.3V12.7L22.2,0L0,12.7v25.5l22.2,12.7l5.9-3.4c2.1,2.1,5,3.5,8.3,3.5C42.8,51,48,45.9,48,39.5
		C48,36.3,46.7,33.4,44.5,31.3z M22.2,3.5L40,13.6l-7.3,4.2L14.9,7.7L22.2,3.5z M20.7,46.6L3,36.5V16.2l17.7,10.1V46.6z M4.5,13.6
		l7.3-4.2l17.7,10.1l-7.4,4.2L4.5,13.6z M23.8,46.6V26.3l17.7-10.1v13c-1.5-0.7-3.2-1.1-5-1.1c-6.4,0-11.6,5.1-11.6,11.5
		c0,2,0.5,3.9,1.5,5.6L23.8,46.6z M36.4,48c-4.7,0-8.6-3.8-8.6-8.5s3.8-8.5,8.6-8.5c4.7,0,8.6,3.8,8.6,8.5S41.1,48,36.4,48z"/>
</g>
</svg>
