<?xml version="1.0" encoding="utf-8"?>
<!-- Generator: Adobe Illustrator 22.0.1, SVG Export Plug-In . SVG Version: 6.00 Build 0)  -->
<svg version="1.1" id="Layer_1" xmlns="http://www.w3.org/2000/svg" xmlns:xlink="http://www.w3.org/1999/xlink" x="0px" y="0px"
	 viewBox="0 0 631.5 147.4" style="enable-background:new 0 0 631.5 147.4;" xml:space="preserve">
<style type="text/css">
	.st0{fill:#3B5998;}
	.st1{fill:#FFFFFF;}
	.st2{fill:#1DA1F2;}
	.st3{fill:#FF4813;}
</style>
<g>
	<circle class="st0" cx="73.1" cy="74.9" r="73.1"/>
	<path class="st1" d="M84.8,51.5v9.3h-4.7c-0.8,0.1-1.4,0.5-1.8,1.2c-0.4,0.7-0.5,1.5-0.5,2.4v5.8h7v9.4h-7v18.7h-9.4V79.6h-7v-9.4
		h7v-9.3c0.1-2.6,1-4.8,2.7-6.6c1.8-1.8,4-2.7,6.7-2.7H84.8z"/>
</g>
<g>
	<circle class="st2" cx="315.3" cy="74.7" r="73.1"/>
	<path class="st1" d="M344.3,57.2c-2.1,0.9-4.4,1.6-6.8,1.9c2.5-1.5,4.3-3.8,5.2-6.6c-2.3,1.4-4.8,2.4-7.6,2.9
		c-2.2-2.3-5.3-3.8-8.7-3.8c-6.6,0-11.9,5.3-11.9,11.9c0,0.9,0.1,1.8,0.3,2.7c-9.9-0.5-18.7-5.2-24.5-12.4c-1,1.8-1.6,3.8-1.6,6
		c0,4.1,2.2,7.8,5.4,9.9c-2-0.1-2.8-0.6-5.3-1.5c0,0,0,0.1,0,0.1c0,5.8,4,10.6,9.5,11.7c-1,0.3-2.1,0.4-3.2,0.4
		c-0.8,0-1.5-0.1-2.3-0.2c1.5,4.7,5.9,8.2,11.1,8.3c-4.1,3.2-9.2,5.1-14.8,5.1c-1,0-1.9-0.1-2.8-0.2c5.3,3.4,11.5,5.3,18.2,5.3
		c21.9,0,33.9-18.1,33.9-33.9c0-0.5,0-1,0-1.5C340.7,61.7,342.7,59.6,344.3,57.2z"/>
</g>
<circle class="st3" cx="557.5" cy="74.7" r="73.1"/>
<g>
	<path class="st1" d="M533.6,65.8c0.7,0.5,3,2.1,6.8,4.7c3.8,2.6,6.7,4.6,8.7,6c0.2,0.2,0.7,0.5,1.4,1c0.7,0.5,1.3,0.9,1.8,1.3
		c0.5,0.3,1,0.7,1.7,1.1c0.7,0.4,1.3,0.7,1.9,0.9c0.6,0.2,1.1,0.3,1.7,0.3h0.1c0.5,0,1.1-0.1,1.7-0.3c0.6-0.2,1.2-0.5,1.9-0.9
		c0.7-0.4,1.2-0.8,1.7-1.1c0.5-0.3,1.1-0.7,1.8-1.3c0.7-0.5,1.2-0.9,1.4-1c2-1.4,7.2-5,15.5-10.7c1.6-1.1,3-2.5,4-4.1
		c1.1-1.6,1.6-3.2,1.6-5c0-1.5-0.5-2.7-1.6-3.7c-1-1-2.3-1.6-3.7-1.6h-48.7c-1.7,0-3,0.6-3.9,1.7c-0.9,1.1-1.4,2.6-1.4,4.3
		c0,1.4,0.6,2.9,1.8,4.5C530.9,63.6,532.2,64.9,533.6,65.8L533.6,65.8z M533.6,65.8"/>
	<path class="st1" d="M583.8,69.4c-7.2,4.9-12.7,8.7-16.5,11.4c-1.3,0.9-2.3,1.6-3.1,2.2c-0.8,0.5-1.8,1-3.1,1.6
		c-1.3,0.5-2.5,0.8-3.6,0.8h-0.1c-1.1,0-2.3-0.3-3.6-0.8c-1.3-0.5-2.3-1.1-3.1-1.6c-0.8-0.5-1.8-1.2-3.1-2.2c-3-2.2-8.5-6-16.4-11.4
		c-1.3-0.8-2.4-1.8-3.3-2.9v26.2c0,1.5,0.5,2.7,1.6,3.7c1,1,2.3,1.6,3.7,1.6h48.7c1.5,0,2.7-0.5,3.7-1.6c1-1,1.6-2.3,1.6-3.7V66.5
		C586.2,67.5,585.1,68.5,583.8,69.4L583.8,69.4z M583.8,69.4"/>
</g>
</svg>
