<?xml version="1.0" encoding="utf-8"?>
<!-- Generator: Adobe Illustrator 22.0.1, SVG Export Plug-In . SVG Version: 6.00 Build 0)  -->
<svg version="1.1" id="Layer_1" xmlns="http://www.w3.org/2000/svg" xmlns:xlink="http://www.w3.org/1999/xlink" x="0px" y="0px"
	 viewBox="0 0 30 37" style="enable-background:new 0 0 30 37;" xml:space="preserve">
<style type="text/css">
	.st0{fill:#FFFFFF;}
</style>
<path class="st0" d="M19.8,28c1.9,0.7,3.7,1.1,6.1,1.8C25,41.8,13.7,37.1,19.8,28L19.8,28z"/>
<path class="st0" d="M30,17c-0.1-3.6-0.8-8.3-5.8-7.6c-2.4,0.6-4.1,3.2-4.9,7.7c-0.5,2.5-0.2,5.9,0.3,8c0.5,1.5,0.3,1.4,0.8,1.6
	c2,0.5,4,1,6.1,1.5C28.5,26.8,30.3,19,30,17L30,17z"/>
<path class="st0" d="M10.4,15.8c0.5-2.1,0.8-5.5,0.3-8C10,3.3,8.2,0.7,5.8,0.1C0.8-0.7,0.2,4.1,0,7.7c-0.3,2,1.4,9.8,3.5,11.2
	c2-0.5,4-1,6.1-1.5C10.1,17.1,10,17.2,10.4,15.8L10.4,15.8z"/>
<path class="st0" d="M4,20.5c0.9,12,12.3,7.2,6.1-1.9C8.2,19.3,6.5,19.8,4,20.5L4,20.5z"/>
</svg>
