<?xml version="1.0" encoding="utf-8"?>
<!-- Generator: Adobe Illustrator 22.0.1, SVG Export Plug-In . SVG Version: 6.00 Build 0)  -->
<svg version="1.1" id="Layer_1" xmlns="http://www.w3.org/2000/svg" xmlns:xlink="http://www.w3.org/1999/xlink" x="0px" y="0px"
	 viewBox="0 0 70 70" style="enable-background:new 0 0 70 70;" xml:space="preserve">
<style type="text/css">
	.st0{fill:#673AB7;}
	.st1{fill:#FFFFFF;}
</style>
<circle class="st0" cx="35" cy="35" r="35"/>
<g>
	<g>
		<path class="st1" d="M52.7,31.9c-0.2-0.2-0.5-0.4-0.8-0.4h-8.8v-6.4c0-4.5-3.6-8.1-8.1-8.1h-0.1c-4.5,0-8.2,3.6-8.2,8.1v6.4h-8.7
			c-0.3,0-0.6,0.1-0.8,0.4c-0.2,0.2-0.2,0.5-0.2,0.8l4.9,19.5c0.1,0.4,0.5,0.7,0.9,0.7h24.3c0.4,0,0.8-0.3,0.9-0.7l4.9-19.5
			C53,32.5,52.9,32.2,52.7,31.9L52.7,31.9z M28.6,25.1c0-3.4,2.8-6.2,6.3-6.2H35c3.4,0,6.2,2.7,6.2,6.2v6.4H28.6V25.1z M28.6,25.1"
			/>
	</g>
</g>
</svg>
