<?xml version="1.0" encoding="utf-8"?>
<!-- Generator: Adobe Illustrator 22.0.1, SVG Export Plug-In . SVG Version: 6.00 Build 0)  -->
<svg version="1.1" id="Layer_1" xmlns="http://www.w3.org/2000/svg" xmlns:xlink="http://www.w3.org/1999/xlink" x="0px" y="0px"
	 viewBox="0 0 70 70" style="enable-background:new 0 0 70 70;" xml:space="preserve">
<style type="text/css">
	.st0{fill:#2950B2;}
	.st1{fill:#FFFFFF;}
</style>
<ellipse class="st0" cx="35" cy="35.1" rx="35" ry="34.9"/>
<g>
	<path class="st1" d="M51.1,26c-0.9-0.9-2-1.4-3.3-1.4h-4.1l-0.9-2.5c-0.2-0.6-0.7-1.1-1.3-1.5c-0.6-0.4-1.2-0.6-1.9-0.6h-9.3
		c-0.6,0-1.3,0.2-1.9,0.6c-0.6,0.4-1,0.9-1.3,1.5l-0.9,2.5h-4.1c-1.3,0-2.4,0.5-3.3,1.4c-0.9,0.9-1.4,2-1.4,3.3v16.2
		c0,1.3,0.5,2.4,1.4,3.3c0.9,0.9,2,1.4,3.3,1.4h25.6c1.3,0,2.4-0.5,3.3-1.4c0.9-0.9,1.4-2,1.4-3.3V29.3C52.4,28,52,26.9,51.1,26
		L51.1,26z M40.7,43.1c-1.6,1.6-3.5,2.4-5.7,2.4s-4.2-0.8-5.7-2.4c-1.6-1.6-2.4-3.5-2.4-5.7c0-2.2,0.8-4.1,2.4-5.7
		c1.6-1.6,3.5-2.4,5.7-2.4s4.2,0.8,5.7,2.4c1.6,1.6,2.4,3.5,2.4,5.7C43.1,39.6,42.3,41.5,40.7,43.1L40.7,43.1z M40.7,43.1"/>
	<path class="st1" d="M35,32.2c-1.4,0-2.7,0.5-3.7,1.5c-1,1-1.5,2.3-1.5,3.7c0,1.4,0.5,2.7,1.5,3.7c1,1,2.3,1.5,3.7,1.5
		s2.7-0.5,3.7-1.5c1-1,1.5-2.3,1.5-3.7c0-1.4-0.5-2.7-1.5-3.7C37.7,32.7,36.4,32.2,35,32.2L35,32.2z M35,32.2"/>
</g>
</svg>
