<?xml version="1.0" encoding="utf-8"?>
<!-- Generator: Adobe Illustrator 22.0.1, SVG Export Plug-In . SVG Version: 6.00 Build 0)  -->
<svg version="1.1" id="Layer_1" xmlns="http://www.w3.org/2000/svg" xmlns:xlink="http://www.w3.org/1999/xlink" x="0px" y="0px"
	 viewBox="0 0 70 70" style="enable-background:new 0 0 70 70;" xml:space="preserve">
<style type="text/css">
	.st0{fill:#229D90;}
	.st1{fill:#FFFFFF;}
</style>
<circle class="st0" cx="35" cy="35" r="35"/>
<g>
	<path class="st1" d="M31.1,26.1h-3.7c-1.1,0-1.9-0.9-1.9-1.9v-0.7c0-1.1,0.9-1.9,1.9-1.9h3.7c1.1,0,1.9,0.9,1.9,1.9v0.7
		C33,25.2,32.2,26.1,31.1,26.1z"/>
	<path class="st1" d="M42.5,37.8c-2.9-5.6-8-8.2-8-8.2v-2.2H24.2c-6.1,8.4-2.9,21.7-1.6,25.8c0.2,0.7,0.9,1.2,1.6,1.2h15.2
		c0.7,0,1.4-0.5,1.6-1.2C44.6,42.6,42.5,37.8,42.5,37.8z M38.9,43.4c-0.1,0.5-0.5,0.9-1.1,0.9c0,0-0.1,0-0.1,0
		c-0.6-0.1-1-0.6-0.9-1.2c0.3-2-0.3-3.7-1.5-5c-1-1-2-1.4-2-1.4c-0.6-0.2-0.8-0.9-0.6-1.4c0.2-0.6,0.9-0.8,1.4-0.6
		C36,35.4,39.5,38.2,38.9,43.4z"/>
	<circle class="st1" cx="39.7" cy="19" r="3.4"/>
	<circle class="st1" cx="47" cy="20.6" r="2.4"/>
	<circle class="st1" cx="41.5" cy="25.5" r="1.8"/>
</g>
</svg>
