<?xml version="1.0" encoding="utf-8"?>
<!-- Generator: Adobe Illustrator 22.0.1, SVG Export Plug-In . SVG Version: 6.00 Build 0)  -->
<svg version="1.1" id="Layer_1" xmlns="http://www.w3.org/2000/svg" xmlns:xlink="http://www.w3.org/1999/xlink" x="0px" y="0px"
	 viewBox="0 0 70 70" style="enable-background:new 0 0 70 70;" xml:space="preserve">
<style type="text/css">
	.st0{fill:#F3D00D;}
	.st1{fill:#FFFFFF;}
</style>
<ellipse class="st0" cx="35" cy="35.1" rx="35" ry="34.9"/>
<g>
	<path class="st1" d="M40.2,46c2.3,0.8,4.3,1.3,7.1,2.1C46.2,62,33.1,56.5,40.2,46L40.2,46z"/>
	<path class="st1" d="M52,33.2c-0.1-4.2-0.9-9.7-6.7-8.8c-2.7,0.7-4.8,3.7-5.7,8.9c-0.5,2.9-0.2,6.9,0.4,9.3c0.6,1.7,0.4,1.6,1,1.9
		c2.4,0.5,4.7,1.1,7,1.7C50.3,44.5,52.3,35.5,52,33.2L52,33.2z"/>
	<path class="st1" d="M29.3,31.8c0.6-2.4,0.9-6.4,0.4-9.3c-1-5.2-3-8.2-5.7-8.9c-5.9-0.9-6.6,4.6-6.7,8.8
		c-0.3,2.3,1.6,11.4,4.1,13.1c2.4-0.6,4.7-1.2,7-1.7C28.9,33.4,28.7,33.5,29.3,31.8L29.3,31.8z"/>
	<path class="st1" d="M21.8,37.3c1.1,13.9,14.3,8.4,7.1-2.1C26.7,35.9,24.7,36.4,21.8,37.3L21.8,37.3z"/>
</g>
</svg>
