<svg xmlns="http://www.w3.org/2000/svg" width="132.6" height="58" viewBox="0 0 132.6 58"><style>.st0{fill:#f1f2f2;stroke:#27aae1;stroke-width:.25;stroke-miterlimit:10}.st1{opacity:5e-2}.st2{fill:#fff}.st3{fill:#017f61}.st4{fill:#f58321}.st5{fill:#ea2127}.st6{fill:#d1d3d4}.st7{fill:#f1f2f2}.st8{fill:none;stroke:#a7a9ac;stroke-width:.25;stroke-miterlimit:10}.st9{fill:#a7a9ac}.st10{fill:#939598}.st11{fill:#8dc740}.st12{fill:none;stroke:#27aae1;stroke-width:.5;stroke-miterlimit:10;stroke-dasharray:3}.st13{fill:#ed1c24}.st14{fill:#6d6e71}.st15{opacity:.15}.st16{clip-path:url(#SVGID_2_)}.st17{clip-path:url(#SVGID_4_)}.st18{opacity:.3}.st19{clip-path:url(#SVGID_6_)}.st20{clip-path:url(#SVGID_8_)}.st21{fill:#bada8c}.st22{fill:#93c948}.st23{fill:#c2de99}.st24{clip-path:url(#SVGID_10_)}.st25{fill:#faae70}.st26{clip-path:url(#SVGID_12_)}.st27{clip-path:url(#SVGID_14_)}.st28{fill:#58595b}.st29{fill:#414042}.st30{clip-path:url(#SVGID_16_)}.st31{clip-path:url(#SVGID_18_)}.st32{clip-path:url(#SVGID_20_)}.st33{clip-path:url(#SVGID_22_)}.st34{clip-path:url(#SVGID_24_)}.st35{clip-path:url(#SVGID_26_)}</style><g id="copy"><path class="st2" d="M132.6 45.6c-.1-1.4-.7-2.7-1.7-3.7l-.6-.5c1.5-2.8 2.3-5.9 2.3-9.2 0-10.6-8.6-19.2-19.2-19.2-7.4 0-13.8 4.2-17 10.3-3.2-6.1-9.6-10.3-17-10.3-6.5 0-12.2 3.2-15.7 8.1V21v-.1c0-.1 0-.2-.1-.2v-.1c0-.1-.1-.1-.1-.2v-.1c0-.1-.1-.2-.1-.2V20c0-.1-.1-.2-.2-.3v-.1c0-.1-.1-.2-.1-.2s0-.1-.1-.1c0-.1-.1-.1-.1-.2 0 0 0-.1-.1-.1 0-.1-.1-.1-.1-.2 0 0 0-.1-.1-.1-.1-.1-.1-.2-.2-.2l-.2-.2s-.1 0-.1-.1c-.1 0-.1-.1-.2-.1l-.1-.1c-.1 0-.1-.1-.2-.1h-.1c.1-.1.2-.1.3-.2 0 0 .1 0 .1-.1.1 0 .1-.1.2-.1l.1-.1c.1 0 .1-.1.2-.1l.1-.1c.1-.1.2-.1.2-.2 1.1-1.1 1.7-2.6 1.7-4.2 0-3.5-2.6-5.9-6.4-5.9h-.1c-2.4 0-4.3 1.1-5.4 2.8-.2.2-.3.5-.4.8-.1.3-.2.5-.3.8-.1.5-.2 1-.2 1.5 0 .3 0 .6.1.9.2 1.3.7 2.4 1.6 3.3l.2.2.1.1.2.2.1.1.2.2s.1 0 .1.1c.1.1.2.1.3.2-.1.1-.2.2-.3.2l-.3.3-.1-.1-.1-.1c-.1 0-.1-.1-.2-.1l-.1-.1c-.1 0-.1-.1-.2-.1l-.1-.1c-.1-.1-.2-.1-.3-.2-.9-.6-2-.9-3.1-.9-2.9 0-5.2 2.1-5.7 5 0 .3-.1.6-.1.9V36.4c-.1 0-.1-.1-.2-.1 0 0-.1 0-.1-.1-.1 0-.1 0-.2-.1 0 0-.1 0-.1-.1-.1 0-.1 0-.2-.1H42.8 42.5 42.2 41.9h-1c-1.3.1-2.5.6-3.5 1.3-.3.2-.6.5-.9.7-.2.1-.4.3-.5.4-.2.2-.4.3-.6.4-2.4 1.6-5.3 2.5-8.1 2.5-2.6 0-5.1-.8-7.1-2.2-4.5-3.2-6.4-7.7-5.8-13.8.2-2 .8-3.8 1.7-5.4 1.7-3.1 4.6-5.4 8-6.2.8-.2 1.7-.3 2.5-.4h.8c3.1 0 6.1 1.1 9 3.4 1.4 1.1 3 1.7 4.7 1.7 2 0 3.8-.8 5-2.3.1-.1.2-.2.2-.3 1.1-1.4 1.6-3.2 1.3-4.9-.3-1.9-1.4-3.7-3.2-5C39.3 1.8 33.7 0 27.5 0h-.6c-1.4 0-2.9.1-4.3.4C15.4 1.4 9.2 5.2 5 11 1 16.6-.7 23.4.2 30.4c1.7 13.8 12.6 23.4 26.5 23.5h.2c.4 0 .8-.1 1.2-.1.6 0 1.2-.1 1.9-.1.3 0 .6-.1.9-.1.3 0 .6-.1 1-.1.1 0 .2 0 .3-.1.2 0 .4-.1.6-.1.1 0 .2 0 .4-.1.2 0 .4-.1.6-.1.1 0 .3-.1.4-.1.2 0 .4-.1.6-.1.1 0 .3-.1.4-.1.2-.1.4-.1.6-.2.1 0 .2-.1.4-.1.2-.1.4-.1.6-.2.1 0 .2-.1.3-.1.2-.1.4-.2.7-.3.1 0 .1-.1.2-.1.3-.1.6-.2.9-.4.1 0 .1-.1.2-.1l.6-.3c.1-.1.2-.1.3-.2.2-.1.4-.2.5-.3.1-.1.2-.1.3-.2.2-.1.3-.2.5-.3.1-.1.2-.1.3-.2.2-.1.3-.2.5-.3.1-.1.2-.1.3-.2.2-.1.3-.2.5-.3.1-.1.2-.1.3-.2.2-.1.4-.3.5-.4.1-.1.2-.1.3-.2h.1v3.9c0 3.5 2.5 6 5.8 6H79.7c2.4 0 4.3-1.3 5.2-3.4.6-1.3.6-2.7.1-4 1.2-.4 2.4-.8 3.5-1.4l1 .9c1 .9 2.3 1.4 3.6 1.4 1.5 0 2.9-.6 4-1.8l.2-.2c1-1.1 1.4-2.4 1.4-3.8 0-.6-.1-1.1-.3-1.6 3.5 4.5 9 7.4 15.1 7.4 3.2 0 6.3-.8 9-2.3l1 .9c1 .9 2.3 1.4 3.6 1.4 1.5 0 2.9-.6 4-1.8l.2-.2c.9-1.2 1.4-2.6 1.3-4zm-11.5-12.5l-1-.9c-1-.9-2.3-1.4-3.6-1.4-1.5 0-2.9.6-4 1.8l-.2.2c-1 1.1-1.4 2.4-1.4 3.8.1 1.2.5 2.3 1.3 3.2-3.7-.6-6.6-3.8-6.6-7.7 0-4.3 3.5-7.7 7.7-7.7 4.3 0 7.7 3.5 7.7 7.7.2.4.2.7.1 1zM63.3 46.9c.1-.1.1-.2.2-.4v-.1c0-.1.1-.2.1-.3V46c0-.1.1-.2.1-.3 0-.1.1-.3.1-.4v-.1c0-.1 0-.2.1-.3v-.1c0-.1 0-.3.1-.4v-.1-.3-.1-.2c.9 1.2 1.9 2.3 3.1 3.3-1.2-.1-2.5-.1-3.8-.1zm23.9-13.8l-1-.9c-1-.9-2.3-1.4-3.6-1.4-1.5 0-2.9.6-4 1.8l-.2.2c-1.8 2-1.8 5-.1 7-3.7-.6-6.6-3.8-6.6-7.7 0-4.3 3.5-7.7 7.7-7.7 4.3 0 7.7 3.5 7.7 7.7.2.4.1.7.1 1zm9.1 8.3c0-.1.1-.2.1-.3.1.3.3.5.4.8l-.5-.5z"/><path class="st2" d="M26.7 51c1.3-.1 2.6-.2 3.8-.3 5-.6 9.3-2.6 13-6 1.6-1.4 1.7-3.6.4-5.1-1.3-1.5-3.5-1.7-5.1-.5-.7.5-1.4 1.1-2.1 1.6-5.7 3.9-13.1 4.1-18.4.3-5.7-4-7.7-9.8-7-16.5.7-6.9 5.5-12.5 11.9-14 5.4-1.3 10.3.1 14.7 3.5 2 1.6 4.6 1.3 5.9-.4 1.4-1.8.9-4.3-1.3-5.9C36.7 3.4 30.1 2.2 23 3.2 9.5 5.1 1.5 17.4 3.1 30c1.5 12.3 11.2 20.9 23.6 21zm20.2-13.8v14.7c0 1.9 1.1 3.2 3 3.2h29.8c1.2 0 2.1-.6 2.6-1.7.8-1.9-.6-3.6-2.8-3.6H55.2c-2.5 0-2.5.5-2.5-2.5V22.8c0-1.2-.3-2.2-1.3-2.8-2-1.2-4.5.1-4.5 2.6-.1 4.8 0 9.7 0 14.6zm8.2-4.1v10.6c0 2 1.3 3.3 3 3.3 1.9 0 3.1-1.3 3.1-3.5V23.1c0-2.2-1.3-3.5-3.1-3.5s-3 1.4-3 3.5v10zm3-17.3c2.1 0 3.5-1.2 3.5-3.1 0-1.9-1.4-3.1-3.6-3.1-2.1 0-3.4 1.2-3.5 3 .1 1.9 1.5 3.2 3.6 3.2z"/><path class="st4" d="M26.7 51c-12.4-.1-22.1-8.7-23.6-21C1.5 17.4 9.5 5.1 23 3.2c7.1-1 13.6.2 19.5 4.5 2.2 1.6 2.7 4 1.3 5.9-1.3 1.8-3.9 2-5.9.4-4.4-3.4-9.2-4.8-14.7-3.5C16.8 12 12 17.6 11.3 24.6c-.7 6.7 1.3 12.5 7 16.5 5.3 3.8 12.7 3.6 18.5-.3.7-.5 1.4-1.1 2.1-1.6 1.7-1.2 3.8-1 5.1.5 1.3 1.5 1.2 3.7-.4 5.1-3.7 3.3-8 5.4-13 6-1.3 0-2.6.1-3.9.2z"/><path class="st3" d="M46.9 37.2V22.5c0-2.4 2.5-3.8 4.5-2.6 1.1.7 1.3 1.6 1.3 2.8v24.5c0 3 0 2.5 2.5 2.5h24.3c2.3 0 3.6 1.8 2.8 3.6-.5 1.1-1.4 1.7-2.6 1.7H49.9c-1.8 0-3-1.3-3-3.2-.1-4.8 0-9.7 0-14.6z"/><path class="st5" d="M55.1 33.1V23c0-2.1 1.2-3.4 3-3.5 1.9 0 3.1 1.3 3.1 3.5 0 6.8.1 13.6 0 20.4 0 2.2-1.2 3.5-3.1 3.5-1.8 0-3-1.3-3-3.3 0-3.4.1-7 0-10.5zM58.1 15.8c-2.1 0-3.5-1.3-3.5-3.1s1.4-3 3.5-3c2.2 0 3.6 1.2 3.6 3.1 0 1.8-1.4 3-3.6 3z"/><path class="st11" d="M128.9 44l-2.4-2.1c2-2.7 3.2-6 3.2-9.7 0-9-7.3-16.3-16.3-16.3s-16.3 7.3-16.3 16.3 7.3 16.3 16.3 16.3c3.5 0 6.7-1.1 9.3-2.9l2.6 2.4c1 .9 2.6.8 3.5-.2l.2-.2c1-1.1.9-2.7-.1-3.6zm-15.4-1.2c-5.9 0-10.6-4.7-10.6-10.6s4.7-10.6 10.6-10.6 10.6 4.7 10.6 10.6c0 2.1-.6 4.1-1.7 5.8l-4.1-3.7c-1-.9-2.6-.8-3.5.2l-.2.2c-.9 1-.8 2.6.2 3.5l3.7 3.4c-1.6.8-3.3 1.2-5 1.2zM95 44l-2.4-2.1c2-2.7 3.2-6 3.2-9.7 0-9-7.3-16.3-16.3-16.3s-16.3 7.3-16.3 16.3 7.3 16.3 16.3 16.3c3.5 0 6.7-1.1 9.3-2.9l2.6 2.4c1 .9 2.6.8 3.5-.2l.2-.2c1-1.1.9-2.7-.1-3.6zm-15.5-1.2c-5.9 0-10.6-4.7-10.6-10.6s4.7-10.6 10.6-10.6 10.6 4.7 10.6 10.6c0 2.1-.6 4.1-1.7 5.8l-4.1-3.7c-1-.9-2.6-.8-3.5.2l-.2.2c-.9 1-.8 2.6.2 3.5l3.7 3.4c-1.5.8-3.2 1.2-5 1.2z"/></g></svg>