<?xml version="1.0" encoding="utf-8"?>
<!-- Generator: Adobe Illustrator 21.1.0, SVG Export Plug-In . SVG Version: 6.00 Build 0)  -->
<svg version="1.1" xmlns="http://www.w3.org/2000/svg" xmlns:xlink="http://www.w3.org/1999/xlink" x="0px" y="0px" width="132.6px"
	 height="58px" viewBox="0 0 132.6 58" style="enable-background:new 0 0 132.6 58;" xml:space="preserve">
<style type="text/css">
	.st0{fill:#F1F2F2;stroke:#27AAE1;stroke-width:0.25;stroke-miterlimit:10;}
	.st1{opacity:5.000000e-02;}
	.st2{fill:#FFFFFF;}
	.st3{fill:#017F61;}
	.st4{fill:#F58321;}
	.st5{fill:#EA2127;}
	.st6{fill:#D1D3D4;}
	.st7{fill:#F1F2F2;}
	.st8{fill:none;stroke:#A7A9AC;stroke-width:0.25;stroke-miterlimit:10;}
	.st9{fill:#A7A9AC;}
	.st10{fill:#939598;}
	.st11{fill:#8DC740;}
	.st12{fill:none;stroke:#27AAE1;stroke-width:0.5;stroke-miterlimit:10;stroke-dasharray:3;}
	.st13{fill:#ED1C24;}
	.st14{fill:#6D6E71;}
	.st15{opacity:0.15;}
	.st16{clip-path:url(#SVGID_2_);}
	.st17{clip-path:url(#SVGID_4_);}
	.st18{opacity:0.3;}
	.st19{clip-path:url(#SVGID_6_);}
	.st20{clip-path:url(#SVGID_8_);}
	.st21{fill:#BADA8C;}
	.st22{fill:#93C948;}
	.st23{fill:#C2DE99;}
	.st24{clip-path:url(#SVGID_10_);}
	.st25{fill:#FAAE70;}
	.st26{clip-path:url(#SVGID_12_);}
	.st27{clip-path:url(#SVGID_14_);}
	.st28{fill:#58595B;}
	.st29{fill:#414042;}
	.st30{clip-path:url(#SVGID_16_);}
	.st31{clip-path:url(#SVGID_18_);}
	.st32{clip-path:url(#SVGID_20_);}
	.st33{clip-path:url(#SVGID_22_);}
	.st34{clip-path:url(#SVGID_24_);}
	.st35{clip-path:url(#SVGID_26_);}
</style>
<g id="bg">
</g>
<g id="design">
</g>
<g id="copy">
	<g>
		<path class="st2" d="M132.6,45.6c-0.1-1.4-0.7-2.7-1.7-3.7l-0.6-0.5c1.5-2.8,2.3-5.9,2.3-9.2c0-10.6-8.6-19.2-19.2-19.2
			c-7.4,0-13.8,4.2-17,10.3c-3.2-6.1-9.6-10.3-17-10.3c-6.5,0-12.2,3.2-15.7,8.1c0,0,0-0.1,0-0.1c0,0,0-0.1,0-0.1
			c0-0.1,0-0.2-0.1-0.2c0,0,0-0.1,0-0.1c0-0.1-0.1-0.1-0.1-0.2c0,0,0-0.1,0-0.1c0-0.1-0.1-0.2-0.1-0.2c0,0,0-0.1,0-0.1
			c0-0.1-0.1-0.2-0.2-0.3c0,0,0,0,0-0.1c0-0.1-0.1-0.2-0.1-0.2c0,0,0-0.1-0.1-0.1c0-0.1-0.1-0.1-0.1-0.2c0,0,0-0.1-0.1-0.1
			c0-0.1-0.1-0.1-0.1-0.2c0,0,0-0.1-0.1-0.1c-0.1-0.1-0.1-0.2-0.2-0.2c0,0,0,0,0,0c-0.1-0.1-0.1-0.1-0.2-0.2c0,0-0.1,0-0.1-0.1
			c-0.1,0-0.1-0.1-0.2-0.1c0,0-0.1-0.1-0.1-0.1c-0.1,0-0.1-0.1-0.2-0.1c0,0,0,0-0.1,0c0,0,0,0,0,0c0.1-0.1,0.2-0.1,0.3-0.2
			c0,0,0.1,0,0.1-0.1c0.1,0,0.1-0.1,0.2-0.1c0,0,0.1-0.1,0.1-0.1c0.1,0,0.1-0.1,0.2-0.1c0,0,0.1-0.1,0.1-0.1
			c0.1-0.1,0.2-0.1,0.2-0.2c0,0,0,0,0,0c1.1-1.1,1.7-2.6,1.7-4.2c0-3.5-2.6-5.9-6.4-5.9l-0.1,0c-2.4,0-4.3,1.1-5.4,2.8
			c-0.2,0.2-0.3,0.5-0.4,0.8c-0.1,0.3-0.2,0.5-0.3,0.8c-0.1,0.5-0.2,1-0.2,1.5c0,0.3,0,0.6,0.1,0.9c0.2,1.3,0.7,2.4,1.6,3.3
			c0,0,0,0,0,0c0.1,0.1,0.2,0.2,0.2,0.2c0,0,0.1,0.1,0.1,0.1c0.1,0.1,0.1,0.1,0.2,0.2c0,0,0.1,0.1,0.1,0.1c0.1,0.1,0.1,0.1,0.2,0.2
			c0,0,0.1,0,0.1,0.1c0.1,0.1,0.2,0.1,0.3,0.2c0,0,0,0,0,0c0,0,0,0,0,0c-0.1,0.1-0.2,0.2-0.3,0.2c0,0,0,0,0,0
			c-0.1,0.1-0.2,0.2-0.3,0.3c0,0,0,0,0,0c0,0-0.1-0.1-0.1-0.1c0,0-0.1-0.1-0.1-0.1c-0.1,0-0.1-0.1-0.2-0.1c0,0-0.1-0.1-0.1-0.1
			c-0.1,0-0.1-0.1-0.2-0.1c0,0-0.1-0.1-0.1-0.1c-0.1-0.1-0.2-0.1-0.3-0.2c-0.9-0.6-2-0.9-3.1-0.9c-2.9,0-5.2,2.1-5.7,5
			c0,0.3-0.1,0.6-0.1,0.9c0,2.2,0,4.5,0,6.7c0,1.2,0,2.5,0,3.7c0,0.1,0,0.3,0,0.4c0,0.9,0,1.9,0,2.8c0,0,0,0,0,0
			c-0.1,0-0.1-0.1-0.2-0.1c0,0-0.1,0-0.1-0.1c-0.1,0-0.1,0-0.2-0.1c0,0-0.1,0-0.1-0.1c-0.1,0-0.1,0-0.2-0.1c0,0-0.1,0-0.1,0
			c-0.1,0-0.1,0-0.2,0c0,0-0.1,0-0.1,0c-0.1,0-0.1,0-0.2,0c0,0-0.1,0-0.1,0c-0.1,0-0.1,0-0.2,0c0,0-0.1,0-0.1,0c-0.1,0-0.2,0-0.2,0
			c0,0-0.1,0-0.1,0c-0.1,0-0.2,0-0.4,0c-0.2,0-0.4,0-0.5,0c-1.3,0.1-2.5,0.6-3.5,1.3c-0.3,0.2-0.6,0.5-0.9,0.7
			c-0.2,0.1-0.4,0.3-0.5,0.4c-0.2,0.2-0.4,0.3-0.6,0.4c-2.4,1.6-5.3,2.5-8.1,2.5c-2.6,0-5.1-0.8-7.1-2.2c-4.5-3.2-6.4-7.7-5.8-13.8
			c0.2-2,0.8-3.8,1.7-5.4c1.7-3.1,4.6-5.4,8-6.2c0.8-0.2,1.7-0.3,2.5-0.4c0.3,0,0.5,0,0.8,0c3.1,0,6.1,1.1,9,3.4
			c1.4,1.1,3,1.7,4.7,1.7h0h0c0,0,0,0,0,0c2,0,3.8-0.8,5-2.3c0.1-0.1,0.2-0.2,0.2-0.3c1.1-1.4,1.6-3.2,1.3-4.9
			c-0.3-1.9-1.4-3.7-3.2-5C39.3,1.8,33.7,0,27.5,0c-0.2,0-0.4,0-0.6,0c-1.4,0-2.9,0.1-4.3,0.4c-7.2,1-13.4,4.8-17.6,10.6
			c-4,5.6-5.7,12.4-4.8,19.4c1.7,13.8,12.6,23.4,26.5,23.5l0.1,0l0.1,0c0.4,0,0.8-0.1,1.2-0.1c0.6,0,1.2-0.1,1.9-0.1
			c0.3,0,0.6-0.1,0.9-0.1c0.3,0,0.6-0.1,1-0.1c0.1,0,0.2,0,0.3-0.1c0.2,0,0.4-0.1,0.6-0.1c0.1,0,0.2,0,0.4-0.1
			c0.2,0,0.4-0.1,0.6-0.1c0.1,0,0.3-0.1,0.4-0.1c0.2,0,0.4-0.1,0.6-0.1c0.1,0,0.3-0.1,0.4-0.1c0.2-0.1,0.4-0.1,0.6-0.2
			c0.1,0,0.2-0.1,0.4-0.1c0.2-0.1,0.4-0.1,0.6-0.2c0.1,0,0.2-0.1,0.3-0.1c0.2-0.1,0.4-0.2,0.7-0.3c0.1,0,0.1-0.1,0.2-0.1
			c0.3-0.1,0.6-0.2,0.9-0.4c0.1,0,0.1-0.1,0.2-0.1c0.2-0.1,0.4-0.2,0.6-0.3c0.1-0.1,0.2-0.1,0.3-0.2c0.2-0.1,0.4-0.2,0.5-0.3
			c0.1-0.1,0.2-0.1,0.3-0.2c0.2-0.1,0.3-0.2,0.5-0.3c0.1-0.1,0.2-0.1,0.3-0.2c0.2-0.1,0.3-0.2,0.5-0.3c0.1-0.1,0.2-0.1,0.3-0.2
			c0.2-0.1,0.3-0.2,0.5-0.3c0.1-0.1,0.2-0.1,0.3-0.2c0.2-0.1,0.4-0.3,0.5-0.4c0.1-0.1,0.2-0.1,0.3-0.2c0,0,0,0,0.1,0
			c0,0.1,0,0.2,0,0.4c0,1.2,0,2.3,0,3.5c0,3.5,2.5,6,5.8,6c2,0,4,0,6.1,0c2.7,0,5.5,0,8.5,0c0,0,0,0,0,0s0,0,0,0
			c5.1,0,10.2,0,15.2,0c2.4,0,4.3-1.3,5.2-3.4c0.6-1.3,0.6-2.7,0.1-4c1.2-0.4,2.4-0.8,3.5-1.4l1,0.9c1,0.9,2.3,1.4,3.6,1.4
			c1.5,0,2.9-0.6,4-1.8l0.2-0.2c1-1.1,1.4-2.4,1.4-3.8c0-0.6-0.1-1.1-0.3-1.6c3.5,4.5,9,7.4,15.1,7.4c3.2,0,6.3-0.8,9-2.3l1,0.9
			c1,0.9,2.3,1.4,3.6,1.4c1.5,0,2.9-0.6,4-1.8l0.2-0.2C132.2,48.4,132.7,47,132.6,45.6z M121.1,33.1l-1-0.9c-1-0.9-2.3-1.4-3.6-1.4
			c-1.5,0-2.9,0.6-4,1.8l-0.2,0.2c-1,1.1-1.4,2.4-1.4,3.8c0.1,1.2,0.5,2.3,1.3,3.2c-3.7-0.6-6.6-3.8-6.6-7.7c0-4.3,3.5-7.7,7.7-7.7
			c4.3,0,7.7,3.5,7.7,7.7C121.2,32.5,121.2,32.8,121.1,33.1z M63.3,46.9C63.3,46.9,63.3,46.9,63.3,46.9c0.1-0.1,0.1-0.2,0.2-0.4
			c0,0,0,0,0-0.1c0-0.1,0.1-0.2,0.1-0.3c0,0,0-0.1,0-0.1c0-0.1,0.1-0.2,0.1-0.3c0,0,0,0,0,0c0-0.1,0.1-0.3,0.1-0.4c0,0,0-0.1,0-0.1
			c0-0.1,0-0.2,0.1-0.3c0,0,0-0.1,0-0.1c0-0.1,0-0.3,0.1-0.4c0,0,0-0.1,0-0.1c0-0.1,0-0.2,0-0.3c0,0,0-0.1,0-0.1c0-0.1,0-0.2,0-0.2
			c0.9,1.2,1.9,2.3,3.1,3.3C65.9,46.9,64.6,46.9,63.3,46.9z M87.2,33.1l-1-0.9c-1-0.9-2.3-1.4-3.6-1.4c-1.5,0-2.9,0.6-4,1.8
			l-0.2,0.2c-1.8,2-1.8,5-0.1,7c-3.7-0.6-6.6-3.8-6.6-7.7c0-4.3,3.5-7.7,7.7-7.7c4.3,0,7.7,3.5,7.7,7.7
			C87.3,32.5,87.2,32.8,87.2,33.1z M96.3,41.4c0-0.1,0.1-0.2,0.1-0.3c0.1,0.3,0.3,0.5,0.4,0.8L96.3,41.4z"/>
		<g>
			<path class="st2" d="M26.7,51c1.3-0.1,2.6-0.2,3.8-0.3c5-0.6,9.3-2.6,13-6c1.6-1.4,1.7-3.6,0.4-5.1c-1.3-1.5-3.5-1.7-5.1-0.5
				c-0.7,0.5-1.4,1.1-2.1,1.6C31,44.6,23.6,44.8,18.3,41c-5.7-4-7.7-9.8-7-16.5C12,17.6,16.8,12,23.2,10.5
				c5.4-1.3,10.3,0.1,14.7,3.5c2,1.6,4.6,1.3,5.9-0.4c1.4-1.8,0.9-4.3-1.3-5.9C36.7,3.4,30.1,2.2,23,3.2C9.5,5.1,1.5,17.4,3.1,30
				C4.6,42.3,14.3,50.9,26.7,51z M46.9,37.2c0,4.9,0,9.8,0,14.7c0,1.9,1.1,3.2,3,3.2c9.9,0,19.9,0,29.8,0c1.2,0,2.1-0.6,2.6-1.7
				c0.8-1.9-0.6-3.6-2.8-3.6c-8.1,0-16.2,0-24.3,0c-2.5,0-2.5,0.5-2.5-2.5c0-8.2,0-16.4,0-24.5c0-1.2-0.3-2.2-1.3-2.8
				c-2-1.2-4.5,0.1-4.5,2.6C46.8,27.4,46.9,32.3,46.9,37.2z M55.1,33.1C55.1,33.1,55.1,33.1,55.1,33.1c0,3.5,0,7.1,0,10.6
				c0,2,1.3,3.3,3,3.3c1.9,0,3.1-1.3,3.1-3.5c0-6.8,0-13.6,0-20.4c0-2.2-1.3-3.5-3.1-3.5c-1.8,0-3,1.4-3,3.5
				C55.1,26.4,55.1,29.7,55.1,33.1z M58.1,15.8c2.1,0,3.5-1.2,3.5-3.1c0-1.9-1.4-3.1-3.6-3.1c-2.1,0-3.4,1.2-3.5,3
				C54.6,14.5,56,15.8,58.1,15.8z"/>
			<path class="st4" d="M26.7,51C14.3,50.9,4.6,42.3,3.1,30C1.5,17.4,9.5,5.1,23,3.2c7.1-1,13.6,0.2,19.5,4.5c2.2,1.6,2.7,4,1.3,5.9
				c-1.3,1.8-3.9,2-5.9,0.4c-4.4-3.4-9.2-4.8-14.7-3.5C16.8,12,12,17.6,11.3,24.6c-0.7,6.7,1.3,12.5,7,16.5
				c5.3,3.8,12.7,3.6,18.5-0.3c0.7-0.5,1.4-1.1,2.1-1.6c1.7-1.2,3.8-1,5.1,0.5c1.3,1.5,1.2,3.7-0.4,5.1c-3.7,3.3-8,5.4-13,6
				C29.3,50.8,28,50.9,26.7,51z"/>
			<path class="st3" d="M46.9,37.2c0-4.9,0-9.8,0-14.7c0-2.4,2.5-3.8,4.5-2.6c1.1,0.7,1.3,1.6,1.3,2.8c0,8.2,0,16.4,0,24.5
				c0,3,0,2.5,2.5,2.5c8.1,0,16.2,0,24.3,0c2.3,0,3.6,1.8,2.8,3.6c-0.5,1.1-1.4,1.7-2.6,1.7c-9.9,0-19.9,0-29.8,0
				c-1.8,0-3-1.3-3-3.2C46.8,47,46.9,42.1,46.9,37.2z"/>
			<path class="st5" d="M55.1,33.1c0-3.4,0-6.7,0-10.1c0-2.1,1.2-3.4,3-3.5c1.9,0,3.1,1.3,3.1,3.5c0,6.8,0.1,13.6,0,20.4
				c0,2.2-1.2,3.5-3.1,3.5c-1.8,0-3-1.3-3-3.3C55.1,40.2,55.2,36.6,55.1,33.1C55.1,33.1,55.1,33.1,55.1,33.1z"/>
			<path class="st5" d="M58.1,15.8c-2.1,0-3.5-1.3-3.5-3.1c0-1.8,1.4-3,3.5-3c2.2,0,3.6,1.2,3.6,3.1C61.7,14.6,60.3,15.8,58.1,15.8z
				"/>
			<path class="st11" d="M128.9,44l-2.4-2.1c2-2.7,3.2-6,3.2-9.7c0-9-7.3-16.3-16.3-16.3s-16.3,7.3-16.3,16.3s7.3,16.3,16.3,16.3
				c3.5,0,6.7-1.1,9.3-2.9l2.6,2.4c1,0.9,2.6,0.8,3.5-0.2l0.2-0.2C130,46.5,129.9,44.9,128.9,44z M113.5,42.8
				c-5.9,0-10.6-4.7-10.6-10.6s4.7-10.6,10.6-10.6s10.6,4.7,10.6,10.6c0,2.1-0.6,4.1-1.7,5.8l-4.1-3.7c-1-0.9-2.6-0.8-3.5,0.2
				l-0.2,0.2c-0.9,1-0.8,2.6,0.2,3.5l3.7,3.4C116.9,42.4,115.2,42.8,113.5,42.8z"/>
			<path class="st11" d="M95,44l-2.4-2.1c2-2.7,3.2-6,3.2-9.7c0-9-7.3-16.3-16.3-16.3s-16.3,7.3-16.3,16.3s7.3,16.3,16.3,16.3
				c3.5,0,6.7-1.1,9.3-2.9l2.6,2.4c1,0.9,2.6,0.8,3.5-0.2l0.2-0.2C96.1,46.5,96,44.9,95,44z M79.5,42.8c-5.9,0-10.6-4.7-10.6-10.6
				s4.7-10.6,10.6-10.6s10.6,4.7,10.6,10.6c0,2.1-0.6,4.1-1.7,5.8l-4.1-3.7c-1-0.9-2.6-0.8-3.5,0.2l-0.2,0.2c-0.9,1-0.8,2.6,0.2,3.5
				l3.7,3.4C83,42.4,81.3,42.8,79.5,42.8z"/>
		</g>
	</g>
</g>
</svg>
