<?xml version="1.0" encoding="utf-8"?>
<!-- Generator: Adobe Illustrator 21.1.0, SVG Export Plug-In . SVG Version: 6.00 Build 0)  -->
<svg version="1.1" id="Layer_1" xmlns="http://www.w3.org/2000/svg" xmlns:xlink="http://www.w3.org/1999/xlink" x="0px" y="0px"
	 viewBox="0 0 283 38" style="enable-background:new 0 0 283 38;" xml:space="preserve">
<style type="text/css">
	.st0{fill:#5B5B5B;}
	.st1{font-family:'Cabin-Bold';}
	.st2{font-size:18px;}
	.st3{font-family:'Roboto-Light';}
	.st4{font-size:15px;}
</style>
<g>
	<path class="st0" d="M46.6,27.8c-1.4,0-2.7,0.5-3.7,1.5s-1.6,2.2-1.6,3.6c0,1.4,0.5,2.6,1.6,3.6c1,1,2.3,1.5,3.7,1.5
		c2.9,0,5.2-2.3,5.2-5.1S49.5,27.8,46.6,27.8L46.6,27.8z M46.6,35.7c-1.6,0-2.9-1.3-2.9-2.8s1.3-2.8,2.9-2.8c1.6,0,2.9,1.3,2.9,2.8
		C49.5,34.5,48.2,35.7,46.6,35.7L46.6,35.7z"/>
	<path class="st0" d="M47.9,10.8c-0.2-0.2-0.5-0.3-0.8-0.3h-6c-0.6,0-1.2,0.5-1.2,1.1v9.3c0,0.6,0.5,1.1,1.2,1.1h9.4
		c0.6,0,1.2-0.5,1.2-1.1v-6.2c0-0.3-0.1-0.6-0.4-0.8L47.9,10.8z M49.5,19.8h-7.1v-7h4.3l2.8,2.5V19.8z"/>
	<path class="st0" d="M18.3,27.8c-1.4,0-2.7,0.5-3.7,1.5S13,31.5,13,32.9c0,1.4,0.5,2.6,1.6,3.6c1,1,2.3,1.5,3.7,1.5
		c2.9,0,5.2-2.3,5.2-5.1C23.4,30.1,21.1,27.8,18.3,27.8L18.3,27.8z M18.3,35.7c-1.6,0-2.9-1.3-2.9-2.8s1.3-2.8,2.9-2.8
		s2.9,1.3,2.9,2.8C21.1,34.5,19.8,35.7,18.3,35.7L18.3,35.7z"/>
	<path class="st0" d="M10.5,29.2H8.2v-3C8.2,25.5,7.7,25,7,25c-0.6,0-1.2,0.5-1.2,1.1v4.2c0,0.6,0.5,1.1,1.2,1.1h3.5
		c0.6,0,1.2-0.5,1.2-1.1C11.7,29.7,11.2,29.2,10.5,29.2L10.5,29.2z"/>
	<path class="st0" d="M16.4,23c0-0.6-0.5-1.1-1.2-1.1h-14C0.5,21.9,0,22.4,0,23s0.5,1.1,1.2,1.1h14.1C15.9,24.1,16.4,23.6,16.4,23
		L16.4,23z"/>
	<path class="st0" d="M3.5,18.9L17.6,19c0.6,0,1.2-0.5,1.2-1.1s-0.5-1.1-1.1-1.1L3.5,16.6l0,0c-0.6,0-1.2,0.5-1.2,1.1
		C2.4,18.4,2.9,18.9,3.5,18.9L3.5,18.9z"/>
	<path class="st0" d="M5.9,13.7H20c0.6,0,1.2-0.5,1.2-1.1s-0.5-1.1-1.2-1.1H5.9c-0.6,0-1.2,0.5-1.2,1.1S5.2,13.7,5.9,13.7L5.9,13.7z
		"/>
	<path class="st0" d="M56.6,12.2l-8.3-6.7c-0.2-0.2-0.5-0.3-0.7-0.3h-9.8V1.1c0-0.6-0.5-1.1-1.2-1.1H7C6.4,0,5.9,0.5,5.9,1.1v8.3
		c0,0.6,0.5,1.1,1.2,1.1c0.6,0,1.2-0.5,1.2-1.1V2.3h27.3v26.9h-9.5c-0.6,0-1.2,0.5-1.2,1.1s0.5,1.1,1.2,1.1h14.2
		c0.6,0,1.2-0.5,1.2-1.1s-0.5-1.1-1.2-1.1H38V7.5h9.4l7.6,6.1l-0.1,15.5h-1.2c-0.6,0-1.2,0.5-1.2,1.1s0.5,1.1,1.2,1.1h2.4
		c0.6,0,1.2-0.5,1.2-1.1L57,13.1C57,12.8,56.8,12.4,56.6,12.2L56.6,12.2z"/>
</g>
<text transform="matrix(1 0 0 1 66.1665 15.3335)" class="st0 st1 st2">1 Day In-Store Delivery</text>
<text transform="matrix(1 0 0 1 66.1665 33.3335)" class="st0 st3 st4">Free Shipping to Store</text>
</svg>
