<?xml version="1.0" encoding="utf-8"?>
<!-- Generator: Adobe Illustrator 21.1.0, SVG Export Plug-In . SVG Version: 6.00 Build 0)  -->
<svg version="1.1" id="Layer_1" xmlns="http://www.w3.org/2000/svg" xmlns:xlink="http://www.w3.org/1999/xlink" x="0px" y="0px"
	 viewBox="-49 141 512 512" style="enable-background:new -49 141 512 512;" xml:space="preserve">
<style type="text/css">
	.st0{fill:#F0F0F0;}
</style>
<g>
	<path class="st0" d="M180.7,490.4c-15.8,0-28.7,12.9-28.7,28.7s12.9,28.7,28.7,28.7c15.8,0,28.7-12.9,28.7-28.7
		S196.5,490.4,180.7,490.4z M180.7,531.7c-7,0-12.7-5.7-12.7-12.7c0-7,5.7-12.7,12.7-12.7s12.7,5.7,12.7,12.7
		C193.4,526.1,187.7,531.7,180.7,531.7z"/>
	<path class="st0" d="M281.2,490.4c-15.8,0-28.7,12.9-28.7,28.7s12.9,28.7,28.7,28.7c15.8,0,28.7-12.9,28.7-28.7
		C309.9,503.3,297,490.4,281.2,490.4z M281.2,531.7c-7,0-12.7-5.7-12.7-12.7c0-7,5.7-12.7,12.7-12.7c7,0,12.7,5.7,12.7,12.7
		C293.9,526.1,288.2,531.7,281.2,531.7z"/>
	<path class="st0" d="M173.6,355.6h114.6c4.4,0,8-3.6,8-8c0-4.4-3.6-8-8-8H173.6c-4.4,0-8,3.6-8,8
		C165.6,352,169.2,355.6,173.6,355.6z"/>
	<path class="st0" d="M282,381.1H179.9c-4.4,0-8,3.6-8,8s3.6,8,8,8H282c4.4,0,8-3.6,8-8C290,384.7,286.5,381.1,282,381.1z"/>
	<path class="st0" d="M353.9,298H104.7l-5-24.4c-1.1-5.1-4.5-9.4-9.3-11.4l-35.1-15.2c-4.1-1.8-8.8,0.1-10.5,4.2
		c-1.8,4.1,0.1,8.8,4.2,10.5L84,276.8l38.7,187.9c1.5,7.4,8.1,12.8,15.7,12.8H330c4.4,0,8-3.6,8-8s-3.6-8-8-8H138.4l-4.7-22.9h197.8
		c7.6,0,14.1-5.4,15.7-12.8l22.4-108.6c1-4.7-0.2-9.6-3.3-13.3C363.3,300.2,358.7,298,353.9,298z M331.5,422.6H130.4L108,314
		l245.9,0L331.5,422.6z"/>
	<path class="st0" d="M388,216c-48.4-48.4-112.6-75-181-75c-68.4,0-132.7,26.6-181,75c-48.4,48.4-75,112.6-75,181
		c0,68.4,26.6,132.7,75,181c48.4,48.4,112.6,75,181,75c68.4,0,132.7-26.6,181-75c48.4-48.4,75-112.6,75-181
		C463,328.6,436.4,264.3,388,216z M207,637.5C74.4,637.5-33.5,529.6-33.5,397c0-132.6,107.9-240.5,240.5-240.5
		c132.6,0,240.5,107.9,240.5,240.5C447.5,529.6,339.6,637.5,207,637.5z"/>
</g>
</svg>
