<svg id="Layer_1" xmlns="http://www.w3.org/2000/svg" viewBox="-49 141 512 512"><style>.st0{fill:#f0f0f0}</style><path class="st0" d="M180.7 490.4c-15.8 0-28.7 12.9-28.7 28.7s12.9 28.7 28.7 28.7c15.8 0 28.7-12.9 28.7-28.7s-12.9-28.7-28.7-28.7zm0 41.3c-7 0-12.7-5.7-12.7-12.7 0-7 5.7-12.7 12.7-12.7s12.7 5.7 12.7 12.7c0 7.1-5.7 12.7-12.7 12.7zM281.2 490.4c-15.8 0-28.7 12.9-28.7 28.7s12.9 28.7 28.7 28.7c15.8 0 28.7-12.9 28.7-28.7 0-15.8-12.9-28.7-28.7-28.7zm0 41.3c-7 0-12.7-5.7-12.7-12.7 0-7 5.7-12.7 12.7-12.7 7 0 12.7 5.7 12.7 12.7 0 7.1-5.7 12.7-12.7 12.7zM173.6 355.6h114.6c4.4 0 8-3.6 8-8s-3.6-8-8-8H173.6c-4.4 0-8 3.6-8 8s3.6 8 8 8zM282 381.1H179.9c-4.4 0-8 3.6-8 8s3.6 8 8 8H282c4.4 0 8-3.6 8-8s-3.5-8-8-8z"/><path class="st0" d="M353.9 298H104.7l-5-24.4c-1.1-5.1-4.5-9.4-9.3-11.4L55.3 247c-4.1-1.8-8.8.1-10.5 4.2-1.8 4.1.1 8.8 4.2 10.5l35 15.1 38.7 187.9c1.5 7.4 8.1 12.8 15.7 12.8H330c4.4 0 8-3.6 8-8s-3.6-8-8-8H138.4l-4.7-22.9h197.8c7.6 0 14.1-5.4 15.7-12.8l22.4-108.6c1-4.7-.2-9.6-3.3-13.3-3-3.7-7.6-5.9-12.4-5.9zm-22.4 124.6H130.4L108 314h245.9l-22.4 108.6z"/><path class="st0" d="M388 216c-48.4-48.4-112.6-75-181-75S74.3 167.6 26 216c-48.4 48.4-75 112.6-75 181s26.6 132.7 75 181c48.4 48.4 112.6 75 181 75s132.7-26.6 181-75c48.4-48.4 75-112.6 75-181s-26.6-132.7-75-181zM207 637.5C74.4 637.5-33.5 529.6-33.5 397S74.4 156.5 207 156.5 447.5 264.4 447.5 397 339.6 637.5 207 637.5z"/></svg>