<?xml version="1.0" encoding="utf-8"?>
<!-- Generator: Adobe Illustrator 21.1.0, SVG Export Plug-In . SVG Version: 6.00 Build 0)  -->
<svg version="1.1" id="Layer_1" xmlns="http://www.w3.org/2000/svg" xmlns:xlink="http://www.w3.org/1999/xlink" x="0px" y="0px"
	 viewBox="0 0 283 38" style="enable-background:new 0 0 283 38;" xml:space="preserve">
<style type="text/css">
	.st0{fill:#5B5B5B;}
	.st1{font-family:'Cabin-Bold';}
	.st2{font-size:18px;}
	.st3{font-family:'Roboto-Light';}
	.st4{font-size:15px;}
</style>
<text transform="matrix(1 0 0 1 54.1665 15.3335)"><tspan x="0" y="0" class="st0 st1 st2">Cliqq Return Policy</tspan><tspan x="0" y="18" class="st0 st3 st4">Change of Mind is Applicable</tspan></text>
<g>
	<path class="st0" d="M38.2,18.8l-8.9-6.4c-0.2-0.1-0.3-0.2-0.5-0.2h-9.3c0.2,0,0.4-0.1,0.5-0.3l1.3-1.3c0.1-0.1,0.2-0.1,0.2-0.1
		h5.3c0.6,0,1-0.5,1-1V1c0-0.6-0.5-1-1-1H11.7c-0.6,0-1,0.5-1,1v8.6c0,0.6,0.5,1,1,1H17c0.1,0,0.2,0,0.2,0.1l1.3,1.3
		c0.1,0.1,0.3,0.2,0.5,0.3H9.8c-0.2,0-0.4,0.1-0.5,0.2l-8.9,6.4C0.1,19,0,19.3,0,19.6v17.5C0,37.6,0.4,38,0.9,38h36.7
		c0.5,0,0.9-0.4,0.9-0.9V19.6C38.6,19.3,38.5,19,38.2,18.8z M19,9.9L18.2,9c-0.2-0.2-0.5-0.3-0.7-0.3h-4.6c-0.2,0-0.4-0.2-0.4-0.3
		V2.2c0-0.2,0.2-0.3,0.4-0.3h12.8c0.2,0,0.4,0.2,0.4,0.3v6.2c0,0.2-0.2,0.3-0.4,0.3h-4.6c-0.3,0-0.5,0.1-0.7,0.3l-0.8,0.8
		C19.4,10,19.2,10,19,9.9z M15.1,28.1h8.3c0.5,0,0.9-0.4,0.9-0.9v-6.4c0-0.1,0.1-0.2,0.2-0.2h11.9c0.1,0,0.2,0.1,0.2,0.2v15.2
		c0,0.1-0.1,0.2-0.2,0.2H2.1c-0.1,0-0.2-0.1-0.2-0.2V20.7c0-0.1,0.1-0.2,0.2-0.2H14c0.1,0,0.2,0.1,0.2,0.2v6.4
		C14.2,27.7,14.6,28.1,15.1,28.1z M16.1,26v-5.3c0-0.1,0.1-0.2,0.2-0.2h5.9c0.1,0,0.2,0.1,0.2,0.2V26c0,0.1-0.1,0.2-0.2,0.2h-5.9
		C16.2,26.2,16.1,26.1,16.1,26z M29.5,15c0,0-0.1,0.2-0.2,0.2H23c-0.1,0-0.2-0.1-0.2-0.2l-0.2-0.6c0-0.1,0-0.2,0-0.2
		c0-0.1,0.1-0.1,0.2-0.1h5.6c0.1,0,0.1,0,0.1,0l0.8,0.6C29.5,14.8,29.5,15,29.5,15z M15.8,15c0,0.1-0.1,0.2-0.2,0.2H9.4
		c-0.2,0-0.2-0.1-0.2-0.2c0,0,0-0.2,0.1-0.3l0.8-0.6c0,0,0.1,0,0.1,0h5.6c0.1,0,0.2,0,0.2,0.1c0,0.1,0.1,0.1,0,0.2L15.8,15z
		 M34.3,18.5c0,0-0.1,0.2-0.2,0.2h-9.8c-0.1,0-0.2-0.1-0.2-0.2l-0.4-1.2c0-0.1,0-0.2,0-0.2c0-0.1,0.1-0.1,0.2-0.1h8.6
		c0.1,0,0.1,0,0.1,0l1.6,1.2C34.3,18.3,34.3,18.5,34.3,18.5z M14.6,18.5c0,0.1-0.1,0.2-0.2,0.2H4.5c-0.2,0-0.2-0.1-0.2-0.2
		c0,0,0-0.2,0.1-0.3L6,17c0,0,0.1,0,0.1,0h8.6c0.1,0,0.2,0,0.2,0.1c0,0.1,0.1,0.1,0,0.2L14.6,18.5z M22,18.6c0,0.1-0.1,0.1-0.2,0.1
		h-4.9c-0.1,0-0.2,0-0.2-0.1c0-0.1-0.1-0.1,0-0.2l1.5-4.1c0-0.1,0.1-0.2,0.2-0.2h1.9c0.1,0,0.2,0.1,0.2,0.2l1.5,4.1
		C22,18.4,22,18.5,22,18.6z"/>
	<path class="st0" d="M9.2,33.8H3.3c-0.5,0-0.9,0.4-0.9,0.9s0.4,0.9,0.9,0.9h5.9c0.5,0,0.9-0.4,0.9-0.9S9.7,33.8,9.2,33.8z"/>
	<path class="st0" d="M12.2,33.8h-0.6c-0.5,0-0.9,0.4-0.9,0.9s0.4,0.9,0.9,0.9h0.6c0.5,0,0.9-0.4,0.9-0.9S12.7,33.8,12.2,33.8z"/>
	<path class="st0" d="M3.3,33.3h1.8c0.5,0,0.9-0.4,0.9-0.9c0-0.5-0.4-0.9-0.9-0.9H3.3c-0.5,0-0.9,0.4-0.9,0.9
		C2.4,32.9,2.8,33.3,3.3,33.3z"/>
	<path class="st0" d="M7.4,33.3H8c0.5,0,0.9-0.4,0.9-0.9c0-0.5-0.4-0.9-0.9-0.9H7.4c-0.5,0-0.9,0.4-0.9,0.9
		C6.5,32.9,6.9,33.3,7.4,33.3z"/>
	<path class="st0" d="M24.3,35.1h8.3c0.4,0,0.6-0.3,0.6-0.6v-1.7h1.1c0.4,0,0.6-0.3,0.6-0.6v-4.7c0-0.3-0.3-0.6-0.6-0.6h-7.1
		c-0.4,0-0.6,0.3-0.6,0.6v2.3h-2.3c-0.4,0-0.6,0.3-0.6,0.6v4.1C23.7,34.8,24,35.1,24.3,35.1z M25.6,33.2v-1.7h5.8v1.7H25.6z
		 M28.5,29.7v-1.1h4.7v1.4c-0.1-0.2-0.3-0.3-0.5-0.3H28.5z"/>
	<path class="st0" d="M23.1,8.3c0.4,0,0.7-0.3,0.7-0.6V4.1c0-0.4-0.3-0.6-0.7-0.6h-5.7c0.1-0.1,0.2-0.3,0.2-0.4
		c0-0.2-0.1-0.3-0.2-0.5L17,2.2C16.7,2,16.3,2,16,2.2L14.3,4c-0.3,0.3-0.3,0.7,0,0.9L16,6.6c0.2,0.2,0.7,0.2,0.9,0l0.4-0.4
		c0.1-0.1,0.2-0.3,0.2-0.5c0-0.2-0.1-0.3-0.2-0.4l4.5,0l0,1.1h-2.3c-0.4,0-0.7,0.3-0.7,0.6v0.5c0,0.4,0.3,0.6,0.7,0.6H23.1z"/>
</g>
</svg>
