<?xml version="1.0" encoding="utf-8"?>
<!-- Generator: Adobe Illustrator 21.1.0, SVG Export Plug-In . SVG Version: 6.00 Build 0)  -->
<svg version="1.1" id="Layer_1" xmlns="http://www.w3.org/2000/svg" xmlns:xlink="http://www.w3.org/1999/xlink" x="0px" y="0px"
	 width="66px" height="66px" viewBox="0 0 66 66" enable-background="new 0 0 66 66" xml:space="preserve">
<g>
	<path fill="#FF4814" d="M33,66C14.804,66,0,51.196,0,33S14.804,0,33,0s33,14.804,33,33S51.196,66,33,66z M33,2
		C15.906,2,2,15.907,2,33s13.906,31,31,31s31-13.907,31-31S50.093,2,33,2z"/>
</g>
<path fill="#FF4814" d="M43,31.5h-8.5V23c0-0.829-0.672-1.5-1.5-1.5s-1.5,0.671-1.5,1.5v8.5H23c-0.828,0-1.5,0.671-1.5,1.5
	s0.672,1.5,1.5,1.5h8.5V43c0,0.829,0.672,1.5,1.5,1.5s1.5-0.671,1.5-1.5v-8.5H43c0.828,0,1.5-0.671,1.5-1.5S43.828,31.5,43,31.5z"/>
</svg>
