<?xml version="1.0" encoding="utf-8"?>
<!-- Generator: Adobe Illustrator 21.1.0, SVG Export Plug-In . SVG Version: 6.00 Build 0)  -->
<svg version="1.1" id="Layer_1" xmlns="http://www.w3.org/2000/svg" xmlns:xlink="http://www.w3.org/1999/xlink" x="0px" y="0px"
	 viewBox="0 0 42 32" style="enable-background:new 0 0 42 32;" xml:space="preserve">
<style type="text/css">
	.st0{fill:#5B5B5B;}
</style>
<path class="st0" d="M40.4,14.3H6.7L18.9,3.1c0.4-0.3,0.6-0.8,0.6-1.3c0-0.5-0.2-1-0.6-1.3c-0.8-0.7-2-0.7-2.7,0L0.6,14.7
	C0.2,15,0,15.5,0,16c0,0.5,0.2,1,0.6,1.3l15.6,14.2c0.4,0.3,0.9,0.5,1.4,0.5s1-0.2,1.4-0.5c0.4-0.3,0.6-0.8,0.6-1.3
	c0-0.5-0.2-1-0.6-1.3L6.7,17.8h33.7c0.9,0,1.6-0.8,1.6-1.8S41.3,14.3,40.4,14.3z"/>
</svg>
