<?xml version="1.0" encoding="utf-8"?>
<!-- Generator: Adobe Illustrator 21.1.0, SVG Export Plug-In . SVG Version: 6.00 Build 0)  -->
<svg version="1.1" id="Layer_1" xmlns="http://www.w3.org/2000/svg" xmlns:xlink="http://www.w3.org/1999/xlink" x="0px" y="0px"
	 viewBox="0 0 42 29.2" style="enable-background:new 0 0 42 29.2;" xml:space="preserve">
<style type="text/css">
	.st0{fill:#5B5B5B;}
</style>
<g id="Layer_2">
	<g>
		<path class="st0" d="M12.8,0H0.9C0.4,0,0,0.4,0,0.9V11c0,0.5,0.4,0.9,0.9,0.9s0.9-0.4,0.9-0.9V1.8h11c0.5,0,0.9-0.4,0.9-0.9
			S13.2,0,12.8,0z"/>
		<path class="st0" d="M41.1,0H29.2c-0.5,0-0.9,0.4-0.9,0.9s0.4,0.9,0.9,0.9h11V11c0,0.5,0.4,0.9,0.9,0.9c0.5,0,0.9-0.4,0.9-0.9V0.9
			C42,0.4,41.6,0,41.1,0z"/>
		<path class="st0" d="M12.8,27.4h-11v-9.2c0-0.5-0.4-0.9-0.9-0.9S0,17.7,0,18.2v10.1c0,0.5,0.4,0.9,0.9,0.9h11.9
			c0.5,0,0.9-0.4,0.9-0.9S13.2,27.4,12.8,27.4z"/>
		<path class="st0" d="M41.1,17.3c-0.5,0-0.9,0.4-0.9,0.9v9.2h-11c-0.5,0-0.9,0.4-0.9,0.9s0.4,0.9,0.9,0.9h11.9
			c0.5,0,0.9-0.4,0.9-0.9V18.2C42,17.8,41.6,17.3,41.1,17.3z"/>
		<path class="st0" d="M11.9,22.8V6.3c0-0.5-0.4-0.9-0.9-0.9c-0.5,0-0.9,0.4-0.9,0.9v16.4c0,0.5,0.4,0.9,0.9,0.9
			C11.5,23.7,11.9,23.3,11.9,22.8z"/>
		<path class="st0" d="M17.7,5.5c-0.5,0-0.9,0.4-0.9,0.9v16.4c0,0.5,0.4,0.9,0.9,0.9s0.9-0.4,0.9-0.9V6.3
			C18.6,5.9,18.1,5.5,17.7,5.5z"/>
		<path class="st0" d="M24.4,5.5c-0.5,0-0.9,0.4-0.9,0.9v16.4c0,0.5,0.4,0.9,0.9,0.9s0.9-0.4,0.9-0.9V6.3
			C25.3,5.9,24.8,5.5,24.4,5.5z"/>
		<path class="st0" d="M32,22.8V6.3c0-0.5-0.4-0.9-0.9-0.9s-0.9,0.4-0.9,0.9v16.4c0,0.5,0.4,0.9,0.9,0.9S32,23.3,32,22.8z"/>
	</g>
</g>
</svg>
