<?xml version="1.0" encoding="utf-8"?>
<!-- Generator: Adobe Illustrator 21.1.0, SVG Export Plug-In . SVG Version: 6.00 Build 0)  -->
<svg version="1.1" id="Layer_1" xmlns="http://www.w3.org/2000/svg" xmlns:xlink="http://www.w3.org/1999/xlink" x="0px" y="0px"
	 viewBox="0 0 49 47" style="enable-background:new 0 0 49 47;" xml:space="preserve">
<style type="text/css">
	.st0{display:none;}
	.st1{display:inline;}
	.st2{fill:#F58322;}
</style>
<g id="Layer_1_1_" class="st0">
	<g id="Ellipse_1_copy_4" class="st1">
		<g>
			<path class="st2" d="M140.8,4.8c4.2,0,7.5,3.4,7.5,7.5s-3.4,7.5-7.5,7.5c-4.2,0-7.5-3.4-7.5-7.5S136.6,4.8,140.8,4.8 M114.5,4.8
				c4.2,0,7.5,3.4,7.5,7.5s-3.4,7.5-7.5,7.5c-4.2,0-7.5-3.4-7.5-7.5S110.4,4.8,114.5,4.8 M140.8,30.9c4.2,0,7.5,3.4,7.5,7.5
				s-3.4,7.5-7.5,7.5c-4.2,0-7.5-3.4-7.5-7.5S136.6,30.9,140.8,30.9 M114.5,30.9c4.2,0,7.5,3.4,7.5,7.5s-3.4,7.5-7.5,7.5
				c-4.2,0-7.5-3.4-7.5-7.5S110.4,30.9,114.5,30.9 M140.8,1.8c-5.8,0-10.5,4.7-10.5,10.5s4.7,10.5,10.5,10.5s10.5-4.7,10.5-10.5
				S146.6,1.8,140.8,1.8L140.8,1.8z M114.5,1.8c-5.8,0-10.5,4.7-10.5,10.5s4.7,10.5,10.5,10.5s10.6-4.7,10.6-10.5
				S120.4,1.8,114.5,1.8L114.5,1.8z M140.8,27.9c-5.8,0-10.5,4.7-10.5,10.5s4.7,10.5,10.5,10.5s10.5-4.8,10.5-10.5
				C151.3,32.5,146.6,27.9,140.8,27.9L140.8,27.9z M114.5,27.9c-5.8,0-10.5,4.7-10.5,10.5s4.7,10.5,10.5,10.5S125,44.2,125,38.4
				C125.2,32.5,120.4,27.9,114.5,27.9L114.5,27.9z"/>
		</g>
	</g>
</g>
<g>
	<path class="st2" d="M15.1,0.1H1.5C0.6,0.1,0,0.8,0,1.6v11C0,13.4,0.6,14,1.5,14S3,13.4,3,12.5V3h12c0.9,0,1.5-0.6,1.5-1.5
		C16.7,0.8,16,0.1,15.1,0.1z"/>
	<path class="st2" d="M47.5,0.1H33.9c-0.9,0-1.5,0.6-1.5,1.5s0.6,1.5,1.5,1.5h12v9.5c0,0.9,0.6,1.5,1.5,1.5s1.5-0.6,1.5-1.5v-11
		C49,0.8,48.4,0.1,47.5,0.1z"/>
	<path class="st2" d="M15.1,44h-12v-9.5c0-0.9-0.6-1.5-1.5-1.5C0.6,33,0,33.7,0,34.4v11C0,46.4,0.6,47,1.5,47h13.6
		c0.9,0,1.5-0.6,1.5-1.5C16.7,44.6,16,44,15.1,44z"/>
	<path class="st2" d="M47.5,33c-0.9,0-1.5,0.6-1.5,1.5V44H34c-0.9,0-1.5,0.6-1.5,1.5S33.1,47,34,47h13.6c0.9,0,1.5-0.6,1.5-1.5v-11
		C49,33.7,48.3,33,47.5,33z"/>
	<path class="st2" d="M12.7,34.2V14.6c0-1.2-0.9-2.2-2.1-2.2s-2.1,0.9-2.1,2.2v19.5c0,1.2,0.9,2.2,2.1,2.2
		C11.9,36.3,12.7,35.5,12.7,34.2z"/>
	<path class="st2" d="M19.9,12.6c-1.2,0-2.1,0.9-2.1,2.2v19.5c0,1.2,0.9,2.2,2.1,2.2s2.1-0.9,2.1-2.2V14.6
		C22,13.5,21,12.6,19.9,12.6z"/>
	<path class="st2" d="M29.2,12.6c-1.2,0-2.1,0.9-2.1,2.2v19.5c0,1.2,0.9,2.2,2.1,2.2s2.1-0.9,2.1-2.2V14.6
		C31.2,13.5,30.3,12.6,29.2,12.6z"/>
	<path class="st2" d="M40.7,34.2V14.6c0-1.2-0.9-2.2-2.1-2.2c-1.2,0-2.1,0.9-2.1,2.2v19.5c0,1.2,0.9,2.2,2.1,2.2
		C39.8,36.3,40.7,35.5,40.7,34.2z"/>
</g>
</svg>
