<?xml version="1.0" encoding="utf-8"?>
<!-- Generator: Adobe Illustrator 21.1.0, SVG Export Plug-In . SVG Version: 6.00 Build 0)  -->
<svg version="1.1" id="Layer_1" xmlns="http://www.w3.org/2000/svg" xmlns:xlink="http://www.w3.org/1999/xlink" x="0px" y="0px"
	 viewBox="0 0 42 32" style="enable-background:new 0 0 42 32;" xml:space="preserve">
<style type="text/css">
	.st0{fill:#5B5B5B;}
</style>
<g>
	<path class="st0" d="M13,0H1.3C0.6,0,0,0.6,0,1.4v10.7c0,0.8,0.6,1.4,1.3,1.4c0.8,0,1.3-0.6,1.3-1.4V2.9H13c0.8,0,1.3-0.6,1.3-1.4
		C14.3,0.6,13.7,0,13,0z"/>
	<path class="st0" d="M40.7,0H29c-0.8,0-1.3,0.6-1.3,1.4s0.6,1.4,1.3,1.4h10.3v9.3c0,0.8,0.6,1.4,1.3,1.4c0.8,0,1.3-0.6,1.3-1.4V1.4
		C42,0.6,41.4,0,40.7,0z"/>
	<path class="st0" d="M13,29.1H2.6v-9.3c0-0.8-0.6-1.4-1.3-1.4C0.6,18.4,0,19,0,19.8v10.7C0,31.4,0.6,32,1.3,32H13
		c0.8,0,1.3-0.6,1.3-1.4C14.3,29.8,13.7,29.1,13,29.1z"/>
	<path class="st0" d="M40.7,18.4c-0.8,0-1.3,0.6-1.3,1.4v9.3H29c-0.8,0-1.3,0.6-1.3,1.4S28.3,32,29,32h11.6c0.8,0,1.3-0.6,1.3-1.4
		V19.8C42,19,41.4,18.4,40.7,18.4z"/>
	<path class="st0" d="M13,23.6V9.5c0-0.9-0.7-1.6-1.8-1.6c-1,0-1.8,0.7-1.8,1.6v14.2c0,0.9,0.7,1.6,1.8,1.6
		C12.2,25.2,13,24.5,13,23.6z"/>
	<path class="st0" d="M17.8,7.9c-1,0-1.8,0.7-1.8,1.6v14.2c0,0.9,0.7,1.6,1.8,1.6c1,0,1.8-0.7,1.8-1.6V9.5
		C19.5,8.7,18.7,7.9,17.8,7.9z"/>
	<path class="st0" d="M24.3,7.9c-1,0-1.8,0.7-1.8,1.6v14.2c0,0.9,0.7,1.6,1.8,1.6c1,0,1.8-0.7,1.8-1.6V9.5
		C26.1,8.7,25.2,7.9,24.3,7.9z"/>
	<path class="st0" d="M32.7,23.6V9.5c0-0.9-0.7-1.6-1.8-1.6c-1,0-1.8,0.7-1.8,1.6v14.2c0,0.9,0.7,1.6,1.8,1.6
		C31.9,25.2,32.7,24.5,32.7,23.6z"/>
</g>
</svg>
