<?xml version="1.0" encoding="utf-8"?>
<!-- Generator: Adobe Illustrator 21.1.0, SVG Export Plug-In . SVG Version: 6.00 Build 0)  -->
<svg version="1.1" id="Layer_1" xmlns="http://www.w3.org/2000/svg" xmlns:xlink="http://www.w3.org/1999/xlink" x="0px" y="0px"
	 viewBox="0 0 49 47" style="enable-background:new 0 0 49 47;" xml:space="preserve">
<style type="text/css">
	.st0{display:none;}
	.st1{display:inline;}
	.st2{fill:#F58322;}
</style>
<g id="Layer_1_1_" class="st0">
	<g id="Ellipse_1_copy_4" class="st1">
		<g>
			<path class="st2" d="M140.8,4.8c4.2,0,7.5,3.4,7.5,7.5s-3.4,7.5-7.5,7.5c-4.2,0-7.5-3.4-7.5-7.5S136.6,4.8,140.8,4.8 M114.5,4.8
				c4.2,0,7.5,3.4,7.5,7.5s-3.4,7.5-7.5,7.5c-4.2,0-7.5-3.4-7.5-7.5S110.4,4.8,114.5,4.8 M140.8,30.9c4.2,0,7.5,3.4,7.5,7.5
				s-3.4,7.5-7.5,7.5c-4.2,0-7.5-3.4-7.5-7.5S136.6,30.9,140.8,30.9 M114.5,30.9c4.2,0,7.5,3.4,7.5,7.5s-3.4,7.5-7.5,7.5
				c-4.2,0-7.5-3.4-7.5-7.5S110.4,30.9,114.5,30.9 M140.8,1.8c-5.8,0-10.5,4.7-10.5,10.5s4.7,10.5,10.5,10.5s10.5-4.7,10.5-10.5
				S146.6,1.8,140.8,1.8L140.8,1.8z M114.5,1.8c-5.8,0-10.5,4.7-10.5,10.5s4.7,10.5,10.5,10.5c5.8,0,10.6-4.7,10.6-10.5
				S120.4,1.8,114.5,1.8L114.5,1.8z M140.8,27.9c-5.8,0-10.5,4.7-10.5,10.5s4.7,10.5,10.5,10.5s10.5-4.8,10.5-10.5
				C151.3,32.5,146.6,27.9,140.8,27.9L140.8,27.9z M114.5,27.9c-5.8,0-10.5,4.7-10.5,10.5s4.7,10.5,10.5,10.5
				c5.8,0,10.5-4.7,10.5-10.5C125.2,32.5,120.4,27.9,114.5,27.9L114.5,27.9z"/>
		</g>
	</g>
</g>
<g>
	<path class="st2" d="M15.1,7.1H1.5C0.6,7.1,0,7.8,0,8.6v11C0,20.4,0.6,21,1.5,21c0.9,0,1.5-0.6,1.5-1.5v-9.5h12
		c0.9,0,1.5-0.6,1.5-1.5C16.7,7.8,16,7.1,15.1,7.1z"/>
	<path class="st2" d="M47.5,7.1H33.9c-0.9,0-1.5,0.6-1.5,1.5s0.6,1.5,1.5,1.5h12v9.5c0,0.9,0.6,1.5,1.5,1.5c0.9,0,1.5-0.6,1.5-1.5
		v-11C49,7.8,48.4,7.1,47.5,7.1z"/>
	<path class="st2" d="M15.1,36.9h-12v-9.5c0-0.9-0.6-1.5-1.5-1.5C0.6,26,0,26.6,0,27.4v11c0,0.9,0.6,1.5,1.5,1.5h13.6
		c0.9,0,1.5-0.6,1.5-1.5C16.7,37.6,16,36.9,15.1,36.9z"/>
	<path class="st2" d="M47.5,26c-0.9,0-1.5,0.6-1.5,1.5v9.5h-12c-0.9,0-1.5,0.6-1.5,1.5s0.6,1.5,1.5,1.5h13.6c0.9,0,1.5-0.6,1.5-1.5
		v-11C49,26.6,48.3,26,47.5,26z"/>
	<path class="st2" d="M15.1,32.4V14.5c0-1.1-0.9-2-2.1-2c-1.2,0-2.1,0.8-2.1,2v17.8c0,1.1,0.9,2,2.1,2
		C14.3,34.3,15.1,33.5,15.1,32.4z"/>
	<path class="st2" d="M20.7,12.6c-1.2,0-2.1,0.8-2.1,2v17.8c0,1.1,0.9,2,2.1,2c1.2,0,2.1-0.8,2.1-2V14.5
		C22.8,13.5,21.8,12.6,20.7,12.6z"/>
	<path class="st2" d="M28.4,12.6c-1.2,0-2.1,0.8-2.1,2v17.8c0,1.1,0.9,2,2.1,2c1.2,0,2.1-0.8,2.1-2V14.5
		C30.4,13.5,29.5,12.6,28.4,12.6z"/>
	<path class="st2" d="M38.1,32.4V14.5c0-1.1-0.9-2-2.1-2c-1.2,0-2.1,0.8-2.1,2v17.8c0,1.1,0.9,2,2.1,2
		C37.2,34.3,38.1,33.5,38.1,32.4z"/>
</g>
</svg>
