<?xml version="1.0" encoding="utf-8"?>
<!-- Generator: Adobe Illustrator 21.1.0, SVG Export Plug-In . SVG Version: 6.00 Build 0)  -->
<svg version="1.1" id="Layer_1" xmlns="http://www.w3.org/2000/svg" xmlns:xlink="http://www.w3.org/1999/xlink" x="0px" y="0px"
	 viewBox="0 0 27 27" style="enable-background:new 0 0 27 27;" xml:space="preserve">
<style type="text/css">
	.st0{fill:#5B5B5B;}
</style>
<g>
	<g>
		<path class="st0" d="M8.5,3.4H1.2c-0.4,0-0.8,0.4-0.8,0.9V11c0,0.5,0.4,0.9,0.8,0.9C1.7,11.8,2,11.5,2,11V5.2h6.5
			c0.5,0,0.8-0.4,0.8-0.9C9.3,3.8,9,3.4,8.5,3.4z"/>
		<path class="st0" d="M1.2,12.2C0.5,12.2,0,11.7,0,11V4.3C0,3.6,0.5,3,1.2,3h7.3c0.7,0,1.2,0.6,1.2,1.3c0,0.7-0.5,1.2-1.2,1.2H2.4
			V11C2.4,11.7,1.9,12.2,1.2,12.2z M1.2,3.8C0.9,3.8,0.7,4,0.7,4.3V11c0,0.3,0.2,0.5,0.4,0.5c0.4,0,0.4-0.4,0.4-0.5V4.8h6.9
			C8.9,4.8,9,4.4,9,4.3C9,4,8.8,3.8,8.5,3.8H1.2z"/>
	</g>
	<g>
		<path class="st0" d="M25.9,3.4h-7.3c-0.5,0-0.8,0.4-0.8,0.9s0.4,0.9,0.8,0.9H25V11c0,0.5,0.4,0.9,0.8,0.9c0.5,0,0.8-0.4,0.8-0.9
			V4.3C26.7,3.8,26.3,3.4,25.9,3.4z"/>
		<path class="st0" d="M25.8,12.2c-0.6,0-1.2-0.6-1.2-1.2V5.5h-6.1c-0.7,0-1.2-0.6-1.2-1.2c0-0.7,0.5-1.2,1.2-1.2h7.3
			c0.3,0,0.6,0.1,0.8,0.4C26.9,3.6,27,4,27,4.3l0,6.7C27,11.7,26.5,12.2,25.8,12.2z M18.5,3.8c-0.4,0-0.5,0.4-0.5,0.5
			c0,0.3,0.2,0.5,0.5,0.5h6.8V11c0,0.3,0.2,0.5,0.4,0.5c0.4,0,0.5-0.4,0.5-0.5V4.3c0-0.2,0-0.3-0.1-0.4c-0.1-0.1-0.2-0.1-0.3-0.1
			H18.5z"/>
	</g>
	<g>
		<path class="st0" d="M8.5,21.6H2v-5.8c0-0.5-0.4-0.9-0.8-0.9s-0.8,0.4-0.8,0.9v6.7c0,0.6,0.4,0.9,0.8,0.9h7.3
			c0.5,0,0.8-0.4,0.8-0.9S9,21.6,8.5,21.6z"/>
		<path class="st0" d="M8.5,23.8H1.2c-0.7,0-1.2-0.6-1.2-1.3v-6.7c0-0.7,0.5-1.2,1.2-1.2s1.2,0.6,1.2,1.2v5.5h6.2
			c0.6,0,1.2,0.6,1.2,1.3C9.7,23.3,9.2,23.8,8.5,23.8z M1.2,15.3c-0.2,0-0.4,0.2-0.4,0.5v6.7c0,0.3,0.2,0.6,0.4,0.6h7.3
			c0.4,0,0.4-0.4,0.4-0.5C9,22.3,8.7,22,8.5,22H1.6v-6.2C1.6,15.5,1.4,15.3,1.2,15.3z"/>
	</g>
	<g>
		<path class="st0" d="M25.9,14.9c-0.5,0-0.8,0.4-0.8,0.9v5.8h-6.5c-0.5,0-0.8,0.4-0.8,0.9s0.4,0.9,0.8,0.9h7.3
			c0.5,0,0.8-0.4,0.8-0.9v-6.8C26.7,15.3,26.3,14.9,25.9,14.9z"/>
		<path class="st0" d="M25.8,23.8h-7.3c-0.6,0-1.2-0.6-1.2-1.3c0-0.7,0.5-1.2,1.2-1.2h6.2v-5.5c0-0.7,0.5-1.2,1.2-1.2
			c0.3,0,0.6,0.1,0.8,0.4c0.2,0.2,0.3,0.6,0.3,0.9l0,6.7C27,23.3,26.5,23.8,25.8,23.8z M18.5,22c-0.4,0-0.5,0.4-0.5,0.5
			c0,0.3,0.2,0.6,0.5,0.6h7.3c0.4,0,0.5-0.4,0.5-0.5v-6.8c0-0.2,0-0.3-0.1-0.4c-0.1-0.1-0.2-0.1-0.3-0.1c-0.4,0-0.4,0.4-0.4,0.5V22
			H18.5z"/>
	</g>
	<g>
		<path class="st0" d="M7.5,18.2V9.3c0-0.6-0.4-1-1.1-1c-0.6,0-1.1,0.4-1.1,1v8.9c0,0.6,0.4,1,1.1,1C7,19.2,7.5,18.7,7.5,18.2z"/>
		<path class="st0" d="M6.4,19.6c-0.9,0-1.5-0.6-1.5-1.4V9.3C4.9,8.6,5.5,8,6.4,8c0.9,0,1.5,0.6,1.5,1.4v8.8
			C7.9,18.9,7.3,19.5,6.4,19.6C6.4,19.6,6.4,19.6,6.4,19.6z M6.4,8.7C6,8.7,5.6,9,5.6,9.3v8.9c0,0.4,0.3,0.6,0.8,0.6
			c0.4,0,0.8-0.3,0.8-0.7V9.3C7.1,9,6.8,8.7,6.4,8.7z"/>
	</g>
	<g>
		<path class="st0" d="M11.2,8.3c-0.6,0-1.1,0.4-1.1,1v8.9c0,0.6,0.4,1,1.1,1c0.6,0,1.1-0.4,1.1-1V9.3C12.2,8.8,11.7,8.3,11.2,8.3z"
			/>
		<path class="st0" d="M11.2,19.6c-0.9,0-1.5-0.6-1.5-1.4V9.3c0-0.8,0.7-1.4,1.5-1.4c0.7,0,1.4,0.6,1.5,1.3l0,8.9
			C12.7,19,12,19.6,11.2,19.6z M11.2,8.7c-0.4,0-0.8,0.3-0.8,0.6v8.9c0,0.4,0.3,0.6,0.8,0.6c0.4,0,0.8-0.3,0.8-0.6V9.3
			C11.9,9.1,11.6,8.7,11.2,8.7z"/>
	</g>
	<g>
		<path class="st0" d="M16,8.3c-0.6,0-1.1,0.4-1.1,1v8.9c0,0.6,0.4,1,1.1,1c0.6,0,1.1-0.4,1.1-1V9.3C17.1,8.8,16.5,8.3,16,8.3z"/>
		<path class="st0" d="M16,19.6c-0.9,0-1.5-0.6-1.5-1.4V9.3C14.5,8.6,15.1,8,16,8c0.8,0,1.5,0.7,1.5,1.4v8.9
			C17.4,19,16.8,19.6,16,19.6z M16,8.7c-0.4,0-0.8,0.3-0.8,0.6v8.9c0,0.4,0.3,0.6,0.8,0.6c0.4,0,0.8-0.3,0.8-0.6V9.3
			C16.7,9.1,16.3,8.7,16,8.7z"/>
	</g>
	<g>
		<path class="st0" d="M21.9,18.2V9.3c0-0.6-0.4-1-1.1-1c-0.6,0-1.1,0.4-1.1,1v8.9c0,0.6,0.4,1,1.1,1C21.4,19.2,21.9,18.7,21.9,18.2
			z"/>
		<path class="st0" d="M20.8,19.6c-0.9,0-1.5-0.6-1.5-1.4V9.3c0-0.8,0.7-1.4,1.5-1.4c0.9,0,1.5,0.6,1.5,1.4v8.8
			C22.2,18.9,21.6,19.5,20.8,19.6C20.8,19.6,20.8,19.6,20.8,19.6z M20.7,8.7C20.3,8.7,20,9,20,9.3v8.9c0,0.4,0.3,0.6,0.8,0.6
			c0.4,0,0.8-0.3,0.8-0.7V9.3C21.5,9,21.2,8.7,20.7,8.7z"/>
	</g>
</g>
</svg>
