<?xml version="1.0" encoding="utf-8"?>
<!-- Generator: Adobe Illustrator 21.1.0, SVG Export Plug-In . SVG Version: 6.00 Build 0)  -->
<svg version="1.1" xmlns="http://www.w3.org/2000/svg" xmlns:xlink="http://www.w3.org/1999/xlink" x="0px" y="0px"
	 viewBox="0 0 47 32.7" style="enable-background:new 0 0 47 32.7;" xml:space="preserve">
<style type="text/css">
	.st0{display:none;}
	.st1{display:inline;}
	.st2{fill:#F58322;}
</style>
<g id="Layer_1" class="st0">
	<g id="Ellipse_1_copy_4" class="st1">
		<g>
			<path class="st2" d="M89.5-4.2c4.2,0,7.5,3.4,7.5,7.5s-3.4,7.5-7.5,7.5c-4.2,0-7.5-3.4-7.5-7.5S85.3-4.2,89.5-4.2 M63.3-4.2
				c4.2,0,7.5,3.4,7.5,7.5s-3.4,7.5-7.5,7.5c-4.2,0-7.5-3.4-7.5-7.5S59.2-4.2,63.3-4.2 M89.5,21.9c4.2,0,7.5,3.4,7.5,7.5
				s-3.4,7.5-7.5,7.5c-4.2,0-7.5-3.4-7.5-7.5S85.3,21.9,89.5,21.9 M63.3,21.9c4.2,0,7.5,3.4,7.5,7.5s-3.4,7.5-7.5,7.5
				c-4.2,0-7.5-3.4-7.5-7.5S59.2,21.9,63.3,21.9 M89.5-7.2c-5.8,0-10.5,4.7-10.5,10.5c0,5.8,4.7,10.5,10.5,10.5S100,9.1,100,3.3
				C100-2.5,95.3-7.2,89.5-7.2L89.5-7.2z M63.3-7.2c-5.8,0-10.5,4.7-10.5,10.5c0,5.8,4.7,10.5,10.5,10.5S73.9,9.1,73.9,3.3
				C73.9-2.5,69.2-7.2,63.3-7.2L63.3-7.2z M89.5,18.9c-5.8,0-10.5,4.7-10.5,10.5c0,5.8,4.7,10.5,10.5,10.5S100,35.1,100,29.4
				C100,23.6,95.3,18.9,89.5,18.9L89.5,18.9z M63.3,18.9c-5.8,0-10.5,4.7-10.5,10.5c0,5.8,4.7,10.5,10.5,10.5s10.5-4.7,10.5-10.5
				C73.9,23.6,69.2,18.9,63.3,18.9L63.3,18.9z"/>
		</g>
	</g>
</g>
<g id="Layer_2">
	<g>
		<path class="st2" d="M14.3,0H1C0.4,0,0,0.4,0,1v11.3c0,0.6,0.4,1,1,1s1-0.4,1-1V2h12.3c0.6,0,1-0.4,1-1S14.8,0,14.3,0z"/>
		<path class="st2" d="M46,0H32.7c-0.6,0-1,0.4-1,1s0.4,1,1,1H45v10.3c0,0.6,0.4,1,1,1s1-0.4,1-1V1C47,0.4,46.6,0,46,0z"/>
		<path class="st2" d="M14.3,30.7H2V20.4c0-0.6-0.4-1-1-1s-1,0.4-1,1v11.3c0,0.6,0.4,1,1,1h13.3c0.6,0,1-0.4,1-1
			C15.3,31.1,14.8,30.7,14.3,30.7z"/>
		<path class="st2" d="M46,19.4c-0.6,0-1,0.4-1,1v10.3H32.7c-0.6,0-1,0.4-1,1c0,0.6,0.4,1,1,1H46c0.6,0,1-0.4,1-1V20.4
			C47,19.9,46.6,19.4,46,19.4z"/>
		<path class="st2" d="M13.3,25.5V7.1c0-0.6-0.4-1-1-1s-1,0.4-1,1v18.4c0,0.6,0.4,1,1,1S13.3,26.1,13.3,25.5z"/>
		<path class="st2" d="M19.8,6.1c-0.6,0-1,0.4-1,1v18.4c0,0.6,0.4,1,1,1s1-0.4,1-1V7.1C20.8,6.6,20.3,6.1,19.8,6.1z"/>
		<path class="st2" d="M27.3,6.1c-0.6,0-1,0.4-1,1v18.4c0,0.6,0.4,1,1,1s1-0.4,1-1V7.1C28.3,6.6,27.8,6.1,27.3,6.1z"/>
		<path class="st2" d="M35.8,25.5V7.1c0-0.6-0.4-1-1-1s-1,0.4-1,1v18.4c0,0.6,0.4,1,1,1S35.8,26.1,35.8,25.5z"/>
	</g>
</g>
</svg>
