<?xml version="1.0" encoding="utf-8"?>
<!-- Generator: Adobe Illustrator 21.1.0, SVG Export Plug-In . SVG Version: 6.00 Build 0)  -->
<svg version="1.1" id="Layer_1" xmlns="http://www.w3.org/2000/svg" xmlns:xlink="http://www.w3.org/1999/xlink" x="0px" y="0px"
	 width="27.5px" height="23px" viewBox="0 0 27.5 23" style="enable-background:new 0 0 27.5 23;" xml:space="preserve">
<style type="text/css">
	.st0{fill:#FFFFFF;}
</style>
<g>
	<g>
		<path class="st0" d="M2,23c-0.5,0-1-0.2-1.4-0.6c-0.8-0.8-0.8-2,0-2.8l8.1-8.1L0.6,3.4c-0.8-0.8-0.8-2,0-2.8c0.8-0.8,2-0.8,2.8,0
			l9.5,9.5c0.8,0.8,0.8,2,0,2.8l-9.5,9.5C3,22.8,2.5,23,2,23z"/>
	</g>
	<g>
		<path class="st0" d="M16,23c-0.5,0-1-0.2-1.4-0.6c-0.8-0.8-0.8-2,0-2.8l8.1-8.1l-8.1-8.1c-0.8-0.8-0.8-2,0-2.8
			c0.8-0.8,2-0.8,2.8,0l9.5,9.5c0.4,0.4,0.6,0.9,0.6,1.4s-0.2,1-0.6,1.4l-9.5,9.5C17,22.8,16.5,23,16,23z"/>
	</g>
</g>
</svg>
