<?xml version="1.0" encoding="utf-8"?>
<!-- Generator: Adobe Illustrator 21.1.0, SVG Export Plug-In . SVG Version: 6.00 Build 0)  -->
<svg version="1.1" id="Layer_1" xmlns="http://www.w3.org/2000/svg" xmlns:xlink="http://www.w3.org/1999/xlink" x="0px" y="0px"
	 viewBox="0 0 49 47" style="enable-background:new 0 0 49 47;" xml:space="preserve">
<style type="text/css">
	.st0{fill:#F58322;}
</style>
<g>
	<path class="st0" d="M11.2,0C5,0,0,4.8,0,10.7s5,10.7,11.2,10.7s11.2-4.8,11.2-10.7S17.4,0,11.2,0z M18.4,10.7
		c0,3.8-3.2,6.8-7.2,6.8c-4,0-7.2-3-7.2-6.8s3.2-6.8,7.2-6.8C15.2,3.9,18.4,7,18.4,10.7z"/>
	<path class="st0" d="M37.8,21.5C44,21.5,49,16.6,49,10.7S44,0,37.8,0S26.5,4.8,26.5,10.7S31.6,21.5,37.8,21.5z M30.6,10.7
		c0-3.8,3.2-6.8,7.2-6.8S45,7,45,10.7s-3.2,6.8-7.2,6.8S30.6,14.5,30.6,10.7z"/>
	<path class="st0" d="M11.2,25.4C4.9,25.4,0,30.2,0,36.3C0,42.2,5,47,11.2,47s11.2-4.8,11.2-10.7C22.5,30.3,17.4,25.4,11.2,25.4z
		 M18.4,36.2c0,3.8-3.2,6.8-7.2,6.8S4,40,4,36.3c0-3.8,3.3-6.9,7.2-6.9C15.2,29.4,18.4,32.4,18.4,36.2z"/>
	<path class="st0" d="M37.8,25.4c-6.2,0-11.2,4.8-11.2,10.7s5,10.7,11.2,10.7S49,42.1,49,36.2S44,25.4,37.8,25.4z M45,36.2
		c0,3.8-3.2,6.8-7.2,6.8s-7.2-3.1-7.2-6.8c0-3.8,3.2-6.8,7.2-6.8S45,32.4,45,36.2z"/>
</g>
</svg>
