<?xml version="1.0" encoding="utf-8"?>
<!-- Generator: Adobe Illustrator 21.1.0, SVG Export Plug-In . SVG Version: 6.00 Build 0)  -->
<svg version="1.1" id="Layer_1" xmlns="http://www.w3.org/2000/svg" xmlns:xlink="http://www.w3.org/1999/xlink" x="0px" y="0px"
	 viewBox="0 0 47.4 47.2" style="enable-background:new 0 0 47.4 47.2;" xml:space="preserve">
<style type="text/css">
	.st0{fill:#F58322;}
</style>
<g id="Ellipse_1_copy_4">
	<g>
		<path class="st0" d="M36.8,3c4.2,0,7.6,3.4,7.6,7.5s-3.4,7.5-7.6,7.5c-4.2,0-7.6-3.4-7.6-7.5S32.6,3,36.8,3 M10.6,3
			c4.2,0,7.6,3.4,7.6,7.5s-3.4,7.5-7.6,7.5S3,14.7,3,10.5S6.4,3,10.6,3 M36.8,29.1c4.2,0,7.6,3.4,7.6,7.5s-3.4,7.5-7.6,7.5
			c-4.2,0-7.6-3.4-7.6-7.5S32.6,29.1,36.8,29.1 M10.6,29.1c4.2,0,7.6,3.4,7.6,7.5s-3.4,7.5-7.6,7.5S3,40.8,3,36.7
			S6.4,29.1,10.6,29.1 M36.8,0C31,0,26.2,4.7,26.2,10.5c0,5.8,4.7,10.5,10.6,10.5c5.8,0,10.6-4.7,10.6-10.5C47.4,4.7,42.6,0,36.8,0
			L36.8,0z M10.6,0C4.7,0,0,4.7,0,10.5c0,5.8,4.7,10.5,10.6,10.5c5.8,0,10.6-4.7,10.6-10.5C21.2,4.7,16.4,0,10.6,0L10.6,0z
			 M36.8,26.1c-5.8,0-10.6,4.7-10.6,10.5c0,5.8,4.7,10.5,10.6,10.5c5.8,0,10.6-4.7,10.6-10.5C47.4,30.8,42.6,26.1,36.8,26.1
			L36.8,26.1z M10.6,26.1C4.7,26.1,0,30.8,0,36.7c0,5.8,4.7,10.5,10.6,10.5c5.8,0,10.6-4.7,10.6-10.5C21.2,30.8,16.4,26.1,10.6,26.1
			L10.6,26.1z"/>
	</g>
</g>
</svg>
