<svg id="Layer_1" xmlns="http://www.w3.org/2000/svg" viewBox="0 0 49 47"><style>.st0{fill:#f58322}</style><path class="st0" d="M11.2 0C5 0 0 4.8 0 10.7s5 10.7 11.2 10.7 11.2-4.8 11.2-10.7S17.4 0 11.2 0zm7.2 10.7c0 3.8-3.2 6.8-7.2 6.8S4 14.5 4 10.7s3.2-6.8 7.2-6.8 7.2 3.1 7.2 6.8zM37.8 21.5C44 21.5 49 16.6 49 10.7S44 0 37.8 0 26.5 4.8 26.5 10.7s5.1 10.8 11.3 10.8zm-7.2-10.8c0-3.8 3.2-6.8 7.2-6.8S45 7 45 10.7s-3.2 6.8-7.2 6.8-7.2-3-7.2-6.8zM11.2 25.4C4.9 25.4 0 30.2 0 36.3 0 42.2 5 47 11.2 47s11.2-4.8 11.2-10.7c.1-6-5-10.9-11.2-10.9zm7.2 10.8c0 3.8-3.2 6.8-7.2 6.8S4 40 4 36.3c0-3.8 3.3-6.9 7.2-6.9 4 0 7.2 3 7.2 6.8zM37.8 25.4c-6.2 0-11.2 4.8-11.2 10.7s5 10.7 11.2 10.7S49 42.1 49 36.2s-5-10.8-11.2-10.8zM45 36.2c0 3.8-3.2 6.8-7.2 6.8s-7.2-3.1-7.2-6.8c0-3.8 3.2-6.8 7.2-6.8s7.2 3 7.2 6.8z"/></svg>