<svg id="Layer_1" xmlns="http://www.w3.org/2000/svg" viewBox="0 0 64 81"><style>.st0{fill:#fff}</style><path class="st0" d="M43.1 44.7L29.9 58c-.4.4-.9.6-1.4.6s-1-.2-1.4-.6l-6.2-6.3c-.8-.8-.8-2.1 0-2.9.8-.8 2-.8 2.8 0l4.8 4.8 11.7-11.9c.8-.8 2-.8 2.8 0 .9 1 .9 2.2.1 3z"/><path class="st0" d="M59.4 17.7c-.1-1-.9-1.8-2-1.8h-9.7C47.7 7.1 40.6 0 32 0S16.3 7.1 16.3 15.8H6.6c-1 0-1.9.8-2 1.8L0 70.2v.2C0 76.2 5.3 81 11.9 81h40.3C58.7 81 64 76.2 64 70.4v-.2l-4.6-52.5zM32 4c6.5 0 11.7 5.3 11.7 11.8H20.3C20.3 9.3 25.6 4 32 4zm20.1 73H11.9C7.5 77 4 74.1 4 70.5l4.4-50.6h7.9V27c0 1.1.9 2 2 2s2-.9 2-2v-7.1h23.4V27c0 1.1.9 2 2 2s2-.9 2-2v-7.1h7.9L60 70.5c0 3.6-3.5 6.5-7.9 6.5z"/><path class="st0" d="M40.3 41.9L28.5 53.8 23.7 49c-.8-.8-2-.8-2.8 0s-.8 2.1 0 2.9l6.2 6.3c.4.4.9.6 1.4.6s1-.2 1.4-.6L43 44.9c.8-.8.8-2.1 0-2.9-.7-.9-1.9-.9-2.7-.1z"/></svg>