<?xml version="1.0" encoding="utf-8"?>
<!-- Generator: Adobe Illustrator 21.1.0, SVG Export Plug-In . SVG Version: 6.00 Build 0)  -->
<svg version="1.1" id="Layer_1" xmlns="http://www.w3.org/2000/svg" xmlns:xlink="http://www.w3.org/1999/xlink" x="0px" y="0px"
	 viewBox="0 0 64 81" style="enable-background:new 0 0 64 81;" xml:space="preserve">
<style type="text/css">
	.st0{fill:#FFFFFF;}
</style>
<g>
	<path class="st0" d="M43.1,44.7L29.9,58c-0.4,0.4-0.9,0.6-1.4,0.6s-1-0.2-1.4-0.6l-6.2-6.3c-0.8-0.8-0.8-2.1,0-2.9
		c0.8-0.8,2-0.8,2.8,0l4.8,4.8l11.7-11.9c0.8-0.8,2-0.8,2.8,0C43.9,42.7,43.9,43.9,43.1,44.7z"/>
	<path class="st0" d="M59.4,17.7c-0.1-1-0.9-1.8-2-1.8h-9.7C47.7,7.1,40.6,0,32,0S16.3,7.1,16.3,15.8H6.6c-1,0-1.9,0.8-2,1.8L0,70.2
		v0.2C0,76.2,5.3,81,11.9,81h40.3C58.7,81,64,76.2,64,70.4v-0.2L59.4,17.7z M32,4c6.5,0,11.7,5.3,11.7,11.8H20.3
		C20.3,9.3,25.6,4,32,4z M52.1,77H11.9C7.5,77,4,74.1,4,70.5l4.4-50.6h7.9V27c0,1.1,0.9,2,2,2s2-0.9,2-2v-7.1h23.4V27
		c0,1.1,0.9,2,2,2s2-0.9,2-2v-7.1h7.9L60,70.5C60,74.1,56.5,77,52.1,77z"/>
	<path class="st0" d="M40.3,41.9L28.5,53.8L23.7,49c-0.8-0.8-2-0.8-2.8,0s-0.8,2.1,0,2.9l6.2,6.3c0.4,0.4,0.9,0.6,1.4,0.6
		s1-0.2,1.4-0.6L43,44.9c0.8-0.8,0.8-2.1,0-2.9C42.3,41.1,41.1,41.1,40.3,41.9z"/>
</g>
</svg>
