<?xml version="1.0" encoding="utf-8"?>
<!-- Generator: Adobe Illustrator 21.1.0, SVG Export Plug-In . SVG Version: 6.00 Build 0)  -->
<svg version="1.1" id="Layer_1" xmlns="http://www.w3.org/2000/svg" xmlns:xlink="http://www.w3.org/1999/xlink" x="0px" y="0px"
	 width="25.2px" height="23.5px" viewBox="0 0 25.2 23.5" style="enable-background:new 0 0 25.2 23.5;" xml:space="preserve">
<style type="text/css">
	.st0{fill:#2F2F2F;}
</style>
<path class="st0" d="M24.2,20.3l-9.3-9l9.2-8.1c0.6-0.6,0.7-1.5,0.1-2.2c-0.6-0.6-1.5-0.7-2.2-0.1l-9.5,8.3L3.1,1
	C2.5,0.4,1.5,0.5,1,1.2C0.5,1.8,0.6,2.7,1.1,3.2l9.2,8.1l-9.3,9c-0.6,0.6-0.6,1.6,0,2.2c0.6,0.6,1.5,0.6,2.1,0l9.4-9.1l9.4,9.1
	c0.6,0.6,1.6,0.6,2.2,0C24.8,21.9,24.8,20.9,24.2,20.3z"/>
</svg>
