<?xml version="1.0" encoding="utf-8"?>
<!-- Generator: Adobe Illustrator 21.1.0, SVG Export Plug-In . SVG Version: 6.00 Build 0)  -->
<svg version="1.1" id="Layer_1" xmlns="http://www.w3.org/2000/svg" xmlns:xlink="http://www.w3.org/1999/xlink" x="0px" y="0px"
	 width="33px" height="33px" viewBox="0 0 33 33" enable-background="new 0 0 33 33" xml:space="preserve">
<path fill="#FFFFFF" d="M18.621,16.5L32.561,2.561c0.586-0.585,0.586-1.536,0-2.121c-0.586-0.586-1.535-0.586-2.121,0L16.5,14.379
	L2.561,0.44c-0.586-0.586-1.535-0.586-2.121,0c-0.586,0.585-0.586,1.536,0,2.121L14.379,16.5L0.44,30.44
	c-0.586,0.585-0.586,1.536,0,2.121C0.733,32.854,1.116,33,1.5,33s0.768-0.146,1.061-0.439L16.5,18.621L30.44,32.561
	C30.733,32.854,31.116,33,31.5,33s0.768-0.146,1.061-0.439c0.586-0.585,0.586-1.536,0-2.121L18.621,16.5z"/>
</svg>
