<?xml version="1.0" encoding="utf-8"?>
<!-- Generator: Adobe Illustrator 21.1.0, SVG Export Plug-In . SVG Version: 6.00 Build 0)  -->
<svg version="1.1" id="Layer_1" xmlns="http://www.w3.org/2000/svg" xmlns:xlink="http://www.w3.org/1999/xlink" x="0px" y="0px"
	 viewBox="0 0 64 75" style="enable-background:new 0 0 64 75;" xml:space="preserve">
<style type="text/css">
	.st0{fill:#FFFFFF;}
</style>
<g>
	<path class="st0" d="M12.3,58.7c-1.4,0-2.5-1.1-2.5-2.4s1.1-2.4,2.5-2.4s2.5,1.1,2.5,2.4S13.7,58.7,12.3,58.7z M12.3,44
		c-1.4,0-2.5-1.1-2.5-2.4c0-1.4,1.1-2.4,2.5-2.4s2.5,1.1,2.5,2.4S13.7,44,12.3,44z M12.3,29.3c-1.4,0-2.5-1.1-2.5-2.4
		s1.1-2.4,2.5-2.4s2.5,1.1,2.5,2.4S13.7,29.3,12.3,29.3z M51.7,58.7H22.2c-1.4,0-2.5-1.1-2.5-2.4s1.1-2.4,2.5-2.4h29.5
		c1.4,0,2.5,1.1,2.5,2.4S53.1,58.7,51.7,58.7z M51.7,44H22.2c-1.4,0-2.5-1.1-2.5-2.4s1.1-2.4,2.5-2.4h29.5c1.4,0,2.5,1.1,2.5,2.4
		S53.1,44,51.7,44z M51.7,29.3H22.2c-1.4,0-2.5-1.1-2.5-2.4s1.1-2.4,2.5-2.4h29.5c1.4,0,2.5,1.1,2.5,2.4S53.1,29.3,51.7,29.3z"/>
	<path class="st0" d="M56.6,4.9h-7.8c-1-2.8-3.8-4.9-7-4.9H22.2c-3.2,0-5.9,2-7,4.9H7.4C3.3,4.9,0,8.2,0,12.2v55.4
		c0,4,3.3,7.3,7.4,7.3h49.2c4.1,0,7.4-3.3,7.4-7.3V12.2C64,8.2,60.7,4.9,56.6,4.9z M19.7,7.3c0-1.3,1.1-2.4,2.5-2.4h19.7
		c1.4,0,2.5,1.1,2.5,2.4v2.4H19.7V7.3z M59.1,67.7c0,1.3-1.1,2.4-2.5,2.4H7.4c-1.4,0-2.5-1.1-2.5-2.4V12.2c0-1.3,1.1-2.4,2.5-2.4
		h7.4v2.4c0,1.4,1.1,2.4,2.5,2.4h29.5c1.4,0,2.5-1.1,2.5-2.4V9.8h7.4c1.4,0,2.5,1.1,2.5,2.4v55.5H59.1z"/>
	<ellipse class="st0" cx="12.3" cy="26.9" rx="2.5" ry="2.4"/>
	<path class="st0" d="M51.7,24.5H22.2c-1.4,0-2.5,1.1-2.5,2.4s1.1,2.4,2.5,2.4h29.5c1.4,0,2.5-1.1,2.5-2.4S53.1,24.5,51.7,24.5z"/>
	<ellipse class="st0" cx="12.3" cy="41.6" rx="2.5" ry="2.4"/>
	<path class="st0" d="M51.7,39.1H22.2c-1.4,0-2.5,1.1-2.5,2.4s1.1,2.4,2.5,2.4h29.5c1.4,0,2.5-1.1,2.5-2.4S53.1,39.1,51.7,39.1z"/>
	<ellipse class="st0" cx="12.3" cy="56.2" rx="2.5" ry="2.4"/>
	<path class="st0" d="M51.7,53.8H22.2c-1.4,0-2.5,1.1-2.5,2.4s1.1,2.4,2.5,2.4h29.5c1.4,0,2.5-1.1,2.5-2.4S53.1,53.8,51.7,53.8z"/>
</g>
</svg>
