<svg id="Layer_1" xmlns="http://www.w3.org/2000/svg" viewBox="0 0 64 75"><style>.st0{fill:#fff}</style><path class="st0" d="M12.3 58.7c-1.4 0-2.5-1.1-2.5-2.4s1.1-2.4 2.5-2.4 2.5 1.1 2.5 2.4-1.1 2.4-2.5 2.4zm0-14.7c-1.4 0-2.5-1.1-2.5-2.4 0-1.4 1.1-2.4 2.5-2.4s2.5 1.1 2.5 2.4-1.1 2.4-2.5 2.4zm0-14.7c-1.4 0-2.5-1.1-2.5-2.4s1.1-2.4 2.5-2.4 2.5 1.1 2.5 2.4-1.1 2.4-2.5 2.4zm39.4 29.4H22.2c-1.4 0-2.5-1.1-2.5-2.4s1.1-2.4 2.5-2.4h29.5c1.4 0 2.5 1.1 2.5 2.4s-1.1 2.4-2.5 2.4zm0-14.7H22.2c-1.4 0-2.5-1.1-2.5-2.4s1.1-2.4 2.5-2.4h29.5c1.4 0 2.5 1.1 2.5 2.4S53.1 44 51.7 44zm0-14.7H22.2c-1.4 0-2.5-1.1-2.5-2.4s1.1-2.4 2.5-2.4h29.5c1.4 0 2.5 1.1 2.5 2.4s-1.1 2.4-2.5 2.4z"/><path class="st0" d="M56.6 4.9h-7.8c-1-2.8-3.8-4.9-7-4.9H22.2c-3.2 0-5.9 2-7 4.9H7.4C3.3 4.9 0 8.2 0 12.2v55.4c0 4 3.3 7.3 7.4 7.3h49.2c4.1 0 7.4-3.3 7.4-7.3V12.2c0-4-3.3-7.3-7.4-7.3zM19.7 7.3c0-1.3 1.1-2.4 2.5-2.4h19.7c1.4 0 2.5 1.1 2.5 2.4v2.4H19.7V7.3zm39.4 60.4c0 1.3-1.1 2.4-2.5 2.4H7.4c-1.4 0-2.5-1.1-2.5-2.4V12.2c0-1.3 1.1-2.4 2.5-2.4h7.4v2.4c0 1.4 1.1 2.4 2.5 2.4h29.5c1.4 0 2.5-1.1 2.5-2.4V9.8h7.4c1.4 0 2.5 1.1 2.5 2.4v55.5h-.1z"/><ellipse class="st0" cx="12.3" cy="26.9" rx="2.5" ry="2.4"/><path class="st0" d="M51.7 24.5H22.2c-1.4 0-2.5 1.1-2.5 2.4s1.1 2.4 2.5 2.4h29.5c1.4 0 2.5-1.1 2.5-2.4s-1.1-2.4-2.5-2.4z"/><ellipse class="st0" cx="12.3" cy="41.6" rx="2.5" ry="2.4"/><path class="st0" d="M51.7 39.1H22.2c-1.4 0-2.5 1.1-2.5 2.4s1.1 2.4 2.5 2.4h29.5c1.4 0 2.5-1.1 2.5-2.4s-1.1-2.4-2.5-2.4z"/><ellipse class="st0" cx="12.3" cy="56.2" rx="2.5" ry="2.4"/><path class="st0" d="M51.7 53.8H22.2c-1.4 0-2.5 1.1-2.5 2.4s1.1 2.4 2.5 2.4h29.5c1.4 0 2.5-1.1 2.5-2.4s-1.1-2.4-2.5-2.4z"/></svg>