<?xml version="1.0" encoding="utf-8"?>
<!-- Generator: Adobe Illustrator 21.1.0, SVG Export Plug-In . SVG Version: 6.00 Build 0)  -->
<svg version="1.1" id="Layer_1" xmlns="http://www.w3.org/2000/svg" xmlns:xlink="http://www.w3.org/1999/xlink" x="0px" y="0px"
	 viewBox="0 0 15 10" style="enable-background:new 0 0 15 10;" xml:space="preserve">
<style type="text/css">
	.st0{fill:#FFFFFF;}
</style>
<g>
	<path class="st0" d="M12.2,1.9l-4.7,4l-4.7-4C2.6,1.7,2.2,1.7,2,2C1.9,2.1,1.8,2.2,1.8,2.4c0,0.2,0.1,0.3,0.2,0.4l5.1,4.3
		c0.1,0.1,0.3,0.1,0.4,0.1s0.3-0.1,0.4-0.1L13,2.8C13.2,2.6,13.2,2.2,13,2C12.8,1.7,12.4,1.7,12.2,1.9z"/>
	<path class="st0" d="M13.5,0h-12C0.7,0,0,0.7,0,1.5v7C0,9.3,0.7,10,1.5,10h12c0.8,0,1.5-0.7,1.5-1.5v-7C15,0.7,14.3,0,13.5,0z
		 M13.8,8.5c0,0.2-0.1,0.3-0.3,0.3h-12c-0.2,0-0.3-0.1-0.3-0.3v-7c0-0.2,0.1-0.3,0.3-0.3h12c0.2,0,0.3,0.1,0.3,0.3V8.5z"/>
</g>
</svg>
