<?xml version="1.0" encoding="utf-8"?>
<!-- Generator: Adobe Illustrator 21.1.0, SVG Export Plug-In . SVG Version: 6.00 Build 0)  -->
<svg version="1.1" xmlns="http://www.w3.org/2000/svg" xmlns:xlink="http://www.w3.org/1999/xlink" x="0px" y="0px"
	 viewBox="0 0 80 80" style="enable-background:new 0 0 80 80;" xml:space="preserve">
<style type="text/css">
	.st0{fill:#4F6FA8;}
	.st1{fill:#FFFFFF;}
	.st2{display:none;}
	.st3{display:inline;}
	.st4{fill:#2994CC;}
	.st5{fill:#F48221;}
</style>
<g id="Layer_1">
	<g>
		<path class="st0" d="M40,0C17.9,0,0,17.9,0,40c0,22.1,17.9,40,40,40s40-17.9,40-40C80,17.9,62.1,0,40,0z M52,25.6
			c0,0.5-0.4,0.9-0.9,0.9l-3.9,0c-2.7,0-3.2,1.1-3.2,3.1V34h6.9c0.2,0,0.5,0.1,0.7,0.3c0.2,0.2,0.3,0.4,0.3,0.7l0,7.4
			c0,0.5-0.4,0.9-0.9,0.9h-6.9V62c0,0.5-0.4,0.9-0.9,0.9h-7.7c-0.5,0-0.9-0.4-0.9-0.9V43.3h-5.9c-0.5,0-0.9-0.4-0.9-0.9v-7.4
			c0-0.5,0.4-0.9,0.9-0.9h5.9v-5.1c0-6.8,4.3-11.1,10.8-11.1l5.9,0c0.5,0,0.9,0.4,0.9,0.9V25.6z"/>
		<path class="st1" d="M51.1,17.8l-5.9,0c-6.6,0-10.8,4.4-10.8,11.1V34h-5.9c-0.5,0-0.9,0.4-0.9,0.9v7.4c0,0.5,0.4,0.9,0.9,0.9h5.9
			V62c0,0.5,0.4,0.9,0.9,0.9H43c0.5,0,0.9-0.4,0.9-0.9V43.3h6.9c0.5,0,0.9-0.4,0.9-0.9l0-7.4c0-0.2-0.1-0.5-0.3-0.7
			C51.3,34.1,51,34,50.8,34h-6.9v-4.3c0-2.1,0.5-3.1,3.2-3.1l3.9,0c0.5,0,0.9-0.4,0.9-0.9v-6.9C52,18.2,51.6,17.8,51.1,17.8z"/>
	</g>
</g>
<g id="Layer_2" class="st2">
	<g class="st3">
		<circle class="st4" cx="40" cy="40" r="40"/>
	</g>
	<g class="st3">
		<path class="st1" d="M63.4,25.5c-1.7,0.8-3.6,1.3-5.6,1.5c2-1.2,3.5-3.1,4.3-5.4c-1.9,1.1-4,1.9-6.2,2.4c-1.8-1.9-4.3-3.1-7.1-3.1
			c-5.4,0-9.7,4.3-9.7,9.7c0,0.8,0.1,1.5,0.2,2.2c-8.1-0.4-15.2-4.3-20-10.1c-0.8,1.4-1.3,3.1-1.3,4.9c0,3.4,1.7,6.3,4.3,8.1
			c-1.6,0-3.1-0.5-4.4-1.2v0.1c0,4.7,3.3,8.6,7.8,9.5c-0.8,0.2-1.7,0.3-2.6,0.3c-0.6,0-1.2-0.1-1.8-0.2c1.2,3.9,4.8,6.6,9.1,6.7
			c-3.3,2.6-7.5,4.1-12,4.1c-0.8,0-1.5,0-2.3-0.1c4.3,2.8,9.4,4.4,14.9,4.4c17.8,0,27.6-14.8,27.6-27.6l0-1.3
			C60.4,29.2,62.1,27.5,63.4,25.5L63.4,25.5z M63.4,25.5"/>
	</g>
</g>
<g id="Layer_3" class="st2">
	<g class="st3">
		<path class="st5" d="M40,0C17.9,0,0,17.9,0,40c0,22.1,17.9,40,40,40s40-17.9,40-40C80,17.9,62.1,0,40,0z M58.3,51.4
			c0,0.9-0.3,1.7-1,2.4c-0.7,0.7-1.5,1-2.4,1H23.8c-0.9,0-1.7-0.3-2.4-1c-0.7-0.7-1-1.5-1-2.4V34.6c0.6,0.7,1.3,1.3,2.1,1.8
			c5.1,3.5,8.6,5.9,10.5,7.3c0.8,0.6,1.5,1.1,2,1.4c0.5,0.3,1.2,0.7,2,1c0.8,0.3,1.6,0.5,2.3,0.5h0c0.7,0,1.5-0.2,2.3-0.5
			c0.8-0.3,1.5-0.7,2-1c0.5-0.3,1.2-0.8,2-1.4c2.4-1.7,5.9-4.2,10.5-7.3c0.8-0.6,1.5-1.2,2.1-1.8V51.4z M57.3,31.6
			c-0.7,1-1.5,1.9-2.6,2.6c-5.3,3.7-8.6,6-9.9,6.9c-0.1,0.1-0.4,0.3-0.9,0.6c-0.5,0.3-0.8,0.6-1.1,0.8c-0.3,0.2-0.7,0.4-1.1,0.7
			c-0.4,0.3-0.8,0.4-1.2,0.6c-0.4,0.1-0.7,0.2-1.1,0.2h0c-0.3,0-0.7-0.1-1.1-0.2c-0.4-0.1-0.8-0.3-1.2-0.6c-0.4-0.3-0.8-0.5-1.1-0.7
			c-0.3-0.2-0.7-0.5-1.1-0.8c-0.5-0.3-0.8-0.5-0.9-0.6c-1.3-0.9-3.1-2.2-5.5-3.9c-2.4-1.7-3.9-2.7-4.3-3c-0.9-0.6-1.7-1.4-2.5-2.4
			c-0.8-1-1.2-2-1.2-2.9c0-1.1,0.3-2,0.9-2.7c0.6-0.7,1.4-1.1,2.5-1.1H55c0.9,0,1.7,0.3,2.4,1c0.7,0.7,1,1.5,1,2.4
			C58.3,29.5,58,30.6,57.3,31.6z"/>
		<path class="st1" d="M55,25H23.8c-1.1,0-1.9,0.4-2.5,1.1c-0.6,0.7-0.9,1.6-0.9,2.7c0,0.9,0.4,1.9,1.2,2.9c0.8,1,1.6,1.9,2.5,2.4
			c0.5,0.3,1.9,1.3,4.3,3c2.4,1.7,4.3,3,5.5,3.9c0.1,0.1,0.4,0.3,0.9,0.6c0.5,0.3,0.8,0.6,1.1,0.8c0.3,0.2,0.7,0.4,1.1,0.7
			c0.4,0.3,0.8,0.4,1.2,0.6c0.4,0.1,0.7,0.2,1.1,0.2h0c0.3,0,0.7-0.1,1.1-0.2c0.4-0.1,0.8-0.3,1.2-0.6c0.4-0.3,0.8-0.5,1.1-0.7
			c0.3-0.2,0.7-0.5,1.1-0.8c0.5-0.3,0.8-0.5,0.9-0.6c1.3-0.9,4.6-3.2,9.9-6.9c1-0.7,1.9-1.6,2.6-2.6c0.7-1,1-2.1,1-3.2
			c0-0.9-0.3-1.7-1-2.4C56.7,25.3,55.9,25,55,25z"/>
		<path class="st1" d="M45.7,43.7c-0.8,0.6-1.5,1.1-2,1.4c-0.5,0.3-1.2,0.7-2,1c-0.8,0.3-1.6,0.5-2.3,0.5h0c-0.7,0-1.5-0.2-2.3-0.5
			c-0.8-0.3-1.5-0.7-2-1c-0.5-0.3-1.2-0.8-2-1.4c-1.9-1.4-5.4-3.8-10.5-7.3c-0.8-0.5-1.5-1.1-2.1-1.8v16.8c0,0.9,0.3,1.7,1,2.4
			c0.7,0.7,1.5,1,2.4,1H55c0.9,0,1.7-0.3,2.4-1c0.7-0.7,1-1.5,1-2.4V34.6c-0.6,0.7-1.3,1.3-2.1,1.8C51.6,39.6,48.1,42,45.7,43.7z"/>
	</g>
</g>
</svg>
