<svg xmlns="http://www.w3.org/2000/svg" viewBox="0 0 80 80"><style>.st0{fill:#4f6fa8}.st1{fill:#fff}.st2{display:none}.st3{display:inline}.st4{fill:#2994cc}.st5{fill:#f48221}</style><g id="Layer_1"><path class="st0" d="M40 0C17.9 0 0 17.9 0 40s17.9 40 40 40 40-17.9 40-40S62.1 0 40 0zm12 25.6c0 .5-.4.9-.9.9h-3.9c-2.7 0-3.2 1.1-3.2 3.1V34h6.9c.2 0 .5.1.7.3.2.2.3.4.3.7v7.4c0 .5-.4.9-.9.9h-6.9V62c0 .5-.4.9-.9.9h-7.7c-.5 0-.9-.4-.9-.9V43.3h-5.9c-.5 0-.9-.4-.9-.9V35c0-.5.4-.9.9-.9h5.9V29c0-6.8 4.3-11.1 10.8-11.1h5.9c.5 0 .9.4.9.9v6.8z"/><path class="st1" d="M51.1 17.8h-5.9c-6.6 0-10.8 4.4-10.8 11.1V34h-5.9c-.5 0-.9.4-.9.9v7.4c0 .5.4.9.9.9h5.9V62c0 .5.4.9.9.9H43c.5 0 .9-.4.9-.9V43.3h6.9c.5 0 .9-.4.9-.9V35c0-.2-.1-.5-.3-.7-.1-.2-.4-.3-.6-.3h-6.9v-4.3c0-2.1.5-3.1 3.2-3.1H51c.5 0 .9-.4.9-.9v-6.9c.1-.6-.3-1-.8-1z"/></g><g id="Layer_2" class="st2"><g class="st3"><circle class="st4" cx="40" cy="40" r="40"/></g><g class="st3"><path class="st1" d="M63.4 25.5c-1.7.8-3.6 1.3-5.6 1.5 2-1.2 3.5-3.1 4.3-5.4-1.9 1.1-4 1.9-6.2 2.4-1.8-1.9-4.3-3.1-7.1-3.1-5.4 0-9.7 4.3-9.7 9.7 0 .8.1 1.5.2 2.2-8.1-.4-15.2-4.3-20-10.1-.8 1.4-1.3 3.1-1.3 4.9 0 3.4 1.7 6.3 4.3 8.1-1.6 0-3.1-.5-4.4-1.2v.1c0 4.7 3.3 8.6 7.8 9.5-.8.2-1.7.3-2.6.3-.6 0-1.2-.1-1.8-.2 1.2 3.9 4.8 6.6 9.1 6.7-3.3 2.6-7.5 4.1-12 4.1-.8 0-1.5 0-2.3-.1 4.3 2.8 9.4 4.4 14.9 4.4 17.8 0 27.6-14.8 27.6-27.6v-1.3c1.8-1.2 3.5-2.9 4.8-4.9zm0 0"/></g></g><g id="Layer_3" class="st2"><g class="st3"><path class="st5" d="M40 0C17.9 0 0 17.9 0 40s17.9 40 40 40 40-17.9 40-40S62.1 0 40 0zm18.3 51.4c0 .9-.3 1.7-1 2.4s-1.5 1-2.4 1H23.8c-.9 0-1.7-.3-2.4-1s-1-1.5-1-2.4V34.6c.6.7 1.3 1.3 2.1 1.8 5.1 3.5 8.6 5.9 10.5 7.3.8.6 1.5 1.1 2 1.4.5.3 1.2.7 2 1 .8.3 1.6.5 2.3.5.7 0 1.5-.2 2.3-.5.8-.3 1.5-.7 2-1 .5-.3 1.2-.8 2-1.4 2.4-1.7 5.9-4.2 10.5-7.3.8-.6 1.5-1.2 2.1-1.8v16.8zm-1-19.8c-.7 1-1.5 1.9-2.6 2.6-5.3 3.7-8.6 6-9.9 6.9-.1.1-.4.3-.9.6s-.8.6-1.1.8c-.3.2-.7.4-1.1.7-.4.3-.8.4-1.2.6-.4.1-.7.2-1.1.2-.3 0-.7-.1-1.1-.2-.4-.1-.8-.3-1.2-.6-.4-.3-.8-.5-1.1-.7-.3-.2-.7-.5-1.1-.8-.5-.3-.8-.5-.9-.6-1.3-.9-3.1-2.2-5.5-3.9-2.4-1.7-3.9-2.7-4.3-3-.9-.6-1.7-1.4-2.5-2.4s-1.2-2-1.2-2.9c0-1.1.3-2 .9-2.7.6-.7 1.4-1.1 2.5-1.1H55c.9 0 1.7.3 2.4 1s1 1.5 1 2.4c-.1 1-.4 2.1-1.1 3.1z"/><path class="st1" d="M55 25H23.8c-1.1 0-1.9.4-2.5 1.1-.6.7-.9 1.6-.9 2.7 0 .9.4 1.9 1.2 2.9.8 1 1.6 1.9 2.5 2.4.5.3 1.9 1.3 4.3 3s4.3 3 5.5 3.9c.1.1.4.3.9.6s.8.6 1.1.8c.3.2.7.4 1.1.7.4.3.8.4 1.2.6.4.1.7.2 1.1.2.3 0 .7-.1 1.1-.2.4-.1.8-.3 1.2-.6.4-.3.8-.5 1.1-.7.3-.2.7-.5 1.1-.8.5-.3.8-.5.9-.6 1.3-.9 4.6-3.2 9.9-6.9 1-.7 1.9-1.6 2.6-2.6.7-1 1-2.1 1-3.2 0-.9-.3-1.7-1-2.4-.5-.6-1.3-.9-2.2-.9z"/><path class="st1" d="M45.7 43.7c-.8.6-1.5 1.1-2 1.4-.5.3-1.2.7-2 1-.8.3-1.6.5-2.3.5-.7 0-1.5-.2-2.3-.5-.8-.3-1.5-.7-2-1-.5-.3-1.2-.8-2-1.4-1.9-1.4-5.4-3.8-10.5-7.3-.8-.5-1.5-1.1-2.1-1.8v16.8c0 .9.3 1.7 1 2.4s1.5 1 2.4 1H55c.9 0 1.7-.3 2.4-1s1-1.5 1-2.4V34.6c-.6.7-1.3 1.3-2.1 1.8-4.7 3.2-8.2 5.6-10.6 7.3z"/></g></g></svg>