<?xml version="1.0" encoding="utf-8"?>
<!-- Generator: Adobe Illustrator 21.1.0, SVG Export Plug-In . SVG Version: 6.00 Build 0)  -->
<svg version="1.1" id="Layer_1" xmlns="http://www.w3.org/2000/svg" xmlns:xlink="http://www.w3.org/1999/xlink" x="0px" y="0px"
	 viewBox="0 0 87 87" style="enable-background:new 0 0 87 87;" xml:space="preserve">
<style type="text/css">
	.st0{fill:#F98727;}
</style>
<g>
	<path class="st0" d="M43.5,0C19.5,0,0,19.5,0,43.5C0,67.5,19.5,87,43.5,87S87,67.5,87,43.5C87,19.5,67.5,0,43.5,0z M43.5,85
		C20.6,85,2,66.4,2,43.5S20.6,2,43.5,2S85,20.6,85,43.5S66.4,85,43.5,85z"/>
	<path class="st0" d="M52.2,57.8c0.1,0,0.2,0,0.3-0.1l8.8-3.2c0.4-0.2,0.7-0.6,0.5-1.1c-0.2-0.4-0.6-0.7-1.1-0.5l-8.8,3.2
		c-0.4,0.2-0.7,0.6-0.5,1.1C51.5,57.6,51.9,57.8,52.2,57.8z"/>
	<path class="st0" d="M49.4,58.9c0.1,0,0.2,0,0.3-0.1l0.4-0.1c0.4-0.2,0.7-0.6,0.5-1.1c-0.2-0.4-0.6-0.7-1.1-0.5l-0.4,0.1
		c-0.4,0.2-0.7,0.6-0.5,1.1C48.8,58.7,49.1,58.9,49.4,58.9z"/>
	<path class="st0" d="M54.1,53.7c0.1,0,0.2,0,0.3-0.1l7-2.6c0.4-0.2,0.7-0.6,0.5-1.1c-0.2-0.4-0.6-0.7-1.1-0.5l-7,2.6
		c-0.4,0.2-0.7,0.6-0.5,1.1C53.4,53.5,53.7,53.7,54.1,53.7z"/>
	<path class="st0" d="M54.1,50.3c0.1,0,0.2,0,0.3-0.1l7-2.6c0.4-0.2,0.7-0.6,0.5-1.1c-0.2-0.4-0.6-0.7-1.1-0.5l-7,2.6
		c-0.4,0.2-0.7,0.6-0.5,1.1C53.4,50.1,53.7,50.3,54.1,50.3z"/>
	<path class="st0" d="M66.4,30l-22.1-8.1c-0.2-0.1-0.4-0.1-0.6,0L21.6,30l0,0c-0.1,0-0.1,0.1-0.2,0.1c-0.2,0.2-0.4,0.5-0.4,0.8v26.2
		c0,0.4,0.2,0.7,0.6,0.9l22.1,8.1c0.1,0,0.2,0.1,0.3,0.1c0.1,0,0.2,0,0.3-0.1l0,0L66.4,58c0.4-0.1,0.6-0.5,0.6-0.9V30.9
		C67,30.5,66.8,30.2,66.4,30z M43.1,63.9l-20.3-7.5V32.2l4.1,1.5v11.1c0,0.4,0.2,0.7,0.6,0.9l9.9,3.7c0.1,0,0.2,0.1,0.3,0.1
		c0.2,0,0.4-0.1,0.5-0.2c0.2-0.2,0.4-0.5,0.4-0.8V38.1l4.4,1.6V63.9z M36.9,37.4v9.8l-8.1-3v-9.8L36.9,37.4z M30.5,33.1l7.2-2.7
		l7.2,2.7l-7.2,2.7L30.5,33.1z M44,38.1l-3.6-1.3l7.6-2.8c0.4-0.1,0.6-0.5,0.6-0.9c0-0.4-0.2-0.7-0.6-0.9l-9.9-3.7
		c-0.2-0.1-0.4-0.1-0.6,0l-9.6,3.5l-3.3-1.2L44,23.7l19.4,7.2L44,38.1z M65.2,56.5l-20.3,7.5V39.7l20.3-7.5V56.5z"/>
</g>
</svg>
