<?xml version="1.0" encoding="utf-8"?>
<!-- Generator: Adobe Illustrator 21.1.0, SVG Export Plug-In . SVG Version: 6.00 Build 0)  -->
<svg version="1.1" id="Layer_1" xmlns="http://www.w3.org/2000/svg" xmlns:xlink="http://www.w3.org/1999/xlink" x="0px" y="0px"
	 viewBox="0 0 87 87" style="enable-background:new 0 0 87 87;" xml:space="preserve">
<style type="text/css">
	.st0{fill:#F98727;}
</style>
<g>
	<path class="st0" d="M43.5,0C19.5,0,0,19.5,0,43.5C0,67.5,19.5,87,43.5,87S87,67.5,87,43.5C87,19.5,67.5,0,43.5,0z M43.5,85
		C20.6,85,2,66.4,2,43.5S20.6,2,43.5,2S85,20.6,85,43.5S66.4,85,43.5,85z"/>
	<path class="st0" d="M63.5,54.3L63.5,54.3l0-18.8c0-1.2-1-2.2-2.2-2.2h-4.6v-3.1h4.6c1.2,0,2.2-1,2.2-2.2v-4.5c0-1.2-1-2.2-2.2-2.2
		H47.8c-1.2,0-2.2,1-2.2,2.2V28c0,1.2,1,2.2,2.2,2.2h4.6v3.1H40.2v-6.1c0-0.2-0.1-0.5-0.3-0.6c-0.2-0.1-0.4-0.2-0.7-0.1l-1.5,0.6
		l-1.5-0.6c-0.2-0.1-0.4-0.1-0.6,0l-1.5,0.6l-1.5-0.6c-0.2-0.1-0.4-0.1-0.6,0l-1.5,0.6l-1.5-0.6c-0.2-0.1-0.5-0.1-0.7,0.1
		c-0.2,0.1-0.3,0.4-0.3,0.6v6.1h-1.6c-1.2,0-2.2,1-2.2,2.2v18.8h0c-0.8,0-1.5,0.7-1.5,1.5v7.5c0,0.8,0.7,1.5,1.5,1.5h39.1
		c0.8,0,1.5-0.7,1.5-1.5v-7.5C65,55,64.3,54.3,63.5,54.3z M47.8,28.8c-0.4,0-0.8-0.4-0.8-0.8v-4.5c0-0.4,0.4-0.8,0.8-0.8h13.5
		c0.4,0,0.8,0.4,0.8,0.8V28c0,0.4-0.4,0.8-0.8,0.8H47.8z M55.3,30.2v3.1h-1.6v-3.1H55.3z M29.7,28.3l0.8,0.3c0.2,0.1,0.4,0.1,0.6,0
		l1.5-0.6l1.5,0.6c0.2,0.1,0.4,0.1,0.6,0L36,28l1.5,0.6c0.2,0.1,0.4,0.1,0.6,0l0.8-0.3v9.5h-9.1V28.3z M63.6,63.3
		C63.6,63.3,63.6,63.3,63.6,63.3l-39.1,0c0,0,0,0,0,0v-7.5c0,0,0,0,0,0h30.8c0.4,0,0.7-0.3,0.7-0.7c0-0.4-0.3-0.7-0.7-0.7H25.9V35.5
		c0-0.4,0.4-0.8,0.8-0.8h1.6v3.1h0c-0.4,0-0.7,0.3-0.7,0.7c0,0.4,0.3,0.7,0.7,0.7h12c0.4,0,0.7-0.3,0.7-0.7c0-0.4-0.3-0.7-0.7-0.7h0
		v-3.1h21.1c0.4,0,0.8,0.4,0.8,0.8v18.8h-3.8c-0.4,0-0.7,0.3-0.7,0.7c0,0.4,0.3,0.7,0.7,0.7h5.3c0,0,0,0,0,0V63.3z"/>
	<path class="st0" d="M44,57.3c-1.2,0-2.2,1-2.2,2.2c0,1.2,1,2.2,2.2,2.2s2.2-1,2.2-2.2C46.2,58.3,45.2,57.3,44,57.3z M44,60.3
		c-0.4,0-0.8-0.4-0.8-0.8c0-0.4,0.4-0.8,0.8-0.8s0.8,0.4,0.8,0.8C44.8,60,44.4,60.3,44,60.3z"/>
	<path class="st0" d="M36.5,34.8H32c-0.4,0-0.7,0.3-0.7,0.7c0,0.4,0.3,0.7,0.7,0.7h4.5c0.4,0,0.7-0.3,0.7-0.7
		C37.2,35.1,36.9,34.8,36.5,34.8z"/>
	<path class="st0" d="M36.5,31.8h-0.8c-0.4,0-0.7,0.3-0.7,0.7c0,0.4,0.3,0.7,0.7,0.7h0.8c0.4,0,0.7-0.3,0.7-0.7
		C37.2,32.1,36.9,31.8,36.5,31.8z"/>
	<path class="st0" d="M32,33.2h0.8c0.4,0,0.7-0.3,0.7-0.7c0-0.4-0.3-0.7-0.7-0.7H32c-0.4,0-0.7,0.3-0.7,0.7
		C31.3,32.9,31.6,33.2,32,33.2z"/>
	<path class="st0" d="M60.5,40v-2.3c0-0.8-0.7-1.5-1.5-1.5h-0.8c-0.4,0-0.7,0.3-0.7,0.7c0,0.4,0.3,0.7,0.7,0.7H59c0,0,0,0,0,0V40
		c0,0,0,0,0,0H44.8c0,0,0,0,0,0v-2.3c0,0,0,0,0,0h10.5c0.4,0,0.7-0.3,0.7-0.7c0-0.4-0.3-0.7-0.7-0.7H44.8c-0.8,0-1.5,0.7-1.5,1.5V40
		c0,0.8,0.7,1.5,1.5,1.5H59C59.8,41.4,60.5,40.8,60.5,40z"/>
	<path class="st0" d="M46.3,43h-0.8c-1.2,0-2.2,1-2.2,2.2s1,2.2,2.2,2.2h0.8c1.2,0,2.2-1,2.2-2.2S47.5,43,46.3,43z M46.3,46.1h-0.8
		c-0.4,0-0.8-0.4-0.8-0.8s0.4-0.8,0.8-0.8h0.8c0.4,0,0.8,0.4,0.8,0.8S46.7,46.1,46.3,46.1z"/>
	<path class="st0" d="M52.3,43h-0.8c-1.2,0-2.2,1-2.2,2.2s1,2.2,2.2,2.2h0.8c1.2,0,2.2-1,2.2-2.2S53.5,43,52.3,43z M52.3,46.1h-0.8
		c-0.4,0-0.8-0.4-0.8-0.8s0.4-0.8,0.8-0.8h0.8c0.4,0,0.8,0.4,0.8,0.8S52.7,46.1,52.3,46.1z"/>
	<path class="st0" d="M58.3,43h-0.8c-1.2,0-2.2,1-2.2,2.2s1,2.2,2.2,2.2h0.8c1.2,0,2.2-1,2.2-2.2S59.5,43,58.3,43z M58.3,46.1h-0.8
		c-0.4,0-0.8-0.4-0.8-0.8s0.4-0.8,0.8-0.8h0.8c0.4,0,0.8,0.4,0.8,0.8S58.7,46.1,58.3,46.1z"/>
	<path class="st0" d="M46.3,48.3h-0.8c-1.2,0-2.2,1-2.2,2.2s1,2.2,2.2,2.2h0.8c1.2,0,2.2-1,2.2-2.2S47.5,48.3,46.3,48.3z M46.3,51.3
		h-0.8c-0.4,0-0.8-0.4-0.8-0.8c0-0.4,0.4-0.8,0.8-0.8h0.8c0.4,0,0.8,0.4,0.8,0.8C47.1,51,46.7,51.3,46.3,51.3z"/>
	<path class="st0" d="M38,43h-0.8C36,43,35,44,35,45.3s1,2.2,2.2,2.2H38c1.2,0,2.2-1,2.2-2.2S39.2,43,38,43z M38,46.1h-0.8
		c-0.4,0-0.8-0.4-0.8-0.8s0.4-0.8,0.8-0.8H38c0.4,0,0.8,0.4,0.8,0.8S38.4,46.1,38,46.1z"/>
	<path class="st0" d="M38,48.3h-0.8c-1.2,0-2.2,1-2.2,2.2s1,2.2,2.2,2.2H38c1.2,0,2.2-1,2.2-2.2S39.2,48.3,38,48.3z M38,51.3h-0.8
		c-0.4,0-0.8-0.4-0.8-0.8c0-0.4,0.4-0.8,0.8-0.8H38c0.4,0,0.8,0.4,0.8,0.8C38.8,51,38.4,51.3,38,51.3z"/>
	<path class="st0" d="M32,43h-0.8C30,43,29,44,29,45.3s1,2.2,2.2,2.2H32c1.2,0,2.2-1,2.2-2.2S33.2,43,32,43z M32,46.1h-0.8
		c-0.4,0-0.8-0.4-0.8-0.8s0.4-0.8,0.8-0.8H32c0.4,0,0.8,0.4,0.8,0.8S32.4,46.1,32,46.1z"/>
	<path class="st0" d="M32,48.3h-0.8c-1.2,0-2.2,1-2.2,2.2s1,2.2,2.2,2.2H32c1.2,0,2.2-1,2.2-2.2S33.2,48.3,32,48.3z M32,51.3h-0.8
		c-0.4,0-0.8-0.4-0.8-0.8c0-0.4,0.4-0.8,0.8-0.8H32c0.4,0,0.8,0.4,0.8,0.8C32.8,51,32.4,51.3,32,51.3z"/>
	<path class="st0" d="M52.3,48.3h-0.8c-1.2,0-2.2,1-2.2,2.2s1,2.2,2.2,2.2h0.8c1.2,0,2.2-1,2.2-2.2S53.5,48.3,52.3,48.3z M52.3,51.3
		h-0.8c-0.4,0-0.8-0.4-0.8-0.8c0-0.4,0.4-0.8,0.8-0.8h0.8c0.4,0,0.8,0.4,0.8,0.8C53.1,51,52.7,51.3,52.3,51.3z"/>
	<path class="st0" d="M60.5,50.5c0-1.2-1-2.2-2.2-2.2h-0.8c-1.2,0-2.2,1-2.2,2.2s1,2.2,2.2,2.2h0.8C59.5,52.7,60.5,51.7,60.5,50.5z
		 M56.7,50.5c0-0.4,0.4-0.8,0.8-0.8h0.8c0.4,0,0.8,0.4,0.8,0.8c0,0.4-0.4,0.8-0.8,0.8h-0.8C57.1,51.3,56.7,51,56.7,50.5z"/>
	<path class="st0" d="M50.8,25h-1.5c-0.4,0-0.7,0.3-0.7,0.7c0,0.4,0.3,0.7,0.7,0.7h1.5c0.4,0,0.7-0.3,0.7-0.7
		C51.5,25.3,51.2,25,50.8,25z"/>
	<path class="st0" d="M59.8,25h-1.5c-0.4,0-0.7,0.3-0.7,0.7c0,0.4,0.3,0.7,0.7,0.7h1.5c0.4,0,0.7-0.3,0.7-0.7
		C60.5,25.3,60.2,25,59.8,25z"/>
	<path class="st0" d="M55.3,25h-1.5c-0.4,0-0.7,0.3-0.7,0.7c0,0.4,0.3,0.7,0.7,0.7h1.5c0.4,0,0.7-0.3,0.7-0.7
		C56,25.3,55.7,25,55.3,25z"/>
</g>
</svg>
