<svg id="Layer_1" xmlns="http://www.w3.org/2000/svg" viewBox="0 0 87 87"><style>.st0{fill:#f98727}</style><path class="st0" d="M43.5 2C66.4 2 85 20.6 85 43.5S66.4 85 43.5 85 2 66.4 2 43.5 20.6 2 43.5 2m0-2C19.5 0 0 19.5 0 43.5S19.5 87 43.5 87 87 67.5 87 43.5 67.5 0 43.5 0z"/><ellipse class="st0" cx="19.7" cy="29.1" rx="1.7" ry="1.9"/><path class="st0" d="M26.6 30.9h40.6c1 0 1.7-.8 1.7-1.9s-.8-1.9-1.7-1.9H26.6c-1 0-1.7.8-1.7 1.9s.8 1.9 1.7 1.9z"/><ellipse class="st0" cx="19.7" cy="44" rx="1.7" ry="1.9"/><path class="st0" d="M67.3 42.1H26.6c-1 0-1.7.8-1.7 1.9s.8 1.9 1.7 1.9h40.6c1 0 1.7-.8 1.7-1.9s-.7-1.9-1.6-1.9z"/><ellipse class="st0" cx="19.7" cy="58.9" rx="1.7" ry="1.9"/><path class="st0" d="M67.3 57.1H26.6c-1 0-1.7.8-1.7 1.9 0 1 .8 1.9 1.7 1.9h40.6c1 0 1.7-.8 1.7-1.9.1-1.1-.7-1.9-1.6-1.9z"/></svg>