<?xml version="1.0" encoding="utf-8"?>
<!-- Generator: Adobe Illustrator 21.1.0, SVG Export Plug-In . SVG Version: 6.00 Build 0)  -->
<svg version="1.1" id="Layer_1" xmlns="http://www.w3.org/2000/svg" xmlns:xlink="http://www.w3.org/1999/xlink" x="0px" y="0px"
	 viewBox="0 0 87 87" style="enable-background:new 0 0 87 87;" xml:space="preserve">
<style type="text/css">
	.st0{fill:#F98727;}
</style>
<g>
	<path class="st0" d="M43.5,0C19.5,0,0,19.5,0,43.5C0,67.5,19.5,87,43.5,87S87,67.5,87,43.5C87,19.5,67.5,0,43.5,0z M43.5,85
		C20.6,85,2,66.4,2,43.5S20.6,2,43.5,2S85,20.6,85,43.5S66.4,85,43.5,85z"/>
	<path class="st0" d="M60.9,52.6c-1.3,0-2.6,0.5-3.6,1.5c-1,1-1.5,2.2-1.5,3.6c0,1.3,0.5,2.6,1.5,3.6c1,1,2.2,1.5,3.6,1.5
		c2.8,0,5-2.3,5-5.1S63.7,52.6,60.9,52.6z M60.9,60.5c-1.5,0-2.9-1.3-2.9-2.8s1.3-2.8,2.9-2.8c1.5,0,2.8,1.3,2.8,2.8
		S62.5,60.5,60.9,60.5z"/>
	<path class="st0" d="M62.2,35.8c-0.2-0.2-0.5-0.3-0.8-0.3h-5.8c-0.6,0-1.1,0.5-1.1,1.1v9.2c0,0.6,0.5,1.1,1.1,1.1h9.1
		c0.6,0,1.1-0.5,1.1-1.1v-6.2c0-0.3-0.1-0.6-0.4-0.8L62.2,35.8z M63.7,44.7h-6.9v-7h4.2l2.7,2.4V44.7z"/>
	<path class="st0" d="M33.5,52.6c-1.3,0-2.6,0.5-3.6,1.5c-1,1-1.5,2.2-1.5,3.6c0,1.3,0.5,2.6,1.5,3.6c1,1,2.2,1.5,3.6,1.5
		c2.8,0,5-2.3,5-5.1S36.3,52.6,33.5,52.6z M33.5,60.5c-1.5,0-2.9-1.3-2.9-2.8s1.3-2.8,2.9-2.8c1.5,0,2.8,1.3,2.8,2.8
		S35.1,60.5,33.5,60.5z"/>
	<path class="st0" d="M26,54h-2.3v-3c0-0.6-0.5-1.1-1.1-1.1c-0.6,0-1.1,0.5-1.1,1.1v4.1c0,0.6,0.5,1.1,1.1,1.1H26
		c0.6,0,1.1-0.5,1.1-1.1C27.2,54.5,26.7,54,26,54z"/>
	<path class="st0" d="M31.7,47.9c0-0.6-0.5-1.1-1.1-1.1H17c-0.6,0-1.1,0.5-1.1,1.1c0,0.6,0.5,1.1,1.1,1.1h13.6
		C31.2,49,31.7,48.5,31.7,47.9z"/>
	<path class="st0" d="M19.3,43.8l13.6,0.1c0.6,0,1.1-0.5,1.1-1.1c0-0.6-0.5-1.1-1.1-1.1l-13.6-0.1h0c-0.6,0-1.1,0.5-1.1,1.1
		C18.2,43.3,18.7,43.8,19.3,43.8z"/>
	<path class="st0" d="M21.6,38.7h13.6c0.6,0,1.1-0.5,1.1-1.1c0-0.6-0.5-1.1-1.1-1.1H21.6c-0.6,0-1.1,0.5-1.1,1.1
		C20.4,38.2,21,38.7,21.6,38.7z"/>
	<path class="st0" d="M62.5,30.6c-0.2-0.2-0.4-0.3-0.7-0.3h-9.5v-4c0-0.6-0.5-1.1-1.1-1.1H22.7c-0.6,0-1.1,0.5-1.1,1.1v8.2
		c0,0.6,0.5,1.1,1.1,1.1c0.6,0,1.1-0.5,1.1-1.1v-7.1h26.4V54h-9.2c-0.6,0-1.1,0.5-1.1,1.1c0,0.6,0.5,1.1,1.1,1.1h13.7
		c0.6,0,1.1-0.5,1.1-1.1c0-0.6-0.5-1.1-1.1-1.1h-2.3V32.5h9l7.3,6.1L68.7,54h-1.2c-0.6,0-1.1,0.5-1.1,1.1c0,0.6,0.5,1.1,1.1,1.1h2.3
		c0.6,0,1.1-0.5,1.1-1.1l0.1-17c0-0.3-0.2-0.7-0.4-0.9L62.5,30.6z"/>
</g>
</svg>
