<svg id="Layer_1" xmlns="http://www.w3.org/2000/svg" viewBox="0 0 87 87"><style>.st0{fill:#f98727}</style><path class="st0" d="M43.5 0C19.5 0 0 19.5 0 43.5S19.5 87 43.5 87 87 67.5 87 43.5 67.5 0 43.5 0zm0 85C20.6 85 2 66.4 2 43.5S20.6 2 43.5 2 85 20.6 85 43.5 66.4 85 43.5 85z"/><path class="st0" d="M60.9 52.6c-1.3 0-2.6.5-3.6 1.5s-1.5 2.2-1.5 3.6c0 1.3.5 2.6 1.5 3.6s2.2 1.5 3.6 1.5c2.8 0 5-2.3 5-5.1s-2.2-5.1-5-5.1zm0 7.9c-1.5 0-2.9-1.3-2.9-2.8s1.3-2.8 2.9-2.8c1.5 0 2.8 1.3 2.8 2.8s-1.2 2.8-2.8 2.8zM62.2 35.8c-.2-.2-.5-.3-.8-.3h-5.8c-.6 0-1.1.5-1.1 1.1v9.2c0 .6.5 1.1 1.1 1.1h9.1c.6 0 1.1-.5 1.1-1.1v-6.2c0-.3-.1-.6-.4-.8l-3.2-3zm1.5 8.9h-6.9v-7H61l2.7 2.4v4.6zM33.5 52.6c-1.3 0-2.6.5-3.6 1.5s-1.5 2.2-1.5 3.6c0 1.3.5 2.6 1.5 3.6s2.2 1.5 3.6 1.5c2.8 0 5-2.3 5-5.1s-2.2-5.1-5-5.1zm0 7.9c-1.5 0-2.9-1.3-2.9-2.8s1.3-2.8 2.9-2.8c1.5 0 2.8 1.3 2.8 2.8s-1.2 2.8-2.8 2.8zM26 54h-2.3v-3c0-.6-.5-1.1-1.1-1.1-.6 0-1.1.5-1.1 1.1v4.1c0 .6.5 1.1 1.1 1.1H26c.6 0 1.1-.5 1.1-1.1.1-.6-.4-1.1-1.1-1.1zM31.7 47.9c0-.6-.5-1.1-1.1-1.1H17c-.6 0-1.1.5-1.1 1.1 0 .6.5 1.1 1.1 1.1h13.6c.6 0 1.1-.5 1.1-1.1zM19.3 43.8l13.6.1c.6 0 1.1-.5 1.1-1.1 0-.6-.5-1.1-1.1-1.1l-13.6-.1c-.6 0-1.1.5-1.1 1.1 0 .6.5 1.1 1.1 1.1zM21.6 38.7h13.6c.6 0 1.1-.5 1.1-1.1 0-.6-.5-1.1-1.1-1.1H21.6c-.6 0-1.1.5-1.1 1.1-.1.6.5 1.1 1.1 1.1z"/><path class="st0" d="M62.5 30.6c-.2-.2-.4-.3-.7-.3h-9.5v-4c0-.6-.5-1.1-1.1-1.1H22.7c-.6 0-1.1.5-1.1 1.1v8.2c0 .6.5 1.1 1.1 1.1.6 0 1.1-.5 1.1-1.1v-7.1h26.4V54H41c-.6 0-1.1.5-1.1 1.1 0 .6.5 1.1 1.1 1.1h13.7c.6 0 1.1-.5 1.1-1.1 0-.6-.5-1.1-1.1-1.1h-2.3V32.5h9l7.3 6.1V54h-1.2c-.6 0-1.1.5-1.1 1.1 0 .6.5 1.1 1.1 1.1h2.3c.6 0 1.1-.5 1.1-1.1l.1-17c0-.3-.2-.7-.4-.9l-8.1-6.6z"/></svg>