<svg id="Layer_1" xmlns="http://www.w3.org/2000/svg" viewBox="0 0 87 87"><style>.st0{fill:#f98727}</style><path class="st0" d="M43.5 0C19.5 0 0 19.5 0 43.5S19.5 87 43.5 87 87 67.5 87 43.5 67.5 0 43.5 0zm0 85C20.6 85 2 66.4 2 43.5S20.6 2 43.5 2 85 20.6 85 43.5 66.4 85 43.5 85z"/><path class="st0" d="M63.5 54.3V35.5c0-1.2-1-2.2-2.2-2.2h-4.6v-3.1h4.6c1.2 0 2.2-1 2.2-2.2v-4.5c0-1.2-1-2.2-2.2-2.2H47.8c-1.2 0-2.2 1-2.2 2.2V28c0 1.2 1 2.2 2.2 2.2h4.6v3.1H40.2v-6.1c0-.2-.1-.5-.3-.6-.2-.1-.4-.2-.7-.1l-1.5.6-1.5-.6c-.2-.1-.4-.1-.6 0l-1.5.6-1.5-.6c-.2-.1-.4-.1-.6 0l-1.5.6-1.5-.6c-.2-.1-.5-.1-.7.1-.2.1-.3.4-.3.6v6.1h-1.6c-1.2 0-2.2 1-2.2 2.2v18.8c-.8 0-1.5.7-1.5 1.5v7.5c0 .8.7 1.5 1.5 1.5h39.1c.8 0 1.5-.7 1.5-1.5v-7.5c.2-.8-.5-1.5-1.3-1.5zM47.8 28.8c-.4 0-.8-.4-.8-.8v-4.5c0-.4.4-.8.8-.8h13.5c.4 0 .8.4.8.8V28c0 .4-.4.8-.8.8H47.8zm7.5 1.4v3.1h-1.6v-3.1h1.6zm-25.6-1.9l.8.3c.2.1.4.1.6 0l1.5-.6 1.5.6c.2.1.4.1.6 0L36 28l1.5.6c.2.1.4.1.6 0l.8-.3v9.5h-9.1v-9.5zm33.9 35H24.5v-7.5h30.8c.4 0 .7-.3.7-.7 0-.4-.3-.7-.7-.7H25.9V35.5c0-.4.4-.8.8-.8h1.6v3.1c-.4 0-.7.3-.7.7 0 .4.3.7.7.7h12c.4 0 .7-.3.7-.7 0-.4-.3-.7-.7-.7v-3.1h21.1c.4 0 .8.4.8.8v18.8h-3.8c-.4 0-.7.3-.7.7 0 .4.3.7.7.7h5.3v7.6z"/><path class="st0" d="M44 57.3c-1.2 0-2.2 1-2.2 2.2 0 1.2 1 2.2 2.2 2.2s2.2-1 2.2-2.2c0-1.2-1-2.2-2.2-2.2zm0 3c-.4 0-.8-.4-.8-.8s.4-.8.8-.8.8.4.8.8c0 .5-.4.8-.8.8zM36.5 34.8H32c-.4 0-.7.3-.7.7 0 .4.3.7.7.7h4.5c.4 0 .7-.3.7-.7 0-.4-.3-.7-.7-.7zM36.5 31.8h-.8c-.4 0-.7.3-.7.7 0 .4.3.7.7.7h.8c.4 0 .7-.3.7-.7 0-.4-.3-.7-.7-.7zM32 33.2h.8c.4 0 .7-.3.7-.7 0-.4-.3-.7-.7-.7H32c-.4 0-.7.3-.7.7 0 .4.3.7.7.7zM60.5 40v-2.3c0-.8-.7-1.5-1.5-1.5h-.8c-.4 0-.7.3-.7.7 0 .4.3.7.7.7h.8V40H44.8v-2.3h10.5c.4 0 .7-.3.7-.7 0-.4-.3-.7-.7-.7H44.8c-.8 0-1.5.7-1.5 1.5V40c0 .8.7 1.5 1.5 1.5H59c.8-.1 1.5-.7 1.5-1.5zM46.3 43h-.8c-1.2 0-2.2 1-2.2 2.2s1 2.2 2.2 2.2h.8c1.2 0 2.2-1 2.2-2.2s-1-2.2-2.2-2.2zm0 3.1h-.8c-.4 0-.8-.4-.8-.8s.4-.8.8-.8h.8c.4 0 .8.4.8.8s-.4.8-.8.8zM52.3 43h-.8c-1.2 0-2.2 1-2.2 2.2s1 2.2 2.2 2.2h.8c1.2 0 2.2-1 2.2-2.2s-1-2.2-2.2-2.2zm0 3.1h-.8c-.4 0-.8-.4-.8-.8s.4-.8.8-.8h.8c.4 0 .8.4.8.8s-.4.8-.8.8zM58.3 43h-.8c-1.2 0-2.2 1-2.2 2.2s1 2.2 2.2 2.2h.8c1.2 0 2.2-1 2.2-2.2s-1-2.2-2.2-2.2zm0 3.1h-.8c-.4 0-.8-.4-.8-.8s.4-.8.8-.8h.8c.4 0 .8.4.8.8s-.4.8-.8.8zM46.3 48.3h-.8c-1.2 0-2.2 1-2.2 2.2s1 2.2 2.2 2.2h.8c1.2 0 2.2-1 2.2-2.2s-1-2.2-2.2-2.2zm0 3h-.8c-.4 0-.8-.4-.8-.8s.4-.8.8-.8h.8c.4 0 .8.4.8.8 0 .5-.4.8-.8.8zM38 43h-.8C36 43 35 44 35 45.3s1 2.2 2.2 2.2h.8c1.2 0 2.2-1 2.2-2.2S39.2 43 38 43zm0 3.1h-.8c-.4 0-.8-.4-.8-.8s.4-.8.8-.8h.8c.4 0 .8.4.8.8s-.4.8-.8.8zM38 48.3h-.8c-1.2 0-2.2 1-2.2 2.2s1 2.2 2.2 2.2h.8c1.2 0 2.2-1 2.2-2.2s-1-2.2-2.2-2.2zm0 3h-.8c-.4 0-.8-.4-.8-.8s.4-.8.8-.8h.8c.4 0 .8.4.8.8 0 .5-.4.8-.8.8zM32 43h-.8C30 43 29 44 29 45.3s1 2.2 2.2 2.2h.8c1.2 0 2.2-1 2.2-2.2S33.2 43 32 43zm0 3.1h-.8c-.4 0-.8-.4-.8-.8s.4-.8.8-.8h.8c.4 0 .8.4.8.8s-.4.8-.8.8zM32 48.3h-.8c-1.2 0-2.2 1-2.2 2.2s1 2.2 2.2 2.2h.8c1.2 0 2.2-1 2.2-2.2s-1-2.2-2.2-2.2zm0 3h-.8c-.4 0-.8-.4-.8-.8s.4-.8.8-.8h.8c.4 0 .8.4.8.8 0 .5-.4.8-.8.8zM52.3 48.3h-.8c-1.2 0-2.2 1-2.2 2.2s1 2.2 2.2 2.2h.8c1.2 0 2.2-1 2.2-2.2s-1-2.2-2.2-2.2zm0 3h-.8c-.4 0-.8-.4-.8-.8s.4-.8.8-.8h.8c.4 0 .8.4.8.8 0 .5-.4.8-.8.8zM60.5 50.5c0-1.2-1-2.2-2.2-2.2h-.8c-1.2 0-2.2 1-2.2 2.2s1 2.2 2.2 2.2h.8c1.2 0 2.2-1 2.2-2.2zm-3.8 0c0-.4.4-.8.8-.8h.8c.4 0 .8.4.8.8s-.4.8-.8.8h-.8c-.4 0-.8-.3-.8-.8zM50.8 25h-1.5c-.4 0-.7.3-.7.7 0 .4.3.7.7.7h1.5c.4 0 .7-.3.7-.7 0-.4-.3-.7-.7-.7zM59.8 25h-1.5c-.4 0-.7.3-.7.7 0 .4.3.7.7.7h1.5c.4 0 .7-.3.7-.7 0-.4-.3-.7-.7-.7zM55.3 25h-1.5c-.4 0-.7.3-.7.7 0 .4.3.7.7.7h1.5c.4 0 .7-.3.7-.7 0-.4-.3-.7-.7-.7z"/></svg>