<svg id="Layer_1" xmlns="http://www.w3.org/2000/svg" viewBox="0 0 87 87"><style>.st0{fill:#f98727}</style><path class="st0" d="M43.5 0C19.5 0 0 19.5 0 43.5S19.5 87 43.5 87 87 67.5 87 43.5 67.5 0 43.5 0zm0 85C20.6 85 2 66.4 2 43.5S20.6 2 43.5 2 85 20.6 85 43.5 66.4 85 43.5 85z"/><path class="st0" d="M40.1 34.5v-8c0-.5-.3-.9-.7-1.1-.4-.2-.9-.1-1.3.2L19.6 40.8c-.3.2-.4.6-.4.9 0 .4.2.7.4.9L38.1 58c.4.3.9.4 1.3.2s.7-.6.7-1.1v-7.9c7.7 0 19.4.6 25.6 11.6.2.4.6.6 1.1.6h.3c.5-.1.9-.6.9-1.2 0-4.1-1.6-10.4-5.9-15.7-3.6-4.5-10.2-9.6-22-10zm-1.2 12.1c-.3 0-.6.1-.9.4-.2.2-.4.5-.4.9v6.6L22.4 41.7l15.3-12.6v6.6c0 .7.5 1.2 1.2 1.2 17.6.1 24.1 10.8 26 18.4-7.6-8.7-18.9-8.7-26-8.7z"/></svg>