<?xml version="1.0" encoding="utf-8"?>
<!-- Generator: Adobe Illustrator 21.1.0, SVG Export Plug-In . SVG Version: 6.00 Build 0)  -->
<svg version="1.1" id="Layer_1" xmlns="http://www.w3.org/2000/svg" xmlns:xlink="http://www.w3.org/1999/xlink" x="0px" y="0px"
	 viewBox="0 0 87 87" style="enable-background:new 0 0 87 87;" xml:space="preserve">
<style type="text/css">
	.st0{fill:#F98727;}
</style>
<g>
	<path class="st0" d="M43.5,0C19.5,0,0,19.5,0,43.5C0,67.5,19.5,87,43.5,87S87,67.5,87,43.5C87,19.5,67.5,0,43.5,0z M43.5,85
		C20.6,85,2,66.4,2,43.5S20.6,2,43.5,2S85,20.6,85,43.5S66.4,85,43.5,85z"/>
	<path class="st0" d="M64.2,35.3l-12.1-0.9c-0.3,0-0.5-0.2-0.6-0.4L47,22.9c-0.6-1.5-2.1-2.5-3.7-2.5c-1.7,0-3.1,1-3.7,2.5L35,34.1
		c-0.1,0.2-0.3,0.4-0.6,0.4l-12,0.9c-1.6,0.1-3,1.2-3.6,2.7c-0.5,1.6-0.1,3.3,1.2,4.4l9.3,7.7c0.2,0.2,0.3,0.4,0.2,0.7l-2.8,11.6
		c-0.3,1.2-0.1,2.5,0.6,3.4c0.8,1,1.9,1.6,3.2,1.6c0.8,0,1.5-0.2,2.1-0.6l10.2-6.3c0.2-0.1,0.5-0.1,0.7,0l10.3,6.3
		c0.6,0.4,1.4,0.7,2.1,0.7c1.2,0,2.3-0.6,3.1-1.5c0.8-1,1.1-2.2,0.8-3.5l-2.8-11.7c-0.1-0.3,0-0.5,0.2-0.7l9.5-7.7
		c1.3-1.1,1.7-2.8,1.2-4.4C67.3,36.5,65.9,35.4,64.2,35.3z M65,40.5l-9.4,7.7c-0.9,0.8-1.3,2-1.1,3.2L57.4,63
		c0.2,0.7-0.1,1.2-0.3,1.4c-0.3,0.4-0.7,0.6-1.1,0.6c-0.3,0-0.5-0.1-0.8-0.3l-10.3-6.3c-0.5-0.3-1.1-0.5-1.6-0.5
		c-0.6,0-1.2,0.2-1.7,0.5l-10.2,6.4c-0.7,0.4-1.5,0.2-2-0.4c-0.2-0.3-0.4-0.7-0.2-1.3L32,51.4c0.3-1.2-0.1-2.4-1-3.2l-9.3-7.7
		c-0.7-0.6-0.5-1.5-0.5-1.7c0.1-0.2,0.4-1,1.4-1.1L34.6,37c1.2-0.1,2.2-0.8,2.7-1.9l4.6-11.2c0.4-0.9,1.2-1,1.5-1
		c0.2,0,1.1,0.1,1.4,1L49.4,35c0.5,1.1,1.5,1.8,2.7,1.9l12.1,0.9c0.9,0.1,1.3,0.8,1.4,1.1C65.5,39.1,65.7,39.9,65,40.5z"/>
</g>
</svg>
