<svg id="Layer_1" xmlns="http://www.w3.org/2000/svg" viewBox="0 0 87 87"><style>.st0{fill:#f98727}</style><path class="st0" d="M43.5 0C19.5 0 0 19.5 0 43.5S19.5 87 43.5 87 87 67.5 87 43.5 67.5 0 43.5 0zm0 85C20.6 85 2 66.4 2 43.5S20.6 2 43.5 2 85 20.6 85 43.5 66.4 85 43.5 85z"/><path class="st0" d="M52.2 57.8c.1 0 .2 0 .3-.1l8.8-3.2c.4-.2.7-.6.5-1.1-.2-.4-.6-.7-1.1-.5l-8.8 3.2c-.4.2-.7.6-.5 1.1.1.4.5.6.8.6zM49.4 58.9c.1 0 .2 0 .3-.1l.4-.1c.4-.2.7-.6.5-1.1-.2-.4-.6-.7-1.1-.5l-.4.1c-.4.2-.7.6-.5 1.1.2.4.5.6.8.6zM54.1 53.7c.1 0 .2 0 .3-.1l7-2.6c.4-.2.7-.6.5-1.1-.2-.4-.6-.7-1.1-.5l-7 2.6c-.4.2-.7.6-.5 1.1.1.4.4.6.8.6zM54.1 50.3c.1 0 .2 0 .3-.1l7-2.6c.4-.2.7-.6.5-1.1-.2-.4-.6-.7-1.1-.5l-7 2.6c-.4.2-.7.6-.5 1.1.1.4.4.6.8.6z"/><path class="st0" d="M66.4 30l-22.1-8.1c-.2-.1-.4-.1-.6 0L21.6 30c-.1 0-.1.1-.2.1-.2.2-.4.5-.4.8v26.2c0 .4.2.7.6.9l22.1 8.1c.1 0 .2.1.3.1.1 0 .2 0 .3-.1L66.4 58c.4-.1.6-.5.6-.9V30.9c0-.4-.2-.7-.6-.9zM43.1 63.9l-20.3-7.5V32.2l4.1 1.5v11.1c0 .4.2.7.6.9l9.9 3.7c.1 0 .2.1.3.1.2 0 .4-.1.5-.2.2-.2.4-.5.4-.8V38.1l4.4 1.6v24.2zm-6.2-26.5v9.8l-8.1-3v-9.8l8.1 3zm-6.4-4.3l7.2-2.7 7.2 2.7-7.2 2.7-7.2-2.7zm13.5 5l-3.6-1.3L48 34c.4-.1.6-.5.6-.9s-.2-.7-.6-.9l-9.9-3.7c-.2-.1-.4-.1-.6 0L27.9 32l-3.3-1.2L44 23.7l19.4 7.2L44 38.1zm21.2 18.4L44.9 64V39.7l20.3-7.5v24.3z"/></svg>