<svg id="Layer_1" xmlns="http://www.w3.org/2000/svg" viewBox="0 0 87 87"><style>.st0{fill:#f98727}</style><path class="st0" d="M43.5 0C19.5 0 0 19.5 0 43.5S19.5 87 43.5 87 87 67.5 87 43.5 67.5 0 43.5 0zm0 85C20.6 85 2 66.4 2 43.5S20.6 2 43.5 2 85 20.6 85 43.5 66.4 85 43.5 85z"/><path class="st0" d="M64.2 35.3l-12.1-.9c-.3 0-.5-.2-.6-.4L47 22.9c-.6-1.5-2.1-2.5-3.7-2.5-1.7 0-3.1 1-3.7 2.5L35 34.1c-.1.2-.3.4-.6.4l-12 .9c-1.6.1-3 1.2-3.6 2.7-.5 1.6-.1 3.3 1.2 4.4l9.3 7.7c.2.2.3.4.2.7l-2.8 11.6c-.3 1.2-.1 2.5.6 3.4.8 1 1.9 1.6 3.2 1.6.8 0 1.5-.2 2.1-.6l10.2-6.3c.2-.1.5-.1.7 0l10.3 6.3c.6.4 1.4.7 2.1.7 1.2 0 2.3-.6 3.1-1.5.8-1 1.1-2.2.8-3.5L57 50.9c-.1-.3 0-.5.2-.7l9.5-7.7c1.3-1.1 1.7-2.8 1.2-4.4-.6-1.6-2-2.7-3.7-2.8zm.8 5.2l-9.4 7.7c-.9.8-1.3 2-1.1 3.2L57.4 63c.2.7-.1 1.2-.3 1.4-.3.4-.7.6-1.1.6-.3 0-.5-.1-.8-.3l-10.3-6.3c-.5-.3-1.1-.5-1.6-.5-.6 0-1.2.2-1.7.5l-10.2 6.4c-.7.4-1.5.2-2-.4-.2-.3-.4-.7-.2-1.3L32 51.4c.3-1.2-.1-2.4-1-3.2l-9.3-7.7c-.7-.6-.5-1.5-.5-1.7.1-.2.4-1 1.4-1.1l12-.7c1.2-.1 2.2-.8 2.7-1.9l4.6-11.2c.4-.9 1.2-1 1.5-1 .2 0 1.1.1 1.4 1L49.4 35c.5 1.1 1.5 1.8 2.7 1.9l12.1.9c.9.1 1.3.8 1.4 1.1-.1.2.1 1-.6 1.6z"/></svg>