<?xml version="1.0" encoding="utf-8"?>
<!-- Generator: Adobe Illustrator 21.1.0, SVG Export Plug-In . SVG Version: 6.00 Build 0)  -->
<svg version="1.1" id="Layer_1" xmlns="http://www.w3.org/2000/svg" xmlns:xlink="http://www.w3.org/1999/xlink" x="0px" y="0px"
	 viewBox="0 0 87 87" style="enable-background:new 0 0 87 87;" xml:space="preserve">
<style type="text/css">
	.st0{fill:#F98727;}
</style>
<g>
	<path class="st0" d="M43.5,0C19.5,0,0,19.5,0,43.5C0,67.5,19.5,87,43.5,87S87,67.5,87,43.5C87,19.5,67.5,0,43.5,0z M43.5,85
		C20.6,85,2,66.4,2,43.5S20.6,2,43.5,2S85,20.6,85,43.5S66.4,85,43.5,85z"/>
	<path class="st0" d="M40.1,34.5v-8c0-0.5-0.3-0.9-0.7-1.1c-0.4-0.2-0.9-0.1-1.3,0.2L19.6,40.8c-0.3,0.2-0.4,0.6-0.4,0.9
		c0,0.4,0.2,0.7,0.4,0.9L38.1,58c0.4,0.3,0.9,0.4,1.3,0.2c0.4-0.2,0.7-0.6,0.7-1.1v-7.9c7.7,0,19.4,0.6,25.6,11.6
		c0.2,0.4,0.6,0.6,1.1,0.6c0.1,0,0.2,0,0.3,0c0.5-0.1,0.9-0.6,0.9-1.2c0-4.1-1.6-10.4-5.9-15.7C58.5,40,51.9,34.9,40.1,34.5z
		 M38.9,46.6c-0.3,0-0.6,0.1-0.9,0.4c-0.2,0.2-0.4,0.5-0.4,0.9v6.6L22.4,41.7l15.3-12.6v6.6c0,0.7,0.5,1.2,1.2,1.2
		C56.5,37,63,47.7,64.9,55.3C57.3,46.6,46,46.6,38.9,46.6z"/>
</g>
</svg>
