<?xml version="1.0" encoding="utf-8"?>
<!-- Generator: Adobe Illustrator 21.1.0, SVG Export Plug-In . SVG Version: 6.00 Build 0)  -->
<svg version="1.1" id="Layer_1" xmlns="http://www.w3.org/2000/svg" xmlns:xlink="http://www.w3.org/1999/xlink" x="0px" y="0px"
	 width="24.035px" height="24px" viewBox="0 0 24.035 24" enable-background="new 0 0 24.035 24" xml:space="preserve">
<path fill="#FF4814" d="M23.932,0.665C23.739,0.222,23.404,0,22.926,0H1.109C0.632,0,0.296,0.222,0.103,0.665
	c-0.193,0.466-0.114,0.863,0.239,1.193l8.403,8.403v8.284c0,0.295,0.108,0.552,0.324,0.767l4.364,4.363
	C13.637,23.892,13.892,24,14.2,24c0.136,0,0.278-0.028,0.426-0.086c0.443-0.193,0.665-0.528,0.665-1.005V10.261l8.403-8.403
	C24.046,1.528,24.125,1.131,23.932,0.665L23.932,0.665z M23.932,0.665"/>
</svg>
