<?xml version="1.0" encoding="utf-8"?>
<!-- Generator: Adobe Illustrator 21.1.0, SVG Export Plug-In . SVG Version: 6.00 Build 0)  -->
<svg version="1.1" id="Layer_1" xmlns="http://www.w3.org/2000/svg" xmlns:xlink="http://www.w3.org/1999/xlink" x="0px" y="0px"
	 viewBox="0 0 32.5 29" style="enable-background:new 0 0 32.5 29;" xml:space="preserve">
<style type="text/css">
	.st0{fill:#5B5B5B;}
</style>
<g>
	<path class="st0" d="M1.5,3H31c0.8,0,1.5-0.7,1.5-1.5S31.8,0,31,0H1.5C0.7,0,0,0.7,0,1.5S0.7,3,1.5,3z"/>
	<path class="st0" d="M31,13H1.5C0.7,13,0,13.7,0,14.5S0.7,16,1.5,16H31c0.8,0,1.5-0.7,1.5-1.5S31.8,13,31,13z"/>
	<path class="st0" d="M31,26H1.5C0.7,26,0,26.7,0,27.5S0.7,29,1.5,29H31c0.8,0,1.5-0.7,1.5-1.5S31.8,26,31,26z"/>
</g>
</svg>
