<svg id="Layer_1" xmlns="http://www.w3.org/2000/svg" viewBox="0 0 49 47"><style>.st0{fill:#f58322}</style><path class="st0" d="M48.5 23.2L37.4 12.1V3.7c0-1-.7-1.8-1.7-1.8S34 2.6 34 3.7v5L25.7.4c-.1-.1-.2-.2-.4-.3-.2-.1-.3-.1-.5-.1H24c-.1 0-.3 0-.4.1h-.1L.5 23.2c-.7.7-.7 1.8 0 2.5.3.3.8.5 1.2.5s.9-.2 1.2-.5L24.5 4.1l21.6 21.7c.3.4.7.5 1.2.5s.9-.2 1.2-.6c.7-.8.6-1.8 0-2.5z"/><path class="st0" d="M39.5 23.2c-1 0-1.7.7-1.7 1.8v18.5h-9.2v-7.3c0-1-.7-1.8-1.7-1.8h-5.8c-1 0-1.7.7-1.7 1.8v7.3h-9.2V25c0-1-.7-1.8-1.7-1.8s-1.7.7-1.7 1.8v20.3c0 1 .7 1.8 1.7 1.8h12.6c1 0 1.7-.7 1.7-1.8V38h2.4v7.3c0 1 .7 1.8 1.7 1.8h12.6c1 0 1.7-.7 1.7-1.8V25c0-1.1-.7-1.8-1.7-1.8z"/></svg>