<?xml version="1.0" encoding="utf-8"?>
<!-- Generator: Adobe Illustrator 21.1.0, SVG Export Plug-In . SVG Version: 6.00 Build 0)  -->
<svg version="1.1" id="Layer_1" xmlns="http://www.w3.org/2000/svg" xmlns:xlink="http://www.w3.org/1999/xlink" x="0px" y="0px"
	 width="49px" height="47px" viewBox="0 0 49 47" style="enable-background:new 0 0 49 47;" xml:space="preserve">
<style type="text/css">
	.st0{fill:#F58322;}
</style>
<g>
	<path class="st0" d="M48.7,23.8L37,12.6V4c0-0.6-0.4-1-1-1s-1,0.4-1,1v6.7l-9.8-9.4c0,0-0.1-0.1-0.1-0.1c-0.1,0-0.1-0.1-0.2-0.1
		c-0.1,0-0.1,0-0.2,0c-0.1,0-0.1,0-0.2,0c-0.1,0-0.1,0-0.2,0c-0.1,0-0.1,0-0.2,0c-0.1,0-0.1,0.1-0.2,0.1c-0.1,0-0.1,0.1-0.2,0.1
		L0.3,23.8c-0.4,0.4-0.4,1,0,1.4c0.2,0.2,0.5,0.3,0.7,0.3c0.2,0,0.5-0.1,0.7-0.3L24.5,3.4l22.8,21.8c0.2,0.2,0.4,0.3,0.7,0.3
		c0.3,0,0.5-0.1,0.7-0.3C49.1,24.8,49.1,24.2,48.7,23.8z"/>
	<path class="st0" d="M40,24c-0.6,0-1,0.4-1,1v19H28v-8c0-0.6-0.4-1-1-1h-3h-3c-0.6,0-1,0.4-1,1v8H9V25c0-0.6-0.4-1-1-1s-1,0.4-1,1
		v20c0,0.6,0.4,1,1,1h13c0.6,0,1-0.4,1-1v-8h2h2v8c0,0.6,0.4,1,1,1h13c0.6,0,1-0.4,1-1V25C41,24.4,40.6,24,40,24z"/>
</g>
</svg>
