<?xml version="1.0" encoding="utf-8"?>
<!-- Generator: Adobe Illustrator 21.1.0, SVG Export Plug-In . SVG Version: 6.00 Build 0)  -->
<svg version="1.1" id="Layer_1" xmlns="http://www.w3.org/2000/svg" xmlns:xlink="http://www.w3.org/1999/xlink" x="0px" y="0px"
	 viewBox="0 0 51 51" style="enable-background:new 0 0 51 51;" xml:space="preserve">
<style type="text/css">
	.st0{fill:#F48220;}
</style>
<g>
	<path class="st0" d="M25.5,0C11.4,0,0,11.4,0,25.5S11.4,51,25.5,51S51,39.6,51,25.5S39.6,0,25.5,0z M25.5,46.4
		C14,46.4,4.6,37,4.6,25.5S14,4.6,25.5,4.6C37,4.6,46.4,14,46.4,25.5S37,46.4,25.5,46.4z"/>
	<circle class="st0" cx="25.5" cy="13.9" r="3.1"/>
	<path class="st0" d="M25.5,21.6c-1.3,0-2.3,1-2.3,2.3v13.9c0,1.3,1,2.3,2.3,2.3c1.3,0,2.3-1,2.3-2.3V24
		C27.8,22.7,26.8,21.6,25.5,21.6z"/>
</g>
</svg>
