<?xml version="1.0" encoding="utf-8"?>
<!-- Generator: Adobe Illustrator 21.1.0, SVG Export Plug-In . SVG Version: 6.00 Build 0)  -->
<svg version="1.1" id="Layer_1" xmlns="http://www.w3.org/2000/svg" xmlns:xlink="http://www.w3.org/1999/xlink" x="0px" y="0px"
	 viewBox="0 0 97 66" style="enable-background:new 0 0 97 66;" xml:space="preserve">
<style type="text/css">
	.st0{fill:#FFFFFF;}
</style>
<g>
	<path class="st0" d="M79.2,48.1c-2.3,0-4.6,0.9-6.3,2.6c-1.8,1.8-2.6,3.9-2.6,6.3c0,2.3,0.9,4.6,2.6,6.3c1.8,1.8,3.9,2.6,6.3,2.6
		c4.9,0,8.8-4,8.8-9C88,52.1,84.1,48.1,79.2,48.1z M79.2,62c-2.6,0-5.1-2.3-5.1-4.9s2.3-4.9,5.1-4.9c2.6,0,4.9,2.3,4.9,4.9
		S82,62,79.2,62z"/>
	<path class="st0" d="M87.8,36.2V25.3c0-0.5-0.2-1.1-0.7-1.4l-5.6-5.3c-0.4-0.4-0.9-0.5-1.4-0.5H69.9C68.8,18.1,68,19,68,20v16.1
		c0,1.1,0.9,1.9,1.9,1.9h16C87,38.1,87.8,37.2,87.8,36.2z M84.1,34.2H72V21.9h7.4l4.8,4.2v8.1H84.1z"/>
	<path class="st0" d="M31,48.1c-2.3,0-4.6,0.9-6.3,2.6C22.9,52.5,22,54.6,22,57c0,2.3,0.9,4.6,2.6,6.3c1.8,1.8,3.9,2.6,6.3,2.6
		c4.9,0,8.8-4,8.8-9C39.8,52.1,35.9,48.1,31,48.1z M31,62c-2.6,0-5.1-2.3-5.1-4.9s2.3-4.9,5.1-4.9c2.6,0,4.9,2.3,4.9,4.9
		S33.8,62,31,62z"/>
	<path class="st0" d="M17.8,50.6h-4v-5.3c0-1.1-0.9-1.9-1.9-1.9c-1.1,0-1.9,0.9-1.9,1.9v7.2c0,1.1,0.9,1.9,1.9,1.9h6
		c1.1,0,1.9-0.9,1.9-1.9C19.9,51.4,19,50.6,17.8,50.6z"/>
	<path class="st0" d="M27.8,39.8c0-1.1-0.9-1.9-1.9-1.9h-24c-1.1,0-1.9,0.9-1.9,1.9c0,1.1,0.9,1.9,1.9,1.9h23.9
		C26.9,41.8,27.8,40.9,27.8,39.8z"/>
	<path class="st0" d="M6,32.6l23.9,0.2c1.1,0,1.9-0.9,1.9-1.9c0-1.1-0.9-1.9-1.9-1.9L6,28.8c-1.1,0-1.9,0.9-1.9,1.9
		C4,31.8,4.9,32.6,6,32.6z"/>
	<path class="st0" d="M10,23.7h24c1.1,0,1.9-0.9,1.9-1.9c0-1.1-0.9-1.9-1.9-1.9H10c-1.1,0-1.9,0.9-1.9,1.9C7.9,22.8,9,23.7,10,23.7z
		"/>
	<path class="st0" d="M96.3,21.1L82,9.5C81.7,9.1,81.3,9,80.8,9H64.1V2c0-1.1-0.9-1.9-1.9-1.9H12c-1.1-0.1-2,0.8-2,1.8v14.4
		c0,1.1,0.9,1.9,1.9,1.9c1.1,0,1.9-0.9,1.9-1.9V3.9h46.5v46.7H44.2c-1.1,0-1.9,0.9-1.9,1.9c0,1.1,0.9,1.9,1.9,1.9h24.1
		c1.1,0,1.9-0.9,1.9-1.9c0-1.1-0.9-1.9-1.9-1.9h-4V12.8h15.8L93,23.5v27h-2.1c-1.1,0-1.9,0.9-1.9,1.9c0,1.1,0.9,1.9,1.9,1.9h4
		c1.1,0,1.9-0.9,1.9-1.9L97,22.6C97,22.1,96.6,21.4,96.3,21.1z"/>
</g>
</svg>
