<svg id="Layer_1" xmlns="http://www.w3.org/2000/svg" viewBox="0 0 97 66"><style>.st0{fill:#fff}</style><path class="st0" d="M79.2 48.1c-2.3 0-4.6.9-6.3 2.6-1.8 1.8-2.6 3.9-2.6 6.3 0 2.3.9 4.6 2.6 6.3 1.8 1.8 3.9 2.6 6.3 2.6 4.9 0 8.8-4 8.8-9 0-4.8-3.9-8.8-8.8-8.8zm0 13.9c-2.6 0-5.1-2.3-5.1-4.9s2.3-4.9 5.1-4.9c2.6 0 4.9 2.3 4.9 4.9S82 62 79.2 62zM87.8 36.2V25.3c0-.5-.2-1.1-.7-1.4l-5.6-5.3c-.4-.4-.9-.5-1.4-.5H69.9c-1.1 0-1.9.9-1.9 1.9v16.1c0 1.1.9 1.9 1.9 1.9h16c1.1.1 1.9-.8 1.9-1.8zm-3.7-2H72V21.9h7.4l4.8 4.2v8.1h-.1zM31 48.1c-2.3 0-4.6.9-6.3 2.6-1.8 1.8-2.7 3.9-2.7 6.3 0 2.3.9 4.6 2.6 6.3 1.8 1.8 3.9 2.6 6.3 2.6 4.9 0 8.8-4 8.8-9 .1-4.8-3.8-8.8-8.7-8.8zM31 62c-2.6 0-5.1-2.3-5.1-4.9s2.3-4.9 5.1-4.9c2.6 0 4.9 2.3 4.9 4.9S33.8 62 31 62zM17.8 50.6h-4v-5.3c0-1.1-.9-1.9-1.9-1.9-1.1 0-1.9.9-1.9 1.9v7.2c0 1.1.9 1.9 1.9 1.9h6c1.1 0 1.9-.9 1.9-1.9.1-1.1-.8-1.9-2-1.9zM27.8 39.8c0-1.1-.9-1.9-1.9-1.9h-24c-1.1 0-1.9.9-1.9 1.9 0 1.1.9 1.9 1.9 1.9h23.9c1.1.1 2-.8 2-1.9zM6 32.6l23.9.2c1.1 0 1.9-.9 1.9-1.9 0-1.1-.9-1.9-1.9-1.9L6 28.8c-1.1 0-1.9.9-1.9 1.9-.1 1.1.8 1.9 1.9 1.9zM10 23.7h24c1.1 0 1.9-.9 1.9-1.9 0-1.1-.9-1.9-1.9-1.9H10c-1.1 0-1.9.9-1.9 1.9-.2 1 .9 1.9 1.9 1.9z"/><path class="st0" d="M96.3 21.1L82 9.5c-.3-.4-.7-.5-1.2-.5H64.1V2c0-1.1-.9-1.9-1.9-1.9H12c-1.1-.1-2 .8-2 1.8v14.4c0 1.1.9 1.9 1.9 1.9 1.1 0 1.9-.9 1.9-1.9V3.9h46.5v46.7H44.2c-1.1 0-1.9.9-1.9 1.9 0 1.1.9 1.9 1.9 1.9h24.1c1.1 0 1.9-.9 1.9-1.9 0-1.1-.9-1.9-1.9-1.9h-4V12.8h15.8L93 23.5v27h-2.1c-1.1 0-1.9.9-1.9 1.9 0 1.1.9 1.9 1.9 1.9h4c1.1 0 1.9-.9 1.9-1.9l.2-29.8c0-.5-.4-1.2-.7-1.5z"/></svg>