<?xml version="1.0" encoding="utf-8"?>
<!-- Generator: Adobe Illustrator 21.1.0, SVG Export Plug-In . SVG Version: 6.00 Build 0)  -->
<svg version="1.1" id="Layer_1" xmlns="http://www.w3.org/2000/svg" xmlns:xlink="http://www.w3.org/1999/xlink" x="0px" y="0px"
	 width="23.242px" height="33.186px" viewBox="0 0 23.242 33.186" enable-background="new 0 0 23.242 33.186" xml:space="preserve">
<path fill="#B4BBC2" d="M19.841,3.404C17.646,1.211,14.728,0,11.624,0C8.516,0,5.599,1.211,3.403,3.404
	c-4.06,4.063-4.566,11.704-1.092,16.335l9.313,13.447l9.295-13.429C24.408,15.108,23.902,7.467,19.841,3.404L19.841,3.404z
	 M11.73,15.758c-2.34,0-4.243-1.903-4.243-4.243c0-2.338,1.903-4.241,4.243-4.241c2.338,0,4.241,1.903,4.241,4.241
	C15.971,13.855,14.068,15.758,11.73,15.758L11.73,15.758z M11.73,15.758"/>
</svg>
