<?xml version="1.0" encoding="utf-8"?>
<!-- Generator: Adobe Illustrator 21.1.0, SVG Export Plug-In . SVG Version: 6.00 Build 0)  -->
<svg version="1.1" id="Layer_1" xmlns="http://www.w3.org/2000/svg" xmlns:xlink="http://www.w3.org/1999/xlink" x="0px" y="0px"
	 width="30px" height="30px" viewBox="0 0 30 30" enable-background="new 0 0 30 30" xml:space="preserve">
<path fill="#1E88E5" d="M15,0L15,0c8.284,0,15,6.716,15,15v0c0,8.284-6.716,15-15,15h0C6.716,30,0,23.284,0,15v0
	C0,6.716,6.716,0,15,0z"/>
<path fill="#FFFFFF" d="M15,5.375c-5.315,0-9.625,3.99-9.625,8.912c0,2.804,1.399,5.306,3.587,6.94v3.399l3.277-1.799
	c0.875,0.242,1.801,0.373,2.761,0.373c5.315,0,9.625-3.99,9.625-8.912C24.625,9.365,20.315,5.375,15,5.375z"/>
<polygon fill="#1E88E5" points="15.956,17.376 13.506,14.762 8.723,17.376 13.983,11.791 16.494,14.406 21.218,11.791 "/>
</svg>
