<?xml version="1.0" encoding="utf-8"?>
<!-- Generator: Adobe Illustrator 21.1.0, SVG Export Plug-In . SVG Version: 6.00 Build 0)  -->
<svg version="1.1" id="Layer_1" xmlns="http://www.w3.org/2000/svg" xmlns:xlink="http://www.w3.org/1999/xlink" x="0px" y="0px"
	 viewBox="0 0 44 76" style="enable-background:new 0 0 44 76;" xml:space="preserve">
<style type="text/css">
	.st0{fill:#FFFFFF;}
</style>
<path class="st0" d="M38.3,0H5.7C2.5,0,0,2.5,0,5.5v64.9C0,73.5,2.5,76,5.7,76h32.7c3.1,0,5.7-2.5,5.7-5.5V5.5C44,2.5,41.5,0,38.3,0
	z M13.9,3.4h16.1c0.4,0,0.7,0.6,0.7,1.3c0,0.7-0.3,1.3-0.7,1.3H13.9c-0.4,0-0.7-0.6-0.7-1.3C13.2,4,13.5,3.4,13.9,3.4z M22,70.5
	c-2,0-3.6-1.6-3.6-3.5c0-1.9,1.6-3.5,3.6-3.5c2,0,3.6,1.6,3.6,3.5C25.6,69,24,70.5,22,70.5z M39.8,58.4H4.2V9.3h35.5V58.4z"/>
</svg>
