<?xml version="1.0" encoding="utf-8"?>
<!-- Generator: Adobe Illustrator 21.1.0, SVG Export Plug-In . SVG Version: 6.00 Build 0)  -->
<svg version="1.1" id="Layer_1" xmlns="http://www.w3.org/2000/svg" xmlns:xlink="http://www.w3.org/1999/xlink" x="0px" y="0px"
	 viewBox="0 0 61 61" style="enable-background:new 0 0 61 61;" xml:space="preserve">
<style type="text/css">
	.st0{fill:#FFFFFF;}
	.st1{fill:none;stroke:#FFFFFF;stroke-width:1.5;stroke-miterlimit:10;}
</style>
<path class="st0" d="M30.5,0C13.7,0,0,13.7,0,30.5S13.7,61,30.5,61S61,47.3,61,30.5S47.3,0,30.5,0z M30.5,57.7
	c-15,0-27.2-12.2-27.2-27.2c0-15,12.2-27.2,27.2-27.2c15,0,27.2,12.2,27.2,27.2C57.7,45.5,45.5,57.7,30.5,57.7z"/>
<path class="st1" d="M30.5,11.2c-2.5,0-4.5,2-4.5,4.5s2,4.5,4.5,4.5s4.5-2,4.5-4.5S33,11.2,30.5,11.2z M30.5,20
	c-2.4,0-4.3-1.9-4.3-4.3s1.9-4.3,4.3-4.3s4.3,1.9,4.3,4.3S32.9,20,30.5,20z"/>
<path class="st1" d="M30.5,26C28,26,26,28,26,30.5s2,4.5,4.5,4.5s4.5-2,4.5-4.5S33,26,30.5,26z M30.5,34.8c-2.4,0-4.3-1.9-4.3-4.3
	s1.9-4.3,4.3-4.3s4.3,1.9,4.3,4.3S32.9,34.8,30.5,34.8z"/>
<path class="st1" d="M30.5,40.8c-2.5,0-4.5,2-4.5,4.5s2,4.5,4.5,4.5s4.5-2,4.5-4.5S33,40.8,30.5,40.8z M30.5,49.6
	c-2.4,0-4.3-1.9-4.3-4.3s1.9-4.3,4.3-4.3s4.3,1.9,4.3,4.3S32.9,49.6,30.5,49.6z"/>
</svg>
