<svg id="Layer_1" xmlns="http://www.w3.org/2000/svg" viewBox="0 0 61 61"><style>.st0{fill:#fff}.st1{fill:none;stroke:#fff;stroke-width:1.5;stroke-miterlimit:10}</style><path class="st0" d="M30.5 0C13.7 0 0 13.7 0 30.5S13.7 61 30.5 61 61 47.3 61 30.5 47.3 0 30.5 0zm0 57.7c-15 0-27.2-12.2-27.2-27.2S15.5 3.3 30.5 3.3s27.2 12.2 27.2 27.2-12.2 27.2-27.2 27.2z"/><path class="st1" d="M30.5 11.2c-2.5 0-4.5 2-4.5 4.5s2 4.5 4.5 4.5 4.5-2 4.5-4.5-2-4.5-4.5-4.5zm0 8.8c-2.4 0-4.3-1.9-4.3-4.3s1.9-4.3 4.3-4.3 4.3 1.9 4.3 4.3-1.9 4.3-4.3 4.3zM30.5 26C28 26 26 28 26 30.5s2 4.5 4.5 4.5 4.5-2 4.5-4.5-2-4.5-4.5-4.5zm0 8.8c-2.4 0-4.3-1.9-4.3-4.3s1.9-4.3 4.3-4.3 4.3 1.9 4.3 4.3-1.9 4.3-4.3 4.3zM30.5 40.8c-2.5 0-4.5 2-4.5 4.5s2 4.5 4.5 4.5 4.5-2 4.5-4.5-2-4.5-4.5-4.5zm0 8.8c-2.4 0-4.3-1.9-4.3-4.3s1.9-4.3 4.3-4.3 4.3 1.9 4.3 4.3-1.9 4.3-4.3 4.3z"/></svg>