<svg id="Layer_1" xmlns="http://www.w3.org/2000/svg" viewBox="0 0 73 72"><style>.st0{fill:#fff}</style><path class="st0" d="M37.3 52.8c-1.3 0-2.4-1.1-2.4-2.4S36 48 37.3 48s2.4 1.1 2.4 2.4-1.1 2.4-2.4 2.4zm0-9.6c-1.3 0-2.4-1.1-2.4-2.4s1.1-2.4 2.4-2.4c1.3 0 2.4 1.1 2.4 2.4s-1.1 2.4-2.4 2.4zm9.5 9.6c-1.3 0-2.4-1.1-2.4-2.4s1.1-2.4 2.4-2.4 2.4 1.1 2.4 2.4-1.1 2.4-2.4 2.4zm0-9.6c-1.3 0-2.4-1.1-2.4-2.4s1.1-2.4 2.4-2.4 2.4 1.1 2.4 2.4-1.1 2.4-2.4 2.4zm9.5 9.6c-1.3 0-2.4-1.1-2.4-2.4S55 48 56.3 48s2.4 1.1 2.4 2.4-1 2.4-2.4 2.4zm0-9.6c-1.3 0-2.4-1.1-2.4-2.4s1.1-2.4 2.4-2.4 2.4 1.1 2.4 2.4-1 2.4-2.4 2.4zm0-9.6h-19c-1.3 0-2.4-1.1-2.4-2.4 0-1.3 1.1-2.4 2.4-2.4h19c1.3 0 2.4 1.1 2.4 2.4 0 1.3-1 2.4-2.4 2.4zM65.9 62.4H7.1c-1.3 0-2.4 1.1-2.4 2.4v2.4h63.5v-2.4c0-1.3-1-2.4-2.3-2.4z"/><path class="st0" d="M68.2 58V31.2c0-6.6-5.3-12-11.9-12h-7.1v-4.8h8.7c1.3 0 2.4-1.1 2.4-2.4V2.4c0-1.3-1.1-2.4-2.4-2.4H35.7c-1.3 0-2.4 1.1-2.4 2.4V12c0 1.3 1.1 2.4 2.4 2.4h8.7v4.8H28.6V12c0-1.3-1.1-2.4-2.4-2.4h-9.5c-1.3 0-2.4 1.1-2.4 2.4v7.4c-5.4 1.1-9.5 6-9.5 11.8V58C2 59 0 61.7 0 64.8v4.8C0 70.9 1.1 72 2.4 72h68.2c1.3 0 2.4-1.1 2.4-2.4v-4.8c0-3.1-2-5.8-4.8-6.8zM38.1 9.6V4.8h17.5v4.8H38.1zM19 14.4h4.8v19.2H19V14.4zM9.5 31.2c0-3.1 2-5.8 4.8-6.8V36c0 1.3 1.1 2.4 2.4 2.4h9.5c1.3 0 2.4-1.1 2.4-2.4V24h27.8c3.9 0 7.1 3.2 7.1 7.2v26.4h-54V31.2zm58.7 36H4.8v-2.4c0-1.3 1.1-2.4 2.4-2.4h58.7c1.3 0 2.4 1.1 2.4 2.4v2.4h-.1z"/><path class="st0" d="M56.3 28.8h-19c-1.3 0-2.4 1.1-2.4 2.4 0 1.3 1.1 2.4 2.4 2.4h19c1.3 0 2.4-1.1 2.4-2.4 0-1.3-1-2.4-2.4-2.4z"/><ellipse class="st0" cx="56.3" cy="50.4" rx="2.4" ry="2.4"/><ellipse class="st0" cx="46.8" cy="50.4" rx="2.4" ry="2.4"/><ellipse class="st0" cx="37.3" cy="50.4" rx="2.4" ry="2.4"/><ellipse class="st0" cx="56.3" cy="40.8" rx="2.4" ry="2.4"/><ellipse class="st0" cx="46.8" cy="40.8" rx="2.4" ry="2.4"/><ellipse class="st0" cx="37.3" cy="40.8" rx="2.4" ry="2.4"/></svg>