<?xml version="1.0" encoding="utf-8"?>
<!-- Generator: Adobe Illustrator 21.1.0, SVG Export Plug-In . SVG Version: 6.00 Build 0)  -->
<svg version="1.1" id="Layer_1" xmlns="http://www.w3.org/2000/svg" xmlns:xlink="http://www.w3.org/1999/xlink" x="0px" y="0px"
	 viewBox="0 0 73 72" style="enable-background:new 0 0 73 72;" xml:space="preserve">
<style type="text/css">
	.st0{fill:#FFFFFF;}
</style>
<g>
	<path class="st0" d="M37.3,52.8c-1.3,0-2.4-1.1-2.4-2.4S36,48,37.3,48s2.4,1.1,2.4,2.4S38.6,52.8,37.3,52.8z M37.3,43.2
		c-1.3,0-2.4-1.1-2.4-2.4s1.1-2.4,2.4-2.4c1.3,0,2.4,1.1,2.4,2.4S38.6,43.2,37.3,43.2z M46.8,52.8c-1.3,0-2.4-1.1-2.4-2.4
		s1.1-2.4,2.4-2.4s2.4,1.1,2.4,2.4S48.1,52.8,46.8,52.8z M46.8,43.2c-1.3,0-2.4-1.1-2.4-2.4s1.1-2.4,2.4-2.4s2.4,1.1,2.4,2.4
		S48.1,43.2,46.8,43.2z M56.3,52.8c-1.3,0-2.4-1.1-2.4-2.4S55,48,56.3,48s2.4,1.1,2.4,2.4S57.7,52.8,56.3,52.8z M56.3,43.2
		c-1.3,0-2.4-1.1-2.4-2.4s1.1-2.4,2.4-2.4s2.4,1.1,2.4,2.4S57.7,43.2,56.3,43.2z M56.3,33.6h-19c-1.3,0-2.4-1.1-2.4-2.4
		c0-1.3,1.1-2.4,2.4-2.4h19c1.3,0,2.4,1.1,2.4,2.4C58.7,32.5,57.7,33.6,56.3,33.6z"/>
	<path class="st0" d="M65.9,62.4H7.1c-1.3,0-2.4,1.1-2.4,2.4v2.4h63.5v-2.4C68.2,63.5,67.2,62.4,65.9,62.4z"/>
	<path class="st0" d="M68.2,58V31.2c0-6.6-5.3-12-11.9-12h-7.1v-4.8h8.7c1.3,0,2.4-1.1,2.4-2.4V2.4c0-1.3-1.1-2.4-2.4-2.4H35.7
		c-1.3,0-2.4,1.1-2.4,2.4V12c0,1.3,1.1,2.4,2.4,2.4h8.7v4.8H28.6V12c0-1.3-1.1-2.4-2.4-2.4h-9.5c-1.3,0-2.4,1.1-2.4,2.4v7.4
		c-5.4,1.1-9.5,6-9.5,11.8V58C2,59,0,61.7,0,64.8v4.8C0,70.9,1.1,72,2.4,72h68.2c1.3,0,2.4-1.1,2.4-2.4v-4.8C73,61.7,71,59,68.2,58z
		 M38.1,9.6V4.8h17.5v4.8H38.1z M19,14.4h4.8v19.2H19V14.4z M9.5,31.2c0-3.1,2-5.8,4.8-6.8V36c0,1.3,1.1,2.4,2.4,2.4h9.5
		c1.3,0,2.4-1.1,2.4-2.4V24h27.8c3.9,0,7.1,3.2,7.1,7.2v26.4h-54V31.2z M68.2,67.2H4.8v-2.4c0-1.3,1.1-2.4,2.4-2.4h58.7
		c1.3,0,2.4,1.1,2.4,2.4v2.4H68.2z"/>
	<path class="st0" d="M56.3,28.8h-19c-1.3,0-2.4,1.1-2.4,2.4c0,1.3,1.1,2.4,2.4,2.4h19c1.3,0,2.4-1.1,2.4-2.4
		C58.7,29.9,57.7,28.8,56.3,28.8z"/>
	<ellipse class="st0" cx="56.3" cy="50.4" rx="2.4" ry="2.4"/>
	<ellipse class="st0" cx="46.8" cy="50.4" rx="2.4" ry="2.4"/>
	<ellipse class="st0" cx="37.3" cy="50.4" rx="2.4" ry="2.4"/>
	<ellipse class="st0" cx="56.3" cy="40.8" rx="2.4" ry="2.4"/>
	<ellipse class="st0" cx="46.8" cy="40.8" rx="2.4" ry="2.4"/>
	<ellipse class="st0" cx="37.3" cy="40.8" rx="2.4" ry="2.4"/>
</g>
</svg>
