<?xml version="1.0" encoding="utf-8"?>
<!-- Generator: Adobe Illustrator 21.1.0, SVG Export Plug-In . SVG Version: 6.00 Build 0)  -->
<svg version="1.1" id="Layer_1" xmlns="http://www.w3.org/2000/svg" xmlns:xlink="http://www.w3.org/1999/xlink" x="0px" y="0px"
	 viewBox="0 0 13 13" style="enable-background:new 0 0 13 13;" xml:space="preserve">
<style type="text/css">
	.st0{fill:#FFFFFF;}
</style>
<g>
	<path class="st0" d="M11.2,1.7C10.1,0.6,8.6,0,7,0C6.6,0,6.3,0.3,6.3,0.7S6.6,1.4,7,1.4c1.2,0,2.4,0.5,3.3,1.3
		c0.9,0.8,1.3,2,1.3,3.2c0,0.4,0.3,0.7,0.7,0.7c0.4,0,0.7-0.3,0.7-0.7C13,4.3,12.4,2.8,11.2,1.7z"/>
	<path class="st0" d="M9,5.8C9,6,9,6.2,9.2,6.3c0.1,0.1,0.3,0.2,0.5,0.2h0c0.4,0,0.7-0.3,0.7-0.7C10.3,4,8.8,2.6,7,2.6
		c-0.4,0-0.7,0.3-0.7,0.7S6.6,3.9,7,3.9C8.1,3.9,9,4.8,9,5.8z"/>
	<path class="st0" d="M8.2,7.9L8.2,7.9C7.4,7.8,6.9,8.4,6.8,8.7C6.5,9,6.6,9.4,6.9,9.6c0.3,0.2,0.8,0.1,1-0.2
		c0.1-0.2,0.2-0.2,0.2-0.2c0.3,0,1.8,1.1,1.9,1.4c0,0,0,0.1,0,0.2c-0.1,0.4-0.4,0.7-0.7,0.8c-0.3,0.1-0.6,0.1-1,0
		c-1.6-0.6-3-1.5-4.2-2.6c-1.1-1.1-2-2.5-2.7-4c-0.2-0.4-0.2-0.7,0-1c0.1-0.3,0.4-0.5,0.8-0.6c0.1,0,0.1,0,0.2,0
		c0.3,0.1,1.4,1.6,1.4,1.9c0,0,0,0.1-0.2,0.2C3.3,5.5,3.3,5.9,3.5,6.2c0.1,0.1,0.3,0.3,0.4,0.3c0.2,0,0.4,0,0.5-0.1
		C4.7,6.2,5.3,5.8,5.3,5c0-0.8-1.5-2.8-2.3-3C2.6,1.9,2.3,1.9,1.9,2C1.1,2.2,0.5,2.7,0.2,3.3c-0.3,0.6-0.3,1.3,0,2
		C1,7.1,2,8.6,3.2,9.9c1.3,1.2,2.8,2.2,4.6,2.9C8.2,12.9,8.6,13,9,13c0.3,0,0.7-0.1,1-0.2c0.6-0.3,1.1-0.8,1.4-1.6
		c0.1-0.4,0.1-0.7,0-1.1C11,9.4,9,7.9,8.2,7.9z"/>
</g>
</svg>
