<svg id="Layer_1" xmlns="http://www.w3.org/2000/svg" viewBox="0 0 13 13"><style>.st0{fill:#fff}</style><path class="st0" d="M11.2 1.7C10.1.6 8.6 0 7 0c-.4 0-.7.3-.7.7s.3.7.7.7c1.2 0 2.4.5 3.3 1.3.9.8 1.3 2 1.3 3.2 0 .4.3.7.7.7.4 0 .7-.3.7-.7 0-1.6-.6-3.1-1.8-4.2z"/><path class="st0" d="M9 5.8c0 .2 0 .4.2.5.1.1.3.2.5.2.4 0 .7-.3.7-.7A3.4 3.4 0 0 0 7 2.6c-.4 0-.7.3-.7.7s.3.6.7.6c1.1 0 2 .9 2 1.9zM8.2 7.9c-.8-.1-1.3.5-1.4.8-.3.3-.2.7.1.9.3.2.8.1 1-.2.1-.2.2-.2.2-.2.3 0 1.8 1.1 1.9 1.4v.2c-.1.4-.4.7-.7.8-.3.1-.6.1-1 0-1.6-.6-3-1.5-4.2-2.6-1.1-1.1-2-2.5-2.7-4-.2-.4-.2-.7 0-1 .1-.3.4-.5.8-.6h.2c.3.1 1.4 1.6 1.4 1.9 0 0 0 .1-.2.2-.3 0-.3.4-.1.7.1.1.3.3.4.3.2 0 .4 0 .5-.1.3-.2.9-.6.9-1.4 0-.8-1.5-2.8-2.3-3-.4-.1-.7-.1-1.1 0-.8.2-1.4.7-1.7 1.3-.3.6-.3 1.3 0 2C1 7.1 2 8.6 3.2 9.9c1.3 1.2 2.8 2.2 4.6 2.9.4.1.8.2 1.2.2.3 0 .7-.1 1-.2.6-.3 1.1-.8 1.4-1.6.1-.4.1-.7 0-1.1C11 9.4 9 7.9 8.2 7.9z"/></svg>