<?xml version="1.0" encoding="utf-8"?>
<!-- Generator: Adobe Illustrator 21.1.0, SVG Export Plug-In . SVG Version: 6.00 Build 0)  -->
<svg version="1.1" id="Layer_1" xmlns="http://www.w3.org/2000/svg" xmlns:xlink="http://www.w3.org/1999/xlink" x="0px" y="0px"
	 width="64px" height="64px" viewBox="0 0 64 64" enable-background="new 0 0 64 64" xml:space="preserve">
<g>
	<g>
		<circle fill="#229D90" cx="32.302" cy="31.698" r="4.209"/>
	</g>
	<path fill="#229D90" d="M57.15,51.72C61.426,46.279,64,39.441,64,32C64,14.355,49.645,0,32,0S0,14.355,0,32s14.355,32,32,32
		c7.441,0,14.279-2.574,19.72-6.85l5.725,5.725C58.194,63.625,59.178,64,60.16,64c0.983,0,1.966-0.375,2.715-1.125
		c1.5-1.499,1.5-3.931,0-5.43L57.15,51.72z M32,56.32C18.59,56.32,7.68,45.41,7.68,32S18.59,7.68,32,7.68S56.32,18.59,56.32,32
		c0,5.321-1.738,10.233-4.648,14.242L43,37.57c-1.499-1.5-3.931-1.5-5.43,0c-1.5,1.499-1.5,3.931,0,5.43l8.672,8.672
		C42.233,54.582,37.321,56.32,32,56.32z"/>
</g>
</svg>
