<?xml version="1.0" encoding="utf-8"?>
<!-- Generator: Adobe Illustrator 21.1.0, SVG Export Plug-In . SVG Version: 6.00 Build 0)  -->
<svg version="1.1" id="Layer_1" xmlns="http://www.w3.org/2000/svg" xmlns:xlink="http://www.w3.org/1999/xlink" x="0px" y="0px"
	 width="25px" height="25px" viewBox="0 0 25 25" enable-background="new 0 0 25 25" xml:space="preserve">
<g>
	<circle fill="#FFFFFF" cx="12.618" cy="12.382" r="1.644"/>
</g>
<path fill="#FFFFFF" d="M22.324,20.203C23.994,18.078,25,15.407,25,12.5C25,5.607,19.393,0,12.5,0S0,5.607,0,12.5S5.607,25,12.5,25
	c2.906,0,5.578-1.006,7.703-2.676l2.236,2.236C22.732,24.854,23.116,25,23.5,25s0.768-0.146,1.061-0.439
	c0.586-0.585,0.586-1.536,0-2.121L22.324,20.203z M12.5,22C7.262,22,3,17.738,3,12.5S7.262,3,12.5,3S22,7.262,22,12.5
	c0,2.079-0.679,3.997-1.816,5.563l-3.387-3.387c-0.585-0.586-1.536-0.586-2.121,0c-0.586,0.585-0.586,1.536,0,2.121l3.387,3.387
	C16.497,21.321,14.579,22,12.5,22z"/>
</svg>
