<svg id="Layer_1" xmlns="http://www.w3.org/2000/svg" viewBox="0 0 75 78"><style>.st0{fill:none}.st1{fill:#fff}</style><path class="st0" d="M35.5 4H18.3L5.9 19.8h29.6zM56.7 4H39.5v15.8h29.6zM4 74h67V23.8H4V74zm21.1-26.3c.8-.8 2.1-.8 2.8 0l5.6 5.6L47 39.9c.8-.8 2.1-.8 2.8 0 .8.8.8 2.1 0 2.8L35 57.6c-.4.4-.9.6-1.4.6-.5 0-1-.2-1.4-.6l-7-7c-.8-.8-.8-2.1-.1-2.9z"/><path class="st1" d="M74.6 20.2L59.2.8c-.4-.5-1-.8-1.6-.8H17.4c-.6 0-1.2.3-1.6.8L.4 20.2c-.2.3-.4.8-.4 1.2V76c0 1.1.9 2 2 2h71c1.1 0 2-.9 2-2V21.4c0-.4-.1-.9-.4-1.2zM39.5 4h17.2l12.4 15.7H39.5V4zM18.3 4h17.2v15.7H5.9L18.3 4zM71 74H4V23.8h67V74z"/><path class="st1" d="M32.2 57.6c.4.4.9.6 1.4.6.5 0 1-.2 1.4-.6l14.9-14.8c.8-.8.8-2.1 0-2.8-.8-.8-2-.8-2.8 0L33.6 53.3 28 47.7c-.8-.8-2.1-.8-2.8 0-.8.8-.8 2.1 0 2.8l7 7.1z"/></svg>