<?xml version="1.0" encoding="utf-8"?>
<!-- Generator: Adobe Illustrator 21.1.0, SVG Export Plug-In . SVG Version: 6.00 Build 0)  -->
<svg version="1.1" id="Layer_1" xmlns="http://www.w3.org/2000/svg" xmlns:xlink="http://www.w3.org/1999/xlink" x="0px" y="0px"
	 viewBox="0 0 75 78" style="enable-background:new 0 0 75 78;" xml:space="preserve">
<style type="text/css">
	.st0{fill:none;}
	.st1{fill:#FFFFFF;}
</style>
<g>
	<polygon class="st0" points="35.5,4 18.3,4 5.9,19.8 35.5,19.8 	"/>
	<polygon class="st0" points="56.7,4 39.5,4 39.5,19.8 69.1,19.8 	"/>
	<path class="st0" d="M4,74h67V23.8H4V74z M25.1,47.7c0.8-0.8,2.1-0.8,2.8,0l5.6,5.6L47,39.9c0.8-0.8,2.1-0.8,2.8,0
		c0.8,0.8,0.8,2.1,0,2.8L35,57.6c-0.4,0.4-0.9,0.6-1.4,0.6c-0.5,0-1-0.2-1.4-0.6l-7-7C24.4,49.8,24.4,48.5,25.1,47.7z"/>
	<path class="st1" d="M74.6,20.2L59.2,0.8c-0.4-0.5-1-0.8-1.6-0.8H17.4c-0.6,0-1.2,0.3-1.6,0.8L0.4,20.2C0.2,20.5,0,21,0,21.4V76
		c0,1.1,0.9,2,2,2h71c1.1,0,2-0.9,2-2V21.4C75,21,74.9,20.5,74.6,20.2z M39.5,4h17.2l12.4,15.7H39.5V4z M18.3,4h17.2v15.7H5.9
		L18.3,4z M71,74H4V23.8h67V74z"/>
	<path class="st1" d="M32.2,57.6c0.4,0.4,0.9,0.6,1.4,0.6c0.5,0,1-0.2,1.4-0.6l14.9-14.8c0.8-0.8,0.8-2.1,0-2.8
		c-0.8-0.8-2-0.8-2.8,0L33.6,53.3L28,47.7c-0.8-0.8-2.1-0.8-2.8,0c-0.8,0.8-0.8,2.1,0,2.8L32.2,57.6z"/>
</g>
</svg>
