<?xml version="1.0" encoding="utf-8"?>
<!-- Generator: Adobe Illustrator 21.1.0, SVG Export Plug-In . SVG Version: 6.00 Build 0)  -->
<svg version="1.1" id="Layer_1" xmlns="http://www.w3.org/2000/svg" xmlns:xlink="http://www.w3.org/1999/xlink" x="0px" y="0px"
	 width="34.949px" height="33.144px" viewBox="0 0 34.949 33.144" enable-background="new 0 0 34.949 33.144" xml:space="preserve">
<g>
	<path fill="#FF4814" d="M33.58,2.801L33.58,2.801c-0.936-0.202-1.857,0.397-2.057,1.331l-0.641,2.989C27.818,2.7,22.72,0,17.295,0
		C8.186,0,0.775,7.411,0.775,16.52c0,0.955,0.777,1.732,1.732,1.732S4.24,17.475,4.24,16.52c0-7.199,5.856-13.055,13.055-13.055
		c4.242,0,8.224,2.083,10.654,5.507l-2.934-0.629c-0.934-0.203-1.856,0.397-2.056,1.331c-0.2,0.934,0.396,1.856,1.331,2.057
		l7.051,1.511c0.168,0.037,0.338,0.047,0.509,0.032c0.283-0.023,0.559-0.118,0.796-0.271c0.389-0.251,0.656-0.639,0.753-1.091
		l1.512-7.052C35.11,3.925,34.514,3.002,33.58,2.801z"/>
	<path fill="#FF4814" d="M32.216,14.405c-0.954,0.032-1.704,0.833-1.673,1.788c0.115,3.485-1.133,6.807-3.517,9.352
		c-2.383,2.546-5.615,4.012-9.1,4.127c-4.247,0.139-8.234-1.76-10.781-5.084l2.972,0.797c0.446,0.119,0.913,0.058,1.314-0.172
		c0.4-0.231,0.688-0.605,0.807-1.051c0.12-0.447,0.059-0.914-0.172-1.315c-0.231-0.4-0.605-0.687-1.052-0.807L4.048,20.17
		c-0.446-0.119-0.914-0.058-1.313,0.174c-0.401,0.23-0.688,0.604-0.808,1.052L0.06,28.362c-0.247,0.922,0.302,1.874,1.226,2.122
		c0.928,0.246,1.88-0.326,2.12-1.225l0.768-2.863c3.104,4.245,8.005,6.748,13.318,6.748c0.182,0,0.366-0.003,0.55-0.009
		c4.41-0.146,8.5-2,11.515-5.221c3.015-3.222,4.596-7.425,4.45-11.835c-0.015-0.463-0.21-0.893-0.55-1.21
		C33.118,14.553,32.68,14.387,32.216,14.405z"/>
</g>
</svg>
