<?xml version="1.0" encoding="utf-8"?>
<!-- Generator: Adobe Illustrator 21.1.0, SVG Export Plug-In . SVG Version: 6.00 Build 0)  -->
<svg version="1.1" id="Layer_1" xmlns="http://www.w3.org/2000/svg" xmlns:xlink="http://www.w3.org/1999/xlink" x="0px" y="0px"
	 viewBox="0 0 176 181" style="enable-background:new 0 0 176 181;" xml:space="preserve">
<style type="text/css">
	.st0{fill:#5B5B5B;}
	.st1{fill:#FFFFFF;}
</style>
<g>
	<g>
		<g>
			<g>
				<path class="st0" d="M6.6,179.6H170c2.5,0,4.6-2,4.6-4.5c0-2.5-2.1-4.5-4.6-4.5h-9.8V6.8c0-1.7-0.9-3.2-2.4-4
					c-1.5-0.8-3.3-0.7-4.7,0.2l-19.8,13.1L113.4,3c-1.5-1-3.5-1-5.1,0L88.6,16.1L68.7,2.9c-1.5-1-3.5-1-5.1,0L43.8,16.1L24,2.9
					c-0.8-0.5-1.6-0.8-2.5-0.8c-0.7,0-1.5,0.2-2.2,0.5c-1.5,0.8-2.4,2.3-2.4,4L17,170.4H6.6c-2.5,0-4.6,2-4.6,4.5
					C2,177.4,4.1,179.6,6.6,179.6L6.6,179.6z M26,15.3l15.3,10.1c1.5,1,3.5,1,5.1,0l19.8-13.2L86,25.4c1.5,1,3.5,1,5.1,0l19.8-13.1
					l19.9,13.1c1.5,1,3.5,1,5.1,0L151,15.3v155.2H26L26,15.3z M26,15.3"/>
				<path class="st1" d="M170,181H6.6c-3.2,0-6-2.8-6-6.1c0-3.3,2.7-6,6-6h8.9L15.5,6.7c0-2.2,1.2-4.2,3.1-5.3
					c2.1-1,4.3-0.9,6.1,0.3l19.1,12.7l19-12.6c2-1.3,4.7-1.3,6.6,0l19.1,12.6l19-12.6c2-1.3,4.7-1.3,6.6,0l19.1,12.6l19-12.6
					c1.8-1.2,4.2-1.3,6.1-0.3c1.9,1,3.1,3.1,3.1,5.3v162.3h8.4c3.3,0,6,2.7,6,6C176,178.3,173.3,181,170,181z M6.6,171.8
					c-1.7,0-3.1,1.4-3.1,3.1c0,1.8,1.4,3.2,3.1,3.2H170c1.7,0,3.1-1.4,3.1-3.1c0-1.7-1.4-3.1-3.1-3.1h-11.3V6.8
					c0-1.2-0.6-2.2-1.6-2.8c-1-0.5-2.2-0.5-3.2,0.2l-20.6,13.7L112.6,4.1c-1-0.7-2.4-0.7-3.5,0L88.6,17.8L67.9,4.1
					c-1-0.7-2.4-0.7-3.5,0L43.8,17.8L23.2,4.1c-0.5-0.3-1.1-0.5-1.7-0.5c-0.5,0-1,0.1-1.5,0.4c-1,0.5-1.6,1.6-1.6,2.7l0.1,165.1H6.6
					z M152.5,172H24.6l0-159.3l17.5,11.6c1,0.7,2.4,0.7,3.5,0l20.6-13.7l20.7,13.7c1,0.7,2.4,0.7,3.5,0l20.6-13.7l20.7,13.7
					c1,0.7,2.4,0.7,3.5,0l17.5-11.6V172z M27.4,169.1h122.2V18l-13,8.6c-2,1.3-4.7,1.3-6.6,0L110.9,14l-19,12.6
					c-2,1.3-4.7,1.3-6.6,0L66.1,13.9l-19,12.6c-2,1.3-4.7,1.3-6.6,0l-13.1-8.7L27.4,169.1z"/>
			</g>
		</g>
	</g>
	<g>
		<g>
			<ellipse class="st0" cx="61.9" cy="73.6" rx="5.9" ry="5.9"/>
			<path class="st1" d="M61.9,80.9c-4.1,0-7.4-3.3-7.4-7.3c0-4,3.3-7.3,7.4-7.3s7.4,3.3,7.4,7.3C69.3,77.6,66,80.9,61.9,80.9z
				 M61.9,69.1c-2.5,0-4.5,2-4.5,4.5c0,2.5,2,4.5,4.5,4.5s4.5-2,4.5-4.5C66.4,71.1,64.4,69.1,61.9,69.1z"/>
		</g>
		<g>
			<ellipse class="st0" cx="114.7" cy="73.6" rx="5.9" ry="5.9"/>
			<path class="st1" d="M114.7,80.9c-4.1,0-7.4-3.3-7.4-7.3c0-4,3.3-7.3,7.4-7.3s7.4,3.3,7.4,7.3C122,77.6,118.7,80.9,114.7,80.9z
				 M114.7,69.1c-2.5,0-4.5,2-4.5,4.5c0,2.5,2,4.5,4.5,4.5c2.5,0,4.5-2,4.5-4.5C119.2,71.1,117.2,69.1,114.7,69.1z"/>
		</g>
		<g>
			<path class="st0" d="M120.6,116.6c-0.5,0-1.1-0.2-1.5-0.5c-13.3-9.5-27.6-12.4-42.6-8.7c-11.3,2.8-18.8,8.6-18.9,8.6
				c-1.1,0.9-2.8,0.7-3.7-0.4c-0.9-1.1-0.7-2.8,0.4-3.7c0.3-0.3,8.3-6.4,20.6-9.5c11.4-2.9,28.9-3.6,47.1,9.5
				c1.2,0.8,1.4,2.5,0.6,3.6C122.2,116.3,121.4,116.6,120.6,116.6z"/>
		</g>
	</g>
</g>
</svg>
