<?xml version="1.0" encoding="utf-8"?>
<!-- Generator: Adobe Illustrator 21.1.0, SVG Export Plug-In . SVG Version: 6.00 Build 0)  -->
<svg version="1.1" id="Layer_1" xmlns="http://www.w3.org/2000/svg" xmlns:xlink="http://www.w3.org/1999/xlink" x="0px" y="0px"
	 viewBox="0 0 42 32" style="enable-background:new 0 0 42 32;" xml:space="preserve">
<style type="text/css">
	.st0{fill:#5B5B5B;}
</style>
<path class="st0" d="M36.8,27.7l-6.9-6.9c1.3-2.1,2-4.6,2-7.1C31.9,6.2,25.7,0,18.2,0C10.6,0,4.4,6.2,4.4,13.7s6.2,13.7,13.7,13.7
	c3,0,5.8-1,8.3-2.8l6.7,6.7c0.5,0.5,1.1,0.7,1.8,0.7c0.7,0,1.4-0.2,1.8-0.7l0.1-0.2C37.7,30.1,37.6,28.6,36.8,27.7z M18.2,22.3
	c-4.8,0-8.6-3.9-8.6-8.6s3.9-8.6,8.6-8.6c4.8,0,8.6,3.9,8.6,8.6S22.9,22.3,18.2,22.3z"/>
</svg>
