<?xml version="1.0" encoding="utf-8"?>
<!-- Generator: Adobe Illustrator 21.1.0, SVG Export Plug-In . SVG Version: 6.00 Build 0)  -->
<svg version="1.1" id="Layer_1" xmlns="http://www.w3.org/2000/svg" xmlns:xlink="http://www.w3.org/1999/xlink" x="0px" y="0px"
	 width="34.072px" height="34px" viewBox="0 0 34.072 34" enable-background="new 0 0 34.072 34" xml:space="preserve">
<path fill="#FFFFFF" d="M27.041,13.91c-0.004,2.075-0.522,4.239-1.658,6.237c-0.196,0.345-0.182,0.546,0.106,0.831
	c2.597,2.576,5.173,5.174,7.765,7.756c1.094,1.09,1.096,1.905-0.024,2.961c-0.535,0.505-1.054,1.027-1.591,1.529
	c-1.13,1.057-2.234,1.033-3.327-0.06c-2.37-2.37-4.741-4.741-7.111-7.111c-0.751-0.751-0.751-0.751-1.71-0.301
	c-5.415,2.537-11.669,1.255-15.746-3.207c-3.436-3.761-4.546-8.117-3.171-13.005C2.222,3.681,8.645-1.532,16.518,0.415
	C22.595,1.919,26.996,7.539,27.041,13.91z M4.252,12.922c-0.322,4.947,3.903,9.682,8.919,9.981c5.413,0.323,9.531-3.909,9.745-8.746
	c0.241-5.438-4.63-9.741-9.129-9.928C8.676,4.017,4.341,8.159,4.252,12.922z"/>
</svg>
