<?xml version="1.0" encoding="utf-8"?>
<!-- Generator: Adobe Illustrator 21.1.0, SVG Export Plug-In . SVG Version: 6.00 Build 0)  -->
<svg version="1.1" id="Layer_1" xmlns="http://www.w3.org/2000/svg" xmlns:xlink="http://www.w3.org/1999/xlink" x="0px" y="0px"
	 viewBox="0 0 30.5 29.5" style="enable-background:new 0 0 30.5 29.5;" xml:space="preserve">
<style type="text/css">
	.st0{fill:#5B5B5B;}
</style>
<path class="st0" d="M30.1,26.9l-7.3-7.3c1.4-2,2.2-4.5,2.2-7.1C25,5.6,19.4,0,12.5,0S0,5.6,0,12.5S5.6,25,12.5,25
	c3.2,0,6-1.2,8.3-3.1l7.2,7.2c0.3,0.3,0.7,0.4,1.1,0.4s0.8-0.1,1.1-0.4C30.6,28.5,30.6,27.5,30.1,26.9z M12.5,22
	C7.3,22,3,17.7,3,12.5C3,7.3,7.3,3,12.5,3S22,7.3,22,12.5C22,17.7,17.7,22,12.5,22z"/>
</svg>
