<?xml version="1.0" encoding="utf-8"?>
<!-- Generator: Adobe Illustrator 21.1.0, SVG Export Plug-In . SVG Version: 6.00 Build 0)  -->
<svg version="1.1" id="Layer_1" xmlns="http://www.w3.org/2000/svg" xmlns:xlink="http://www.w3.org/1999/xlink" x="0px" y="0px"
	 viewBox="0 0 40 31" style="enable-background:new 0 0 40 31;" xml:space="preserve">
<style type="text/css">
	.st0{fill:#F98727;}
</style>
<path class="st0" d="M4.8,16.5C1.3,21,0,26.4,0,30c0,0.5,0.3,0.9,0.7,1c0.1,0,0.2,0,0.2,0c0.4,0,0.7-0.2,0.9-0.5
	c5.1-9.4,14.7-10,21-10v6.8c0,0.4,0.2,0.8,0.6,0.9c0.3,0.2,0.7,0.1,1.1-0.2l15.2-13.2c0.2-0.2,0.3-0.4,0.3-0.8
	c0-0.3-0.1-0.6-0.3-0.8L24.5,0.3c-0.3-0.3-0.7-0.3-1.1-0.2S22.9,0.6,22.9,1v6.9C13.2,8.2,7.8,12.6,4.8,16.5z M2.5,25.8
	C4.1,19.2,9.4,10,23.9,10c0.6,0,1-0.4,1-1V3.3l12.5,10.8l-12.5,11v-5.7c0-0.3-0.2-0.6-0.3-0.8c-0.2-0.3-0.5-0.3-0.7-0.3
	C18,18.3,8.8,18.3,2.5,25.8z"/>
</svg>
