<?xml version="1.0" encoding="utf-8"?>
<!-- Generator: Adobe Illustrator 21.1.0, SVG Export Plug-In . SVG Version: 6.00 Build 0)  -->
<svg version="1.1" id="Layer_1" xmlns="http://www.w3.org/2000/svg" xmlns:xlink="http://www.w3.org/1999/xlink" x="0px" y="0px"
	 width="630.572px" height="146.279px" viewBox="0 0 630.572 146.279" enable-background="new 0 0 630.572 146.279"
	 xml:space="preserve">
<g>
	<linearGradient id="SVGID_1_" gradientUnits="userSpaceOnUse" x1="315.286" y1="148.9485" x2="315.286" y2="13.6004">
		<stop  offset="0" style="stop-color:#FFDD5E"/>
		<stop  offset="0.3" style="stop-color:#FD2D4A"/>
		<stop  offset="0.6" style="stop-color:#E81B97"/>
		<stop  offset="1" style="stop-color:#7024C4"/>
	</linearGradient>
	<circle fill="url(#SVGID_1_)" cx="315.286" cy="73.078" r="73.078"/>
	<path fill="#FFFFFF" d="M327.92,42.247h-25.268c-10.269,0-18.624,8.355-18.624,18.624v25.268c0,10.269,8.355,18.624,18.624,18.624
		h25.268c10.269,0,18.624-8.355,18.624-18.624V60.871C346.544,50.602,338.189,42.247,327.92,42.247z M340.255,86.139
		c0,6.812-5.522,12.335-12.335,12.335h-25.268c-6.812,0-12.335-5.522-12.335-12.335V60.871c0-6.812,5.522-12.335,12.335-12.335
		h25.268c6.812,0,12.335,5.522,12.335,12.335V86.139L340.255,86.139z"/>
	<path fill="#FFFFFF" d="M315.286,57.336c-8.915,0-16.169,7.253-16.169,16.169s7.253,16.169,16.169,16.169
		s16.169-7.253,16.169-16.169S324.201,57.336,315.286,57.336z M315.286,83.385c-5.456,0-9.88-4.423-9.88-9.88s4.423-9.88,9.88-9.88
		c5.456,0,9.88,4.423,9.88,9.88C325.166,78.961,320.742,83.385,315.286,83.385z"/>
	<circle fill="#FFFFFF" cx="331.486" cy="57.458" r="3.874"/>
	<g>
		<circle fill="#3B5998" cx="73.078" cy="73.201" r="73.078"/>
		<path fill="#FFFFFF" d="M84.824,49.82v9.33h-4.72c-0.807,0.073-1.39,0.457-1.756,1.153c-0.368,0.695-0.549,1.482-0.549,2.36v5.818
			h7.025v9.44h-7.025v18.661h-9.44V77.921h-7.025v-9.44h7.025v-9.33c0.071-2.634,0.988-4.83,2.744-6.586
			c1.756-1.756,3.988-2.671,6.696-2.744H84.824z"/>
	</g>
	<circle fill="#FF4813" cx="557.494" cy="73.078" r="73.078"/>
	<g>
		<path fill="#FFFFFF" d="M533.562,64.155c0.749,0.529,3.007,2.098,6.775,4.709c3.77,2.613,6.656,4.624,8.661,6.032
			c0.22,0.154,0.69,0.491,1.405,1.008c0.717,0.519,1.311,0.937,1.785,1.256c0.473,0.321,1.046,0.678,1.719,1.076
			c0.671,0.397,1.305,0.694,1.9,0.892c0.596,0.198,1.147,0.297,1.654,0.297h0.065c0.507,0,1.058-0.099,1.654-0.297
			c0.594-0.198,1.228-0.497,1.9-0.892c0.671-0.398,1.244-0.755,1.719-1.076c0.474-0.319,1.068-0.737,1.783-1.256
			c0.717-0.517,1.187-0.854,1.406-1.008c2.027-1.411,7.183-4.99,15.47-10.743c1.609-1.123,2.952-2.478,4.031-4.065
			c1.08-1.587,1.621-3.249,1.621-4.99c0-1.454-0.525-2.7-1.571-3.736c-1.046-1.036-2.286-1.553-3.718-1.553h-48.655
			c-1.698,0-3.003,0.573-3.919,1.719c-0.913,1.145-1.371,2.577-1.371,4.297c0,1.389,0.606,2.892,1.819,4.513
			C530.906,61.956,532.195,63.23,533.562,64.155L533.562,64.155z M533.562,64.155"/>
		<path fill="#FFFFFF" d="M583.804,67.691c-7.227,4.891-12.714,8.692-16.46,11.402c-1.256,0.927-2.276,1.648-3.059,2.165
			c-0.781,0.519-1.823,1.048-3.122,1.587c-1.302,0.541-2.512,0.81-3.637,0.81h-0.065c-1.125,0-2.337-0.269-3.637-0.81
			c-1.299-0.539-2.341-1.068-3.124-1.587c-0.781-0.517-1.801-1.238-3.057-2.165c-2.976-2.181-8.451-5.983-16.429-11.402
			c-1.256-0.838-2.369-1.797-3.338-2.876v26.244c0,1.456,0.517,2.7,1.553,3.736c1.036,1.036,2.282,1.553,3.737,1.553h48.655
			c1.454,0,2.7-0.517,3.736-1.553c1.036-1.036,1.553-2.28,1.553-3.736V64.815C586.162,65.873,585.06,66.831,583.804,67.691
			L583.804,67.691z M583.804,67.691"/>
	</g>
</g>
</svg>
