<svg id="Layer_1" xmlns="http://www.w3.org/2000/svg" viewBox="0 0 63 60"><style>.st0{fill:none}.st1{fill:#fff}</style><path class="st0" d="M31.5 7.9L25 23.7 7.9 25l13 11.1-4 16.6 14.6-8.9 14.6 8.9-4-16.6 13-11.1L38 23.7z"/><path class="st1" d="M62.8 22.5c-.5-1.4-1.7-2.4-3.2-2.5l-17.9-1.4-6.8-16.5c-1.1-2.7-5.6-2.7-6.7 0l-6.9 16.6-18 1.3c-1.5.1-2.7 1.1-3.2 2.5s0 2.9 1.1 3.9L15 38.1l-4.2 17.5c-.3 1.4.2 2.9 1.4 3.8.6.5 1.4.7 2.1.7.7 0 1.3-.2 1.9-.5l15.3-9.4 15.3 9.4c1.3.8 2.8.7 4-.1 1.2-.9 1.8-2.4 1.4-3.8L48 38.1l13.7-11.7c1.1-1 1.6-2.5 1.1-3.9zM42.1 36.1l4 16.6-14.6-8.9-14.6 9 4-16.6L7.9 25 25 23.7l6.5-15.8L38 23.7 55.1 25l-13 11.1z"/></svg>