<?xml version="1.0" encoding="utf-8"?>
<!-- Generator: Adobe Illustrator 21.1.0, SVG Export Plug-In . SVG Version: 6.00 Build 0)  -->
<svg version="1.1" id="Layer_1" xmlns="http://www.w3.org/2000/svg" xmlns:xlink="http://www.w3.org/1999/xlink" x="0px" y="0px"
	 viewBox="0 0 63 60" style="enable-background:new 0 0 63 60;" xml:space="preserve">
<style type="text/css">
	.st0{fill:none;}
	.st1{fill:#FFFFFF;}
</style>
<g>
	<polygon class="st0" points="31.5,7.9 25,23.7 7.9,25 20.9,36.1 16.9,52.7 31.5,43.8 46.1,52.7 42.1,36.1 55.1,25 38,23.7 	"/>
	<path class="st1" d="M62.8,22.5c-0.5-1.4-1.7-2.4-3.2-2.5l-17.9-1.4L34.9,2.1v0c-1.1-2.7-5.6-2.7-6.7,0l-6.9,16.6L3.3,20
		c-1.5,0.1-2.7,1.1-3.2,2.5c-0.5,1.4,0,2.9,1.1,3.9L15,38.1l-4.2,17.5c-0.3,1.4,0.2,2.9,1.4,3.8c0.6,0.5,1.4,0.7,2.1,0.7
		c0.7,0,1.3-0.2,1.9-0.5l15.3-9.4l15.3,9.4c1.3,0.8,2.8,0.7,4-0.1c1.2-0.9,1.8-2.4,1.4-3.8L48,38.1l13.7-11.7
		C62.8,25.4,63.3,23.9,62.8,22.5z M42.1,36.1l4,16.6l-14.6-8.9l-14.6,9l4-16.6L7.9,25L25,23.7l6.5-15.8L38,23.7L55.1,25L42.1,36.1z"
		/>
</g>
</svg>
