<?xml version="1.0" encoding="utf-8"?>
<!-- Generator: Adobe Illustrator 21.1.0, SVG Export Plug-In . SVG Version: 6.00 Build 0)  -->
<svg version="1.1" id="Layer_1" xmlns="http://www.w3.org/2000/svg" xmlns:xlink="http://www.w3.org/1999/xlink" x="0px" y="0px"
	 viewBox="0 0 64 81" style="enable-background:new 0 0 64 81;" xml:space="preserve">
<style type="text/css">
	.st0{fill:none;}
	.st1{fill:#FFFFFF;}
</style>
<g>
	<path class="st0" d="M32,4c-6.4,0-11.7,5.3-11.7,11.8h23.4C43.7,9.3,38.4,4,32,4z"/>
	<path class="st0" d="M47.7,19.9V27c0,1.1-0.9,2-2,2s-2-0.9-2-2v-7.1H20.3V27c0,1.1-0.9,2-2,2s-2-0.9-2-2v-7.1H8.4L4,70.5
		c0,3.6,3.5,6.5,7.9,6.5h40.3c4.3,0,7.8-2.9,7.9-6.5l-4.4-50.6L47.7,19.9z M42.8,59.2c0.8,0.8,0.8,2.1,0,3c-0.4,0.4-0.9,0.6-1.5,0.6
		c-0.5,0-1.1-0.2-1.5-0.6l-7.8-8l-7.9,7.9c-0.4,0.4-0.9,0.6-1.5,0.6c-0.5,0-1.1-0.2-1.5-0.6c-0.8-0.8-0.8-2.1,0-3l7.9-7.9l-7.9-7.9
		c-0.8-0.8-0.8-2.1,0-3c0.8-0.8,2.1-0.8,2.9,0l7.9,7.9l7.9-7.9c0.8-0.8,2.1-0.8,2.9,0c0.8,0.8,0.8,2.1,0,3l-7.9,7.9L42.8,59.2z"/>
	<g>
		<path class="st0" d="M47.7,19.9V27c0,1.1-0.9,2-2,2s-2-0.9-2-2v-7.1H20.3V27c0,1.1-0.9,2-2,2s-2-0.9-2-2v-7.1H8.4L4,70.5
			c0,3.6,3.5,6.5,7.9,6.5h40.3c4.3,0,7.8-2.9,7.9-6.5l-4.4-50.6L47.7,19.9z M42.8,59.2c0.8,0.8,0.8,2.1,0,3
			c-0.4,0.4-0.9,0.6-1.5,0.6c-0.5,0-1.1-0.2-1.5-0.6l-7.8-8l-7.9,7.9c-0.4,0.4-0.9,0.6-1.5,0.6c-0.5,0-1.1-0.2-1.5-0.6
			c-0.8-0.8-0.8-2.1,0-3l7.9-7.9l-7.9-7.9c-0.8-0.8-0.8-2.1,0-3c0.8-0.8,2.1-0.8,2.9,0l7.9,7.9l7.9-7.9c0.8-0.8,2.1-0.8,2.9,0
			c0.8,0.8,0.8,2.1,0,3l-7.9,7.9L42.8,59.2z"/>
		<path class="st0" d="M32,4c-6.4,0-11.7,5.3-11.7,11.8h23.4C43.7,9.3,38.4,4,32,4z"/>
		<path class="st1" d="M59.4,17.7c-0.1-1-0.9-1.8-2-1.8h-9.7C47.7,7.1,40.6,0,32,0S16.3,7.1,16.3,15.8H6.6c-1,0-1.9,0.8-2,1.8
			L0,70.2v0.2C0,76.2,5.3,81,11.9,81h40.3C58.7,81,64,76.2,64,70.4v-0.2L59.4,17.7z M32,4c6.5,0,11.7,5.3,11.7,11.8H20.3
			C20.3,9.3,25.6,4,32,4z M52.1,77H11.9C7.5,77,4,74.1,4,70.5l4.4-50.6h7.9V27c0,1.1,0.9,2,2,2s2-0.9,2-2v-7.1h23.4V27
			c0,1.1,0.9,2,2,2s2-0.9,2-2v-7.1h7.9L60,70.5C60,74.1,56.5,77,52.1,77z"/>
		<path class="st1" d="M42.8,40.3c-0.8-0.8-2.1-0.8-2.9,0l-7.9,8l-7.9-7.9c-0.8-0.8-2.1-0.8-2.9,0s-0.8,2.1,0,3l7.9,7.9l-7.9,7.9
			c-0.8,0.8-0.8,2.1,0,3c0.4,0.4,0.9,0.6,1.5,0.6c0.5,0,1.1-0.2,1.5-0.6l7.9-7.9l7.9,7.9c0.4,0.4,0.9,0.6,1.5,0.6
			c0.5,0,1.1-0.2,1.5-0.6c0.8-0.8,0.8-2.1,0-3l-7.9-7.9l7.9-7.9C43.6,42.5,43.6,41.1,42.8,40.3z"/>
	</g>
</g>
</svg>
