<?xml version="1.0" encoding="utf-8"?>
<!-- Generator: Adobe Illustrator 21.1.0, SVG Export Plug-In . SVG Version: 6.00 Build 0)  -->
<svg version="1.1" id="Layer_1" xmlns="http://www.w3.org/2000/svg" xmlns:xlink="http://www.w3.org/1999/xlink" x="0px" y="0px"
	 width="30px" height="30px" viewBox="0 0 30 30" enable-background="new 0 0 30 30" xml:space="preserve">
<g>
	<path fill="#7D3DAF" d="M15,0L15,0c8.284,0,15,6.716,15,15v0c0,8.284-6.716,15-15,15h0C6.716,30,0,23.284,0,15v0
		C0,6.716,6.716,0,15,0z"/>
	<g>
		<path fill="#FFFFFF" d="M24.488,9.67l-0.006-0.023c-0.479-1.938-2.64-4.016-4.624-4.449l-0.022-0.004
			c-3.209-0.612-6.463-0.612-9.672,0l-0.023,0.004C8.158,5.63,5.998,7.709,5.518,9.647L5.512,9.67c-0.592,2.706-0.592,5.449,0,8.155
			l0.006,0.024c0.459,1.855,2.459,3.838,4.369,4.383v2.163c0,0.783,0.954,1.167,1.496,0.602l2.191-2.278
			c0.475,0.027,0.951,0.041,1.426,0.041c1.616,0,3.232-0.153,4.836-0.459l0.022-0.005c1.984-0.432,4.144-2.511,4.624-4.449
			l0.006-0.024C25.08,15.12,25.08,12.376,24.488,9.67L24.488,9.67z M22.754,17.433c-0.32,1.264-1.96,2.835-3.264,3.126
			c-1.706,0.325-3.426,0.463-5.144,0.416c-0.034-0.001-0.067,0.012-0.091,0.037c-0.244,0.25-1.6,1.642-1.6,1.642l-1.702,1.746
			c-0.124,0.13-0.343,0.041-0.343-0.138v-3.582c0-0.059-0.042-0.11-0.1-0.121l-0.001,0c-1.303-0.29-2.943-1.862-3.263-3.126
			c-0.533-2.445-0.533-4.925,0-7.37c0.32-1.264,1.96-2.835,3.263-3.126c2.98-0.567,6.002-0.567,8.981,0
			c1.304,0.29,2.944,1.862,3.264,3.126C23.288,12.508,23.288,14.987,22.754,17.433L22.754,17.433z M22.754,17.433"/>
		<path fill="#FFFFFF" d="M17.835,19.086c-0.201-0.061-0.392-0.102-0.569-0.175c-1.838-0.762-3.529-1.746-4.869-3.254
			c-0.762-0.857-1.358-1.825-1.862-2.85c-0.239-0.486-0.44-0.991-0.646-1.492c-0.187-0.457,0.089-0.93,0.379-1.274
			c0.273-0.323,0.623-0.571,1.003-0.753c0.296-0.142,0.589-0.06,0.805,0.191c0.468,0.543,0.898,1.114,1.245,1.743
			c0.214,0.387,0.156,0.86-0.232,1.124c-0.094,0.064-0.18,0.139-0.268,0.212c-0.077,0.064-0.149,0.128-0.202,0.213
			c-0.096,0.157-0.101,0.342-0.039,0.513c0.478,1.315,1.284,2.337,2.607,2.887c0.212,0.088,0.424,0.191,0.668,0.162
			c0.409-0.048,0.541-0.496,0.827-0.73c0.28-0.229,0.637-0.232,0.939-0.041c0.301,0.191,0.594,0.395,0.884,0.602
			c0.285,0.203,0.569,0.402,0.832,0.634c0.253,0.223,0.34,0.515,0.198,0.817c-0.261,0.554-0.64,1.014-1.187,1.308
			C18.194,19.006,18.009,19.033,17.835,19.086C17.635,19.026,18.009,19.033,17.835,19.086L17.835,19.086z M17.835,19.086"/>
		<path fill="#FFFFFF" d="M15.005,8.654c2.404,0.067,4.378,1.663,4.801,4.039c0.072,0.405,0.098,0.819,0.13,1.23
			c0.013,0.173-0.084,0.337-0.271,0.339c-0.192,0.002-0.279-0.159-0.292-0.332c-0.025-0.342-0.042-0.686-0.089-1.025
			c-0.249-1.791-1.677-3.272-3.459-3.59c-0.268-0.048-0.543-0.06-0.814-0.089c-0.172-0.018-0.397-0.028-0.435-0.242
			c-0.032-0.179,0.119-0.321,0.29-0.331C14.912,8.652,14.959,8.654,15.005,8.654C17.409,8.722,14.959,8.654,15.005,8.654
			L15.005,8.654z M15.005,8.654"/>
		<path fill="#FFFFFF" d="M18.658,13.39c-0.004,0.03-0.006,0.101-0.023,0.167c-0.064,0.241-0.43,0.271-0.514,0.028
			c-0.025-0.072-0.029-0.155-0.029-0.232c-0.001-0.509-0.111-1.018-0.368-1.461c-0.264-0.455-0.667-0.838-1.14-1.07
			c-0.286-0.14-0.595-0.227-0.909-0.279c-0.137-0.022-0.275-0.036-0.413-0.056c-0.167-0.023-0.256-0.129-0.248-0.294
			c0.007-0.154,0.12-0.265,0.288-0.255c0.552,0.031,1.085,0.151,1.575,0.41c0.997,0.528,1.567,1.362,1.733,2.475
			c0.007,0.05,0.02,0.1,0.023,0.151C18.642,13.1,18.648,13.225,18.658,13.39C18.654,13.42,18.648,13.225,18.658,13.39L18.658,13.39z
			 M18.658,13.39"/>
		<path fill="#FFFFFF" d="M17.163,13.332c-0.201,0.004-0.309-0.108-0.329-0.292c-0.014-0.129-0.026-0.259-0.057-0.384
			c-0.06-0.247-0.191-0.475-0.399-0.626c-0.098-0.071-0.209-0.123-0.325-0.157c-0.148-0.043-0.301-0.031-0.448-0.067
			c-0.16-0.039-0.248-0.168-0.223-0.319c0.023-0.136,0.156-0.243,0.305-0.232c0.932,0.067,1.598,0.549,1.693,1.646
			c0.007,0.077,0.015,0.159-0.003,0.233C17.348,13.262,17.254,13.325,17.163,13.332C16.962,13.335,17.254,13.325,17.163,13.332
			L17.163,13.332z M17.163,13.332"/>
	</g>
</g>
</svg>
