<?xml version="1.0" encoding="utf-8"?>
<!-- Generator: Adobe Illustrator 21.1.0, SVG Export Plug-In . SVG Version: 6.00 Build 0)  -->
<svg version="1.1" id="Layer_1" xmlns="http://www.w3.org/2000/svg" xmlns:xlink="http://www.w3.org/1999/xlink" x="0px" y="0px"
	 width="30px" height="30px" viewBox="0 0 30 30" enable-background="new 0 0 30 30" xml:space="preserve">
<path fill="#1BD741" d="M15,0L15,0c8.284,0,15,6.716,15,15v0c0,8.284-6.716,15-15,15h0C6.716,30,0,23.284,0,15v0
	C0,6.716,6.716,0,15,0z"/>
<path fill="#FFFFFF" d="M5.594,24.416l1.317-4.679c-0.847-1.439-1.293-3.077-1.293-4.759c0-5.18,4.214-9.394,9.394-9.394
	s9.394,4.214,9.394,9.394c0,5.18-4.214,9.394-9.394,9.394c-1.614,0-3.194-0.413-4.592-1.198L5.594,24.416z M10.666,21.465
	l0.287,0.176c1.219,0.744,2.622,1.137,4.058,1.137c4.301,0,7.8-3.499,7.8-7.8c0-4.301-3.499-7.8-7.8-7.8s-7.8,3.499-7.8,7.8
	c0,1.499,0.426,2.954,1.232,4.209l0.194,0.301l-0.759,2.695L10.666,21.465z M10.666,21.465"/>
<path fill="#FFFFFF" d="M12.373,10.606l-0.61-0.033c-0.192-0.01-0.379,0.054-0.524,0.179c-0.296,0.257-0.768,0.753-0.913,1.399
	c-0.216,0.964,0.118,2.144,0.984,3.325c0.866,1.18,2.479,3.069,5.331,3.875c0.919,0.26,1.642,0.085,2.2-0.272
	c0.442-0.283,0.747-0.736,0.857-1.249l0.097-0.454c0.031-0.145-0.042-0.291-0.177-0.353l-2.06-0.95
	c-0.134-0.062-0.293-0.023-0.382,0.094l-0.809,1.048c-0.061,0.079-0.166,0.111-0.26,0.077c-0.554-0.195-2.409-0.972-3.427-2.933
	c-0.044-0.085-0.033-0.188,0.029-0.261l0.773-0.894c0.079-0.091,0.099-0.22,0.051-0.331l-0.888-2.077
	C12.599,10.686,12.493,10.612,12.373,10.606L12.373,10.606z M12.373,10.606"/>
</svg>
