<svg id="Layer_1" xmlns="http://www.w3.org/2000/svg" viewBox="0 0 42 32"><style>.st0{fill:#5b5b5b}</style><path class="st0" d="M13 0H1.3C.6 0 0 .6 0 1.4v10.7c0 .8.6 1.4 1.3 1.4.8 0 1.3-.6 1.3-1.4V2.9H13c.8 0 1.3-.6 1.3-1.4C14.3.6 13.7 0 13 0zM40.7 0H29c-.8 0-1.3.6-1.3 1.4s.6 1.4 1.3 1.4h10.3v9.3c0 .8.6 1.4 1.3 1.4.8 0 1.3-.6 1.3-1.4V1.4C42 .6 41.4 0 40.7 0zM13 29.1H2.6v-9.3c0-.8-.6-1.4-1.3-1.4-.7 0-1.3.6-1.3 1.4v10.7c0 .9.6 1.5 1.3 1.5H13c.8 0 1.3-.6 1.3-1.4 0-.8-.6-1.5-1.3-1.5zM40.7 18.4c-.8 0-1.3.6-1.3 1.4v9.3H29c-.8 0-1.3.6-1.3 1.4S28.3 32 29 32h11.6c.8 0 1.3-.6 1.3-1.4V19.8c.1-.8-.5-1.4-1.2-1.4zM13 23.6V9.5c0-.9-.7-1.6-1.8-1.6-1 0-1.8.7-1.8 1.6v14.2c0 .9.7 1.6 1.8 1.6 1-.1 1.8-.8 1.8-1.7zM17.8 7.9c-1 0-1.8.7-1.8 1.6v14.2c0 .9.7 1.6 1.8 1.6 1 0 1.8-.7 1.8-1.6V9.5c-.1-.8-.9-1.6-1.8-1.6zM24.3 7.9c-1 0-1.8.7-1.8 1.6v14.2c0 .9.7 1.6 1.8 1.6 1 0 1.8-.7 1.8-1.6V9.5c0-.8-.9-1.6-1.8-1.6zM32.7 23.6V9.5c0-.9-.7-1.6-1.8-1.6-1 0-1.8.7-1.8 1.6v14.2c0 .9.7 1.6 1.8 1.6 1-.1 1.8-.8 1.8-1.7z"/></svg>