<?xml version="1.0" encoding="utf-8"?>
<!-- Generator: Adobe Illustrator 21.1.0, SVG Export Plug-In . SVG Version: 6.00 Build 0)  -->
<svg version="1.1" id="Layer_1" xmlns="http://www.w3.org/2000/svg" xmlns:xlink="http://www.w3.org/1999/xlink" x="0px" y="0px"
	 viewBox="0 0 58 58" style="enable-background:new 0 0 58 58;" xml:space="preserve">
<style type="text/css">
	.st0{fill:#F58322;}
</style>
<g>
	<path class="st0" d="M57.5,28.9l-13.5-9.9c-0.2-0.1-0.4-0.2-0.7-0.2H14.6c-0.3,0-0.5,0.1-0.7,0.2L0.5,28.9C0.2,29.2,0,29.5,0,29.9
		v26.9C0,57.5,0.5,58,1.2,58h55.6c0.6,0,1.2-0.5,1.2-1.2V29.9C58,29.5,57.8,29.2,57.5,28.9z M23.9,39.8v-8.1c0-0.3,0.3-0.6,0.6-0.6
		h9c0.3,0,0.6,0.3,0.6,0.6v8.1c0,0.3-0.3,0.6-0.6,0.6h-9C24.2,40.4,23.9,40.1,23.9,39.8z M33.2,28.5c-0.1,0.2-0.3,0.3-0.5,0.3h-7.5
		c-0.2,0-0.4-0.1-0.5-0.3c-0.1-0.2-0.1-0.4-0.1-0.5l2.3-6.3c0.1-0.2,0.3-0.4,0.6-0.4h2.9c0.2,0,0.5,0.2,0.6,0.4l2.3,6.3
		C33.4,28.1,33.3,28.3,33.2,28.5z M51.9,28.3c-0.1,0.2-0.2,0.4-0.6,0.4H36.5c-0.2,0-0.5-0.2-0.6-0.4l-0.7-1.8
		c-0.1-0.2,0-0.4,0.1-0.5c0.1-0.2,0.3-0.3,0.5-0.3h13c0.1,0,0.2,0,0.3,0.1l2.5,1.8C52,27.8,52,28.1,51.9,28.3z M22.6,26
		c0.1,0.2,0.1,0.4,0.1,0.5L22,28.3c-0.1,0.2-0.3,0.4-0.6,0.4H6.6c-0.3,0-0.5-0.2-0.6-0.4c-0.1-0.2,0-0.5,0.2-0.7l2.5-1.8
		c0.1-0.1,0.2-0.1,0.3-0.1h13C22.3,25.7,22.5,25.8,22.6,26z M21.5,31.7v9.9c0,0.6,0.5,1.2,1.2,1.2h12.6c0.6,0,1.2-0.5,1.2-1.2v-9.9
		c0-0.3,0.3-0.6,0.6-0.6h18c0.3,0,0.6,0.3,0.6,0.6V55c0,0.3-0.3,0.6-0.6,0.6H3c-0.3,0-0.6-0.3-0.6-0.6V31.7c0-0.3,0.3-0.6,0.6-0.6
		h18C21.3,31.1,21.5,31.4,21.5,31.7z M44.6,22.9c-0.1,0.2-0.2,0.4-0.6,0.4h-9.5c-0.2,0-0.5-0.2-0.6-0.4L33.7,22
		c-0.1-0.2,0-0.4,0.1-0.5c0.1-0.2,0.3-0.3,0.5-0.3h8.5c0.1,0,0.2,0,0.3,0.1l1.3,0.9C44.6,22.4,44.7,22.7,44.6,22.9z M24.3,22
		L24,22.9c-0.1,0.2-0.3,0.4-0.6,0.4H14c-0.3,0-0.5-0.2-0.6-0.4c-0.1-0.2,0-0.5,0.2-0.7l1.3-0.9c0.1-0.1,0.2-0.1,0.3-0.1h8.5
		c0.2,0,0.4,0.1,0.5,0.3C24.4,21.6,24.4,21.8,24.3,22z"/>
	<path class="st0" d="M13.7,52h-9c-0.7,0-1.2,0.5-1.2,1.2c0,0.7,0.5,1.2,1.2,1.2h9c0.7,0,1.2-0.5,1.2-1.2C14.9,52.6,14.4,52,13.7,52
		z"/>
	<path class="st0" d="M18.2,52h-0.9c-0.7,0-1.2,0.5-1.2,1.2c0,0.7,0.5,1.2,1.2,1.2h0.9c0.7,0,1.2-0.5,1.2-1.2
		C19.4,52.6,18.9,52,18.2,52z"/>
	<path class="st0" d="M4.8,50.8h2.7c0.7,0,1.2-0.5,1.2-1.2s-0.5-1.2-1.2-1.2H4.8c-0.7,0-1.2,0.5-1.2,1.2S4.1,50.8,4.8,50.8z"/>
	<path class="st0" d="M11.1,50.8H12c0.7,0,1.2-0.5,1.2-1.2s-0.5-1.2-1.2-1.2h-0.9c-0.7,0-1.2,0.5-1.2,1.2S10.4,50.8,11.1,50.8z"/>
	<path class="st0" d="M36.6,53.5h12.6c0.4,0,0.7-0.3,0.7-0.7v-2.7c0-0.1,0.1-0.2,0.2-0.2h1.8c0.4,0,0.7-0.3,0.7-0.7V42
		c0-0.4-0.3-0.7-0.7-0.7H41.1c-0.4,0-0.7,0.3-0.7,0.7v3.6c0,0.1-0.1,0.2-0.2,0.2h-3.6c-0.4,0-0.7,0.3-0.7,0.7v6.3
		C35.9,53.2,36.2,53.5,36.6,53.5z M38.3,51v-2.7c0-0.1,0.1-0.2,0.2-0.2h9c0.1,0,0.2,0.1,0.2,0.2V51c0,0.1-0.1,0.2-0.2,0.2h-9
		C38.3,51.1,38.3,51.1,38.3,51z M49.2,45.8h-6.3c-0.1,0-0.2-0.1-0.2-0.2v-1.8c0-0.1,0.1-0.2,0.2-0.2h7.2c0.1,0,0.2,0.1,0.2,0.2v3.6
		c0,0.1-0.1,0.2-0.2,0.2s-0.2-0.1-0.2-0.2v-0.9C49.9,46.1,49.6,45.8,49.2,45.8z"/>
	<path class="st0" d="M17.5,15.8h8c0.2,0,0.4,0.1,0.5,0.2l2,2c0.3,0.3,0.6,0.4,0.9,0.4c0.3,0,0.7-0.1,0.9-0.4l2-2
		c0.1-0.1,0.3-0.2,0.5-0.2h8c0.7,0,1.3-0.6,1.3-1.3V1.3c0-0.7-0.6-1.3-1.3-1.3h-23c-0.7,0-1.3,0.6-1.3,1.3v13.2
		C16.1,15.2,16.7,15.8,17.5,15.8z M18.5,12.7V3.1c0-0.4,0.3-0.8,0.8-0.8h19.4c0.4,0,0.8,0.3,0.8,0.8v9.6c0,0.4-0.3,0.8-0.8,0.8h-7
		c-0.4,0-0.7,0.1-0.9,0.4l-1.3,1.3c-0.1,0.1-0.3,0.2-0.5,0.2c-0.2,0-0.4-0.1-0.5-0.2l-1.3-1.3c-0.3-0.3-0.6-0.4-0.9-0.4h-7
		C18.9,13.5,18.5,13.1,18.5,12.7z"/>
	<path class="st0" d="M24.2,9.8c0.1,0.1,0.3,0.2,0.5,0.2c0.2,0,0.4-0.1,0.5-0.2l0.6-0.6c0.3-0.3,0.3-0.8,0-1.1
		c-0.1-0.1-0.1-0.2,0-0.2c0,0,0.1-0.1,0.2-0.1h7c0.1,0,0.2,0.1,0.2,0.2v1.7c0,0.1-0.1,0.2-0.2,0.2h-3.5c-0.4,0-0.8,0.3-0.8,0.8v0.8
		c0,0.4,0.3,0.8,0.8,0.8h5.3c0.4,0,0.8-0.3,0.8-0.8V6.2c0-0.4-0.3-0.8-0.8-0.8H26c-0.1,0-0.2-0.1-0.2-0.1c0,0,0-0.1,0-0.2l0,0
		c0.1-0.1,0.2-0.3,0.2-0.5S26.1,4.1,25.9,4l-0.6-0.6c-0.3-0.3-0.8-0.3-1.1,0L21.6,6c-0.3,0.3-0.3,0.8,0,1.1L24.2,9.8z"/>
</g>
</svg>
